<?xml version="1.0" standalone="no"?>
<!DOCTYPE svg PUBLIC "-//W3C//DTD SVG 1.1//EN" "http://www.w3.org/Graphics/SVG/1.1/DTD/svg11.dtd" >
<svg xmlns="http://www.w3.org/2000/svg" xmlns:xlink="http://www.w3.org/1999/xlink" version="1.1">
<metadata>
Created by FontForge 20201107 at Mon Dec 27 21:49:48 2021
 By 
Copyright (c) 2022 by www.fontiran.com (Moslem Ebrahimi). All rights reserved.
</metadata>
<defs>
<font id="Dana-Light" horiz-adv-x="0" >
  <font-face 
    font-family="Dana Light"
    font-weight="300"
    font-stretch="normal"
    units-per-em="1000"
    panose-1="0 0 0 0 0 0 0 0 0 0"
    ascent="800"
    descent="-200"
    x-height="522"
    cap-height="711"
    bbox="-116 -567 2122 987"
    underline-thickness="20"
    underline-position="-248"
    unicode-range="U+000D-FEFF"
  />
<missing-glyph horiz-adv-x="300" 
d="M40 512h220v-524h-220v524zM240 12v476h-180v-476h180z" />
    <glyph glyph-name="uni06AA" unicode="&#x6a9;&#x621;&#x621;" horiz-adv-x="931" 
d="M790.5 98q32.5 33 32.5 79q0 47 -32 79t-79 32l-359 -1l-20 47l151 270l52 -31l-127 -220h294q50 0 91 -23.5t64 -64t23 -88.5t-23.5 -89t-64 -64.5t-90.5 -23.5h-267h-190q-94 0 -144.5 41.5t-50.5 117.5q0 32 9 69l26 99l57 -16l-26 -102q-6 -25 -6 -46q0 -50 34 -74
t93 -24h196h278q46 0 78.5 33z" />
    <glyph glyph-name="uni06BE" unicode="&#x647;&#x621;&#x621;" horiz-adv-x="690" 
d="M140.5 145.5q-24.5 39.5 -24.5 85.5q0 39 16 72q26 53 77 77l-36 19l27 57l147 -78q3 0 5 -2l201 -106q41 -21 64 -60t23 -83q0 -35 -14 -63q-20 -42 -57.5 -65.5t-80.5 -23.5q-30 0 -63 14l-123 55q-86 -44 -197 -44h-54l12 65h42q66 0 119 14l-16 7q-43 20 -67.5 59.5z
M177 230q0 -27 15 -49.5t42 -35.5l69 -32q44 30 64 75q10 20 10 43q0 27 -15 51.5t-41 37.5q-24 11 -45 11q-28 0 -51.5 -14.5t-35.5 -39.5q-12 -22 -12 -47zM449 45q20 -9 40 -9q26 0 49 14t35 39q9 18 9 39q0 26 -14.5 49t-40.5 37l-95 49q4 -22 4 -34q0 -35 -15 -68
q-20 -42 -58 -76z" />
    <glyph glyph-name="uni06C0" unicode="&#x647;&#x654;" horiz-adv-x="426" 
d="M131.5 21.5q-37.5 22.5 -59.5 60.5t-22 83q0 39 19.5 79.5t55.5 74.5l49 47l-37 37l41 46l110 -108q47 -47 67.5 -87t20.5 -89q0 -45 -22 -83t-59.5 -60.5t-81.5 -22.5t-81.5 22.5zM149 534q63 5 91 10.5t28 19.5q0 12 -11.5 17.5t-32.5 9.5t-29 6q-44 10 -62.5 21.5
t-18.5 33.5q0 16 11 44q15 37 41 56t59 19q19 0 40 -6l37 -12l-10 -34l-37 11q-18 5 -30 5q-47 0 -71 -53q-6 -13 -6 -22q0 -10 11.5 -15.5t42.5 -12.5q39 -9 57.5 -15t29 -18t10.5 -35q0 -28 -20 -41t-54 -17.5t-117 -11.5l-2 36zM138.5 93q30.5 -30 74.5 -30q45 0 75 29.5
t30 72.5q0 31 -14 58.5t-56 69.5l-32 32l-48 -47q-60 -60 -60 -113q0 -42 30.5 -72z" />
    <glyph glyph-name="uni06D2" unicode="&#x649;&#x621;&#x621;" horiz-adv-x="925" 
d="M280 306.5q-5 -2.5 -11 -6.5q-56 -29 -85.5 -46t-43.5 -29t-22.5 -30t-8.5 -38q0 -39 26 -65.5t65 -26.5h675v-65h-673q-43 0 -78 21t-54.5 57t-19.5 79q0 33 13.5 64t35.5 51q16 15 43.5 30t92.5 48l30 15l24 -54z" />
    <glyph glyph-name="uni06D3" unicode="&#x626;&#x621;&#x621;" horiz-adv-x="917" 
d="M280 306.5q-5 -2.5 -11 -6.5q-56 -29 -85.5 -46t-43.5 -29t-22.5 -30t-8.5 -38q0 -39 26 -65.5t65 -26.5h675v-65h-673q-43 0 -78 21t-54.5 57t-19.5 79q0 33 13.5 64t35.5 51q16 15 43.5 30t92.5 48l30 15l24 -54zM193 495q-25 21 -33 54q-3 11 -3 22q0 39 27.5 65.5
t68.5 26.5q27 0 72 -9l-7 -34q-42 8 -67 8q-27 0 -44 -17t-17 -41q0 -28 21 -45.5t48 -13.5l104 25l7 -35l-99 -24l-4 -1l-155 -37l-8 35z" />
    <glyph glyph-name="uni06C0.fina" unicode="&#xfeea;&#x654;" horiz-adv-x="509" arabic-form="final" 
d="M202 73q-46 0 -88 31.5t-56 77.5q-8 26 -8 49q0 49 29.5 91t76.5 58l153 50v49h59v-289q0 -52 37 -88.5t90 -36.5h19l4 -32l-4 -33h-19q-50 0 -93 25t-67 68l-116 -19q-6 -1 -17 -1zM146.5 157.5q25.5 -19.5 55.5 -19.5q9 0 13 1l97 16q-3 18 -3 35v176l-134 -46
q-31 -10 -48.5 -34.5t-17.5 -53.5q0 -15 4 -27q8 -28 33.5 -47.5zM199 547q63 5 91 10.5t28 19.5q0 13 -13 18t-59 15q-45 10 -63.5 21.5t-18.5 33.5q0 16 11 44q16 37 41.5 56t58.5 19q19 0 40 -6l37 -12l-9 -34l-37 11q-18 5 -31 5q-48 0 -70 -53q-7 -16 -7 -22
q0 -10 11.5 -15.5t43.5 -12.5q39 -9 57.5 -15t28.5 -18t10 -35q0 -28 -20 -41t-53.5 -17.5t-116.5 -11.5l-3 36z" />
    <glyph glyph-name="uni06C1.fina" unicode="&#xfeea;&#x621;&#x621;" horiz-adv-x="488" arabic-form="final" 
d="M86 -12l-30 102q-7 22 -7 50q0 56 30.5 101t83.5 60l134 43l38 -28l11 -131q4 -54 37.5 -87t87.5 -33h22l6 -32l-6 -33h-22q-73 0 -121 46.5t-57 125.5l-7 103l-105 -36q-35 -12 -54 -39t-19 -61q0 -17 6 -37l28 -97z" />
    <glyph glyph-name="uni06C1.medi" unicode="&#xfeec;&#xfe8c;&#xfe8c;&#xfe8c;&#xfe8c;" horiz-adv-x="519" arabic-form="medial" 
d="M262.5 -206.5q-45.5 29.5 -77 83t-32.5 127.5q0 26 5 59q-27 -29 -65.5 -46t-84.5 -17h-13v65h13q74 0 120 43.5t74 111.5l54 -19q-21 -61 -32.5 -107.5t-11.5 -87.5q0 -77 40.5 -123t88.5 -59v99q0 38 18 71t49.5 52t69.5 19h45l4 -32l-4 -33h-45q-33 0 -56.5 -22.5
t-23.5 -54.5v-133l-45 -36q-45 10 -90.5 39.5z" />
    <glyph glyph-name="uni06BE.fina" unicode="&#xfeea;&#x621;&#x621;&#x621;&#x621;" horiz-adv-x="503" arabic-form="final" 
d="M190.5 -198.5q-34.5 26.5 -55 76.5t-19.5 120l-83 -9l9 58l75 9q17 84 100 316l40 20l67 -18q42 -12 66.5 -53t24.5 -92q0 -38 -13 -68q-20 -55 -74 -96h180l4 -32l-4 -33h-111q29 -41 29 -93q0 -38 -17.5 -70t-48.5 -50.5t-71 -18.5q-7 0 -23 2q-41 5 -75.5 31.5z
M182.5 -92.5q16.5 -40.5 44.5 -60t60 -19.5q38 0 63.5 25t25.5 63q0 32 -21 57.5t-52 28.5l-134 5q-3 -59 13.5 -99.5zM281 97.5q55 32.5 74 79.5q10 23 10 48q0 32 -15.5 58t-38.5 33l-50 15q-76 -209 -87 -268q52 2 107 34.5z" />
    <glyph glyph-name="uni06BE.medi" unicode="&#xfeec;&#xfe8c;&#xfe8c;&#xfe8c;" horiz-adv-x="599" arabic-form="medial" 
d="M76 144.5q-25 39.5 -25 85.5q0 36 17 73q26 54 76 77l-36 19l27 57l140 -74l5 -2l16 -9l192 -101q41 -21 64.5 -59.5t23.5 -81.5q0 -32 -15 -64h43l4 -32l-4 -33q-59 0 -92 4q-40 -29 -89 -29q-34 0 -62 14l-123 55q-86 -44 -197 -44h-46v65h46q68 0 119 14l-16 7
q-43 19 -68 58.5zM113 231q0 -28 15 -50.5t42 -35.5l67 -31q47 31 66 74q10 23 10 43q0 28 -15 52.5t-41 37.5q-24 11 -45 11q-28 0 -51.5 -15t-36.5 -40q-11 -24 -11 -46zM385 45q20 -9 39 -9q27 0 50 14.5t35 38.5q8 16 8 38q0 26 -14.5 49.5t-40.5 37.5l-94 49
q3 -15 3 -32q0 -35 -15 -70q-20 -44 -57 -76z" />
    <glyph glyph-name="uni06D2.fina" unicode="&#xfbfd;&#x621;&#x621;" horiz-adv-x="303" arabic-form="final" 
d="M128 -239q-36 22 -57 59.5t-21 80.5q0 44 21 81.5t57.5 60t80.5 22.5h98v-65h-101q-41 0 -69 -28.5t-28 -69.5t28 -69t68 -28h366v-66h-363q-44 0 -80 22z" />
    <glyph glyph-name="uni06D3.fina" unicode="&#xfe8a;&#x621;&#x621;" horiz-adv-x="303" arabic-form="final" 
d="M128 -239q-36 22 -57 59.5t-21 80.5q0 44 21 81.5t57.5 60t80.5 22.5h98v-65h-101q-41 0 -69 -28.5t-28 -69.5t28 -69t68 -28h366v-66h-363q-44 0 -80 22zM127 192q-25 22 -32 53q-3 11 -3 22q0 39 27.5 66t68.5 27q27 0 72 -9l-7 -35q-42 8 -67 8q-27 0 -44 -16.5
t-17 -40.5q0 -28 21 -45.5t48 -13.5l104 25l7 -36l-258 -61l-8 35z" />
    <glyph glyph-name="uniFDF2" unicode="&#x627;&#xfedf;&#xfee0;&#xfeea;" horiz-adv-x="1281" arabic-form="isolated" 
d="M1127 649l59 3l25 -651l-59 -3zM50 231q0 49 29.5 91t76.5 58l153 50v49h59v-289q0 -52 37 -88.5t90 -36.5h32q59 0 80 27.5t19 62.5l-19 330l59 3l18 -309v-3q3 -66 30 -88.5t69 -22.5h33q58 0 79 27.5t19 62.5l-19 494l59 3l19 -494q2 -38 -13 -74.5t-51 -60t-93 -23.5
h-33q-41 0 -72.5 13t-51.5 48q-42 -61 -132 -61h-32q-50 0 -93 25t-67 68l-116 -19q-6 -1 -17 -1q-46 0 -88 31.5t-56 77.5q-8 26 -8 49zM146.5 157.5q25.5 -19.5 55.5 -19.5q9 0 13 1l97 16q-3 18 -3 35v176l-134 -46q-31 -10 -48.5 -34.5t-17.5 -53.5q0 -15 4 -27
q8 -28 33.5 -47.5zM522 692l29 -8l-10 -44q-2 -10 -2 -14q0 -15 10.5 -24t29.5 -9t29.5 9.5t10.5 23.5l1 58h27l1 -58q0 -14 10.5 -23.5t29.5 -9.5q20 0 30.5 9t10.5 25q0 8 -1 12l-17 65l29 8l18 -66q3 -12 3 -23q0 -29 -20 -48t-53 -19q-38 0 -54 26q-18 -26 -55 -26
q-32 0 -51.5 18.5t-19.5 48.5q0 10 3 22zM618 891h32v-163h-32v163z" />
    <glyph glyph-name="uni06440622" unicode="&#xfedf;&#xfe82;" horiz-adv-x="538" arabic-form="isolated" 
d="M91 65h240q58 0 79 27.5t19 62.5l-19 494l59 3l19 -494q2 -38 -13.5 -74.5t-51 -60t-92.5 -23.5h-240v65zM-8 671q0 35 20.5 56t54.5 21q7 0 21 -2l101 -19q5 -1 14 -1q21 0 32.5 11t11.5 31v7l33 2v-15q0 -35 -21.5 -56.5t-55.5 -21.5q-6 0 -20 2l-101 19q-10 2 -15 2
q-20 0 -31 -11.5t-11 -30.5v-7l-33 -2v15zM108 616l77 -480l-58 -12l-77 480z" />
    <glyph glyph-name="uni06440622.fina" unicode="&#xfee0;&#xfe82;" horiz-adv-x="601" arabic-form="final" 
d="M513.5 13q-31.5 13 -51.5 48q-42 -61 -131 -61h-240v65h240q58 0 79 27.5t19 62.5l-19 494l59 3l19 -486q5 -59 31.5 -80t66.5 -21h20l4 -32l-4 -33h-20q-41 0 -72.5 13zM1 651q0 35 21 56.5t55 21.5q6 0 20 -2l101 -19q10 -2 15 -2q20 0 31.5 11.5t11.5 30.5v7l32 2v-15
q0 -35 -20.5 -56t-54.5 -21q-7 0 -21 2l-101 19q-5 1 -14 1q-21 0 -32.5 -11t-11.5 -31v-7l-32 -2v15zM108 616l77 -480l-58 -12l-77 480z" />
    <glyph glyph-name="uni06440623" unicode="&#xfedf;&#xfe84;" horiz-adv-x="538" arabic-form="isolated" 
d="M91 65h240q58 0 79 27.5t19 62.5l-19 494l59 3l19 -494q2 -38 -13.5 -74.5t-51 -60t-92.5 -23.5h-240v65zM77 710q-24 20 -32 53q-3 12 -3 23q0 38 27.5 65t67.5 27q27 0 72 -9l-6 -35q-45 9 -70 9q-26 0 -42.5 -17t-16.5 -40q0 -28 21 -46t48 -14l104 25l7 -35l-98 -24
l-8 -2l-152 -36l-8 35zM108 616l77 -480l-58 -12l-77 480z" />
    <glyph glyph-name="uni06440623.fina" unicode="&#xfee0;&#xfe84;" horiz-adv-x="601" arabic-form="final" 
d="M513.5 13q-31.5 13 -51.5 48q-42 -61 -131 -61h-240v65h240q58 0 79 27.5t19 62.5l-19 494l59 3l19 -486q5 -59 31.5 -80t66.5 -21h20l4 -32l-4 -33h-20q-41 0 -72.5 13zM77 711q-25 21 -32 54q-3 12 -3 23q0 38 27.5 64.5t67.5 26.5q27 0 72 -9l-6 -35q-45 9 -70 9
q-26 0 -42.5 -17t-16.5 -40q0 -27 21 -45.5t48 -14.5l104 25l7 -35l-98 -24l-8 -2l-152 -36l-8 35zM108 616l77 -480l-58 -12l-77 480z" />
    <glyph glyph-name="uni06440625" unicode="&#xfedf;&#xfe88;" horiz-adv-x="538" arabic-form="isolated" 
d="M91 65h240q58 0 79 27.5t19 62.5l-19 494l59 3l19 -494q2 -38 -13.5 -74.5t-51 -60t-92.5 -23.5h-240v65zM115 -201q-25 21 -33 54q-3 10 -3 22q0 39 27.5 66t68.5 27q27 0 71 -9l-6 -35q-42 8 -67 8q-28 0 -44.5 -16.5t-16.5 -40.5q0 -26 17.5 -43t41.5 -17q5 0 15 2
l98 23l8 -35l-259 -61l-7 34zM108 616l77 -480l-58 -12l-77 480z" />
    <glyph glyph-name="uni06440625.fina" unicode="&#xfee0;&#xfe88;" horiz-adv-x="601" arabic-form="final" 
d="M513.5 13q-31.5 13 -51.5 48q-42 -61 -131 -61h-240v65h240q58 0 79 27.5t19 62.5l-19 494l59 3l19 -486q5 -59 31.5 -80t66.5 -21h20l4 -32l-4 -33h-20q-41 0 -72.5 13zM127 -201q-25 21 -33 54q-3 10 -3 22q0 39 27.5 66t68.5 27q27 0 71 -9l-6 -35q-42 8 -67 8
q-28 0 -44.5 -16.5t-16.5 -40.5q0 -26 17.5 -43t41.5 -17q5 0 15 2l99 23l7 -35l-259 -61l-7 34zM108 616l77 -480l-58 -12l-77 480z" />
    <glyph glyph-name="uni06440627" unicode="&#xfedf;&#xfe8e;" horiz-adv-x="538" arabic-form="isolated" 
d="M91 65h240q58 0 79 27.5t19 62.5l-19 494l59 3l19 -494q2 -38 -13.5 -74.5t-51 -60t-92.5 -23.5h-240v65zM108 616l77 -480l-58 -12l-77 480z" />
    <glyph glyph-name="uni06440627.fina" unicode="&#xfee0;&#xfe8e;" horiz-adv-x="601" arabic-form="final" 
d="M513.5 13q-31.5 13 -51.5 48q-42 -61 -131 -61h-240v65h240q58 0 79 27.5t19 62.5l-19 494l59 3l19 -486q5 -59 31.5 -80t66.5 -21h20l4 -32l-4 -33h-20q-41 0 -72.5 13zM108 616l77 -480l-58 -12l-77 480z" />
    <glyph glyph-name="uni062C.fina.alt" unicode="&#xfe9e;&#x621;&#x621;" horiz-adv-x="727" 
d="M304 -355q-87 0 -154.5 50.5t-90.5 135.5q-9 30 -9 66q0 83 53.5 154t172.5 103l293 79l-238 128q-30 17 -65 17q-34 0 -64 -17.5t-49 -50.5l-18 -32l-51 31l19 34q28 48 70.5 74.5t90.5 26.5t95 -26l283 -157l-10 -76l-63 -17q9 -45 43.5 -74t82.5 -29h37l4 -32l-4 -33
h-37q-68 0 -117 43t-63 110l-224 -62q-99 -27 -140.5 -80t-41.5 -114q0 -27 6 -48q16 -62 69 -100t121 -38q30 0 58 7l254 70l15 -63l-257 -71q-36 -9 -71 -9zM324 -39h90v-90h-90v90z" />
    <glyph glyph-name="uni062C.alt" unicode="&#x62c;&#x621;&#x621;" horiz-adv-x="695" 
d="M304 -355q-87 0 -154.5 50.5t-90.5 135.5q-9 30 -9 66q0 83 53.5 154t172.5 103l293 79l-238 128q-30 17 -65 17q-34 0 -64 -17.5t-49 -50.5l-18 -32l-51 31l19 34q28 48 70.5 74.5t90.5 26.5t95 -26l283 -157l-10 -76l-341 -94q-99 -27 -140.5 -80t-41.5 -114
q0 -27 6 -48q16 -62 69 -100t121 -38q30 0 58 7l254 70l15 -63l-257 -71q-36 -9 -71 -9zM324 -39h90v-90h-90v90z" />
    <glyph glyph-name="uni0686.alt" unicode="&#x686;&#x621;&#x621;" horiz-adv-x="695" 
d="M304 -355q-87 0 -154.5 50.5t-90.5 135.5q-9 30 -9 66q0 83 53.5 154t172.5 103l293 79l-238 128q-30 17 -65 17q-34 0 -64 -17.5t-49 -50.5l-18 -32l-51 31l19 34q28 48 70.5 74.5t90.5 26.5t95 -26l283 -157l-10 -76l-341 -94q-99 -27 -140.5 -80t-41.5 -114
q0 -27 6 -48q16 -62 69 -100t121 -38q30 0 58 7l254 70l15 -63l-257 -71q-36 -9 -71 -9zM327 -11l22 -74l-73 -22l-23 74zM427 -96l20 -67l-69 -20l-20 67zM469 32l22 -74l-73 -22l-22 74z" />
    <glyph glyph-name="uni0686.fina.alt" unicode="&#xfb7b;&#x621;&#x621;" horiz-adv-x="727" 
d="M349 -118l69 21l21 -67l-69 -21zM50 -103q0 83 53.5 154t172.5 103l293 79l-238 128q-30 17 -65 17q-34 0 -64 -17.5t-49 -50.5l-18 -32l-51 31l19 34q28 48 70.5 74.5t90.5 26.5t95 -26l283 -157l-10 -76l-63 -17q9 -45 43.5 -74t82.5 -29h37l4 -32l-4 -33h-37
q-68 0 -117 43t-63 110l-224 -62q-99 -27 -140.5 -80t-41.5 -114q0 -27 6 -48q16 -62 69 -100t121 -38q30 0 58 7l254 70l15 -63l-257 -71q-36 -9 -71 -9q-87 0 -154.5 50.5t-90.5 135.5q-9 30 -9 66zM317 -13l23 -74l-73 -22l-23 74zM460 31l22 -74l-73 -22l-23 73z" />
    <glyph glyph-name="uni062D.alt" unicode="&#x62d;&#x621;&#x621;" horiz-adv-x="695" 
d="M304 -355q-87 0 -154.5 50.5t-90.5 135.5q-9 30 -9 66q0 83 53.5 154t172.5 103l293 79l-238 128q-30 17 -65 17q-34 0 -64 -17.5t-49 -50.5l-18 -32l-51 31l19 34q28 48 70.5 74.5t90.5 26.5t95 -26l283 -157l-10 -76l-341 -94q-99 -27 -140.5 -80t-41.5 -114
q0 -27 6 -48q16 -62 69 -100t121 -38q30 0 58 7l254 70l15 -63l-257 -71q-36 -9 -71 -9z" />
    <glyph glyph-name="uni062D.fina.alt" unicode="&#xfea2;&#x621;&#x621;" horiz-adv-x="727" 
d="M304 -355q-87 0 -154.5 50.5t-90.5 135.5q-9 30 -9 66q0 83 53.5 154t172.5 103l293 79l-238 128q-30 17 -65 17q-34 0 -64 -17.5t-49 -50.5l-18 -32l-51 31l19 34q28 48 70.5 74.5t90.5 26.5t95 -26l283 -157l-10 -76l-63 -17q9 -45 43.5 -74t82.5 -29h37l4 -32l-4 -33
h-37q-68 0 -117 43t-63 110l-224 -62q-99 -27 -140.5 -80t-41.5 -114q0 -27 6 -48q16 -62 69 -100t121 -38q30 0 58 7l254 70l15 -63l-257 -71q-36 -9 -71 -9z" />
    <glyph glyph-name="uni062E.alt" unicode="&#x62e;&#x621;&#x621;" horiz-adv-x="695" 
d="M304 -355q-87 0 -154.5 50.5t-90.5 135.5q-9 30 -9 66q0 83 53.5 154t172.5 103l293 79l-238 128q-30 17 -65 17q-34 0 -64 -17.5t-49 -50.5l-18 -32l-51 31l19 34q28 48 70.5 74.5t90.5 26.5t95 -26l283 -157l-10 -76l-341 -94q-99 -27 -140.5 -80t-41.5 -114
q0 -27 6 -48q16 -62 69 -100t121 -38q30 0 58 7l254 70l15 -63l-257 -71q-36 -9 -71 -9zM217 615h90v-90h-90v90z" />
    <glyph glyph-name="uni062E.fina.alt" unicode="&#xfea6;&#x621;&#x621;" horiz-adv-x="727" 
d="M304 -355q-87 0 -154.5 50.5t-90.5 135.5q-9 30 -9 66q0 83 53.5 154t172.5 103l293 79l-238 128q-30 17 -65 17q-34 0 -64 -17.5t-49 -50.5l-18 -32l-51 31l19 34q28 48 70.5 74.5t90.5 26.5t95 -26l283 -157l-10 -76l-63 -17q9 -45 43.5 -74t82.5 -29h37l4 -32l-4 -33
h-37q-68 0 -117 43t-63 110l-224 -62q-99 -27 -140.5 -80t-41.5 -114q0 -27 6 -48q16 -62 69 -100t121 -38q30 0 58 7l254 70l15 -63l-257 -71q-36 -9 -71 -9zM218 615h90v-90h-90v90z" />
    <glyph glyph-name="uni06AA.001" unicode="&#x6af;&#x621;&#x621;" horiz-adv-x="931" 
d="M790.5 98q32.5 33 32.5 79q0 47 -32 79t-79 32l-311 -1l-21 47l152 270l51 -31l-126 -220h246q50 0 91 -23.5t64 -64t23 -88.5t-23.5 -89t-64 -64.5t-90.5 -23.5h-267h-190q-94 0 -144.5 41.5t-50.5 117.5q0 32 9 69l26 99l57 -16l-26 -102q-6 -25 -6 -46q0 -50 34 -74
t93 -24h196h278q46 0 78.5 33zM416 606l39 -22l-110 -195l-40 21z" />
    <glyph glyph-name="uni06AA.fina" unicode="&#xfb8f;&#x621;&#x621;" horiz-adv-x="980" 
d="M247 0q-100 0 -148.5 39t-48.5 112q0 33 11 77l25 99l57 -16l-26 -102q-8 -32 -8 -53q0 -47 32 -69t98 -22h195h290q99 0 99 94v21q0 46 -31.5 77t-78.5 31l-359 -1l-21 47l152 270l51 -31l-127 -220h294q50 0 91 -23.5t64.5 -64t23.5 -88.5v-19q0 -93 95 -93h6l3 -32
l-3 -33h-6q-82 0 -122 61q-41 -61 -134 -61h-287h-187z" />
    <glyph glyph-name="uni06AA.fina.001" unicode="&#xfb93;&#x621;&#x621;" horiz-adv-x="995" 
d="M97 39q-49 39 -49 112q0 33 11 77l26 99l57 -16l-26 -102q-8 -32 -8 -53q0 -47 32 -69t98 -22h503q98 0 98 93v19q0 46 -32 78.5t-78 32.5l-311 -1l-21 47l152 270l51 -31l-127 -220h246q50 0 91 -23.5t64 -64t23 -88.5v-19q0 -93 95 -93h6l4 -32l-4 -33h-6
q-41 0 -71.5 16t-49.5 45q-20 -29 -54.5 -45t-80.5 -16h-490q-100 0 -149 39zM433 606l39 -22l-110 -195l-40 21z" />
    <glyph glyph-name="uni06AA.medi" unicode="&#xfb91;&#xfe8c;&#xfe8c;" horiz-adv-x="740" 
d="M-5 65h491q98 0 98 93v19q0 47 -32 79t-78 32l-359 -1l-21 47l152 270l51 -31l-127 -220h294q50 0 91 -23.5t64.5 -64t23.5 -88.5v-19q0 -93 94 -93h6l4 -32l-4 -33h-6q-81 0 -121 61q-41 -61 -134 -61h-487v65z" />
    <glyph glyph-name="uni06AA.medi.001" unicode="&#xfb95;&#xfe8c;&#xfe8c;" horiz-adv-x="740" 
d="M552 256q-32 32 -78 32l-296 -1l-21 47l152 270l51 -31l-127 -220h231q50 0 91 -23.5t64.5 -64t23.5 -88.5v-19q0 -93 94 -93h6l4 -32l-4 -33h-6q-81 0 -121 61q-41 -61 -134 -61h-487v65h491q98 0 98 93v19q0 47 -32 79zM194 607l39 -21l-110 -196l-40 22z" />
    <glyph glyph-name="uni06AA.init" unicode="&#xfb90;&#xfe8c;&#xfe8c;" horiz-adv-x="693" 
d="M297 573l-126 -220h293q50 0 91 -23.5t64.5 -64t23.5 -88.5t-23.5 -89t-64.5 -64.5t-91 -23.5h-469v65l479 1q46 0 78 32.5t32 78.5q0 47 -32 79t-78 32l-359 -1l-21 47l152 270z" />
    <glyph glyph-name="uni06AA.init.001" unicode="&#xfb94;&#xfe8c;&#xfe8c;" horiz-adv-x="693" 
d="M357 573l-126 -220h233q50 0 91 -23.5t64.5 -64t23.5 -88.5t-23.5 -89t-64.5 -64.5t-91 -23.5h-469v65l479 1q46 0 78 32.5t32 78.5q0 47 -32 79t-78 32l-299 -1l-21 47l152 270zM190 606l39 -22l-110 -195l-40 21z" />
    <glyph glyph-name="uni0645.alt" unicode="&#x645;&#x621;&#x621;" horiz-adv-x="515" 
d="M79 128.5q27 25.5 64 21.5l61 120q18 35 50 54.5t69 19.5q32 0 61 -16q39 -21 60 -62t21 -92q0 -62 -31 -123q-13 -26 -37.5 -41t-52.5 -15q-26 0 -45 11l-162 84q-8 8 -16 8q-5 0 -9 -4.5t-4 -11.5q0 -2 2 -10l16 -370l-59 -2l-14 361q-1 42 26 67.5zM352 54q6 -6 12 -6
t11 6t5 16q32 53 32 107q0 32 -12.5 57t-36.5 38q-18 9 -37 9q-24 0 -45.5 -14t-34.5 -39l-50 -98z" />
    <glyph glyph-name="uni0645.fina.alt" unicode="&#xfee2;&#x621;&#x621;" horiz-adv-x="568" 
d="M495.5 17.5q-33.5 17.5 -53.5 50.5l-8 -17q-13 -26 -37.5 -41t-52.5 -15q-26 0 -45 11l-162 84q-8 8 -16 8q-5 0 -9 -4.5t-4 -11.5q0 -2 2 -10l16 -370l-59 -2l-14 361q-1 42 26 67.5t64 21.5l61 120q18 35 50 54.5t69 19.5q32 0 61 -16q39 -21 60 -62t21 -93
q0 -19 -3 -39q11 -32 40.5 -50.5t71.5 -18.5l4 -32l-4 -33q-45 0 -78.5 17.5zM352 54q6 -6 12 -6t11 6t5 16q32 53 32 107q0 32 -12.5 57t-36.5 38q-18 9 -37 9q-24 0 -45.5 -14t-34.5 -39l-50 -98z" />
    <glyph glyph-name="uni0647.fina.alt" unicode="&#xfeea;&#x621;&#x621;&#x621;" horiz-adv-x="618" 
d="M194 -25q-43 0 -80.5 24t-56.5 65q-15 32 -15 64q0 44 23.5 82.5t64.5 59.5l192 101l16 9l5 2l140 74l26 -57l-36 -19q52 -24 77 -77q17 -37 17 -73q0 -46 -25 -85.5t-68 -58.5l-16 -7q53 -14 119 -14h46v-65h-46q-111 0 -197 44l-123 -55q-33 -14 -63 -14zM144 50
q23 -14 49 -14q21 0 40 9l86 40q-37 32 -57 76q-15 35 -15 70q0 17 3 33l-95 -50q-26 -14 -40 -37.5t-14 -49.5q0 -22 8 -38q12 -25 35 -39zM379 113l69 32q27 13 42 35.5t15 50.5q0 22 -11 46q-13 25 -36.5 39.5t-50.5 14.5q-22 0 -46 -11q-26 -13 -41 -37.5t-15 -51.5
q0 -20 10 -43q20 -45 64 -75z" />
    <glyph glyph-name="uni0647.medi.alt" unicode="&#xfeec;&#xfe8c;&#xfe8c;" horiz-adv-x="478" 
d="M165.5 -198q-34.5 27 -55 77.5t-19.5 120.5h-96v65h100q16 86 97 307l40 20l67 -18q42 -12 66.5 -53t24.5 -92q0 -38 -13 -68q-20 -55 -74 -96h180l4 -32l-4 -33h-111q29 -41 29 -93q0 -38 -17.5 -70t-48.5 -50.5t-71 -18.5q-7 0 -23 2q-41 5 -75.5 32zM157.5 -92.5
q16.5 -40.5 44.5 -60t60 -19.5q38 0 63.5 25t25.5 62q0 33 -21.5 58.5t-51.5 28.5l-134 5q-3 -59 13.5 -99.5zM256 97.5q55 32.5 74 79.5q10 23 10 48q0 32 -15.5 58t-38.5 33l-50 15q-76 -209 -87 -268q52 2 107 34.5z" />
    <glyph glyph-name="uni0647.init.alt" unicode="&#xfeeb;&#xfe8c;&#xfe8c;" horiz-adv-x="452" 
d="M171 -205q-39 25 -62 77t-18 128h-96v65h100q16 86 97 307l40 20l67 -18q42 -12 66.5 -53t24.5 -92q0 -38 -13 -68q-23 -64 -91 -105q48 -11 80 -50.5t32 -90.5q0 -39 -19.5 -72.5t-53 -53t-72.5 -19.5q-43 0 -82 25zM145 -17q0 -52 17 -86.5t43 -51t54 -16.5
q36 0 61.5 25t25.5 61q0 37 -25.5 62t-62.5 25l-112 1zM256 97.5q55 32.5 74 79.5q10 23 10 48q0 32 -15.5 58t-38.5 33l-50 15q-76 -209 -87 -268q52 2 107 34.5z" />
    <glyph glyph-name="uni06D2.fina.alt2" unicode="&#xfbfd;&#x621;&#x621;&#x621;" horiz-adv-x="414" 
d="M206 0q-41 0 -69 -28.5t-28 -69.5t28 -69t68 -28h358v-66h-355q-44 0 -80 22t-57 59.5t-21 80.5q0 44 21 81.5t57.5 60t80.5 22.5h211v-65h-214z" />
    <glyph glyph-name="uni06D2.fina.alt3" unicode="&#xfbfd;&#x621;&#x621;&#x621;&#x621;" horiz-adv-x="333" 
d="M231 0q-41 0 -69 -28.5t-28 -69.5t28 -69t68 -28h494v-66h-491q-44 0 -80 22t-57 59.5t-21 80.5q0 44 21 81.5t57.5 60t80.5 22.5h102v-65h-105z" />
    <glyph glyph-name="uni06440671" unicode="&#xfedf;&#xfb51;" horiz-adv-x="538" 
d="M91 65h240q58 0 79 27.5t19 62.5l-19 494l59 3l19 -494q2 -38 -13.5 -74.5t-51 -60t-92.5 -23.5h-240v65zM18 697q15 12 37 14l35 48q33 46 57 67.5t57 21.5q36 0 60 -26t24 -64q0 -33 -25.5 -58t-58.5 -25h-140q-16 0 -26 -7t-28 -30l-27 20q20 27 35 39zM108 616
l77 -480l-58 -12l-77 480zM204 711q20 0 36 14t16 34q0 23 -15 38.5t-37 15.5q-23 0 -40.5 -15.5t-44.5 -52.5l-25 -34h110z" />
    <glyph glyph-name="uni06440671.fina" unicode="&#xfee0;&#xfb51;" horiz-adv-x="601" 
d="M513.5 13q-31.5 13 -51.5 48q-42 -61 -131 -61h-240v65h240q58 0 79 27.5t19 62.5l-19 494l59 3l19 -486q5 -59 31.5 -80t66.5 -21h20l4 -32l-4 -33h-20q-41 0 -72.5 13zM18 697q15 12 37 14l35 48q33 46 57 67.5t57 21.5q36 0 60 -26t24 -64q0 -33 -25.5 -58t-58.5 -25
h-140q-16 0 -26 -7t-28 -30l-27 20q20 27 35 39zM108 616l77 -480l-58 -12l-77 480zM204 711q20 0 36 14t16 34q0 23 -15 38.5t-37 15.5q-23 0 -40.5 -15.5t-44.5 -52.5l-25 -34h110z" />
    <glyph glyph-name="uni064406440647" unicode="&#xfedf;&#xfee0;&#x651;&#x670;&#xfeea;" horiz-adv-x="1043" 
d="M710.5 13q-31.5 13 -51.5 48q-42 -61 -132 -61h-32q-50 0 -93 25t-67 68l-116 -19q-6 -1 -17 -1q-46 0 -88 31.5t-56 77.5q-8 26 -8 49q0 49 29.5 91t76.5 58l153 50v49h59v-289q0 -52 37 -88.5t90 -36.5h32q59 0 80 27.5t19 62.5l-19 330l59 3l18 -309v-3
q3 -66 30 -88.5t69 -22.5h33q58 0 79 27.5t19 62.5l-19 494l59 3l19 -494q2 -38 -13 -74.5t-51 -60t-93 -23.5h-33q-41 0 -72.5 13zM146.5 157.5q25.5 -19.5 55.5 -19.5q9 0 13 1l97 16q-3 18 -3 35v176l-134 -46q-31 -10 -48.5 -34.5t-17.5 -53.5q0 -15 4 -27
q8 -28 33.5 -47.5zM522 692l29 -8l-10 -44q-2 -10 -2 -14q0 -15 10.5 -24t29.5 -9t29.5 9.5t10.5 23.5l1 58h27l1 -58q0 -14 10.5 -23.5t29.5 -9.5q20 0 30.5 9t10.5 25q0 8 -1 12l-17 65l29 8l18 -66q3 -12 3 -23q0 -29 -20 -48t-53 -19q-38 0 -54 26q-18 -26 -55 -26
q-32 0 -51.5 18.5t-19.5 48.5q0 10 3 22zM618 891h32v-163h-32v163z" />
    <glyph glyph-name="uniFDFC.001" unicode="&#x631;&#xfbfe;&#xfe8e;&#x644;&#x621;" horiz-adv-x="1386" 
d="M999 -250h-80v81h80v-81zM143 191q-34 -98 -34 -178q0 -92 45 -144.5t127 -52.5q35 0 74 10l23 6q59 14 92.5 29t54.5 48.5t19 95.5l-25 644l59 3l25 -644q3 -85 -28 -133.5t-79 -70.5t-127 -41q-43 -11 -88 -11q-108 0 -169.5 71.5t-61.5 192.5q0 90 37 197zM765 601
l18 -463q3 -54 11.5 -79t30 -34.5t67.5 -9.5h74q52 0 84.5 20.5t32.5 69.5q0 22 -7 49l-40 149l57 16l40 -149q9 -36 9 -66q0 -75 -51 -115t-125 -40h-79q-61 0 -95 18t-49.5 58.5t-18.5 112.5l-18 460zM752 -169h79v-81h-79v81zM1098 -179q64 17 98 31t57.5 41t23.5 73
q0 8 -2 28l-40 287l59 9l29 -214l3 -25q3 -16 7 -50q3 -21 3 -40q0 -61 -29 -100t-76 -61.5t-118 -41.5l-35 -10l-15 64z" />
    <glyph glyph-name="uniFDFC.002" unicode="&#x631;&#xfbfe;&#xfe8e;&#x644;&#x621;&#x621;" horiz-adv-x="1348" 
d="M286 -40q-96 0 -148.5 57t-52.5 152q0 88 44 186l50 -29q-34 -86 -34 -156q0 -69 35.5 -107.5t105.5 -38.5q25 0 48 4q54 8 84 17.5t49 37.5t16 82l-29 492l39 66l153 37q10 2 15 2q17 0 27 -12t11 -34l20 -405q3 -52 12 -77.5t31.5 -35.5t68.5 -10h55q52 0 84.5 20.5
t32.5 69.5q0 22 -7 49l-35 131l57 16l35 -131q9 -36 9 -66q0 -75 -51 -115t-125 -40h-55q-64 0 -99.5 17.5t-51.5 58t-20 113.5l-20 393l-129 -33l31 -503q7 -105 -51.5 -149.5t-156.5 -54.5q-34 -4 -48 -4zM592 -31l328 26l12 -59l-341 -23zM1108.5 44q40.5 14 68.5 41.5
t28 73.5q0 9 -4 35l-53 288l58 9l53 -290q5 -28 5 -47q0 -63 -35 -103t-88.5 -61.5t-135.5 -41.5l-15 64q78 18 118.5 32z" />
    <glyph glyph-name="tomaan" unicode="&#xfe97;&#xfeee;&#xfee3;&#xfe8e;&#x646;&#x621;" horiz-adv-x="2171" 
d="M285 -97q-110 0 -172.5 71t-62.5 192q0 91 37 198l57 -22q-35 -98 -35 -178q0 -93 45.5 -144.5t129.5 -51.5q34 0 73 9q73 18 107 29.5t58 38.5t24 75q0 20 -2 31l-58 404l37 72l207 40q11 3 20 3q18 0 27.5 -11t10.5 -31l17 -439q2 -52 11 -78t31 -36t67 -10
q36 0 63.5 16.5t42.5 46.5l73 140q18 35 50 55t69 20q33 0 62 -16q39 -21 60 -62t21 -91q0 -62 -31 -123q-13 -25 -37.5 -40.5t-53.5 -15.5q-24 0 -45 11l-135 69q-24 -36 -59.5 -55.5t-79.5 -19.5q-63 0 -98 17.5t-51 58t-19 113.5l-17 418l-186 -33l59 -413q3 -24 3 -43
q0 -65 -31 -105t-80 -61t-124 -39q-43 -10 -85 -10zM350 475l3 -86l-87 -3l-3 87zM1218 61q10 -5 18 -5q14 0 26.5 9.5t19.5 21.5q21 44 21 87q0 33 -13 58.5t-37 38.5q-17 10 -38 10q-24 0 -45 -14t-34 -40l-51 -98zM1458.5 246q19.5 47 59 76.5t92.5 29.5q69 0 116.5 -54
t56.5 -142l10 -91h152q52 0 84.5 21t32.5 70q0 24 -7 49l-39 149l57 16l40 -152q9 -34 9 -63q0 -76 -51.5 -115.5t-125.5 -39.5h-146l2 -24q1 -9 1 -25q0 -64 -33.5 -101t-99.5 -59.5t-190 -47.5l-12 64q122 26 174 41.5t78 44.5t22 82l-3 25h-136q-69 0 -111 39.5
t-48 109.5q-4 50 15.5 97zM1527.5 90.5q25.5 -25.5 74.5 -25.5h131l-9 83q-7 66 -37.5 102.5t-78.5 36.5q-50 0 -78 -36t-28 -85q0 -50 25.5 -75.5zM1728 574l296 -2v-54l-296 1v55z" />
    <glyph glyph-name="tomaan.001" unicode="&#xfe97;&#xfeee;&#xfee3;&#xfe8e;&#x646;&#x621;&#x621;" horiz-adv-x="1789" 
d="M1259 -151.5q52 15.5 77.5 44.5t21.5 82l-2 25h-106q-60 0 -100 19t-84 50q-21 -35 -62.5 -52t-89.5 -17q-63 0 -98 17.5t-51 58t-19 113.5l-17 418l-186 -33l59 -413q3 -24 3 -43q0 -65 -31 -105t-80 -61t-124 -39q-43 -10 -85 -10q-110 0 -172.5 71t-62.5 192
q0 91 37 198l57 -22q-35 -98 -35 -178q0 -93 45.5 -144.5t129.5 -51.5q34 0 73 9q73 18 107 29.5t58 38.5t24 75q0 20 -2 31l-58 404l37 72l207 40q11 3 20 3q18 0 27.5 -11t10.5 -31l17 -439q2 -52 11 -78t31 -36t67 -10q41 0 75 14t49 46l59 125q49 102 137 102
q68 0 113 -53t54 -143l9 -91h153q51 0 83.5 21t32.5 70q0 24 -7 49l-39 149l57 16l40 -152q9 -34 9 -64q0 -75 -51 -114.5t-125 -39.5h-147l3 -25q1 -8 1 -24q0 -64 -34 -101t-100 -59.5t-190 -47.5l-11 64q122 26 174 41.5zM350 475l3 -86l-87 -3l-3 87zM1128 103.5
q26 -17.5 60 -28t69 -10.5h97l-9 83q-7 67 -37 103t-78 36q-59 0 -95 -80l-37 -84q4 -2 30 -19.5zM1345 574l297 -2v-54l-297 1v55z" />
    <glyph glyph-name="tomaan.002" unicode="&#xfe97;&#xfeee;&#xfee3;&#xfe8e;&#x646;&#x621;&#x621;&#x621;" horiz-adv-x="1781" 
d="M1263.5 23.5q51.5 15.5 77.5 44t23 82.5l-1 16h-106q-60 0 -101 19.5t-83 50.5q-21 -36 -62.5 -53t-90.5 -17q-62 0 -96.5 17.5t-50.5 58t-20 113.5l-15 289l-179 -53l43 -299q3 -24 3 -45q0 -64 -31 -104t-80 -60.5t-124 -38.5q-43 -10 -85 -10q-110 0 -172.5 71
t-62.5 192q0 91 37 198l57 -22q-35 -98 -35 -179q0 -92 45.5 -143.5t129.5 -51.5q34 0 73 9q73 18 107 29.5t58 38.5t24 75q0 20 -2 31l-42 291l37 72l200 58q11 4 21 4q17 0 26.5 -11.5t10.5 -30.5l15 -310q2 -52 11 -77.5t30.5 -35.5t66.5 -10q42 0 76 13.5t49 45.5
l58 125q51 103 137 103q68 0 113 -53.5t55 -143.5l9 -90h138q52 0 84.5 20.5t32.5 69.5q0 24 -7 49l-39 149l57 16l40 -152q9 -34 9 -62q0 -76 -51.5 -116t-125.5 -40h-132l1 -15q1 -8 1 -22q0 -65 -33.5 -102.5t-98.5 -60t-191 -48.5l-12 64q122 26 173.5 41.5zM357 609
l2 -87l-86 -2l-3 86zM1178 247.5q35 -15.5 86 -15.5h97l-9 82q-7 68 -37 103.5t-78 35.5q-34 0 -56.5 -22.5t-38.5 -57.5l-38 -83q39 -27 74 -42.5zM1336 709l296 -2v-54l-296 1v55z" />
    <glyph glyph-name="tomaan.003" unicode="&#xfe97;&#xfeee;&#xfee3;&#xfee6;&#x621;" horiz-adv-x="1471" 
d="M954 32.5q51 15.5 76.5 44t22.5 82.5l-1 16h-106q-60 0 -100 19t-84 50q-21 -35 -61 -52t-87 -18h-9q-4 -58 -36 -94.5t-79.5 -56t-119.5 -36.5q-43 -10 -85 -10q-110 0 -172.5 71t-62.5 193q0 91 37 198l57 -23q-35 -98 -35 -178q0 -92 45.5 -143.5t128.5 -51.5
q34 0 74 9q72 17 107 28.5t59 38t24 74.5q0 15 -3 33l-40 254l57 19l40 -259h13q39 0 72 14.5t48 45.5l59 125q49 102 136 102q69 0 114 -53.5t54 -143.5l9 -90h139q52 0 84 20.5t32 69.5q0 24 -7 49l-39 149l57 17l40 -152q9 -34 9 -64q0 -75 -51 -114.5t-125 -39.5h-133
l2 -16l1 -20q0 -66 -33.5 -104t-98.5 -60t-192 -48l-12 64q124 26 175 41.5zM362 568l2 -86l-86 -3l-3 86zM868.5 255.5q34.5 -15.5 84.5 -15.5h97l-9 83q-7 67 -37 103t-78 36q-59 -1 -95 -80l-37 -84q40 -27 74.5 -42.5zM1026 710l296 -2v-54l-296 1v55z" />
    <glyph glyph-name="uni0621" unicode="&#x621;" horiz-adv-x="475" arabic-form="isolated" 
d="M50 48l117 22q-43 43 -43 106q0 52 32 91t83 48q4 1 15 1q40 0 115 -18l-14 -56q-78 19 -106 15q-32 -4 -52 -27t-20 -54q0 -40 29.5 -65t69.5 -20l139 27l10 -58l-365 -70z" />
    <glyph glyph-name="uni0622" unicode="&#x622;" horiz-adv-x="287" arabic-form="isolated" 
d="M114 546l59 3l21 -548l-59 -3zM0 587q0 35 21 56.5t55 21.5q6 0 20 -2l101 -19q10 -2 15 -2q20 0 31.5 11.5t11.5 30.5v7l33 2v-15q0 -35 -20.5 -56t-54.5 -21q-6 0 -22 2l-101 19q-5 1 -13 1q-21 0 -32.5 -11t-11.5 -31v-7l-33 -2v15z" />
    <glyph glyph-name="uni0623" unicode="&#x623;" horiz-adv-x="287" arabic-form="isolated" 
d="M114 546l59 3l21 -548l-59 -3zM92 640q-25 21 -33 54q-3 11 -3 22q0 36 24.5 63t61.5 29q4 1 13 1q27 0 69 -9l-7 -35q-42 8 -67 8q-27 0 -44 -16.5t-17 -40.5q0 -25 17.5 -42.5t42.5 -17.5q4 0 14 2l99 23l7 -35l-99 -24l-4 -1l-155 -37l-8 35z" />
    <glyph glyph-name="uni0624" unicode="&#x624;" horiz-adv-x="476" arabic-form="isolated" 
d="M263.5 -153.5q52.5 15.5 78.5 41t26 73.5q0 7 -2 27l-3 25q-65 -13 -137 -13q-70 0 -114.5 46.5t-44.5 119.5q0 47 20.5 90t58 69.5t87.5 26.5q70 0 117.5 -54t57.5 -142l17 -161q2 -26 2 -36q0 -69 -33.5 -107.5t-99 -61t-191.5 -47.5l-12 64q120 24 172.5 39.5z
M192 447q-25 21 -32 54q-3 11 -3 22q0 39 27.5 65.5t68.5 26.5q27 0 71 -9l-6 -35q-45 9 -70 9q-26 0 -42.5 -17t-16.5 -41q0 -27 21 -45t48 -14l104 25l8 -35l-99 -24l-7 -1l-153 -37l-7 35zM153.5 92.5q26.5 -27.5 72.5 -27.5q61 0 131 13l-7 69q-7 66 -39 103t-79 37
q-49 0 -77 -36.5t-28 -84.5q0 -46 26.5 -73.5z" />
    <glyph glyph-name="uni0625" unicode="&#x625;" horiz-adv-x="237" arabic-form="isolated" 
d="M83 649l59 3l25 -651l-59 -3zM83 -217q-25 22 -32 53q-3 12 -3 22q0 39 27.5 66t68.5 27q27 0 72 -9l-7 -35q-45 9 -70 9t-41.5 -16.5t-16.5 -40.5q0 -28 21 -46t48 -14l104 25l7 -35l-99 -24l-6 -1l-153 -37l-8 35z" />
    <glyph glyph-name="uni0626" unicode="&#x626;" horiz-adv-x="684" arabic-form="isolated" 
d="M285 -246q-110 0 -172.5 71t-62.5 193q0 90 37 197l57 -22q-35 -98 -35 -178q0 -93 46 -144.5t130 -51.5q33 0 72 9q91 22 144 51t53 53q0 11 -12 19t-43 18t-73 22q-63 19 -94.5 45t-31.5 76q0 31 11 67t36.5 76t67.5 69t95 29q27 0 52 -7l65 -18l-15 -64l-65 18
q-21 6 -40 6q-61 0 -95 -44t-45 -82q-6 -24 -6 -39q0 -32 20.5 -45.5t71.5 -27.5q69 -21 96.5 -31t43.5 -26t20 -44l1 -12q0 -55 -64.5 -101t-179.5 -72q-43 -10 -85 -10zM202 356q-25 21 -33 54q-3 11 -3 22q0 39 27.5 65.5t68.5 26.5q27 0 71 -9l-6 -34q-42 8 -67 8
q-28 0 -44.5 -17t-16.5 -41q0 -28 20.5 -45.5t47.5 -13.5l104 25l8 -35l-99 -24l-6 -1l-154 -37l-7 35z" />
    <glyph glyph-name="uni0627" unicode="&#x627;" horiz-adv-x="237" arabic-form="isolated" 
d="M83 649l59 3l25 -651l-59 -3z" />
    <glyph glyph-name="uni0628" unicode="&#x628;" horiz-adv-x="900" arabic-form="isolated" 
d="M270.5 2.5q-56.5 2.5 -82.5 7.5t-50 16q-44 19 -66 54t-22 84q0 30 9 64l37 140l57 -17l-37 -142q-7 -25 -7 -47q0 -28 13 -46.5t40 -29.5q18 -8 39.5 -12t78.5 -6.5t171 -2.5q113 0 169 2.5t77 6.5t40 12q27 12 40.5 31t13.5 49q0 22 -7 49l-38 139l57 16l38 -139
q10 -40 10 -68q0 -49 -22.5 -84t-66.5 -53q-24 -11 -51 -16t-85.5 -7.5t-174.5 -2.5v0h-11q-113 0 -169.5 2.5zM405 -94h90v-90h-90v90z" />
    <glyph glyph-name="uni0629" unicode="&#x629;" horiz-adv-x="426" arabic-form="isolated" 
d="M131.5 21.5q-37.5 22.5 -59.5 60.5t-22 83q0 39 19.5 79.5t55.5 74.5l49 47l-37 37l41 46l110 -108q47 -47 67.5 -87t20.5 -89q0 -45 -22 -83t-59.5 -60.5t-81.5 -22.5t-81.5 22.5zM83 565h80v-80h-80v80zM138.5 93q30.5 -30 74.5 -30q45 0 75 29.5t30 72.5
q0 31 -14 58.5t-56 69.5l-32 32l-48 -47q-60 -60 -60 -113q0 -42 30.5 -72zM251 565h79v-80h-79v80z" />
    <glyph glyph-name="uni062A" unicode="&#x62a;" horiz-adv-x="900" arabic-form="isolated" 
d="M270.5 2.5q-56.5 2.5 -82.5 7.5t-50 16q-44 19 -66 54t-22 84q0 30 9 64l37 140l57 -17l-37 -142q-7 -25 -7 -47q0 -28 13 -46.5t40 -29.5q18 -8 39.5 -12t78.5 -6.5t171 -2.5q113 0 169 2.5t77 6.5t40 12q27 12 40.5 31t13.5 49q0 22 -7 49l-38 139l57 16l38 -139
q10 -40 10 -68q0 -49 -22.5 -84t-66.5 -53q-24 -11 -51 -16t-85.5 -7.5t-174.5 -2.5v0h-11q-113 0 -169.5 2.5zM326 415h80v-80h-80v80zM493 415h80v-80h-80v80z" />
    <glyph glyph-name="uni062B" unicode="&#x62b;" horiz-adv-x="900" arabic-form="isolated" 
d="M270.5 2.5q-56.5 2.5 -82.5 7.5t-50 16q-44 19 -66 54t-22 84q0 30 9 64l37 140l57 -17l-37 -142q-7 -25 -7 -47q0 -28 13 -46.5t40 -29.5q18 -8 39.5 -12t78.5 -6.5t171 -2.5q113 0 169 2.5t77 6.5t40 12q27 12 40.5 31t13.5 49q0 22 -7 49l-38 139l57 16l38 -139
q10 -40 10 -68q0 -49 -22.5 -84t-66.5 -53q-24 -11 -51 -16t-85.5 -7.5t-174.5 -2.5v0h-11q-113 0 -169.5 2.5zM322 419h84l1 -85h-85v85zM410 535h78v-75h-78v75zM490 419h84v-85h-84v85z" />
    <glyph glyph-name="uni062C" unicode="&#x62c;" horiz-adv-x="695" arabic-form="isolated" 
d="M301 -356q-86 0 -153 51t-89 136q-9 30 -9 66q0 83 53.5 154t172.5 103l293 79l-238 128q-31 17 -66 17q-34 0 -63.5 -17.5t-48.5 -50.5l-18 -32l-51 31l19 34q27 49 69 75t91 26q47 0 96 -26l283 -157l-10 -76l-341 -94q-99 -27 -140.5 -80t-41.5 -114q0 -27 6 -48
q16 -62 69 -100.5t120 -38.5q32 0 59 8l254 70l15 -63l-257 -71q-36 -10 -74 -10zM324 -39h90v-90h-90v90z" />
    <glyph glyph-name="uni062D" unicode="&#x62d;" horiz-adv-x="695" arabic-form="isolated" 
d="M304 -355q-87 0 -154.5 50.5t-90.5 135.5q-9 30 -9 66q0 83 53.5 154t172.5 103l293 79l-238 128q-30 17 -65 17q-34 0 -64 -17.5t-49 -50.5l-18 -32l-51 31l19 34q28 48 70.5 74.5t90.5 26.5t95 -26l283 -157l-10 -76l-341 -94q-99 -27 -140.5 -80t-41.5 -114
q0 -27 6 -48q16 -62 69 -100t121 -38q30 0 58 7l254 70l15 -63l-257 -71q-36 -9 -71 -9z" />
    <glyph glyph-name="uni062E" unicode="&#x62e;" horiz-adv-x="695" arabic-form="isolated" 
d="M304 -355q-87 0 -154.5 50.5t-90.5 135.5q-9 30 -9 66q0 83 53.5 154t172.5 103l293 79l-238 128q-30 17 -65 17q-34 0 -64 -17.5t-49 -50.5l-18 -32l-51 31l19 34q28 48 70.5 74.5t90.5 26.5t95 -26l283 -157l-10 -76l-341 -94q-99 -27 -140.5 -80t-41.5 -114
q0 -27 6 -48q16 -62 69 -100t121 -38q30 0 58 7l254 70l15 -63l-257 -71q-36 -9 -71 -9zM217 615h90v-90h-90v90z" />
    <glyph glyph-name="uni062F" unicode="&#x62f;" horiz-adv-x="508" arabic-form="isolated" 
d="M120 25.5q-42 25.5 -48 70.5q-5 23 -5 67h54q0 -32 5 -54q5 -24 29 -34t71 -10h52q121 0 121 72q0 16 -4 29q-16 53 -60.5 130.5t-98.5 152.5l48 39q59 -81 106.5 -164.5t61.5 -142.5q6 -24 6 -46q0 -60 -45.5 -97.5t-141.5 -37.5h-36q-73 0 -115 25.5z" />
    <glyph glyph-name="uni0630" unicode="&#x630;" horiz-adv-x="508" arabic-form="isolated" 
d="M120 25.5q-42 25.5 -48 70.5q-5 23 -5 67h54q0 -32 5 -54q5 -24 29 -34t71 -10h52q121 0 121 72q0 16 -4 29q-16 53 -60.5 130.5t-98.5 152.5l48 39q59 -81 106.5 -164.5t61.5 -142.5q6 -24 6 -46q0 -60 -45.5 -97.5t-141.5 -37.5h-36q-73 0 -115 25.5zM198 647h90v-90
h-90v90z" />
    <glyph glyph-name="uni0631" unicode="&#x631;" horiz-adv-x="323" arabic-form="isolated" 
d="M0 -194l35 10q62 16 97 30t58.5 41.5t23.5 73.5q0 9 -2 27l-40 288l59 9l29 -214l3 -25q3 -16 7 -50q3 -21 3 -39q0 -61 -29 -100.5t-76 -62t-118 -41.5l-35 -10z" />
    <glyph glyph-name="uni0632" unicode="&#x632;" horiz-adv-x="323" arabic-form="isolated" 
d="M0 -194l35 10q62 16 97 30t58.5 41.5t23.5 73.5q0 9 -2 27l-40 288l59 9l29 -214l3 -25q3 -16 7 -50q3 -21 3 -39q0 -61 -29 -100.5t-76 -62t-118 -41.5l-35 -10zM142 491h90v-90h-90v90z" />
    <glyph glyph-name="uni0633" unicode="&#x633;" horiz-adv-x="1163" arabic-form="isolated" 
d="M832 59q-40 -59 -125 -59q-66 0 -108 37l3 -25q3 -24 3 -44q0 -65 -31 -105t-80 -60.5t-124 -38.5q-43 -10 -85 -10q-110 0 -172.5 71t-62.5 192q0 91 37 198l57 -22q-35 -98 -35 -179q0 -92 45.5 -143.5t129.5 -51.5q34 0 73 9q73 18 107 29.5t58 38.5t24 75q0 20 -2 31
q-5 38 -40 274l58 10l17 -114v0q14 -58 43.5 -82.5t84.5 -24.5q58 0 78 26.5t20 64.5v123h56v-123q0 -91 94 -91q42 0 70.5 20.5t28.5 67.5q0 19 -8 51l-40 149l57 16l40 -149q10 -36 10 -68q0 -49 -22.5 -83.5t-58.5 -51.5t-77 -17q-82 0 -123 59z" />
    <glyph glyph-name="uni0634" unicode="&#x634;" horiz-adv-x="1163" arabic-form="isolated" 
d="M832 59q-40 -59 -125 -59q-66 0 -108 37l3 -25q3 -24 3 -44q0 -65 -31 -105t-80 -60.5t-124 -38.5q-43 -10 -85 -10q-110 0 -172.5 71t-62.5 192q0 91 37 198l57 -22q-35 -98 -35 -179q0 -92 45.5 -143.5t129.5 -51.5q34 0 73 9q73 18 107 29.5t58 38.5t24 75q0 20 -2 31
q-5 38 -40 274l58 10l17 -114v0q14 -58 43.5 -82.5t84.5 -24.5q58 0 78 26.5t20 64.5v123h56v-123q0 -91 94 -91q42 0 70.5 20.5t28.5 67.5q0 19 -8 51l-40 149l57 16l40 -149q10 -36 10 -68q0 -49 -22.5 -83.5t-58.5 -51.5t-77 -17q-82 0 -123 59zM702 487h84v-85h-84v85z
M789 603h79v-75h-79v75zM870 487h84v-85h-85z" />
    <glyph glyph-name="uni0635" unicode="&#x635;" horiz-adv-x="1192" arabic-form="isolated" 
d="M602 13v-1q3 -24 3 -44q0 -65 -31 -105t-80 -60.5t-124 -38.5q-43 -10 -85 -10q-110 0 -172.5 71t-62.5 192q0 91 37 198l57 -22q-35 -98 -35 -179q0 -92 45.5 -143.5t129.5 -51.5q34 0 73 9q73 18 107 29.5t58 38.5t24 75q0 20 -2 31q-5 38 -40 274l58 10l1 -6v0
l20 -134q6 -45 21.5 -63t50.5 -18h14l75 103q46 66 77 103t67.5 59t81.5 22q48 0 87.5 -24t62 -66t22.5 -93q0 -44 -24 -83t-63.5 -62.5t-84.5 -23.5h-311q-35 0 -57 13zM970 65q30 0 56 15t41.5 39t15.5 52q0 49 -31.5 82.5t-79.5 33.5q-33 0 -60.5 -17.5t-53 -48.5
t-66.5 -90l-48 -66h226z" />
    <glyph glyph-name="uni0636" unicode="&#x636;" horiz-adv-x="1192" arabic-form="isolated" 
d="M602 13v-1q3 -24 3 -44q0 -65 -31 -105t-80 -60.5t-124 -38.5q-43 -10 -85 -10q-110 0 -172.5 71t-62.5 192q0 91 37 198l57 -22q-35 -98 -35 -179q0 -92 45.5 -143.5t129.5 -51.5q34 0 73 9q73 18 107 29.5t58 38.5t24 75q0 20 -2 31q-5 38 -40 274l58 10l1 -6v0
l20 -134q6 -45 21.5 -63t50.5 -18h14l75 103q46 66 77 103t67.5 59t81.5 22q48 0 87.5 -24t62 -66t22.5 -93q0 -44 -24 -83t-63.5 -62.5t-84.5 -23.5h-311q-35 0 -57 13zM970 65q30 0 56 15t41.5 39t15.5 52q0 49 -31.5 82.5t-79.5 33.5q-33 0 -60.5 -17.5t-53 -48.5
t-66.5 -90l-48 -66h226zM946 545h90v-90h-90v90z" />
    <glyph glyph-name="uni0637" unicode="&#x637;" horiz-adv-x="669" arabic-form="isolated" 
d="M50 65h95l32 44l-21 540l59 3l19 -469l22 30q51 70 93 104.5t97 34.5q48 0 87.5 -24t62.5 -66t23 -93q0 -44 -24 -83t-63.5 -62.5t-85.5 -23.5h-396v65zM448 65q45 0 78.5 32t33.5 74q0 49 -32 82.5t-80 33.5q-30 0 -55 -15.5t-48 -41.5t-58 -74l-72 -91h233z" />
    <glyph glyph-name="uni0638" unicode="&#x638;" horiz-adv-x="669" arabic-form="isolated" 
d="M50 65h95l32 44l-21 540l59 3l19 -469l22 30q51 70 93 104.5t97 34.5q48 0 87.5 -24t62.5 -66t23 -93q0 -44 -24 -83t-63.5 -62.5t-85.5 -23.5h-396v65zM448 65q45 0 78.5 32t33.5 74q0 49 -32 82.5t-80 33.5q-30 0 -55 -15.5t-48 -41.5t-58 -74l-72 -91h233zM406 579h90
v-90h-90v90z" />
    <glyph glyph-name="uni0639" unicode="&#x639;" horiz-adv-x="607" arabic-form="isolated" 
d="M265 -272q-57 0 -106.5 29t-79 79t-29.5 110q0 72 43 129t115 81q-47 40 -57 102q-3 17 -3 33q0 63 39.5 111t101.5 59q14 2 23 2q52 0 138 -23l-15 -63q-77 20 -119 20q-11 0 -16 -1q-42 -8 -68 -37t-26 -68q0 -47 32.5 -78.5t78.5 -31.5q8 0 22 2l170 31l11 -65
l-267 -49q-64 -12 -104 -54.5t-40 -98.5q0 -45 24 -82t64.5 -56.5t85.5 -14.5l269 27l5 -65l-268 -27q-8 -1 -24 -1z" />
    <glyph glyph-name="uni063A" unicode="&#x63a;" horiz-adv-x="607" arabic-form="isolated" 
d="M265 -272q-57 0 -106.5 29t-79 79t-29.5 110q0 72 43 129t115 81q-47 40 -57 102q-3 17 -3 33q0 63 39.5 111t101.5 59q14 2 23 2q52 0 138 -23l-15 -63q-77 20 -119 20q-11 0 -16 -1q-42 -8 -68 -37t-26 -68q0 -47 32.5 -78.5t78.5 -31.5q8 0 22 2l170 31l11 -65
l-267 -49q-64 -12 -104 -54.5t-40 -98.5q0 -45 24 -82t64.5 -56.5t85.5 -14.5l269 27l5 -65l-268 -27q-8 -1 -24 -1zM259 637h90v-90h-90v90z" />
    <glyph glyph-name="uni0641" unicode="&#x641;" horiz-adv-x="904" arabic-form="isolated" 
d="M272 2.5q-58 2.5 -84 7.5t-50 16q-44 19 -66 54t-22 84q0 30 9 64l37 140l57 -17l-37 -142q-7 -25 -7 -47q0 -28 13 -46.5t40 -29.5q18 -8 39.5 -12t78.5 -6.5t171 -2.5h202q60 0 90 5.5t41.5 19t11.5 40.5q0 7 -2 29q-55 -11 -134 -11q-69 0 -111 41.5t-42 112.5
q0 49 18.5 91.5t55.5 68.5t89 26q68 0 114.5 -52t54.5 -139l11 -124q2 -16 2 -45q0 -48 -17 -75.5t-60 -40t-123 -12.5h-201h-6q-115 0 -173 2.5zM587.5 235.5q26.5 -27.5 72.5 -27.5q71 0 128 13l-6 71q-7 64 -38 100.5t-78 36.5q-49 0 -77 -36t-28 -85q0 -45 26.5 -72.5z
M630 674h90v-90h-90v90z" />
    <glyph glyph-name="uni0642" unicode="&#x642;" horiz-adv-x="668" arabic-form="isolated" 
d="M285 -246q-110 0 -172.5 71t-62.5 192q0 91 37 198l57 -22q-35 -98 -35 -179q0 -92 45.5 -143.5t129.5 -51.5q34 0 73 9q78 17 120.5 34t62.5 44.5t16 73.5l-4 40q-70 -14 -136 -14q-69 0 -114 46t-45 118q0 48 20.5 91.5t58.5 70t88 26.5q70 0 117.5 -54t56.5 -142
l17 -161q2 -26 2 -37q0 -60 -26 -97.5t-78 -60t-143 -42.5q-43 -10 -85 -10zM288 525h80v-80h-80v80zM344 98q27 -27 72 -27q64 0 131 15l-7 67q-7 66 -38.5 103t-79.5 37q-49 0 -77 -37t-28 -86q0 -45 27 -72zM455 525h80v-80h-80v80z" />
    <glyph glyph-name="uni0643" unicode="&#x643;" horiz-adv-x="836" arabic-form="isolated" 
d="M274 2.5q-59 2.5 -85.5 7.5t-50.5 16q-44 19 -66 54t-22 84q0 30 9 64l37 140l57 -17l-37 -142q-7 -25 -7 -47q0 -28 13 -46.5t40 -29.5q18 -8 39.5 -12t78.5 -6.5t171 -2.5h177q58 0 79 27t20 63l-19 494l59 3l19 -494q2 -38 -13.5 -74.5t-51.5 -60t-93 -23.5h-178
q-117 0 -176 2.5zM366 262h76q5 0 8 3t3 8q0 6 -5 10l-62 63l6 25l98 33l10 -28l-76 -25l53 -56q12 -12 12 -27t-9.5 -25.5t-24.5 -10.5h-89v30z" />
    <glyph glyph-name="uni0644" unicode="&#x644;" horiz-adv-x="653" arabic-form="isolated" 
d="M281 -248q-108 0 -169.5 71.5t-61.5 192.5q0 90 37 197l56 -22q-34 -98 -34 -178q0 -92 45 -144.5t127 -52.5q35 0 74 10l23 6q59 14 92.5 29t54.5 48.5t19 95.5l-25 644l59 3l25 -644q3 -85 -28 -133.5t-79 -70.5t-127 -41q-43 -11 -88 -11z" />
    <glyph glyph-name="uni0645" unicode="&#x645;" horiz-adv-x="515" arabic-form="isolated" 
d="M50 158l40 26l55 -29l59 115q18 35 50 54.5t69 19.5q32 0 61 -16q39 -21 60 -62t21 -92q0 -62 -31 -123q-13 -26 -37.5 -41t-52.5 -15q-24 0 -45 11l-190 99l17 -403l-59 -2zM330 60q12 -5 21 -5q24 0 36 23q26 52 26 99q0 32 -13 57t-37 38q-18 9 -37 9q-24 0 -45.5 -14
t-34.5 -39l-50 -99z" />
    <glyph glyph-name="uni0646" unicode="&#x646;" horiz-adv-x="655" arabic-form="isolated" 
d="M285 -246q-110 0 -172.5 71t-62.5 192q0 91 37 198l57 -22q-35 -98 -35 -179q0 -92 45.5 -143.5t129.5 -51.5q34 0 73 9q73 18 107 29.5t58 38.5t24 75q0 20 -2 31q-5 38 -40 274l58 10l40 -274q3 -24 3 -44q0 -65 -31 -105t-80 -60.5t-124 -38.5q-43 -10 -85 -10z
M275 314h90v-90h-90v90z" />
    <glyph glyph-name="uni0647" unicode="&#x647;" horiz-adv-x="426" arabic-form="isolated" 
d="M131.5 21.5q-37.5 22.5 -59.5 60.5t-22 83q0 39 19.5 79.5t55.5 74.5l49 47l-37 37l41 46l110 -108q47 -47 67.5 -87t20.5 -89q0 -45 -22 -83t-59.5 -60.5t-81.5 -22.5t-81.5 22.5zM138.5 93q30.5 -30 74.5 -30q45 0 75 29.5t30 72.5q0 31 -14 58.5t-56 69.5l-32 32
l-48 -47q-60 -60 -60 -113q0 -42 30.5 -72z" />
    <glyph glyph-name="uni0648" unicode="&#x648;" horiz-adv-x="476" arabic-form="isolated" 
d="M263.5 -153.5q52.5 15.5 78.5 41t26 73.5q0 7 -2 27l-3 25q-65 -13 -137 -13q-70 0 -114.5 46.5t-44.5 119.5q0 47 20.5 90t58 69.5t87.5 26.5q70 0 117.5 -54t57.5 -142l17 -161q2 -26 2 -36q0 -69 -33.5 -107.5t-99 -61t-191.5 -47.5l-12 64q120 24 172.5 39.5z
M153.5 92.5q26.5 -27.5 72.5 -27.5q61 0 131 13l-7 69q-7 66 -39 103t-79 37q-49 0 -77 -36.5t-28 -84.5q0 -46 26.5 -73.5z" />
    <glyph glyph-name="uni0649" unicode="&#x649;" horiz-adv-x="684" arabic-form="isolated" 
d="M285 -246q-110 0 -172.5 71t-62.5 193q0 90 37 197l57 -22q-35 -98 -35 -178q0 -93 46 -144.5t130 -51.5q33 0 72 9q91 22 144 51t53 53q0 11 -12 19t-43 18t-73 22q-63 19 -94.5 45t-31.5 76q0 31 11 67t36.5 76t67.5 69t95 29q27 0 52 -7l65 -18l-15 -64l-65 18
q-21 6 -40 6q-61 0 -95 -44t-45 -82q-6 -24 -6 -39q0 -32 20.5 -45.5t71.5 -27.5q69 -21 96.5 -31t43.5 -26t20 -44l1 -12q0 -55 -64.5 -101t-179.5 -72q-43 -10 -85 -10z" />
    <glyph glyph-name="uni064A" unicode="&#x64a;" horiz-adv-x="684" arabic-form="isolated" 
d="M285 -246q-110 0 -172.5 71t-62.5 193q0 90 37 197l57 -22q-35 -98 -35 -178q0 -93 46 -144.5t130 -51.5q33 0 72 9q91 22 144 51t53 53q0 11 -12 19t-43 18t-73 22q-63 19 -94.5 45t-31.5 76q0 31 11 67t36.5 76t67.5 69t95 29q27 0 52 -7l65 -18l-15 -64l-65 18
q-21 6 -40 6q-61 0 -95 -44t-45 -82q-6 -24 -6 -39q0 -32 20.5 -45.5t71.5 -27.5q69 -21 96.5 -31t43.5 -26t20 -44l1 -12q0 -55 -64.5 -101t-179.5 -72q-43 -10 -85 -10zM218 -304h79v-80h-79v80zM385 -304h80v-80h-80v80z" />
    <glyph glyph-name="uni066E.init" unicode="&#x66e;" horiz-adv-x="301" 
d="M-5 65h79q53 0 85.5 21t32.5 70q0 24 -7 49l-40 149l56 16l40 -149q9 -36 9 -66q0 -76 -50.5 -115.5t-125.5 -39.5h-79v65z" />
    <glyph glyph-name="uni066E.medi" unicode="&#x66e;" horiz-adv-x="309" 
d="M-5 65h63q105 0 99 86v2l-11 123l58 5l11 -123v-1q5 -50 27 -71t72 -21l4 -32l-4 -33q-86 0 -125 54q-21 -26 -54 -40t-77 -14h-63v65z" />
    <glyph glyph-name="uni066E.fina" unicode="&#x66e;" horiz-adv-x="946" 
d="M272 2.5q-58 2.5 -84 7.5t-50 16q-44 19 -66 54t-22 84q0 30 9 64l37 140l57 -17l-37 -142q-7 -25 -7 -47q0 -28 13 -46.5t40 -29.5q18 -8 39.5 -12t78.5 -6.5t171 -2.5h235q105 0 99 86v2l-11 123l59 5l11 -123v-2q5 -50 27 -70.5t71 -20.5h11l4 -32l-4 -33h-11
q-86 0 -125 54q-21 -26 -54 -40t-77 -14h-235h-6q-115 0 -173 2.5z" />
    <glyph glyph-name="uni066F.fina" unicode="&#x66f;" horiz-adv-x="665" 
d="M285 -246q-110 0 -172.5 71t-62.5 192q0 91 37 198l57 -22q-35 -98 -35 -179q0 -92 45.5 -143.5t129.5 -51.5q34 0 73 9q74 17 117 33.5t65 43.5t17 71l-3 24h-137q-73 0 -116 44.5t-43 121.5q0 48 20.5 90.5t58.5 69t88 26.5q70 0 117.5 -54t56.5 -142l9 -91h63l4 -32
l-4 -33h-56l2 -26q2 -65 -23 -104t-77.5 -62t-145.5 -44q-43 -10 -85 -10zM416 65h132l-9 83q-7 66 -37.5 102.5t-78.5 36.5q-50 0 -78 -36t-28 -85q0 -101 99 -101z" />
    <glyph glyph-name="uni0671" unicode="&#x671;" horiz-adv-x="287" arabic-form="isolated" 
d="M114 546l59 3l21 -548l-59 -3zM29 613.5q15 11.5 36 13.5l36 49q33 45 57 66.5t57 21.5q36 0 60 -25.5t24 -64.5q0 -33 -25.5 -58t-58.5 -25h-140q-17 0 -27 -7t-27 -30l-27 21q20 27 35 38.5zM215 627q21 0 36.5 14.5t15.5 34.5q0 23 -15 38.5t-37 15.5t-39 -16t-45 -53
l-25 -34h109z" />
    <glyph glyph-name="uni0679" unicode="&#x679;" horiz-adv-x="900" arabic-form="isolated" 
d="M270.5 2.5q-56.5 2.5 -82.5 7.5t-50 16q-44 19 -66 54t-22 84q0 30 9 64l37 140l57 -17l-37 -142q-7 -25 -7 -47q0 -28 13 -46.5t40 -29.5q18 -8 39.5 -12t78.5 -6.5t171 -2.5q113 0 169 2.5t77 6.5t40 12q27 12 40.5 31t13.5 49q0 22 -7 49l-38 139l57 16l38 -139
q10 -40 10 -68q0 -49 -22.5 -84t-66.5 -53q-24 -11 -51 -16t-85.5 -7.5t-174.5 -2.5v0h-11q-113 0 -169.5 2.5zM321 333h46l13 18l-9 204l31 1l8 -164q29 39 49 56.5t49 17.5q35 0 58.5 -25t23.5 -62q0 -32 -24.5 -56.5t-57.5 -24.5h-187v35zM508 333q21 0 36 14t15 32
q0 23 -14 38t-37 15q-20 0 -35.5 -15t-45.5 -58l-19 -26h100z" />
    <glyph glyph-name="uni067E" unicode="&#x67e;" horiz-adv-x="900" arabic-form="isolated" 
d="M270.5 2.5q-56.5 2.5 -82.5 7.5t-50 16q-44 19 -66 54t-22 84q0 30 9 64l37 140l57 -17l-37 -142q-7 -25 -7 -47q0 -28 13 -46.5t40 -29.5q18 -8 39.5 -12t78.5 -6.5t171 -2.5q113 0 169 2.5t77 6.5t40 12q27 12 40.5 31t13.5 49q0 22 -7 49l-38 139l57 16l38 -139
q10 -40 10 -68q0 -49 -22.5 -84t-66.5 -53q-24 -11 -51 -16t-85.5 -7.5t-174.5 -2.5v0h-11q-113 0 -169.5 2.5zM327 -97h85l-1 -84h-84v84zM415 -222h78v-76h-78v76zM495 -97h84v-84h-84v84z" />
    <glyph glyph-name="uni0686" unicode="&#x686;" horiz-adv-x="695" arabic-form="isolated" 
d="M303 -356q-86 0 -153.5 51t-90.5 136q-9 30 -9 66q0 83 53.5 154t172.5 103l293 79l-238 128q-31 17 -66 17q-34 0 -63.5 -17.5t-48.5 -50.5l-18 -32l-51 31l19 34q28 49 70 75t91 26q46 0 95 -26l283 -157l-10 -76l-341 -94q-99 -27 -140.5 -80t-41.5 -114q0 -27 6 -48
q16 -63 68.5 -101t120.5 -38q27 0 59 8l254 70l15 -63l-257 -71q-34 -10 -72 -10zM322 -10l22 -75l-73 -22l-23 75zM422 -95l20 -67l-68 -21l-21 68zM464 32l22 -74l-73 -22l-22 74z" />
    <glyph glyph-name="uni0695.fina" unicode="&#x695;" horiz-adv-x="334" 
d="M268 10l2 -14q3 -21 3 -39q0 -61 -29 -100.5t-76 -62t-118 -41.5l-35 -10l-15 63l35 10q62 16 97 30t58.5 41.5t23.5 73.5q0 9 -2 27l-40 288l59 9l10 -74l7 -46q7 -42 15 -63t23 -29t42 -8h7l4 -32l-4 -33h-7q-37 0 -60 10zM89 -312l45 -134l45 134h36l-65 -175h-32
l-65 175h36z" />
    <glyph glyph-name="uni0698" unicode="&#x698;" horiz-adv-x="328" arabic-form="isolated" 
d="M0 -194l35 10q62 16 97 30t58.5 41.5t23.5 73.5q0 9 -2 27l-40 288l59 9l29 -214l3 -25q3 -16 7 -50q3 -21 3 -39q0 -61 -29 -100.5t-76 -62t-118 -41.5l-35 -10zM63 471h83l1 -84h-85zM150 587h79v-75h-79v75zM230 471h84l1 -84h-85v84z" />
    <glyph glyph-name="uni06A1.init" unicode="&#x6a1;" horiz-adv-x="454" 
d="M-5 65h208q60 0 90 5.5t41.5 19t11.5 41.5q0 8 -2 28q-55 -11 -134 -11q-69 0 -111 41.5t-42 112.5q0 49 18.5 91.5t55.5 68.5t89 26q68 0 114.5 -52t54.5 -139l11 -124q2 -16 2 -45q0 -48 -17 -75.5t-60 -40t-123 -12.5h-207v65zM137.5 235.5q26.5 -27.5 72.5 -27.5
q71 0 128 13l-6 71q-7 64 -38 100.5t-78 36.5q-49 0 -77 -36t-28 -85q0 -45 26.5 -72.5z" />
    <glyph glyph-name="uni06A1.medi" unicode="&#x6a1;" horiz-adv-x="501" 
d="M-5 65h57q53 0 120 16q-40 25 -62 52.5t-20 50.5l6 57q3 42 26 75.5t59 52t77 18.5q50 0 87.5 -26.5t56.5 -68.5t16 -86l-3 -43q-3 -42 -79 -87q50 -11 106 -11h64l4 -32l-4 -33h-64q-90 0 -188 39q-50 -18 -102.5 -28.5t-99.5 -10.5h-57v65zM180 144q28 -22 71 -41
q44 16 72.5 33.5t32.5 33.5l4 36q3 28 -9 55t-36.5 44t-57.5 17q-40 0 -70 -26t-33 -65l-5 -50q3 -15 31 -37z" />
    <glyph glyph-name="uni06A1.fina" unicode="&#x6a1;" horiz-adv-x="951" 
d="M272 2.5q-58 2.5 -84 7.5t-50 16q-44 19 -66 54t-22 84q0 30 9 64l37 140l57 -17l-37 -142q-7 -25 -7 -47q0 -28 13 -46.5t40 -29.5q18 -8 39.5 -12t78.5 -6.5t171 -2.5h51q53 0 120 16q-39 26 -61 53t-20 50l5 57q3 42 26 75.5t59.5 52t77.5 18.5q49 0 86.5 -26.5
t56.5 -68.5t16 -86l-3 -43q-3 -42 -79 -87q50 -11 106 -11h64l4 -32l-4 -33h-64q-90 0 -188 39q-50 -18 -102.5 -28.5t-99.5 -10.5h-51h-6q-115 0 -173 2.5zM630 144q28 -22 71 -41q44 16 73 33.5t33 33.5l3 36q3 28 -9 55t-36.5 44t-57.5 17q-40 0 -70 -26t-33 -65l-5 -50
q3 -15 31 -37z" />
    <glyph glyph-name="uni06A4" unicode="&#x6a4;" horiz-adv-x="904" arabic-form="isolated" 
d="M272 2.5q-58 2.5 -84 7.5t-50 16q-44 19 -66 54t-22 84q0 30 9 64l37 140l57 -17l-37 -142q-7 -25 -7 -47q0 -28 13 -46.5t40 -29.5q18 -8 39.5 -12t78.5 -6.5t171 -2.5h202q60 0 90 5.5t41.5 19t11.5 40.5q0 7 -2 29q-55 -11 -134 -11q-69 0 -111 41.5t-42 112.5
q0 49 18.5 91.5t55.5 68.5t89 26q68 0 114.5 -52t54.5 -139l11 -124q2 -16 2 -45q0 -48 -17 -75.5t-60 -40t-123 -12.5h-201h-6q-115 0 -173 2.5zM544 640h84v-84h-85zM587.5 235.5q26.5 -27.5 72.5 -27.5q71 0 128 13l-6 71q-7 64 -38 100.5t-78 36.5q-49 0 -77 -36
t-28 -85q0 -45 26.5 -72.5zM631 756h79v-75h-79v75zM711 640h84l1 -84h-85v84z" />
    <glyph glyph-name="uni06A9" unicode="&#x6a9;" horiz-adv-x="909" arabic-form="isolated" 
d="M272 2.5q-58 2.5 -84 7.5t-50 16q-44 19 -66 54t-22 84q0 30 9 64l37 140l57 -17l-37 -142q-7 -25 -7 -47q0 -28 13 -46.5t40 -29.5q18 -8 39.5 -12t78.5 -6.5t171 -2.5h197q27 0 43 13q15 10 23.5 26t8.5 34q0 23 -12 42l-223 316l13 49l362 133l21 -61l-322 -118
l194 -279q27 -43 27 -88q0 -28 -11 -53t-31 -43q-34 -36 -94 -36h-196h-6q-115 0 -173 2.5z" />
    <glyph glyph-name="uni06AF" unicode="&#x6af;" horiz-adv-x="909" arabic-form="isolated" 
d="M272 2.5q-58 2.5 -84 7.5t-50 16q-44 19 -66 54t-22 84q0 30 9 64l37 140l57 -17l-37 -142q-7 -25 -7 -47q0 -28 13 -46.5t40 -29.5q18 -8 39.5 -12t78.5 -6.5t171 -2.5h197q27 0 43 13q15 10 23.5 26t8.5 34q0 23 -12 42l-223 316l13 49l362 133l21 -61l-322 -118
l194 -279q27 -43 27 -88q0 -28 -11 -53t-31 -43q-34 -36 -94 -36h-196h-6q-115 0 -173 2.5zM762 770l15 -42l-243 -88l-16 42z" />
    <glyph glyph-name="uni06B5.init" unicode="&#x6b5;" horiz-adv-x="238" 
d="M-5 65h23q58 0 79 27t20 63l-19 494l58 3l19 -494q2 -38 -13 -74.5t-51 -60t-93 -23.5h-23v65zM78 872l45 -134l45 134h37l-66 -175h-32l-65 175h36z" />
    <glyph glyph-name="uni06B5.medi" unicode="&#x6b5;" horiz-adv-x="288" 
d="M200.5 13q-31.5 13 -50.5 48q-42 -61 -132 -61h-23v65h23q58 0 79 27t20 63l-19 494l58 3l18 -469l1 -7q3 -66 29.5 -88.5t68.5 -22.5h20l4 -32l-4 -33h-20q-41 0 -72.5 13zM80 874l45 -134l45 134h36l-66 -175h-31l-66 175h37z" />
    <glyph glyph-name="uni06B5.fina" unicode="&#x6b5;" horiz-adv-x="687" 
d="M602 25l1 -17q3 -85 -28 -133.5t-79 -70.5t-127 -41q-43 -11 -88 -11q-108 0 -169.5 71.5t-61.5 192.5q0 90 37 197l56 -22q-34 -98 -34 -178q0 -92 45 -144.5t127 -52.5q35 0 74 10l23 6q59 14 92.5 29t54.5 48.5t19 95.5l-25 644l59 3l19 -491q5 -57 31.5 -76.5
t65.5 -19.5h20l4 -32l-4 -33h-20q-58 0 -92 25zM498 887l45 -134l45 134h37l-66 -175h-32l-65 175h36z" />
    <glyph glyph-name="uni06C2.fina" unicode="&#x6c2;" horiz-adv-x="488" 
d="M86 -12l-30 102q-7 22 -7 50q0 56 30.5 101t83.5 60l134 43l38 -28l11 -131q4 -54 37.5 -87t87.5 -33h22l6 -32l-6 -33h-22q-73 0 -121 46.5t-57 125.5l-7 103l-105 -36q-35 -12 -54 -39t-19 -61q0 -17 6 -37l28 -97zM187 457q-25 21 -33 54q-3 11 -3 22q0 39 27.5 66
t67.5 27q28 0 72 -9l-6 -35q-42 8 -67 8q-27 0 -44.5 -16.5t-17.5 -40.5q0 -25 18 -42.5t43 -17.5q4 0 14 2l98 23l8 -35l-99 -24l-6 -1l-154 -37l-7 35z" />
    <glyph glyph-name="uni06C3.fina" unicode="&#x6c3;" horiz-adv-x="488" 
d="M86 -12l-30 102q-7 22 -7 50q0 56 30.5 101t83.5 60l134 43l38 -28l11 -131q4 -54 37.5 -87t87.5 -33h22l6 -32l-6 -33h-22q-73 0 -121 46.5t-57 125.5l-7 103l-105 -36q-35 -12 -54 -39t-19 -61q0 -17 6 -37l28 -97zM120 517h80v-81h-80v81zM287 517h80v-81h-80v81z" />
    <glyph glyph-name="uni06C6" unicode="&#x6c6;" horiz-adv-x="476" arabic-form="isolated" 
d="M263.5 -153.5q52.5 15.5 78.5 41t26 73.5q0 7 -2 27l-3 25q-65 -13 -137 -13q-70 0 -114.5 46.5t-44.5 119.5q0 47 20.5 90t58 69.5t87.5 26.5q70 0 117.5 -54t57.5 -142l17 -161q2 -26 2 -36q0 -69 -33.5 -107.5t-99 -61t-191.5 -47.5l-12 64q120 24 172.5 39.5z
M153.5 92.5q26.5 -27.5 72.5 -27.5q61 0 131 13l-7 69q-7 66 -39 103t-79 37q-49 0 -77 -36.5t-28 -84.5q0 -46 26.5 -73.5zM181 605l45 -134l46 134h36l-66 -175h-31l-66 175h36z" />
    <glyph glyph-name="uni06C7" unicode="&#x6c7;" horiz-adv-x="476" arabic-form="isolated" 
d="M263.5 -153.5q52.5 15.5 78.5 41t26 73.5q0 7 -2 27l-3 25q-65 -13 -137 -13q-70 0 -114.5 46.5t-44.5 119.5q0 47 20.5 90t58 69.5t87.5 26.5q70 0 117.5 -54t57.5 -142l17 -161q2 -26 2 -36q0 -69 -33.5 -107.5t-99 -61t-191.5 -47.5l-12 64q120 24 172.5 39.5z
M204 499l-19 66q-3 12 -3 24q0 35 27 60t68 25t70.5 -26.5t29.5 -66.5q0 -35 -26 -62.5t-71 -38.5l-182 -43l-7 35zM153.5 92.5q26.5 -27.5 72.5 -27.5q61 0 131 13l-7 69q-7 66 -39 103t-79 37q-49 0 -77 -36.5t-28 -84.5q0 -46 26.5 -73.5zM238 507l34 8q33 8 51.5 26
t18.5 41q0 25 -18 41.5t-45 16.5q-28 0 -45.5 -15t-17.5 -36q0 -8 3 -17z" />
    <glyph glyph-name="uni06CC" unicode="&#x6cc;" horiz-adv-x="684" arabic-form="isolated" 
d="M285 -246q-110 0 -172.5 71t-62.5 193q0 90 37 197l57 -22q-35 -98 -35 -178q0 -93 46 -144.5t130 -51.5q33 0 72 9q91 22 144 51t53 53q0 11 -12 19t-43 18t-73 22q-63 19 -94.5 45t-31.5 76q0 31 11 67t36.5 76t67.5 69t95 29q27 0 52 -7l65 -18l-15 -64l-65 18
q-21 6 -40 6q-61 0 -95 -44t-45 -82q-6 -24 -6 -39q0 -32 20.5 -45.5t71.5 -27.5q69 -21 96.5 -31t43.5 -26t20 -44l1 -12q0 -55 -64.5 -101t-179.5 -72q-43 -10 -85 -10z" />
    <glyph glyph-name="uni06CE.init" unicode="&#x6ce;" horiz-adv-x="365" 
d="M128 631l45 -134l45 134h36l-66 -176h-31l-66 176h37zM-40 -103h80v-80h-80v80zM-5 65h144q51 0 83.5 21t32.5 70q0 24 -7 49l-39 149l57 16l40 -152q9 -36 9 -65q0 -74 -51.5 -113.5t-124.5 -39.5h-144v65zM128 -103h79v-80h-79v80z" />
    <glyph glyph-name="uni06CE.medi" unicode="&#x6ce;" horiz-adv-x="391" 
d="M117 524l45 -134l45 134h36l-66 -176h-31l-66 176h37zM-42 -104h80v-80h-80v80zM-5 65h145q53 0 77.5 21.5t20.5 63.5v3l-11 123l59 5l11 -123q5 -51 27 -72t72 -21l4 -32l-4 -33q-87 0 -126 54q-20 -26 -53.5 -40t-76.5 -14h-145v65zM126 -104h79v-80h-79v80z" />
    <glyph glyph-name="uni06CE.fina" unicode="&#x6ce;" horiz-adv-x="668" 
d="M285 -246q-110 0 -172.5 71t-62.5 192q0 91 37 198l57 -22q-35 -98 -35 -179q0 -92 45.5 -143.5t129.5 -51.5q34 0 73 9q68 17 102 28t56.5 32t22.5 55q0 16 -2 24q-5 25 -44.5 47t-88.5 39l-42 14l18 62l44 -13q85 -26 140.5 -38.5t109.5 -12.5l4 -32l-4 -33
q-47 0 -97 8q15 -20 18 -39q2 -10 2 -30q0 -73 -58.5 -111t-167.5 -64q-43 -10 -85 -10zM200 395l45 -134l45 134h37l-66 -176h-32l-65 176h36z" />
    <glyph glyph-name="uni06D5.fina" unicode="&#x6d5;" horiz-adv-x="509" 
d="M202 73q-46 0 -88 31.5t-56 77.5q-8 26 -8 49q0 49 29.5 91t76.5 58l153 50v49h59v-289q0 -52 37 -88.5t90 -36.5h19l4 -32l-4 -33h-19q-50 0 -93 25t-67 68l-116 -19q-6 -1 -17 -1zM146.5 157.5q25.5 -19.5 55.5 -19.5q9 0 13 1l97 16q-3 18 -3 35v176l-134 -46
q-31 -10 -48.5 -34.5t-17.5 -53.5q0 -15 4 -27q8 -28 33.5 -47.5z" />
    <glyph glyph-name="uni0671.fina" unicode="&#x671;" horiz-adv-x="278" arabic-form="final" 
d="M176 17.5q-35 17.5 -51 58t-19 113.5l-14 357l59 3l14 -360q2 -54 10.5 -79t30 -35t67.5 -10h10l4 -32l-4 -33h-10q-62 0 -97 17.5zM24.5 623.5q14.5 11.5 35.5 13.5l36 49q34 45 57.5 66.5t56.5 21.5q36 0 60 -26t24 -64q0 -33 -25.5 -58t-58.5 -25h-140q-17 0 -27 -7
t-27 -30l-27 21q21 27 35.5 38.5zM210 637q21 0 36.5 14.5t15.5 34.5q0 23 -15 38t-37 15t-40 -16t-45 -52l-25 -34h110z" />
    <glyph glyph-name="uni067E.fina" unicode="&#x67e;" horiz-adv-x="946" arabic-form="final" 
d="M272 2.5q-58 2.5 -84 7.5t-50 16q-44 19 -66 54t-22 84q0 30 9 64l37 140l57 -17l-37 -142q-7 -25 -7 -47q0 -28 13 -46.5t40 -29.5q18 -8 39.5 -12t78.5 -6.5t171 -2.5h235q105 0 99 86v2l-11 123l59 5l11 -123v-2q5 -50 27 -70.5t71 -20.5h11l4 -32l-4 -33h-11
q-86 0 -125 54q-21 -26 -54 -40t-77 -14h-235h-6q-115 0 -173 2.5zM332 -99h84v-85h-84v85zM420 -224h78v-76h-78v76zM584 -99v-85h-84l-1 85h85z" />
    <glyph glyph-name="uni067E.init" unicode="&#x67e;" horiz-adv-x="365" arabic-form="initial" 
d="M-5 65h144q51 0 83.5 21t32.5 70q0 24 -7 49l-39 149l57 16l40 -152q9 -36 9 -65q0 -74 -51.5 -113.5t-124.5 -39.5h-144v65zM40 -97v-84h-84l-1 84h85zM43 -222h79v-76h-79v76zM123 -97h85l-1 -84h-84v84z" />
    <glyph glyph-name="uni067E.medi" unicode="&#x67e;" horiz-adv-x="391" arabic-form="medial" 
d="M-5 65h145q53 0 77.5 21.5t20.5 63.5v3l-11 123l59 5l11 -123q5 -51 27 -72t72 -21l4 -32l-4 -33q-87 0 -126 54q-20 -26 -53.5 -40t-76.5 -14h-145v65zM-50 -96h84v-84h-84v84zM38 -221h78v-76h-78v76zM202 -96v-84h-84l-1 84h85z" />
    <glyph glyph-name="uni0679.fina" unicode="&#x679;" horiz-adv-x="946" arabic-form="final" 
d="M272 2.5q-58 2.5 -84 7.5t-50 16q-44 19 -66 54t-22 84q0 30 9 64l37 140l57 -17l-37 -142q-7 -25 -7 -47q0 -28 13 -46.5t40 -29.5q18 -8 39.5 -12t78.5 -6.5t171 -2.5h235q105 0 99 86v2l-11 123l59 5l11 -123v-2q5 -50 27 -70.5t71 -20.5h11l4 -32l-4 -33h-11
q-86 0 -125 54q-21 -26 -54 -40t-77 -14h-235h-6q-115 0 -173 2.5zM332 325h47l12 17l-9 205l31 1l9 -164q29 39 49 56.5t49 17.5q35 0 58.5 -25t23.5 -62q0 -32 -24.5 -56.5t-57.5 -24.5h-188v35zM520 325q20 0 35 14t15 32q0 23 -14 38t-36 15q-21 0 -35 -14.5t-47 -58.5
l-19 -26h101z" />
    <glyph glyph-name="uni0679.init" unicode="&#x679;" horiz-adv-x="350" arabic-form="initial" 
d="M-5 65h144q51 0 83.5 21t32.5 70q0 24 -7 49l-39 149l57 16l40 -152q9 -36 9 -65q0 -74 -51.5 -113.5t-124.5 -39.5h-144v65zM-3 455h45l13 18l-9 204l31 1l9 -164q28 40 48.5 57.5t49.5 17.5q34 0 58 -25.5t24 -61.5q0 -32 -24.5 -56.5t-57.5 -24.5h-187v34zM184 455
q20 0 35 14.5t15 32.5q0 23 -14 37.5t-36 14.5q-21 0 -35.5 -14.5t-46.5 -57.5l-20 -27h102z" />
    <glyph glyph-name="uni0679.medi" unicode="&#x679;" horiz-adv-x="391" arabic-form="medial" 
d="M-5 65h145q53 0 77.5 21.5t20.5 63.5v3l-11 123l59 5l11 -123q5 -51 27 -72t72 -21l4 -32l-4 -33q-87 0 -126 54q-20 -26 -53.5 -40t-76.5 -14h-145v65zM9 387h46l13 18l-9 204l31 1l8 -163q29 39 49 56.5t49 17.5q35 0 59 -25.5t24 -61.5q0 -32 -25 -56.5t-58 -24.5
h-187v34zM196 387q21 0 36 14.5t15 32.5q0 23 -14 38t-37 15q-20 0 -35.5 -15t-45.5 -58l-20 -27h101z" />
    <glyph glyph-name="uni06A4.fina" unicode="&#x6a4;" horiz-adv-x="951" arabic-form="final" 
d="M272 2.5q-58 2.5 -84 7.5t-50 16q-44 19 -66 54t-22 84q0 30 9 64l37 140l57 -17l-37 -142q-7 -25 -7 -47q0 -28 13 -46.5t40 -29.5q18 -8 39.5 -12t78.5 -6.5t171 -2.5h51q53 0 120 16q-39 26 -61 53t-20 50l5 57q3 42 26 75.5t59.5 52t77.5 18.5q49 0 86.5 -26.5
t56.5 -68.5t16 -86l-3 -43q-3 -42 -79 -87q50 -11 106 -11h64l4 -32l-4 -33h-64q-90 0 -188 39q-50 -18 -102.5 -28.5t-99.5 -10.5h-51h-6q-115 0 -173 2.5zM578 543h84v-84h-84v84zM630 144q28 -22 71 -41q44 16 73 33.5t33 33.5l3 36q3 28 -9 55t-36.5 44t-57.5 17
q-40 0 -70 -26t-33 -65l-5 -50q3 -15 31 -37zM666 660h78v-76h-78v76zM746 543h84v-84h-85z" />
    <glyph glyph-name="uni06A4.init" unicode="&#x6a4;" horiz-adv-x="454" arabic-form="initial" 
d="M-5 65h208q60 0 90 5.5t41.5 19t11.5 41.5q0 8 -2 28q-55 -11 -134 -11q-69 0 -111 41.5t-42 112.5q0 49 18.5 91.5t55.5 68.5t89 26q68 0 114.5 -52t54.5 -139l11 -124q2 -16 2 -45q0 -48 -17 -75.5t-60 -40t-123 -12.5h-207v65zM89 630h84v-84h-85zM137.5 235.5
q26.5 -27.5 72.5 -27.5q71 0 128 13l-6 71q-7 64 -38 100.5t-78 36.5q-49 0 -77 -36t-28 -85q0 -45 26.5 -72.5zM176 746h79v-75h-79v75zM256 630h84l1 -84h-85v84z" />
    <glyph glyph-name="uni06A4.medi" unicode="&#x6a4;" horiz-adv-x="501" arabic-form="medial" 
d="M-5 65h57q53 0 120 16q-40 25 -62 52.5t-20 50.5l6 57q3 42 26 75.5t59 52t77 18.5q50 0 87.5 -26.5t56.5 -68.5t16 -86l-3 -43q-3 -42 -79 -87q50 -11 106 -11h64l4 -32l-4 -33h-64q-90 0 -188 39q-50 -18 -102.5 -28.5t-99.5 -10.5h-57v65zM125 535h84v-84h-85z
M180 144q28 -22 71 -41q44 16 72.5 33.5t32.5 33.5l4 36q3 28 -9 55t-36.5 44t-57.5 17q-40 0 -70 -26t-33 -65l-5 -50q3 -15 31 -37zM212 652h79v-76h-79v76zM292 535h84l1 -84h-85v84z" />
    <glyph glyph-name="uni0686.fina" unicode="&#x686;" horiz-adv-x="727" arabic-form="final" 
d="M332 -125l69 21l21 -67l-69 -21zM50 -103q0 83 53.5 154t172.5 103l293 79l-238 128q-30 17 -65 17q-34 0 -64 -17.5t-49 -50.5l-18 -32l-51 31l19 34q28 48 70.5 74.5t90.5 26.5t95 -26l283 -157l-10 -76l-63 -17q9 -45 43.5 -74t82.5 -29h37l4 -32l-4 -33h-37
q-68 0 -117 43t-63 110l-224 -62q-99 -27 -140.5 -80t-41.5 -114q0 -27 6 -48q16 -62 69 -100t121 -38q30 0 58 7l254 70l15 -63l-257 -71q-36 -9 -71 -9q-87 0 -154.5 50.5t-90.5 135.5q-9 30 -9 66zM300 -20l23 -74l-73 -22l-23 74zM442 23l23 -74l-73 -22l-23 74z" />
    <glyph glyph-name="uni0686.init" unicode="&#x686;" horiz-adv-x="644" arabic-form="initial" 
d="M-5 65h12q90 0 147.5 4t121.5 23l248 69l-214 128q-31 19 -66 19q-34 0 -63.5 -18.5t-48.5 -51.5l-18 -32l-51 31l19 34q27 49 69.5 76t90.5 27q50 0 96 -28l256 -157l-10 -76l-294 -84q-69 -20 -130 -24.5t-154 -4.5h-11v65zM178 -95h85l-1 -84h-84v84zM266 -220h78v-76
h-78v76zM346 -95h84v-84h-84v84z" />
    <glyph glyph-name="uni0686.medi" unicode="&#x686;" horiz-adv-x="677" arabic-form="medial" 
d="M-5 65h12q129 2 266 42l253 77l-219 118q-33 18 -66 18t-62.5 -18t-48.5 -52l-18 -32l-51 31l19 34q27 49 69 75.5t90 26.5t96 -27l258 -144l-9 -75l-52 -17q10 -25 33 -41t52 -16h65l4 -32l-4 -33h-65q-49 0 -88 29t-53 75l-187 -60q-140 -44 -283 -44h-11v65zM270 -92
v-84h-84l-1 84h85zM273 -217h79v-76h-79v76zM353 -92h85l-1 -84h-84v84z" />
    <glyph glyph-name="uni0688.fina" unicode="&#x688;" horiz-adv-x="569" arabic-form="final" 
d="M120 25.5q-42 25.5 -48 70.5q-5 23 -5 67h54q0 -32 5 -54q5 -24 29 -34t71 -10h47q121 0 121 72q0 13 -3 26l-1 3l-75 295l58 16l75 -296q10 -39 19 -62t26 -38.5t45 -15.5h49l4 -32l-4 -33h-49q-70 0 -107 61q-45 -61 -165 -61h-31q-73 0 -115 25.5zM173 588h46l13 18
l-9 204l31 1l9 -162q28 38 48.5 55t49.5 17q35 0 58.5 -25t23.5 -62q0 -31 -25 -55.5t-57 -24.5h-188v34zM361 588q20 0 35 14t15 32q0 23 -14 38t-36 15q-21 0 -36.5 -15t-45.5 -57l-20 -27h102z" />
    <glyph glyph-name="uni0698.fina" unicode="&#x698;" horiz-adv-x="397" arabic-form="final" 
d="M268 10l2 -14q3 -21 3 -39q0 -61 -29 -100.5t-76 -62t-118 -41.5l-35 -10l-15 63l35 10q62 16 97 30t58.5 41.5t23.5 73.5q0 9 -2 27l-40 288l59 9l10 -74l7 -46q7 -42 15 -63t23 -29t42 -8h74l4 -32l-4 -33h-74q-37 0 -60 10zM76 470h84l1 -84h-85v84zM164 587h78v-76
h-78v76zM244 470h84v-84h-84v84z" />
    <glyph glyph-name="uni0691.fina" unicode="&#x691;" horiz-adv-x="334" arabic-form="final" 
d="M268 10l2 -14q3 -21 3 -39q0 -61 -29 -100.5t-76 -62t-118 -41.5l-35 -10l-15 63l35 10q62 16 97 30t58.5 41.5t23.5 73.5q0 9 -2 27l-40 288l59 9l10 -74l7 -46q7 -42 15 -63t23 -29t42 -8h7l4 -32l-4 -33h-7q-37 0 -60 10zM44 385h47l12 17l-9 205l31 1l9 -164
q27 38 48 56t50 18q35 0 58.5 -25t23.5 -62q0 -32 -24.5 -56.5t-57.5 -24.5h-188v35zM232 385q20 0 35 14t15 32q0 23 -14 38t-36 15q-21 0 -36.5 -15.5t-45.5 -57.5l-19 -26h101z" />
    <glyph glyph-name="uni06A9.fina" unicode="&#x6a9;" horiz-adv-x="951" arabic-form="final" 
d="M272 2.5q-58 2.5 -84 7.5t-50 16q-44 19 -66 54t-22 84q0 30 9 64l37 140l57 -17l-37 -142q-7 -25 -7 -47q0 -28 13 -46.5t40 -29.5q18 -8 39.5 -12t78.5 -6.5t171 -2.5h197q27 0 43 13q15 10 23.5 26t8.5 34q0 23 -12 42l-223 316l13 49l362 133l21 -61l-322 -118
l194 -279l6 -10q55 -83 93.5 -114t86.5 -31h14l3 -32l-3 -33h-14q-47 0 -85.5 22.5t-78.5 71.5q-11 -35 -37 -58q-34 -36 -94 -36h-196h-6q-115 0 -173 2.5z" />
    <glyph glyph-name="uni06A9.init" unicode="&#x6a9;" horiz-adv-x="459" arabic-form="initial" 
d="M-5 65h203q27 0 43 13q15 10 23.5 26t8.5 34q0 23 -12 42l-223 316l13 49l362 133l21 -61l-322 -118l194 -279q27 -41 27 -88q0 -28 -11 -53t-31 -43q-34 -36 -94 -36h-202v65z" />
    <glyph glyph-name="uni06A9.medi" unicode="&#x6a9;" horiz-adv-x="500" arabic-form="medial" 
d="M406.5 22.5q-38.5 22.5 -78.5 71.5q-12 -37 -37 -58q-34 -36 -94 -36h-202v65h203q27 0 43 13q15 10 23.5 26t8.5 34q0 23 -12 42l-223 316l13 49l362 133l21 -61l-322 -118l194 -279l7 -11q54 -82 93 -113t85 -31h14l4 -32l-4 -33h-14q-46 0 -84.5 22.5z" />
    <glyph glyph-name="uni06AF.fina" unicode="&#x6af;" horiz-adv-x="951" arabic-form="final" 
d="M272 2.5q-58 2.5 -84 7.5t-50 16q-44 19 -66 54t-22 84q0 30 9 64l37 140l57 -17l-37 -142q-7 -25 -7 -47q0 -28 13 -46.5t40 -29.5q18 -8 39.5 -12t78.5 -6.5t171 -2.5h197q27 0 43 13q15 10 23.5 26t8.5 34q0 23 -12 42l-223 316l13 49l362 133l21 -61l-322 -118
l194 -279l6 -10q55 -83 93.5 -114t86.5 -31h14l3 -32l-3 -33h-14q-47 0 -85.5 22.5t-78.5 71.5q-11 -35 -37 -58q-34 -36 -94 -36h-196h-6q-115 0 -173 2.5zM761 769l16 -42l-244 -88l-15 42z" />
    <glyph glyph-name="uni06AF.init" unicode="&#x6af;" horiz-adv-x="459" arabic-form="initial" 
d="M-5 65h203q27 0 43 13q15 10 23.5 26t8.5 34q0 23 -12 42l-223 316l13 49l362 133l21 -61l-322 -118l194 -279q27 -41 27 -88q0 -28 -11 -53t-31 -43q-34 -36 -94 -36h-202v65zM315 768l15 -42l-243 -88l-15 42z" />
    <glyph glyph-name="uni06AF.medi" unicode="&#x6af;" horiz-adv-x="500" arabic-form="medial" 
d="M406.5 22.5q-38.5 22.5 -78.5 71.5q-12 -37 -37 -58q-34 -36 -94 -36h-202v65h203q27 0 43 13q15 10 23.5 26t8.5 34q0 23 -12 42l-223 316l13 49l362 133l21 -61l-322 -118l194 -279l7 -11q54 -82 93 -113t85 -31h14l4 -32l-4 -33h-14q-46 0 -84.5 22.5zM315 768l15 -42
l-243 -88l-15 42z" />
    <glyph glyph-name="uni06BA.fina" unicode="&#x6ba;" horiz-adv-x="694" arabic-form="final" 
d="M601 21l1 -9q3 -24 3 -44q0 -65 -31 -105t-80 -60.5t-124 -38.5q-43 -10 -85 -10q-110 0 -172.5 71t-62.5 192q0 91 37 198l57 -22q-35 -98 -35 -179q0 -92 45.5 -143.5t129.5 -51.5q34 0 73 9q73 18 107 29.5t58 38.5t24 75q0 20 -2 31q-4 40 -32 219l-8 55l58 10l3 -23
l8 -49l7 -44q10 -56 30.5 -80.5t59.5 -24.5h29l4 -32l-4 -33h-28q-41 0 -70 21z" />
    <glyph glyph-name="uni06C1.init" unicode="&#x6c1;" horiz-adv-x="382" arabic-form="initial" 
d="M-5 65h160q51 0 84 21t33 69q0 20 -8 50l-39 149l57 16l40 -152q9 -36 9 -65q0 -74 -51.5 -113.5t-124.5 -39.5h-160v65zM77 -242q0 15 13.5 45.5t55.5 111.5l34 -21l-18 -34q-28 -55 -32 -63q2 1 8 1q25 0 43 -17.5t18 -42.5t-18 -43.5t-43 -18.5t-43 18t-18 44v20z" />
    <glyph glyph-name="uni06BE.init" unicode="&#x6be;" horiz-adv-x="618" arabic-form="initial" 
d="M76 144.5q-25 39.5 -25 85.5q0 36 17 73q26 54 76 77l-36 19l27 57l140 -74l5 -2l16 -9l192 -101q41 -21 64.5 -59.5t23.5 -82.5q0 -32 -15 -64q-19 -41 -56.5 -65t-80.5 -24q-30 0 -63 14l-123 55q-86 -44 -197 -44h-46v65h46q68 0 119 14l-16 7q-43 19 -68 58.5z
M113 231q0 -28 15 -50.5t42 -35.5l67 -31q47 31 66 74q10 23 10 43q0 28 -15 52.5t-41 37.5q-24 11 -45 11q-28 0 -51.5 -15t-36.5 -40q-11 -24 -11 -46zM385 45q20 -9 39 -9q27 0 50 14.5t35 38.5q8 16 8 38q0 26 -14.5 49.5t-40.5 37.5l-94 49q3 -15 3 -32q0 -35 -15 -70
q-20 -44 -57 -76z" />
    <glyph glyph-name="uni06C7.fina" unicode="&#x6c7;" horiz-adv-x="444" arabic-form="final" 
d="M264 -152.5q52 15.5 78 41t26 73.5q0 7 -2 27l-1 11h-139q-73 0 -116 44.5t-43 121.5q0 48 20.5 90.5t58.5 69t88 26.5q69 0 116 -54t58 -142l10 -91h62l4 -32l-4 -33h-2h-53v-3q2 -26 2 -37q0 -69 -33.5 -107.5t-98 -60.5t-192.5 -49l-12 64q121 25 173 40.5zM204 499
l-19 66q-3 12 -3 24q0 35 27 60t68 25t70.5 -26.5t29.5 -66.5q0 -35 -26 -62.5t-71 -38.5l-182 -43l-7 35zM226 65h132l-9 83q-7 66 -38 102.5t-78 36.5q-50 0 -78 -36t-28 -85q0 -101 99 -101zM238 507l34 8q33 8 51.5 26t18.5 41q0 25 -18 41.5t-45 16.5q-28 0 -45.5 -15
t-17.5 -36q0 -8 3 -17z" />
    <glyph glyph-name="uni06C6.fina" unicode="&#x6c6;" horiz-adv-x="444" arabic-form="final" 
d="M264 -152.5q52 15.5 78 41t26 73.5q0 7 -2 27l-1 11h-139q-73 0 -116 44.5t-43 121.5q0 48 20.5 90.5t58.5 69t88 26.5q69 0 116 -54t58 -142l10 -91h62l4 -32l-4 -33h-2h-53v-3q2 -26 2 -37q0 -69 -33.5 -107.5t-98 -60.5t-192.5 -49l-12 64q121 25 173 40.5zM226 65
h132l-9 83q-7 66 -38 102.5t-78 36.5q-50 0 -78 -36t-28 -85q0 -101 99 -101zM186 605l45 -135l45 135h37l-66 -176h-32l-65 176h36z" />
    <glyph glyph-name="uni06C9.fina" unicode="&#x6c9;" horiz-adv-x="444" arabic-form="final" 
d="M264 -152.5q52 15.5 78 41t26 73.5q0 7 -2 27l-1 11h-139q-73 0 -116 44.5t-43 121.5q0 48 20.5 90.5t58.5 69t88 26.5q69 0 116 -54t58 -142l10 -91h62l4 -32l-4 -33h-2h-53v-3q2 -26 2 -37q0 -69 -33.5 -107.5t-98 -60.5t-192.5 -49l-12 64q121 25 173 40.5zM226 65
h132l-9 83q-7 66 -38 102.5t-78 36.5q-50 0 -78 -36t-28 -85q0 -101 99 -101zM216 604h31l66 -175h-36l-46 134l-45 -134h-36z" />
    <glyph glyph-name="uni06CC.fina" unicode="&#x6cc;" horiz-adv-x="668" arabic-form="final" 
d="M285 -246q-110 0 -172.5 71t-62.5 192q0 91 37 198l57 -22q-35 -98 -35 -179q0 -92 45.5 -143.5t129.5 -51.5q34 0 73 9q68 17 102 28t56.5 32t22.5 55q0 16 -2 24q-5 25 -44.5 47t-88.5 39l-42 14l18 62l44 -13q85 -26 140.5 -38.5t109.5 -12.5l4 -32l-4 -33
q-47 0 -97 8q15 -20 18 -39q2 -10 2 -30q0 -73 -58.5 -111t-167.5 -64q-43 -10 -85 -10z" />
    <glyph glyph-name="uni06CC.init" unicode="&#x6cc;" horiz-adv-x="365" arabic-form="initial" 
d="M-5 65h144q51 0 83.5 21t32.5 70q0 24 -7 49l-39 149l57 16l40 -152q9 -36 9 -65q0 -74 -51.5 -113.5t-124.5 -39.5h-144v65zM-40 -103h80v-80h-80v80zM128 -103h79v-80h-79v80z" />
    <glyph glyph-name="uni06CC.medi" unicode="&#x6cc;" horiz-adv-x="391" arabic-form="medial" 
d="M-5 65h145q53 0 77.5 21.5t20.5 63.5v3l-11 123l59 5l11 -123q5 -51 27 -72t72 -21l4 -32l-4 -33q-87 0 -126 54q-20 -26 -53.5 -40t-76.5 -14h-145v65zM-42 -104h80v-80h-80v80zM126 -104h79v-80h-79v80z" />
    <glyph glyph-name="uniFDFC" unicode="&#xfdfc;" horiz-adv-x="1386" arabic-form="isolated" 
d="M999 -250h-80v81h80v-81zM143 191q-34 -98 -34 -178q0 -92 45 -144.5t127 -52.5q35 0 74 10l23 6q59 14 92.5 29t54.5 48.5t19 95.5l-25 644l59 3l25 -644q3 -85 -28 -133.5t-79 -70.5t-127 -41q-43 -11 -88 -11q-108 0 -169.5 71.5t-61.5 192.5q0 90 37 197zM765 601
l18 -463q3 -54 11.5 -79t30 -34.5t67.5 -9.5h74q52 0 84.5 20.5t32.5 69.5q0 22 -7 49l-40 149l57 16l40 -149q9 -36 9 -66q0 -75 -51 -115t-125 -40h-79q-61 0 -95 18t-49.5 58.5t-18.5 112.5l-18 460zM752 -169h79v-81h-79v81zM1098 -179q64 17 98 31t57.5 41t23.5 73
q0 8 -2 28l-40 287l59 9l29 -214l3 -25q3 -16 7 -50q3 -21 3 -40q0 -61 -29 -100t-76 -61.5t-118 -41.5l-35 -10l-15 64z" />
    <glyph glyph-name="uni0622.fina" unicode="&#x622;" horiz-adv-x="278" arabic-form="final" 
d="M176 17.5q-35 17.5 -51 58t-19 113.5l-14 357l59 3l14 -360q2 -54 10.5 -79t30 -35t67.5 -10h10l4 -32l-4 -33h-10q-62 0 -97 17.5zM-10 586q0 35 20.5 56t54.5 21q6 0 22 -2l101 -19q5 -1 13 -1q21 0 32.5 11t11.5 31v7l33 2v-15q0 -35 -21 -56.5t-55 -21.5q-6 0 -20 2
l-101 19q-10 2 -15 2q-20 0 -31.5 -11.5t-11.5 -30.5v-7l-33 -2v15z" />
    <glyph glyph-name="uni0623.fina" unicode="&#x623;" horiz-adv-x="278" arabic-form="final" 
d="M176 17.5q-35 17.5 -51 58t-19 113.5l-14 357l59 3l14 -360q2 -54 10.5 -79t30 -35t67.5 -10h10l4 -32l-4 -33h-10q-62 0 -97 17.5zM97 650q-25 21 -33 54q-3 11 -3 22q0 39 27.5 66t68.5 27q27 0 71 -9l-6 -35q-42 8 -67 8q-28 0 -44.5 -16.5t-16.5 -40.5
q0 -26 17.5 -43t41.5 -17q5 0 15 2l98 23l8 -35l-259 -61l-7 34z" />
    <glyph glyph-name="uni0624.fina" unicode="&#x624;" horiz-adv-x="475" arabic-form="final" 
d="M264 -152.5q52 15.5 78 41t26 73.5q0 7 -2 27l-1 11h-139q-73 0 -116 44.5t-43 121.5q0 48 20.5 90.5t58.5 69t88 26.5q69 0 116 -54t58 -142l10 -91h62l4 -32l-4 -33h-2h-53v-3q2 -26 2 -37q0 -69 -33.5 -107.5t-98 -60.5t-192.5 -49l-12 64q121 25 173 40.5zM198 447
q-25 21 -33 54q-3 11 -3 22q0 39 27.5 65.5t68.5 26.5q27 0 72 -9l-7 -35q-44 9 -69 9q-26 0 -42.5 -17t-16.5 -40q0 -28 21 -46t48 -14l104 25l7 -35l-98 -24l-8 -2l-152 -36l-8 35zM226 65h132l-9 83q-7 66 -38 102.5t-78 36.5q-50 0 -78 -36t-28 -85q0 -101 99 -101z" />
    <glyph glyph-name="uni0625.fina" unicode="&#x625;" horiz-adv-x="267" arabic-form="final" 
d="M165 17.5q-35 17.5 -51 58t-19 113.5l-18 460l59 2l18 -462q2 -54 10.5 -79t30 -35t67.5 -10h10l4 -32l-4 -33h-10q-62 0 -97 17.5zM90 -210q-25 22 -32 53q-3 12 -3 22q0 39 27.5 66t68.5 27q27 0 72 -9l-7 -35q-45 9 -70 9t-41.5 -16.5t-16.5 -40.5q0 -28 21 -46
t48 -14l104 25l7 -35l-99 -24l-6 -1l-153 -37l-8 35z" />
    <glyph glyph-name="uni0626.fina" unicode="&#x626;" horiz-adv-x="668" arabic-form="final" 
d="M285 -246q-110 0 -172.5 71t-62.5 192q0 91 37 198l57 -22q-35 -98 -35 -179q0 -92 45.5 -143.5t129.5 -51.5q34 0 73 9q68 17 102 28t56.5 32t22.5 55q0 16 -2 24q-5 25 -44.5 47t-88.5 39l-42 14l18 62l44 -13q85 -26 140.5 -38.5t109.5 -12.5l4 -32l-4 -33
q-47 0 -97 8q15 -20 18 -39q2 -10 2 -30q0 -73 -58.5 -111t-167.5 -64q-43 -10 -85 -10zM295 257q-24 20 -32 53q-3 11 -3 22q0 39 27.5 66t68.5 27q27 0 71 -9l-6 -35q-45 9 -70 9q-26 0 -42.5 -17t-16.5 -40q0 -29 21 -46.5t48 -13.5l104 25l8 -35l-99 -24l-7 -1l-153 -37
l-7 35z" />
    <glyph glyph-name="uni0626.init" unicode="&#x626;" horiz-adv-x="301" arabic-form="initial" 
d="M-5 65h79q53 0 85.5 21t32.5 70q0 24 -7 49l-40 149l56 16l40 -149q9 -36 9 -66q0 -76 -50.5 -115.5t-125.5 -39.5h-79v65zM103 475q-25 21 -33 54q-3 11 -3 22q0 36 24.5 63t60.5 29q4 1 12 1q28 0 70 -10l-6 -34q-42 8 -67 8q-27 0 -44.5 -16.5t-17.5 -40.5
q0 -27 20.5 -44.5t47.5 -15.5l105 25l8 -35l-99 -24l-6 -1l-154 -37l-8 35z" />
    <glyph glyph-name="uni0626.medi" unicode="&#x626;" horiz-adv-x="309" arabic-form="medial" 
d="M-5 65h63q105 0 99 86v2l-11 123l58 5l11 -123v-1q5 -50 27 -71t72 -21l4 -32l-4 -33q-86 0 -125 54q-21 -26 -54 -40t-77 -14h-63v65zM104 409q-25 21 -33 54q-3 11 -3 22q0 39 27.5 66t68.5 27q27 0 71 -9l-6 -35q-42 8 -67 8q-28 0 -44.5 -16.5t-16.5 -40.5
q0 -26 17.5 -43t41.5 -17q5 0 15 2l98 23l8 -35l-259 -61l-7 34z" />
    <glyph glyph-name="uni0627.fina" unicode="&#x627;" horiz-adv-x="267" arabic-form="final" 
d="M165 17.5q-35 17.5 -51 58t-19 113.5l-18 460l59 2l18 -462q2 -54 10.5 -79t30 -35t67.5 -10h10l4 -32l-4 -33h-10q-62 0 -97 17.5z" />
    <glyph glyph-name="uni0628.fina" unicode="&#x628;" horiz-adv-x="946" arabic-form="final" 
d="M272 2.5q-58 2.5 -84 7.5t-50 16q-44 19 -66 54t-22 84q0 30 9 64l37 140l57 -17l-37 -142q-7 -25 -7 -47q0 -28 13 -46.5t40 -29.5q18 -8 39.5 -12t78.5 -6.5t171 -2.5h235q105 0 99 86v2l-11 123l59 5l11 -123v-2q5 -50 27 -70.5t71 -20.5h11l4 -32l-4 -33h-11
q-86 0 -125 54q-21 -26 -54 -40t-77 -14h-235h-6q-115 0 -173 2.5zM411 -93h90v-90h-90v90z" />
    <glyph glyph-name="uni0628.init" unicode="&#x628;" horiz-adv-x="301" arabic-form="initial" 
d="M-5 65h79q53 0 85.5 21t32.5 70q0 24 -7 49l-40 149l56 16l40 -149q9 -36 9 -66q0 -76 -50.5 -115.5t-125.5 -39.5h-79v65zM21 -95h90v-90h-90v90z" />
    <glyph glyph-name="uni0628.medi" unicode="&#x628;" horiz-adv-x="309" arabic-form="medial" 
d="M-5 65h63q105 0 99 86v2l-11 123l58 5l11 -123v-1q5 -50 27 -71t72 -21l4 -32l-4 -33q-86 0 -125 54q-21 -26 -54 -40t-77 -14h-63v65zM8 -94h90v-90h-90v90z" />
    <glyph glyph-name="uni0629.fina" unicode="&#x629;" horiz-adv-x="509" arabic-form="final" 
d="M202 73q-46 0 -88 31.5t-56 77.5q-8 26 -8 49q0 49 29.5 91t76.5 58l153 50v49h59v-289q0 -52 37 -88.5t90 -36.5h19l4 -32l-4 -33h-19q-50 0 -93 25t-67 68l-116 -19q-6 -1 -17 -1zM146.5 157.5q25.5 -19.5 55.5 -19.5q9 0 13 1l97 16q-3 18 -3 35v176l-134 -46
q-31 -10 -48.5 -34.5t-17.5 -53.5q0 -15 4 -27q8 -28 33.5 -47.5zM119 618h80v-81h-80v81zM287 618h80v-81h-80v81z" />
    <glyph glyph-name="uni062A.fina" unicode="&#x62a;" horiz-adv-x="946" arabic-form="final" 
d="M272 2.5q-58 2.5 -84 7.5t-50 16q-44 19 -66 54t-22 84q0 30 9 64l37 140l57 -17l-37 -142q-7 -25 -7 -47q0 -28 13 -46.5t40 -29.5q18 -8 39.5 -12t78.5 -6.5t171 -2.5h235q105 0 99 86v2l-11 123l59 5l11 -123v-2q5 -50 27 -70.5t71 -20.5h11l4 -32l-4 -33h-11
q-86 0 -125 54q-21 -26 -54 -40t-77 -14h-235h-6q-115 0 -173 2.5zM331 415h80v-80h-80v80zM498 415h80v-80h-80v80z" />
    <glyph glyph-name="uni062A.init" unicode="&#x62a;" horiz-adv-x="365" arabic-form="initial" 
d="M-5 65h144q51 0 83.5 21t32.5 70q0 24 -7 49l-39 149l57 16l40 -152q9 -36 9 -65q0 -74 -51.5 -113.5t-124.5 -39.5h-144v65zM48 546h79v-81h-79v81zM215 546h80v-81h-80v81z" />
    <glyph glyph-name="uni062A.medi" unicode="&#x62a;" horiz-adv-x="391" arabic-form="medial" 
d="M-5 65h145q53 0 77.5 21.5t20.5 63.5v3l-11 123l59 5l11 -123q5 -51 27 -72t72 -21l4 -32l-4 -33q-87 0 -126 54q-20 -26 -53.5 -40t-76.5 -14h-145v65zM28 472h80v-80h-80v80zM196 472h80v-80h-80v80z" />
    <glyph glyph-name="uni062B.fina" unicode="&#x62b;" horiz-adv-x="946" arabic-form="final" 
d="M272 2.5q-58 2.5 -84 7.5t-50 16q-44 19 -66 54t-22 84q0 30 9 64l37 140l57 -17l-37 -142q-7 -25 -7 -47q0 -28 13 -46.5t40 -29.5q18 -8 39.5 -12t78.5 -6.5t171 -2.5h235q105 0 99 86v2l-11 123l59 5l11 -123v-2q5 -50 27 -70.5t71 -20.5h11l4 -32l-4 -33h-11
q-86 0 -125 54q-21 -26 -54 -40t-77 -14h-235h-6q-115 0 -173 2.5zM328 400h84l1 -85h-85v85zM416 516h78v-75h-78v75zM496 400h84v-85h-84v85z" />
    <glyph glyph-name="uni062B.init" unicode="&#x62b;" horiz-adv-x="365" arabic-form="initial" 
d="M-5 65h144q51 0 83.5 21t32.5 70q0 24 -7 49l-39 149l57 16l40 -152q9 -36 9 -65q0 -74 -51.5 -113.5t-124.5 -39.5h-144v65zM46 549h84v-84h-85zM133 665h79v-75h-79v75zM213 549h84l1 -84h-85v84z" />
    <glyph glyph-name="uni062B.medi" unicode="&#x62b;" horiz-adv-x="391" arabic-form="medial" 
d="M-5 65h145q53 0 77.5 21.5t20.5 63.5v3l-11 123l59 5l11 -123q5 -51 27 -72t72 -21l4 -32l-4 -33q-87 0 -126 54q-20 -26 -53.5 -40t-76.5 -14h-145v65zM27 477h84v-84h-85zM114 593h79v-75h-79v75zM194 477h84l1 -84h-85v84z" />
    <glyph glyph-name="uni062C.fina" unicode="&#x62c;" horiz-adv-x="727" arabic-form="final" 
d="M304 -355q-87 0 -154.5 50.5t-90.5 135.5q-9 30 -9 66q0 83 53.5 154t172.5 103l293 79l-238 128q-30 17 -65 17q-34 0 -64 -17.5t-49 -50.5l-18 -32l-51 31l19 34q28 48 70.5 74.5t90.5 26.5t95 -26l283 -157l-10 -76l-63 -17q9 -45 43.5 -74t82.5 -29h37l4 -32l-4 -33
h-37q-68 0 -117 43t-63 110l-224 -62q-99 -27 -140.5 -80t-41.5 -114q0 -27 6 -48q16 -62 69 -100t121 -38q30 0 58 7l254 70l15 -63l-257 -71q-36 -9 -71 -9zM324 -39h90v-90h-90v90z" />
    <glyph glyph-name="uni062C.init" unicode="&#x62c;" horiz-adv-x="644" arabic-form="initial" 
d="M-5 65h12q90 0 147.5 4t121.5 23l248 69l-214 128q-31 19 -66 19q-34 0 -63.5 -18.5t-48.5 -51.5l-18 -32l-51 31l19 34q27 49 69.5 76t90.5 27q50 0 96 -28l256 -157l-10 -76l-294 -84q-69 -20 -130 -24.5t-154 -4.5h-11v65zM256 -87h90v-90h-90v90z" />
    <glyph glyph-name="uni062C.medi" unicode="&#x62c;" horiz-adv-x="677" arabic-form="medial" 
d="M-5 65h12q129 2 266 42l253 77l-219 118q-33 18 -66 18t-62.5 -18t-48.5 -52l-18 -32l-51 31l19 34q27 49 69 75.5t90 26.5t96 -27l258 -144l-9 -75l-52 -17q10 -25 33 -41t52 -16h65l4 -32l-4 -33h-65q-49 0 -88 29t-53 75l-187 -60q-140 -44 -283 -44h-11v65zM256 -87
h90v-90h-90v90z" />
    <glyph glyph-name="uni062D.fina" unicode="&#x62d;" horiz-adv-x="727" arabic-form="final" 
d="M304 -355q-87 0 -154.5 50.5t-90.5 135.5q-9 30 -9 66q0 83 53.5 154t172.5 103l293 79l-238 128q-30 17 -65 17q-34 0 -64 -17.5t-49 -50.5l-18 -32l-51 31l19 34q28 48 70.5 74.5t90.5 26.5t95 -26l283 -157l-10 -76l-63 -17q9 -45 43.5 -74t82.5 -29h37l4 -32l-4 -33
h-37q-68 0 -117 43t-63 110l-224 -62q-99 -27 -140.5 -80t-41.5 -114q0 -27 6 -48q16 -62 69 -100t121 -38q30 0 58 7l254 70l15 -63l-257 -71q-36 -9 -71 -9z" />
    <glyph glyph-name="uni062D.init" unicode="&#x62d;" horiz-adv-x="644" arabic-form="initial" 
d="M-5 65h12q90 0 147.5 4t121.5 23l248 69l-214 128q-31 19 -66 19q-34 0 -63.5 -18.5t-48.5 -51.5l-18 -32l-51 31l19 34q27 49 69.5 76t90.5 27q50 0 96 -28l256 -157l-10 -76l-294 -84q-69 -20 -130 -24.5t-154 -4.5h-11v65z" />
    <glyph glyph-name="uni062D.medi" unicode="&#x62d;" horiz-adv-x="677" arabic-form="medial" 
d="M-5 65h12q129 2 266 42l253 77l-219 118q-33 18 -66 18t-62.5 -18t-48.5 -52l-18 -32l-51 31l19 34q27 49 69 75.5t90 26.5t96 -27l258 -144l-9 -75l-52 -17q10 -25 33 -41t52 -16h65l4 -32l-4 -33h-65q-49 0 -88 29t-53 75l-187 -60q-140 -44 -283 -44h-11v65z" />
    <glyph glyph-name="uni062E.fina" unicode="&#x62e;" horiz-adv-x="727" arabic-form="final" 
d="M304 -355q-87 0 -154.5 50.5t-90.5 135.5q-9 30 -9 66q0 83 53.5 154t172.5 103l293 79l-238 128q-30 17 -65 17q-34 0 -64 -17.5t-49 -50.5l-18 -32l-51 31l19 34q28 48 70.5 74.5t90.5 26.5t95 -26l283 -157l-10 -76l-63 -17q9 -45 43.5 -74t82.5 -29h37l4 -32l-4 -33
h-37q-68 0 -117 43t-63 110l-224 -62q-99 -27 -140.5 -80t-41.5 -114q0 -27 6 -48q16 -62 69 -100t121 -38q30 0 58 7l254 70l15 -63l-257 -71q-36 -9 -71 -9zM218 615h90v-90h-90v90z" />
    <glyph glyph-name="uni062E.init" unicode="&#x62e;" horiz-adv-x="644" arabic-form="initial" 
d="M-5 65h12q90 0 147.5 4t121.5 23l248 69l-214 128q-31 19 -66 19q-34 0 -63.5 -18.5t-48.5 -51.5l-18 -32l-51 31l19 34q27 49 69.5 76t90.5 27q50 0 96 -28l256 -157l-10 -76l-294 -84q-69 -20 -130 -24.5t-154 -4.5h-11v65zM190 564h90v-90h-90v90z" />
    <glyph glyph-name="uni062E.medi" unicode="&#x62e;" horiz-adv-x="677" arabic-form="medial" 
d="M-5 65h12q129 2 266 42l253 77l-219 118q-33 18 -66 18t-62.5 -18t-48.5 -52l-18 -32l-51 31l19 34q27 49 69 75.5t90 26.5t96 -27l258 -144l-9 -75l-52 -17q10 -25 33 -41t52 -16h65l4 -32l-4 -33h-65q-49 0 -88 29t-53 75l-187 -60q-140 -44 -283 -44h-11v65zM189 564
h90v-90h-90v90z" />
    <glyph glyph-name="uni062F.fina" unicode="&#x62f;" horiz-adv-x="582" arabic-form="final" 
d="M120 25.5q-42 25.5 -48 70.5q-5 23 -5 67h54q0 -32 5 -54q5 -24 29 -34t71 -10h47q121 0 121 72q0 13 -3 26l-1 3l-75 295l58 16l75 -296q10 -39 19 -62t26 -38.5t45 -15.5h49l4 -32l-4 -33h-49q-70 0 -107 61q-45 -61 -165 -61h-31q-73 0 -115 25.5z" />
    <glyph glyph-name="uni0630.fina" unicode="&#x630;" horiz-adv-x="582" arabic-form="final" 
d="M120 25.5q-42 25.5 -48 70.5q-5 23 -5 67h54q0 -32 5 -54q5 -24 29 -34t71 -10h47q121 0 121 72q0 13 -3 26l-1 3l-75 295l58 16l75 -296q10 -39 19 -62t26 -38.5t45 -15.5h49l4 -32l-4 -33h-49q-70 0 -107 61q-45 -61 -165 -61h-31q-73 0 -115 25.5zM280 642h90v-90h-90
v90z" />
    <glyph glyph-name="uni0631.fina" unicode="&#x631;" horiz-adv-x="332" arabic-form="final" 
d="M268 10l2 -14q3 -21 3 -39q0 -61 -29 -100.5t-76 -62t-118 -41.5l-35 -10l-15 63l35 10q62 16 97 30t58.5 41.5t23.5 73.5q0 9 -2 27l-40 288l59 9l10 -74l7 -46q7 -42 15 -63t23 -29t42 -8h7l4 -32l-4 -33h-7q-37 0 -60 10z" />
    <glyph glyph-name="uni0632.fina" unicode="&#x632;" horiz-adv-x="332" arabic-form="final" 
d="M268 10l2 -14q3 -21 3 -39q0 -61 -29 -100.5t-76 -62t-118 -41.5l-35 -10l-15 63l35 10q62 16 97 30t58.5 41.5t23.5 73.5q0 9 -2 27l-40 288l59 9l10 -74l7 -46q7 -42 15 -63t23 -29t42 -8h7l4 -32l-4 -33h-7q-37 0 -60 10zM142 491h90v-90h-90v90z" />
    <glyph glyph-name="uni0633.fina" unicode="&#x633;" horiz-adv-x="1248" arabic-form="final" 
d="M833 61q-41 -61 -124 -61q-68 0 -111 43l4 -31q3 -24 3 -44q0 -65 -31 -105t-80 -60.5t-124 -38.5q-43 -10 -85 -10q-110 0 -172.5 71t-62.5 192q0 91 37 198l57 -22q-35 -98 -35 -179q0 -92 45.5 -143.5t129.5 -51.5q34 0 73 9q73 18 107 29.5t58 38.5t24 75q0 20 -2 31
q-5 38 -40 274l58 10l16 -106v0q11 -61 42 -87.5t87 -26.5q99 0 99 90v123h55v-123q1 -36 19 -63t76 -27q52 0 76.5 20.5t24.5 52.5q0 12 -3 24l-33 123l54 15l33 -123l1 -5q13 -47 50.5 -77.5t84.5 -30.5h11l4 -32l-4 -33h-11q-44 0 -81.5 19.5t-64.5 53.5q-17 -33 -53 -53
t-86 -20q-85 0 -126 61z" />
    <glyph glyph-name="uni0633.init" unicode="&#x633;" horiz-adv-x="746" arabic-form="initial" 
d="M466.5 15.5q-31.5 15.5 -51.5 43.5q-41 -59 -125 -59q-40 0 -71.5 16t-50.5 44q-41 -60 -126 -60h-47v65h47q94 0 99 83v8v124h55v-124v-8q0 -38 25 -60.5t69 -22.5q98 0 98 91v124h56v-124v-8q0 -38 25 -60.5t68 -22.5t71.5 20.5t28.5 67.5q0 20 -8 52l-40 149l57 16
l40 -149q10 -36 10 -68q0 -50 -22.5 -84.5t-59 -51.5t-77.5 -17q-39 0 -70.5 15.5z" />
    <glyph glyph-name="uni0633.medi" unicode="&#x633;" horiz-adv-x="795" arabic-form="medial" 
d="M392 64q-39 -64 -129 -64q-79 0 -120 64q-41 -64 -128 -64h-20v65h20q99 0 99 91v123h56v-123q0 -26 17.5 -58.5t75.5 -32.5q99 0 99 91v123h55v-123v-1q0 -25 19 -57t76 -32q52 0 77 21t25 53q0 11 -3 23l-33 123l53 15l33 -123l1 -5q13 -47 50.5 -77.5t84.5 -30.5
l4 -32l-4 -33q-44 0 -81.5 19.5t-64.5 53.5q-17 -33 -52.5 -53t-85.5 -20q-81 0 -124 64z" />
    <glyph glyph-name="uni0634.fina" unicode="&#x634;" horiz-adv-x="1248" arabic-form="final" 
d="M833 61q-41 -61 -124 -61q-68 0 -111 43l4 -31q3 -24 3 -44q0 -65 -31 -105t-80 -60.5t-124 -38.5q-43 -10 -85 -10q-110 0 -172.5 71t-62.5 192q0 91 37 198l57 -22q-35 -98 -35 -179q0 -92 45.5 -143.5t129.5 -51.5q34 0 73 9q73 18 107 29.5t58 38.5t24 75q0 20 -2 31
q-5 38 -40 274l58 10l16 -106v0q11 -61 42 -87.5t87 -26.5q99 0 99 90v123h55v-123q1 -36 19 -63t76 -27q52 0 76.5 20.5t24.5 52.5q0 12 -3 24l-33 123l54 15l33 -123l1 -5q13 -47 50.5 -77.5t84.5 -30.5h11l4 -32l-4 -33h-11q-44 0 -81.5 19.5t-64.5 53.5q-17 -33 -53 -53
t-86 -20q-85 0 -126 61zM706 485h84l1 -84h-85v84zM794 601h78v-75h-78v75zM874 485h84v-84h-84v84z" />
    <glyph glyph-name="uni0634.init" unicode="&#x634;" horiz-adv-x="746" arabic-form="initial" 
d="M466.5 15.5q-31.5 15.5 -51.5 43.5q-41 -59 -125 -59q-40 0 -71.5 16t-50.5 44q-41 -60 -126 -60h-47v65h47q94 0 99 83v8v124h55v-124v-8q0 -38 25 -60.5t69 -22.5q98 0 98 91v124h56v-124v-8q0 -38 25 -60.5t68 -22.5t71.5 20.5t28.5 67.5q0 20 -8 52l-40 149l57 16
l40 -149q10 -36 10 -68q0 -50 -22.5 -84.5t-59 -51.5t-77.5 -17q-39 0 -70.5 15.5zM290 485h84v-85h-84v85zM377 601h79v-75h-79v75zM458 485h84v-85h-85z" />
    <glyph glyph-name="uni0634.medi" unicode="&#x634;" horiz-adv-x="795" arabic-form="medial" 
d="M392 64q-39 -64 -129 -64q-79 0 -120 64q-41 -64 -128 -64h-20v65h20q99 0 99 91v123h56v-123q0 -26 17.5 -58.5t75.5 -32.5q99 0 99 91v123h55v-123v-1q0 -25 19 -57t76 -32q52 0 77 21t25 53q0 11 -3 23l-33 123l53 15l33 -123l1 -5q13 -47 50.5 -77.5t84.5 -30.5
l4 -32l-4 -33q-44 0 -81.5 19.5t-64.5 53.5q-17 -33 -52.5 -53t-85.5 -20q-81 0 -124 64zM268 475h84v-85h-85zM355 591h79v-76h-79v76zM435 475h84l1 -85h-85v85z" />
    <glyph glyph-name="uni0635.fina" unicode="&#x635;" horiz-adv-x="1215" arabic-form="final" 
d="M1135 14q-31 14 -51 31q-50 -45 -114 -45h-311q-35 0 -57 13v-1q3 -24 3 -44q0 -65 -31 -105t-80 -60.5t-124 -38.5q-43 -10 -85 -10q-110 0 -172.5 71t-62.5 192q0 91 37 198l57 -22q-35 -98 -35 -179q0 -92 45.5 -143.5t129.5 -51.5q34 0 73 9q73 18 107 29.5t58 38.5
t24 75q0 20 -2 31q-5 38 -40 274l58 10l1 -6v0l20 -134q6 -45 21.5 -63t50.5 -18h14l75 103q46 66 77 103t67.5 59t81.5 22q48 0 87.5 -24t62 -66t22.5 -93q0 -40 -19 -76q13 -11 34 -19.5t49 -8.5h14l4 -32l-4 -33h-14q-40 0 -71 14zM970 65q30 0 56 15t41.5 39t15.5 52
q0 49 -31.5 82.5t-79.5 33.5q-33 0 -60.5 -17.5t-53 -48.5t-66.5 -90l-48 -66h226z" />
    <glyph glyph-name="uni0635.init" unicode="&#x635;" horiz-adv-x="760" arabic-form="initial" 
d="M175.5 14.5q-25.5 14.5 -40.5 39.5q-45 -52 -135 -54h-5v65h5q106 2 114 93l11 123l58 -5l-11 -123v-2q-3 -42 13 -64t48 -22h4l74 103q47 68 78 104t67 58t81 22q48 0 87.5 -24t62.5 -66t23 -93q0 -44 -24 -83t-63.5 -62.5t-85.5 -23.5h-304q-32 0 -57.5 14.5zM537 65
q30 0 56.5 14.5t42 39t15.5 52.5q0 49 -32 82.5t-80 33.5q-33 0 -60 -17.5t-52.5 -48t-66.5 -90.5l-48 -66h225z" />
    <glyph glyph-name="uni0635.medi" unicode="&#x635;" horiz-adv-x="783" arabic-form="medial" 
d="M652 44q-24 -21 -53.5 -32.5t-61.5 -11.5h-304q-32 0 -57.5 14.5t-40.5 39.5q-45 -52 -135 -54h-5v65h5q106 2 114 93l11 123l58 -5l-11 -123v-2q-3 -42 13 -64t48 -22h4l74 103q47 68 78 104t67 58t81 22q48 0 87.5 -24t62.5 -66t23 -93q0 -41 -20 -76q39 -28 84 -28h14
l4 -32l-4 -33h-14q-64 0 -122 44zM537 65q30 0 56.5 14.5t42 39t15.5 52.5q0 49 -32 82.5t-80 33.5q-33 0 -60 -17.5t-52.5 -48t-66.5 -90.5l-48 -66h225z" />
    <glyph glyph-name="uni0636.fina" unicode="&#x636;" horiz-adv-x="1215" arabic-form="final" 
d="M1135 14q-31 14 -51 31q-50 -45 -114 -45h-311q-35 0 -57 13v-1q3 -24 3 -44q0 -65 -31 -105t-80 -60.5t-124 -38.5q-43 -10 -85 -10q-110 0 -172.5 71t-62.5 192q0 91 37 198l57 -22q-35 -98 -35 -179q0 -92 45.5 -143.5t129.5 -51.5q34 0 73 9q73 18 107 29.5t58 38.5
t24 75q0 20 -2 31q-5 38 -40 274l58 10l1 -6v0l20 -134q6 -45 21.5 -63t50.5 -18h14l75 103q46 66 77 103t67.5 59t81.5 22q48 0 87.5 -24t62 -66t22.5 -93q0 -40 -19 -76q13 -11 34 -19.5t49 -8.5h14l4 -32l-4 -33h-14q-40 0 -71 14zM970 65q30 0 56 15t41.5 39t15.5 52
q0 49 -31.5 82.5t-79.5 33.5q-33 0 -60.5 -17.5t-53 -48.5t-66.5 -90l-48 -66h226zM938 545h90v-90h-90v90z" />
    <glyph glyph-name="uni0636.init" unicode="&#x636;" horiz-adv-x="760" arabic-form="initial" 
d="M175.5 14.5q-25.5 14.5 -40.5 39.5q-45 -52 -135 -54h-5v65h5q106 2 114 93l11 123l58 -5l-11 -123v-2q-3 -42 13 -64t48 -22h4l74 103q47 68 78 104t67 58t81 22q48 0 87.5 -24t62.5 -66t23 -93q0 -44 -24 -83t-63.5 -62.5t-85.5 -23.5h-304q-32 0 -57.5 14.5zM537 65
q30 0 56.5 14.5t42 39t15.5 52.5q0 49 -32 82.5t-80 33.5q-33 0 -60 -17.5t-52.5 -48t-66.5 -90.5l-48 -66h225zM480 529h90v-90h-90v90z" />
    <glyph glyph-name="uni0636.medi" unicode="&#x636;" horiz-adv-x="783" arabic-form="medial" 
d="M652 44q-24 -21 -53.5 -32.5t-61.5 -11.5h-304q-32 0 -57.5 14.5t-40.5 39.5q-45 -52 -135 -54h-5v65h5q106 2 114 93l11 123l58 -5l-11 -123v-2q-3 -42 13 -64t48 -22h4l74 103q47 68 78 104t67 58t81 22q48 0 87.5 -24t62.5 -66t23 -93q0 -41 -20 -76q39 -28 84 -28h14
l4 -32l-4 -33h-14q-64 0 -122 44zM537 65q30 0 56.5 14.5t42 39t15.5 52.5q0 49 -32 82.5t-80 33.5q-33 0 -60 -17.5t-52.5 -48t-66.5 -90.5l-48 -66h225zM468 533h90v-90h-90v90z" />
    <glyph glyph-name="uni0637.fina" unicode="&#x637;" horiz-adv-x="687" arabic-form="final" 
d="M558 42q-23 -20 -52 -31t-60 -11h-396v65h95l32 44l-21 540l59 3l19 -469l22 30q51 70 93 104.5t97 34.5q48 0 87.5 -24t62.5 -66t23 -93q0 -40 -21 -79q35 -25 80 -25h14l4 -32l-4 -33h-14q-63 0 -120 42zM448 65q45 0 78.5 32t33.5 74q0 49 -32 82.5t-80 33.5
q-30 0 -55 -15.5t-48 -41.5t-58 -74l-72 -91h233z" />
    <glyph glyph-name="uni0637.init" unicode="&#x637;" horiz-adv-x="615" arabic-form="initial" 
d="M-4 65h95l32 44l-21 540l59 3l19 -469l22 30q51 71 92.5 105t97.5 34q48 0 87.5 -24t62.5 -66t23 -93q0 -44 -24 -83t-63.5 -62.5t-85.5 -23.5h-396v65zM394 65q45 0 78 32t33 74q0 49 -31.5 82.5t-79.5 33.5q-30 0 -55.5 -15.5t-47.5 -40.5t-59 -75l-72 -91h234z" />
    <glyph glyph-name="uni0637.medi" unicode="&#x637;" horiz-adv-x="631" arabic-form="medial" 
d="M553.5 13q-30.5 13 -49.5 29q-50 -42 -112 -42h-396v65h95l32 44l-21 540l59 3l19 -469l22 30q51 71 92.5 105t97.5 34q48 0 87.5 -24t62.5 -66t23 -93q0 -41 -22 -79q34 -25 79 -25h14l4 -32l-4 -33h-14q-38 0 -68.5 13zM394 65q45 0 78 32t33 74q0 49 -31.5 82.5
t-79.5 33.5q-30 0 -55.5 -15.5t-47.5 -40.5t-59 -75l-72 -91h234z" />
    <glyph glyph-name="uni0638.fina" unicode="&#x638;" horiz-adv-x="687" arabic-form="final" 
d="M558 42q-23 -20 -52 -31t-60 -11h-396v65h95l32 44l-21 540l59 3l19 -469l22 30q51 70 93 104.5t97 34.5q48 0 87.5 -24t62.5 -66t23 -93q0 -40 -21 -79q35 -25 80 -25h14l4 -32l-4 -33h-14q-63 0 -120 42zM448 65q45 0 78.5 32t33.5 74q0 49 -32 82.5t-80 33.5
q-30 0 -55 -15.5t-48 -41.5t-58 -74l-72 -91h233zM406 579h90v-90h-90v90z" />
    <glyph glyph-name="uni0638.init" unicode="&#x638;" horiz-adv-x="615" arabic-form="initial" 
d="M-4 65h95l32 44l-21 540l59 3l19 -469l22 30q51 71 92.5 105t97.5 34q48 0 87.5 -24t62.5 -66t23 -93q0 -44 -24 -83t-63.5 -62.5t-85.5 -23.5h-396v65zM394 65q45 0 78 32t33 74q0 49 -31.5 82.5t-79.5 33.5q-30 0 -55.5 -15.5t-47.5 -40.5t-59 -75l-72 -91h234z
M341 579h90v-90h-90v90z" />
    <glyph glyph-name="uni0638.medi" unicode="&#x638;" horiz-adv-x="631" arabic-form="medial" 
d="M553.5 13q-30.5 13 -49.5 29q-50 -42 -112 -42h-396v65h95l32 44l-21 540l59 3l19 -469l22 30q51 71 92.5 105t97.5 34q48 0 87.5 -24t62.5 -66t23 -93q0 -41 -22 -79q34 -25 79 -25h14l4 -32l-4 -33h-14q-38 0 -68.5 13zM394 65q45 0 78 32t33 74q0 49 -31.5 82.5
t-79.5 33.5q-30 0 -55.5 -15.5t-47.5 -40.5t-59 -75l-72 -91h234zM339 579h90v-90h-90v90z" />
    <glyph glyph-name="uni0639.fina" unicode="&#x639;" horiz-adv-x="588" arabic-form="final" 
d="M253 -275q-55 0 -101.5 28.5t-74 78t-27.5 107.5q0 75 49 124.5t141 84.5l-133 177l16 52l241 35q6 1 17 1q33 0 59.5 -17.5t42 -45.5t15.5 -59q0 -28 -13 -53q-38 -79 -149 -115l21 -28q11 -14 36.5 -20.5t68.5 -8t131 -1.5l4 -32l-4 -33h-31q-86 0 -129 3t-73 15
t-50 38l-35 46q-78 -29 -122 -69t-44 -99q0 -41 21 -75t57 -52.5t78 -15.5l293 25l5 -65l-294 -25zM301 169l11 3q108 33 128 104q5 13 5 24q0 25 -19 41t-44 12q-160 -21 -201 -28z" />
    <glyph glyph-name="uni0639.init" unicode="&#x639;" horiz-adv-x="529" arabic-form="initial" 
d="M285 9q-75 -7 -279 -9h-11v65h11l142 3q-30 37 -39 84q-3 17 -3 32q0 64 39 112t102 59q14 2 23 2q53 0 138 -23l-16 -63q-94 25 -132 20q-42 -6 -68.5 -36t-26.5 -70q0 -47 32 -78.5t77 -31.5q8 0 22 2l171 32l12 -64l-172 -33z" />
    <glyph glyph-name="uni0639.medi" unicode="&#x639;" horiz-adv-x="507" arabic-form="medial" 
d="M-5 65h18q96 0 183 21l-133 179l16 51l242 35q6 1 17 1q32 0 59 -16.5t42.5 -44t15.5 -59.5q0 -25 -10 -48q-25 -61 -128 -112q27 -5 68.5 -6t126.5 -1l4 -32l-4 -33q-124 0 -181 6.5t-93 33.5q-57 -19 -116.5 -29.5t-108.5 -10.5h-18v65zM260 105q54 20 89.5 48t47.5 63
q5 13 5 23q0 25 -18.5 41.5t-44.5 12.5l-202 -28z" />
    <glyph glyph-name="uni063A.fina" unicode="&#x63a;" horiz-adv-x="588" arabic-form="final" 
d="M253 -275q-55 0 -101.5 28.5t-74 78t-27.5 107.5q0 75 49 124.5t141 84.5l-133 177l16 52l241 35q6 1 17 1q33 0 59.5 -17.5t42 -45.5t15.5 -59q0 -28 -13 -53q-38 -79 -149 -115l21 -28q11 -14 36.5 -20.5t68.5 -8t131 -1.5l4 -32l-4 -33h-31q-86 0 -129 3t-73 15
t-50 38l-35 46q-78 -29 -122 -69t-44 -99q0 -41 21 -75t57 -52.5t78 -15.5l293 25l5 -65l-294 -25zM301 169l11 3q108 33 128 104q5 13 5 24q0 25 -19 41t-44 12q-160 -21 -201 -28zM259 576h90v-90h-90v90z" />
    <glyph glyph-name="uni063A.init" unicode="&#x63a;" horiz-adv-x="529" arabic-form="initial" 
d="M285 9q-75 -7 -279 -9h-11v65h11l142 3q-30 37 -39 84q-3 17 -3 32q0 64 39 112t102 59q14 2 23 2q53 0 138 -23l-16 -63q-94 25 -132 20q-42 -6 -68.5 -36t-26.5 -70q0 -47 32 -78.5t77 -31.5q8 0 22 2l171 32l12 -64l-172 -33zM214 530h89v-90h-89v90z" />
    <glyph glyph-name="uni063A.medi" unicode="&#x63a;" horiz-adv-x="507" arabic-form="medial" 
d="M-5 65h18q96 0 183 21l-133 179l16 51l242 35q6 1 17 1q32 0 59 -16.5t42.5 -44t15.5 -59.5q0 -25 -10 -48q-25 -61 -128 -112q27 -5 68.5 -6t126.5 -1l4 -32l-4 -33q-124 0 -181 6.5t-93 33.5q-57 -19 -116.5 -29.5t-108.5 -10.5h-18v65zM260 105q54 20 89.5 48t47.5 63
q5 13 5 23q0 25 -18.5 41.5t-44.5 12.5l-202 -28zM219 537h90v-90h-90v90z" />
    <glyph glyph-name="uni0641.fina" unicode="&#x641;" horiz-adv-x="951" arabic-form="final" 
d="M272 2.5q-58 2.5 -84 7.5t-50 16q-44 19 -66 54t-22 84q0 30 9 64l37 140l57 -17l-37 -142q-7 -25 -7 -47q0 -28 13 -46.5t40 -29.5q18 -8 39.5 -12t78.5 -6.5t171 -2.5h51q53 0 120 16q-39 26 -61 53t-20 50l5 57q3 42 26 75.5t59.5 52t77.5 18.5q49 0 86.5 -26.5
t56.5 -68.5t16 -86l-3 -43q-3 -42 -79 -87q50 -11 106 -11h64l4 -32l-4 -33h-64q-90 0 -188 39q-50 -18 -102.5 -28.5t-99.5 -10.5h-51h-6q-115 0 -173 2.5zM630 144q28 -22 71 -41q44 16 73 33.5t33 33.5l3 36q3 28 -9 55t-36.5 44t-57.5 17q-40 0 -70 -26t-33 -65l-5 -50
q3 -15 31 -37zM667 557h90v-90h-90v90z" />
    <glyph glyph-name="uni0641.init" unicode="&#x641;" horiz-adv-x="454" arabic-form="initial" 
d="M-5 65h208q60 0 90 5.5t41.5 19t11.5 41.5q0 8 -2 28q-55 -11 -134 -11q-69 0 -111 41.5t-42 112.5q0 49 18.5 91.5t55.5 68.5t89 26q68 0 114.5 -52t54.5 -139l11 -124q2 -16 2 -45q0 -48 -17 -75.5t-60 -40t-123 -12.5h-207v65zM137.5 235.5q26.5 -27.5 72.5 -27.5
q71 0 128 13l-6 71q-7 64 -38 100.5t-78 36.5q-49 0 -77 -36t-28 -85q0 -45 26.5 -72.5zM172 677h90v-90h-90v90z" />
    <glyph glyph-name="uni0641.medi" unicode="&#x641;" horiz-adv-x="501" arabic-form="medial" 
d="M-5 65h57q53 0 120 16q-40 25 -62 52.5t-20 50.5l6 57q3 42 26 75.5t59 52t77 18.5q50 0 87.5 -26.5t56.5 -68.5t16 -86l-3 -43q-3 -42 -79 -87q50 -11 106 -11h64l4 -32l-4 -33h-64q-90 0 -188 39q-50 -18 -102.5 -28.5t-99.5 -10.5h-57v65zM180 144q28 -22 71 -41
q44 16 72.5 33.5t32.5 33.5l4 36q3 28 -9 55t-36.5 44t-57.5 17q-40 0 -70 -26t-33 -65l-5 -50q3 -15 31 -37zM214 560h90v-90h-90v90z" />
    <glyph glyph-name="uni0642.fina" unicode="&#x642;" horiz-adv-x="665" arabic-form="final" 
d="M285 -246q-110 0 -172.5 71t-62.5 192q0 91 37 198l57 -22q-35 -98 -35 -179q0 -92 45.5 -143.5t129.5 -51.5q34 0 73 9q74 17 117 33.5t65 43.5t17 71l-3 24h-137q-73 0 -116 44.5t-43 121.5q0 48 20.5 90.5t58.5 69t88 26.5q70 0 117.5 -54t56.5 -142l9 -91h63l4 -32
l-4 -33h-56l2 -26q2 -65 -23 -104t-77.5 -62t-145.5 -44q-43 -10 -85 -10zM290 508h80v-80h-80v80zM416 65h132l-9 83q-7 66 -37.5 102.5t-78.5 36.5q-50 0 -78 -36t-28 -85q0 -101 99 -101zM457 508h80v-80h-80v80z" />
    <glyph glyph-name="uni0642.init" unicode="&#x642;" horiz-adv-x="454" arabic-form="initial" 
d="M-5 65h208q60 0 90 5.5t41.5 19t11.5 41.5q0 8 -2 28q-55 -11 -134 -11q-69 0 -111 41.5t-42 112.5q0 49 18.5 91.5t55.5 68.5t89 26q68 0 114.5 -52t54.5 -139l11 -124q2 -16 2 -45q0 -48 -17 -75.5t-60 -40t-123 -12.5h-207v65zM90 651h80v-81h-80v81zM137.5 235.5
q26.5 -27.5 72.5 -27.5q71 0 128 13l-6 71q-7 64 -38 100.5t-78 36.5q-49 0 -77 -36t-28 -85q0 -45 26.5 -72.5zM257 651h80v-81h-80v81z" />
    <glyph glyph-name="uni0642.medi" unicode="&#x642;" horiz-adv-x="501" arabic-form="medial" 
d="M-5 65h57q53 0 120 16q-40 25 -62 52.5t-20 50.5l6 57q3 42 26 75.5t59 52t77 18.5q50 0 87.5 -26.5t56.5 -68.5t16 -86l-3 -43q-3 -42 -79 -87q50 -11 106 -11h64l4 -32l-4 -33h-64q-90 0 -188 39q-50 -18 -102.5 -28.5t-99.5 -10.5h-57v65zM136 552h80v-81h-80v81z
M180 144q28 -22 71 -41q44 16 72.5 33.5t32.5 33.5l4 36q3 28 -9 55t-36.5 44t-57.5 17q-40 0 -70 -26t-33 -65l-5 -50q3 -15 31 -37zM303 552h80v-81h-80v81z" />
    <glyph glyph-name="uni0643.fina" unicode="&#x643;" horiz-adv-x="898" arabic-form="final" 
d="M810.5 13q-31.5 13 -50.5 48q-42 -61 -132 -61h-178q-117 0 -176 2.5t-85.5 7.5t-50.5 16q-44 19 -66 54t-22 84q0 30 9 64l37 140l57 -17l-37 -142q-7 -25 -7 -47q0 -28 13 -46.5t40 -29.5q18 -8 39.5 -12t78.5 -6.5t171 -2.5h177q58 0 79 27t20 63l-19 494l58 3
l18 -469l1 -7q3 -66 29.5 -88.5t68.5 -22.5h20l4 -32l-4 -33h-20q-41 0 -72.5 13zM366 262h75q5 0 8.5 3t3.5 7q0 7 -6 11l-61 63l6 25l98 33l9 -28l-76 -25l54 -56q12 -12 12 -27t-9.5 -25.5t-24.5 -10.5h-89v30z" />
    <glyph glyph-name="uni0643.init" unicode="&#x643;" horiz-adv-x="459" arabic-form="initial" 
d="M-5 65h203q27 0 43 13q15 10 23.5 26t8.5 34q0 23 -12 42l-223 316l13 49l362 133l21 -61l-322 -118l194 -279q27 -41 27 -88q0 -28 -11 -53t-31 -43q-34 -36 -94 -36h-202v65z" />
    <glyph glyph-name="uni0643.medi" unicode="&#x643;" horiz-adv-x="500" arabic-form="medial" 
d="M406.5 22.5q-38.5 22.5 -78.5 71.5q-12 -37 -37 -58q-34 -36 -94 -36h-202v65h203q27 0 43 13q15 10 23.5 26t8.5 34q0 23 -12 42l-223 316l13 49l362 133l21 -61l-322 -118l194 -279l7 -11q54 -82 93 -113t85 -31h14l4 -32l-4 -33h-14q-46 0 -84.5 22.5z" />
    <glyph glyph-name="uni0644.fina" unicode="&#x644;" horiz-adv-x="709" arabic-form="final" 
d="M602 25l1 -17q3 -85 -28 -133.5t-79 -70.5t-127 -41q-43 -11 -88 -11q-108 0 -169.5 71.5t-61.5 192.5q0 90 37 197l56 -22q-34 -98 -34 -178q0 -92 45 -144.5t127 -52.5q35 0 74 10l23 6q59 14 92.5 29t54.5 48.5t19 95.5l-25 644l59 3l19 -491q5 -57 31.5 -76.5
t65.5 -19.5h20l4 -32l-4 -33h-20q-58 0 -92 25z" />
    <glyph glyph-name="uni0644.init" unicode="&#x644;" horiz-adv-x="225" arabic-form="initial" 
d="M-5 65h23q58 0 79 27t20 63l-19 494l58 3l19 -494q2 -38 -13 -74.5t-51 -60t-93 -23.5h-23v65z" />
    <glyph glyph-name="uni0644.medi" unicode="&#x644;" horiz-adv-x="288" arabic-form="medial" 
d="M200.5 13q-31.5 13 -50.5 48q-42 -61 -132 -61h-23v65h23q58 0 79 27t20 63l-19 494l58 3l18 -469l1 -7q3 -66 29.5 -88.5t68.5 -22.5h20l4 -32l-4 -33h-20q-41 0 -72.5 13z" />
    <glyph glyph-name="uni0645.fina" unicode="&#x645;" horiz-adv-x="568" arabic-form="final" 
d="M495.5 17.5q-33.5 17.5 -53.5 50.5l-8 -17q-13 -26 -37.5 -41t-52.5 -15q-24 0 -45 11l-190 99l17 -403l-59 -2l-17 458l40 26l55 -29l59 115q18 35 50 54.5t69 19.5q32 0 61 -16q39 -21 60 -62t21 -93q0 -19 -3 -39q11 -32 40.5 -50.5t70.5 -18.5l4 -32l-4 -33
q-44 0 -77.5 17.5zM330 60q12 -5 21 -5q24 0 36 23q26 52 26 99q0 32 -13 57t-37 38q-18 9 -37 9q-24 0 -45.5 -14t-34.5 -39l-50 -99z" />
    <glyph glyph-name="uni0645.init" unicode="&#x645;" horiz-adv-x="497" arabic-form="initial" 
d="M-5 65h11q35 0 63 17t43 46l74 143q18 34 50.5 53.5t70.5 19.5q35 0 64 -16q39 -20 58.5 -57t19.5 -84q0 -63 -32 -133q-12 -26 -37 -42.5t-54 -16.5q-24 0 -45 11l-134 69q-25 -36 -61 -55.5t-80 -19.5h-11v65zM315 62q12 -6 22 -6q12 0 21 6.5t14 16.5l6 15
q19 42 19 84q0 33 -13 58t-37 38q-18 9 -38 9q-24 0 -45.5 -13t-33.5 -37l-52 -102z" />
    <glyph glyph-name="uni0645.medi" unicode="&#x645;" horiz-adv-x="553" arabic-form="medial" 
d="M480.5 19.5q-34.5 19.5 -54.5 55.5l-9 -21q-12 -26 -37 -42.5t-54 -16.5q-24 0 -45 11l-134 69q-25 -36 -61 -55.5t-80 -19.5h-11v65h11q35 0 63 17t43 46l74 143q18 34 50.5 53.5t70.5 19.5q35 0 64 -16q39 -21 58.5 -57t19.5 -83q0 -20 -3 -41q8 -38 39 -60t76 -22
l4 -32l-4 -33q-46 0 -80.5 19.5zM315 62q12 -6 22 -6q12 0 21 6.5t14 16.5l6 15q19 42 19 84q0 33 -13 58t-37 38q-18 9 -38 9q-24 0 -45.5 -13t-33.5 -37l-52 -102z" />
    <glyph glyph-name="uni0646.fina" unicode="&#x646;" horiz-adv-x="694" arabic-form="final" 
d="M601 21l1 -9q3 -24 3 -44q0 -65 -31 -105t-80 -60.5t-124 -38.5q-43 -10 -85 -10q-110 0 -172.5 71t-62.5 192q0 91 37 198l57 -22q-35 -98 -35 -179q0 -92 45.5 -143.5t129.5 -51.5q34 0 73 9q73 18 107 29.5t58 38.5t24 75q0 20 -2 31q-4 40 -32 219l-8 55l58 10l3 -23
l8 -49l7 -44q10 -56 30.5 -80.5t59.5 -24.5h29l4 -32l-4 -33h-28q-41 0 -70 21zM276 311h90v-90h-90v90z" />
    <glyph glyph-name="uni0646.init" unicode="&#x646;" horiz-adv-x="301" arabic-form="initial" 
d="M-5 65h79q53 0 85.5 21t32.5 70q0 24 -7 49l-40 149l56 16l40 -149q9 -36 9 -66q0 -76 -50.5 -115.5t-125.5 -39.5h-79v65zM89 551h90v-90h-90v90z" />
    <glyph glyph-name="uni0646.medi" unicode="&#x646;" horiz-adv-x="309" arabic-form="medial" 
d="M-5 65h63q105 0 99 86v2l-11 123l58 5l11 -123v-1q5 -50 27 -71t72 -21l4 -32l-4 -33q-86 0 -125 54q-21 -26 -54 -40t-77 -14h-63v65zM83 478h90v-90h-90v90z" />
    <glyph glyph-name="uni0647.fina" unicode="&#x647;" horiz-adv-x="509" arabic-form="final" 
d="M202 73q-46 0 -88 31.5t-56 77.5q-8 26 -8 49q0 49 29.5 91t76.5 58l153 50v49h59v-289q0 -52 37 -88.5t90 -36.5h19l4 -32l-4 -33h-19q-50 0 -93 25t-67 68l-116 -19q-6 -1 -17 -1zM146.5 157.5q25.5 -19.5 55.5 -19.5q9 0 13 1l97 16q-3 18 -3 35v176l-134 -46
q-31 -10 -48.5 -34.5t-17.5 -53.5q0 -15 4 -27q8 -28 33.5 -47.5z" />
    <glyph glyph-name="uni0647.init" unicode="&#x647;" horiz-adv-x="625" arabic-form="initial" 
d="M76 144.5q-25 39.5 -25 85.5q0 36 17 73q26 54 76 77l-36 19l27 57l140 -74l5 -2l16 -9l192 -101q41 -21 64.5 -59.5t23.5 -82.5q0 -32 -15 -64q-19 -41 -56.5 -65t-80.5 -24q-30 0 -63 14l-123 55q-86 -44 -197 -44h-46v65h46q68 0 119 14l-16 7q-43 19 -68 58.5z
M113 231q0 -28 15 -50.5t42 -35.5l67 -31q47 31 66 74q10 23 10 43q0 28 -15 52.5t-41 37.5q-24 11 -45 11q-28 0 -51.5 -15t-36.5 -40q-11 -24 -11 -46zM385 45q20 -9 39 -9q27 0 50 14.5t35 38.5q8 16 8 38q0 26 -14.5 49.5t-40.5 37.5l-94 49q3 -15 3 -32q0 -35 -15 -70
q-20 -44 -57 -76z" />
    <glyph glyph-name="uni0647.medi" unicode="&#x647;" horiz-adv-x="474" arabic-form="medial" 
d="M157 -177q-64 62 -73 177h-22h-67v65h92q19 92 102 320l34 17l74 -21q43 -12 68.5 -54.5t25.5 -94.5q0 -40 -14 -71q-26 -59 -89 -100t-148 -55q3 -52 25.5 -92.5t57.5 -63.5t74 -26l1 93q4 65 44.5 106.5t98.5 41.5h38l4 -32l-4 -33h-36q-35 0 -60 -26t-27 -64l-4 -116
l-37 -39q-94 6 -158 68zM261 107.5q49 30.5 66 73.5q10 21 10 46q0 32 -15.5 58t-40.5 33l-49 14q-65 -183 -86 -264q66 9 115 39.5z" />
    <glyph glyph-name="uni0648.fina" unicode="&#x648;" horiz-adv-x="475" arabic-form="final" 
d="M264 -152.5q52 15.5 78 41t26 73.5q0 7 -2 27l-1 11h-139q-73 0 -116 44.5t-43 121.5q0 48 20.5 90.5t58.5 69t88 26.5q69 0 116 -54t58 -142l10 -91h62l4 -32l-4 -33h-2h-53v-3q2 -26 2 -37q0 -69 -33.5 -107.5t-98 -60.5t-192.5 -49l-12 64q121 25 173 40.5zM226 65
h132l-9 83q-7 66 -38 102.5t-78 36.5q-50 0 -78 -36t-28 -85q0 -101 99 -101z" />
    <glyph glyph-name="uni0649.fina" unicode="&#x649;" horiz-adv-x="668" arabic-form="final" 
d="M285 -246q-110 0 -172.5 71t-62.5 192q0 91 37 198l57 -22q-35 -98 -35 -179q0 -92 45.5 -143.5t129.5 -51.5q34 0 73 9q68 17 102 28t56.5 32t22.5 55q0 16 -2 24q-5 25 -44.5 47t-88.5 39l-42 14l18 62l44 -13q85 -26 140.5 -38.5t109.5 -12.5l4 -32l-4 -33
q-47 0 -97 8q15 -20 18 -39q2 -10 2 -30q0 -73 -58.5 -111t-167.5 -64q-43 -10 -85 -10z" />
    <glyph glyph-name="uni064A.fina" unicode="&#x64a;" horiz-adv-x="668" arabic-form="final" 
d="M285 -246q-110 0 -172.5 71t-62.5 192q0 91 37 198l57 -22q-35 -98 -35 -179q0 -92 45.5 -143.5t129.5 -51.5q34 0 73 9q68 17 102 28t56.5 32t22.5 55q0 16 -2 24q-5 25 -44.5 47t-88.5 39l-42 14l18 62l44 -13q85 -26 140.5 -38.5t109.5 -12.5l4 -32l-4 -33
q-47 0 -97 8q15 -20 18 -39q2 -10 2 -30q0 -73 -58.5 -111t-167.5 -64q-43 -10 -85 -10zM188 -297h79v-80h-79v80zM355 -297h80v-80h-80v80z" />
    <glyph glyph-name="uni064A.init" unicode="&#x64a;" horiz-adv-x="365" arabic-form="initial" 
d="M-5 65h144q51 0 83.5 21t32.5 70q0 24 -7 49l-39 149l57 16l40 -152q9 -36 9 -65q0 -74 -51.5 -113.5t-124.5 -39.5h-144v65zM-40 -103h80v-80h-80v80zM128 -103h79v-80h-79v80z" />
    <glyph glyph-name="uni064A.medi" unicode="&#x64a;" horiz-adv-x="391" arabic-form="medial" 
d="M-5 65h145q53 0 77.5 21.5t20.5 63.5v3l-11 123l59 5l11 -123q5 -51 27 -72t72 -21l4 -32l-4 -33q-87 0 -126 54q-20 -26 -53.5 -40t-76.5 -14h-145v65zM-42 -104h80v-80h-80v80zM126 -104h79v-80h-79v80z" />
    <glyph glyph-name=".notdef" horiz-adv-x="300" 
d="M40 512h220v-524h-220v524zM240 12v476h-180v-476h180z" />
    <glyph glyph-name=".null" 
 />
    <glyph glyph-name="nonmarkingreturn" unicode="&#xd;" horiz-adv-x="300" 
 />
    <glyph glyph-name="space" unicode=" " horiz-adv-x="268" 
 />
    <glyph glyph-name="exclam" unicode="!" horiz-adv-x="276" 
d="M104 647h69l-7 -484h-56zM94.5 77q17.5 17 43.5 17q25 0 42.5 -17.5t17.5 -42.5t-17.5 -43t-42.5 -18q-26 0 -43.5 17.5t-17.5 43.5t17.5 43z" />
    <glyph glyph-name="quotedbl" unicode="&#x22;" horiz-adv-x="258" 
d="M157 698h70l-8 -206h-55zM101 698l-8 -206h-54l-8 206h70z" />
    <glyph glyph-name="numbersign" unicode="#" horiz-adv-x="625" 
d="M368 186h-156l-26 -166l-68 1l25 165h-73v60h82l24 155h-72l1 60h80l26 167l69 -1l-26 -166h156l26 167l68 -1l-25 -166h75v-60h-85l-23 -155h75l-1 -60h-84l-25 -166l-69 1zM377 246l24 155h-156l-24 -155h156z" />
    <glyph glyph-name="dollar" unicode="$" horiz-adv-x="623" 
d="M280 -8q-97 11 -160.5 65t-63.5 151h62q0 -70 43 -113t119 -53l1 304q-67 21 -103 41q-51 28 -75 65.5t-24 88.5q0 74 55.5 121.5t145.5 56.5v85h61v-84q62 -4 112 -30.5t79 -73.5t29 -108h-62q0 66 -43 111t-115 52l-1 -286q50 -15 85 -29t63 -34q79 -55 79 -146
q0 -39 -20.5 -80.5t-71 -71.5t-133.5 -34v-84h-62v86zM183 451q32 -25 98 -48l-1 266q-64 -9 -102 -44t-38 -84q0 -56 43 -90zM342 40q72 4 117.5 41.5t45.5 93.5q0 62 -44 97q-36 28 -120 56z" />
    <glyph glyph-name="percent" unicode="%" horiz-adv-x="776" 
d="M182 83l343 550l30 -17l-343 -550zM56 574q0 63 38 103.5t97 40.5q61 0 98.5 -40.5t37.5 -105.5v-35q0 -63 -37.5 -103t-97.5 -40t-98 40.5t-38 105.5v34zM123 461q27 -31 69 -31t68.5 31t26.5 79v32q0 48 -26.5 78.5t-69.5 30.5q-41 0 -68 -30.5t-27 -77.5v-33
q0 -48 27 -79zM418 174q0 63 38 103.5t97 40.5q60 0 98 -40.5t38 -106.5v-35q0 -62 -38 -102.5t-97 -40.5q-60 0 -98 40.5t-38 105.5v35zM485 61q28 -31 69 -31t67.5 28.5t27.5 74.5v38q0 48 -27 79t-69 31q-41 0 -68 -30t-28 -77v-35q0 -47 28 -78z" />
    <glyph glyph-name="ampersand" unicode="&#x26;" horiz-adv-x="640" 
d="M119.5 30.5q-50.5 38.5 -50.5 111.5q0 66 37 110.5t104 88.5q-56 67 -73.5 101.5t-17.5 71.5q0 62 43.5 101.5t114.5 39.5q73 0 118.5 -39.5t45.5 -103.5q0 -58 -36 -100.5t-101 -85.5l45 -54q30 -37 99 -117q38 43 75 94l48 -29q-42 -63 -84 -109l27 -31l39 -45l31 -35
h-78l-60 70q-45 -41 -91.5 -59.5t-101.5 -18.5q-83 0 -133.5 38.5zM169 73.5q32 -26.5 85 -26.5q78 0 153 67q-54 64 -76 88q-27 30 -61 69l-19 21q-55 -37 -84.5 -71t-29.5 -78q0 -43 32 -69.5zM201.5 460.5q14.5 -25.5 61.5 -84.5q55 37 83 67t28 68t-26.5 61.5
t-70.5 23.5q-42 0 -66 -24.5t-24 -63.5q0 -22 14.5 -47.5z" />
    <glyph glyph-name="quotesingle" unicode="'" horiz-adv-x="133" 
d="M31 698h70l-8 -206h-54z" />
    <glyph glyph-name="parenleft" unicode="(" horiz-adv-x="332" 
d="M98 -3q-48 119 -48 247q0 130 49 249t140 211l43 -47q-84 -83 -128.5 -189.5t-44.5 -223.5q0 -115 43.5 -221t124.5 -188l-43 -47q-88 90 -136 209z" />
    <glyph glyph-name="parenright" unicode=")" horiz-adv-x="332" 
d="M179.5 23q43.5 106 43.5 221q0 117 -44.5 223.5t-128.5 189.5l43 47q90 -92 139.5 -211.5t49.5 -248.5q0 -128 -48 -247t-136 -209l-43 47q81 82 124.5 188z" />
    <glyph glyph-name="asterisk" unicode="*" horiz-adv-x="497" 
d="M248 364l-93 -128l-47 34l93 128l-151 49l19 56l150 -48v158h59v-158l150 48l19 -56l-151 -49l93 -128l-47 -34z" />
    <glyph glyph-name="plus" unicode="+" horiz-adv-x="553" 
d="M305 358h214v-53h-214v-233h-57v233h-215v53h215v231h57v-231z" />
    <glyph glyph-name="comma" unicode="," horiz-adv-x="171" 
d="M69 138h62l-45 -216h-46z" />
    <glyph glyph-name="hyphen" unicode="-" horiz-adv-x="312" 
d="M33 340h246v-61h-246v61z" />
    <glyph glyph-name="period" unicode="." horiz-adv-x="302" 
d="M107.5 8q-17.5 18 -17.5 44q0 25 17.5 42t43.5 17q25 0 42.5 -17t17.5 -42q0 -26 -17.5 -44t-42.5 -18q-26 0 -43.5 18z" />
    <glyph glyph-name="slash" unicode="/" horiz-adv-x="321" 
d="M198 651h69l-176 -648h-70z" />
    <glyph glyph-name="zero" unicode="0" horiz-adv-x="555" 
d="M441 68.5q-58 -78.5 -163 -78.5t-163.5 79.5t-58.5 222.5v129q0 142 58.5 221t162.5 79q106 0 164 -79t58 -223v-129q0 -143 -58 -221.5zM159.5 103.5q42.5 -65.5 119.5 -65.5t118.5 65t41.5 183v140q0 117 -41.5 182t-119.5 65t-119.5 -64.5t-41.5 -182.5v-140
q0 -117 42.5 -182.5z" />
    <glyph glyph-name="one" unicode="1" horiz-adv-x="555" 
d="M343 0h-61v640l-194 -70v49l246 90h9v-709z" />
    <glyph glyph-name="two" unicode="2" horiz-adv-x="555" 
d="M510 0h-443v43l239 271q56 64 83 114t27 92q0 71 -39.5 110.5t-110.5 39.5q-62 0 -107.5 -40t-48.5 -130h-60q1 51 23 101t70.5 83.5t121.5 33.5q100 0 156 -50.5t56 -143.5q0 -46 -27 -99t-85 -121l-220 -256h365v-48z" />
    <glyph glyph-name="three" unicode="3" horiz-adv-x="555" 
d="M201 386h64q74 0 119 39t45 101q0 66 -41 106.5t-112 40.5q-69 0 -113.5 -41.5t-44.5 -106.5h-60q0 41 21 86t70.5 77.5t128.5 32.5q97 0 154 -53t57 -143q0 -54 -34.5 -97.5t-93.5 -63.5q68 -18 105.5 -62t37.5 -111q0 -60 -28 -105.5t-79 -70.5t-118 -25
q-64 1 -118 25.5t-86 71t-32 111.5h61q0 -44 23 -80.5t63 -58t90 -21.5q76 0 119.5 41.5t43.5 111.5q0 72 -46 110t-134 38h-62v47z" />
    <glyph glyph-name="four" unicode="4" horiz-adv-x="548" 
d="M421 233h110v-48h-110v-185h-60v185h-321v38l317 487l64 1v-478zM361 233v402l-261 -402h261z" />
    <glyph glyph-name="five" unicode="5" horiz-adv-x="555" 
d="M99 366l36 343h363v-48h-313l-26 -253q25 18 63 30.5t74 12.5q98 0 155.5 -60.5t57.5 -162.5q0 -113 -55.5 -175.5t-156.5 -62.5q-96 1 -155.5 55.5t-64.5 145.5h61q7 -74 47.5 -113.5t111.5 -39.5q76 0 114 48.5t38 142.5q0 81 -44 129.5t-119 48.5q-84 0 -140 -54z" />
    <glyph glyph-name="six" unicode="6" horiz-adv-x="555" 
d="M175.5 20.5q-54.5 30.5 -86 88t-31.5 135.5v81q0 146 56 240q41 73 117.5 113t169.5 40h16v-48q-141 0 -216.5 -81t-81.5 -233q22 52 71.5 83t115.5 31q93 0 148 -64.5t55 -171.5q0 -70 -28 -125.5t-76 -87t-109 -31.5q-66 0 -120.5 30.5zM166.5 94.5
q48.5 -56.5 128.5 -56.5q43 0 78 26.5t55 71.5t20 98q0 85 -44.5 137t-116.5 52q-62 0 -106.5 -33t-62.5 -90v-56q0 -93 48.5 -149.5z" />
    <glyph glyph-name="seven" unicode="7" horiz-adv-x="555" 
d="M503 674l-300 -674h-64l298 660h-402v48h468v-34z" />
    <glyph glyph-name="eight" unicode="8" horiz-adv-x="555" 
d="M458 427q-33 -44 -90 -62q66 -21 104.5 -68.5t38.5 -108.5q0 -91 -62.5 -144.5t-168.5 -53.5q-107 0 -170 53.5t-63 144.5q0 61 38 108.5t104 68.5q-56 18 -90 62t-34 101q0 89 58.5 141t154.5 52q97 0 155 -52.5t58 -140.5q0 -57 -33 -101zM155 79.5q47 -41.5 125 -41.5
q77 0 124 42t47 109q0 44 -22 78t-61 53.5t-89 19.5q-76 0 -123.5 -42.5t-47.5 -108.5q0 -68 47 -109.5zM168.5 426.5q42.5 -38.5 111.5 -38.5q67 0 109 39t42 101t-42 103.5t-109 41.5q-68 0 -111 -40.5t-43 -104.5q0 -63 42.5 -101.5z" />
    <glyph glyph-name="nine" unicode="9" horiz-adv-x="555" 
d="M146 40h24q130 2 197.5 78.5t68.5 225.5q-24 -53 -72 -84.5t-110 -31.5q-56 0 -103.5 29t-75.5 84t-28 129q0 71 29.5 128.5t80 90t109.5 32.5q109 0 170 -73.5t61 -205.5v-78q0 -154 -61 -243q-40 -64 -109 -97.5t-161 -33.5h-20v50zM129.5 367.5q21.5 -44.5 57 -69
t77.5 -24.5q65 0 111.5 34.5t61.5 95.5v41q0 113 -43 170.5t-127 57.5q-32 0 -68.5 -20.5t-63.5 -66.5t-27 -118q0 -56 21.5 -100.5z" />
    <glyph glyph-name="colon" unicode=":" horiz-adv-x="302" 
d="M107.5 284q-17.5 18 -17.5 44q0 25 17.5 42t43.5 17q25 0 42.5 -17t17.5 -42q0 -26 -17.5 -44t-42.5 -18q-26 0 -43.5 18zM107.5 94q17.5 17 43.5 17q25 0 42.5 -17t17.5 -42q0 -26 -17.5 -44t-42.5 -18q-26 0 -43.5 18t-17.5 44q0 25 17.5 42z" />
    <glyph glyph-name="semicolon" unicode=";" horiz-adv-x="310" 
d="M130 138h62l-46 -216h-46zM116.5 370q17.5 17 43.5 17q25 0 42.5 -17t17.5 -42q0 -26 -17.5 -44t-42.5 -18q-26 0 -43.5 18t-17.5 44q0 25 17.5 42z" />
    <glyph glyph-name="less" unicode="&#x3c;" horiz-adv-x="514" 
d="M451 112l-414 182v51l414 183v-56l-355 -152l355 -152v-56z" />
    <glyph glyph-name="equal" unicode="=" horiz-adv-x="565" 
d="M488 397h-418v51h418v-51zM70 245h418v-50h-418v50z" />
    <glyph glyph-name="greater" unicode="&#x3e;" horiz-adv-x="514" 
d="M410 320l-355 152v56l414 -183v-51l-414 -182v56z" />
    <glyph glyph-name="question" unicode="?" horiz-adv-x="454" 
d="M207.5 279.5q11.5 24.5 25 38.5t42.5 40q4 4 26.5 23.5t34.5 44t12 53.5q0 48 -32 80t-80 32t-80.5 -33.5t-32.5 -81.5v-33l-68 3v30q0 50 24 90.5t66 63.5t93 23t91.5 -22.5t63.5 -61.5t23 -87q0 -39 -11.5 -67t-27 -44.5t-42.5 -40.5q-5 -4 -27 -23.5t-33 -41
t-11 -47.5v-44h-68v48q0 33 11.5 57.5zM188.5 94q17.5 17 43.5 17q25 0 42.5 -17t17.5 -42q0 -26 -17.5 -44t-42.5 -18q-26 0 -43.5 18t-17.5 44q0 25 17.5 42z" />
    <glyph glyph-name="at" unicode="@" horiz-adv-x="788" 
d="M202 -37q-66 37 -103.5 105.5t-37.5 158.5q0 116 52.5 201.5t139 130.5t185.5 45q86 0 152 -37t102 -101.5t36 -144.5q0 -22 -3 -46q-11 -83 -55 -132t-109 -49q-36 0 -61.5 15t-36.5 41q-16 -28 -45.5 -42t-65.5 -14q-44 0 -73 23.5t-34 63.5q-1 7 -1 22q0 22 5 57
q6 51 17 81q14 42 47 65.5t75 23.5q28 0 51.5 -10.5t36.5 -29.5l5 36h47l-25 -199q-1 -5 -1 -15q0 -33 16.5 -53.5t45.5 -20.5q39 0 65.5 35t36.5 98q3 26 3 48q0 70 -29.5 122t-83.5 79.5t-124 27.5q-79 0 -150.5 -36.5t-116 -109t-44.5 -175.5q0 -115 63 -179.5t172 -64.5
q48 0 92 11.5t64 28.5l31 -44q-29 -25 -83 -39t-109 -14q-83 0 -149 37zM310 154.5q20 -19.5 54 -19.5q28 0 49.5 16.5t31.5 44.5q5 12 8 24t6 42q4 48 3 66q-1 27 -19.5 44t-47.5 17q-28 0 -49.5 -14t-32.5 -37q-10 -20 -17 -77q-6 -43 -6 -54q0 -33 20 -52.5z" />
    <glyph glyph-name="A" unicode="A" horiz-adv-x="618" 
d="M277 711h63l265 -711h-66l-71 196h-319l-71 -196h-66zM452 245l-144 394l-143 -394h287z" />
    <glyph glyph-name="B" unicode="B" horiz-adv-x="613" 
d="M87 0v711h204q119 0 181 -47.5t62 -137.5q0 -63 -32 -105t-90 -55q65 -11 107.5 -57.5t42.5 -109.5q0 -94 -60.5 -146.5t-170.5 -52.5h-244zM330 50q79 0 124.5 40t45.5 110q0 62 -43 101.5t-116 40.5h-192v-292h181zM306 385q85 0 125.5 34t40.5 103q0 66 -44.5 102.5
t-131.5 36.5h-147v-276h157z" />
    <glyph glyph-name="C" unicode="C" horiz-adv-x="650" 
d="M518.5 56q-65.5 -65 -188.5 -66q-62 0 -123 28.5t-103.5 99.5t-42.5 191v92q0 82 29.5 155t90 119t148.5 46q113 0 183 -59.5t81 -174.5h-63q-17 184 -201 184q-97 0 -151 -71.5t-54 -197.5v-98q0 -130 54.5 -196.5t151.5 -66.5q92 0 142 45t58 137h63
q-9 -102 -74.5 -167z" />
    <glyph glyph-name="D" unicode="D" horiz-adv-x="652" 
d="M87 0v711h204q65 0 134.5 -31t119 -104t49.5 -189v-68q0 -95 -39 -167.5t-107 -112t-153 -39.5h-208zM292 50q60 0 114 27.5t89 87.5t35 153v79q0 57 -20 115t-72.5 101t-143.5 48h-145v-611h143z" />
    <glyph glyph-name="E" unicode="E" horiz-adv-x="567" 
d="M87 711h446v-50h-384v-272h335v-49h-335v-290h384v-50h-446v711z" />
    <glyph glyph-name="F" unicode="F" horiz-adv-x="566" 
d="M87 711h449v-50h-387v-278h342v-49h-342v-334h-62v711z" />
    <glyph glyph-name="G" unicode="G" horiz-adv-x="686" 
d="M508 15q-70 -25 -153 -25q-78 0 -142 36.5t-102.5 107t-38.5 167.5v107q-1 85 31 156.5t94.5 114t149.5 42.5q112 0 180.5 -56t79.5 -156h-61q-11 79 -62 120.5t-136 41.5q-64 0 -112 -33t-74.5 -92.5t-26.5 -138.5v-96q0 -83 28 -144.5t78.5 -94t116.5 -32.5
q64 0 114 16.5t73 45.5v189h-193v45h256v-257q-30 -39 -100 -64z" />
    <glyph glyph-name="H" unicode="H" horiz-adv-x="702" 
d="M87 711h62v-321h404v321h62v-711h-62v340h-404v-340h-62v711z" />
    <glyph glyph-name="I" unicode="I" horiz-adv-x="271" 
d="M167 0h-63v711h63v-711z" />
    <glyph glyph-name="J" unicode="J" horiz-adv-x="552" 
d="M404 711h63v-493q0 -105 -58 -166.5t-157 -61.5q-103 0 -158.5 55t-55.5 156h62q0 -79 38 -120t114 -41q69 0 110 45.5t42 128.5v497z" />
    <glyph glyph-name="K" unicode="K" horiz-adv-x="636" 
d="M87 711h62v-385l363 385h81l-301 -316l320 -395h-76l-286 348l-101 -99v-249h-62v711z" />
    <glyph glyph-name="L" unicode="L" horiz-adv-x="522" 
d="M149 50h348v-50h-410v711h62v-661z" />
    <glyph glyph-name="M" unicode="M" horiz-adv-x="862" 
d="M87 711h83l261 -629l259 629h84v-711h-63v116l6 516l-265 -632h-44l-263 629l5 -501v-128h-63v711z" />
    <glyph glyph-name="N" unicode="N" horiz-adv-x="707" 
d="M619 0h-62l-408 612v-612h-62v711h62l408 -611v611h62v-711z" />
    <glyph glyph-name="O" unicode="O" horiz-adv-x="672" 
d="M191.5 29.5q-63.5 39.5 -98.5 112t-35 167.5v90q0 96 34 169t97 113t147 40q83 0 146 -39t97.5 -112t34.5 -170v-87q0 -97 -34.5 -170.5t-97.5 -113t-145 -39.5t-145.5 39.5zM179 113.5q58 -73.5 158 -73.5q99 0 156 73t57 199v87q0 126 -57 198.5t-157 72.5
q-99 0 -157 -70.5t-58 -193.5v-93q0 -126 58 -199.5z" />
    <glyph glyph-name="P" unicode="P" horiz-adv-x="613" 
d="M149 287v-287h-63v711h238q113 0 177.5 -58t64.5 -158q0 -98 -63 -152.5t-177 -55.5h-177zM324 337q85 0 131.5 41.5t46.5 115.5q0 78 -47 122.5t-130 44.5h-176v-324h175z" />
    <glyph glyph-name="Q" unicode="Q" horiz-adv-x="672" 
d="M336 -10q-82 0 -145 39.5t-98 112.5t-35 170v88q0 97 35.5 170t98.5 112t145 39t145 -40t98 -112.5t35 -168.5v-89q0 -101 -38.5 -175t-105.5 -111l127 -119l-40 -35l-142 132q-36 -13 -80 -13zM147.5 166.5q26.5 -61.5 75 -94t113.5 -32.5q100 0 157.5 73.5t57.5 200.5
v87q0 124 -57.5 196.5t-156.5 72.5q-100 0 -158 -73t-58 -200v-86q0 -83 26.5 -144.5z" />
    <glyph glyph-name="R" unicode="R" horiz-adv-x="653" 
d="M355 291h-208v-291h-63v709h241q113 0 178 -54.5t65 -151.5q0 -72 -42 -125t-111 -71l181 -300v-7h-67zM343 341q46 0 83 20.5t58 57t21 81.5q0 74 -48.5 116.5t-133.5 42.5h-176v-318h196z" />
    <glyph glyph-name="S" unicode="S" horiz-adv-x="600" 
d="M453 272q-26 20 -63.5 34.5t-95.5 32.5q-49 16 -76.5 25.5t-50.5 22.5q-52 28 -76.5 65t-24.5 89q0 54 32 95t87.5 63t125.5 22q67 0 122.5 -26t88 -74t32.5 -113h-62q0 47 -23 84t-64 58.5t-95 21.5t-95.5 -17t-64 -47t-22.5 -67q0 -56 44 -90q26 -21 59.5 -33.5
t92.5 -30.5q57 -17 92.5 -30.5t64.5 -34.5q79 -54 79 -146q0 -41 -22.5 -83t-77.5 -72.5t-146 -30.5q-72 0 -133.5 23.5t-99.5 72.5t-38 122h63q0 -80 55.5 -124.5t152.5 -44.5q53 0 95 17.5t65.5 48.5t23.5 70q0 62 -45 97z" />
    <glyph glyph-name="T" unicode="T" horiz-adv-x="606" 
d="M581 661h-248v-661h-62v661h-246v50h556v-50z" />
    <glyph glyph-name="U" unicode="U" horiz-adv-x="666" 
d="M585 711v-479q0 -113 -67.5 -177.5t-184.5 -64.5q-116 0 -184 64.5t-68 176.5v480h63v-479q0 -88 51 -140t138 -52q88 0 138.5 52t50.5 141v478h63z" />
    <glyph glyph-name="V" unicode="V" horiz-adv-x="612" 
d="M12 711h69l206 -584l19 -57l18 51l207 590h70l-260 -711h-69z" />
    <glyph glyph-name="W" unicode="W" horiz-adv-x="897" 
d="M26 711h63l140 -555l15 -58l19 67l157 546h57l157 -548l18 -65l17 67l138 546h63l-181 -711h-66l-163 561l-12 44l-12 -47l-163 -558h-66z" />
    <glyph glyph-name="X" unicode="X" horiz-adv-x="607" 
d="M303 406l203 305h72l-234 -349l242 -362h-72l-210 317l-212 -317h-72l243 361l-234 350h72z" />
    <glyph glyph-name="Y" unicode="Y" horiz-adv-x="604" 
d="M301 320l222 391h69l-259 -445v-266h-63v266l-258 445h69z" />
    <glyph glyph-name="Z" unicode="Z" horiz-adv-x="601" 
d="M121 50h439v-50h-517v37l427 624h-414v50h491v-35z" />
    <glyph glyph-name="bracketleft" unicode="[" horiz-adv-x="267" 
d="M47 716h164v-60h-95v-716h96v-60h-165v836z" />
    <glyph glyph-name="backslash" unicode="\" horiz-adv-x="321" 
d="M230 3l-176 648h69l177 -648h-70z" />
    <glyph glyph-name="bracketright" unicode="]" horiz-adv-x="279" 
d="M212 -121h-164v60h95v717h-96v60h165v-837z" />
    <glyph glyph-name="asciicircum" unicode="^" horiz-adv-x="423" 
d="M208 662l-122 -306h-48l146 355h48l147 -355h-49z" />
    <glyph glyph-name="underscore" unicode="_" horiz-adv-x="425" 
d="M3 58h420v-55h-420v55z" />
    <glyph glyph-name="a" unicode="a" horiz-adv-x="529" 
d="M395 85q-62 -95 -189 -95q-74 0 -120 41t-46 106q0 76 61 117t174 41h117v72q0 60 -35.5 93.5t-101.5 33.5q-62 0 -102 -33t-40 -82h-60q0 44 27 80.5t73.5 57.5t103.5 21q90 0 142.5 -44.5t53.5 -123.5v-249q0 -43 3.5 -70.5t12.5 -46.5v-4h-60q-12 27 -14 85zM131.5 64
q31.5 -29 84.5 -29q62 0 103.5 22.5t72.5 70.5v132h-110q-83 0 -132.5 -29t-49.5 -91q0 -47 31.5 -76z" />
    <glyph glyph-name="b" unicode="b" horiz-adv-x="551" 
d="M199.5 19q-44.5 26 -68.5 74l-2 -93h-55v746h60v-306q24 46 67 70.5t101 24.5q94 0 146.5 -69.5t51.5 -196.5v-9q0 -128 -52 -197.5t-146 -69.5q-58 0 -102.5 26zM193.5 68q39.5 -27 95.5 -27q74 0 112 58t38 168q0 108 -39 164t-112 56q-54 0 -94.5 -26.5t-59.5 -77.5
v-237q20 -51 59.5 -78z" />
    <glyph glyph-name="c" unicode="c" horiz-adv-x="510" 
d="M147.5 22.5q-50.5 32.5 -78 93t-27.5 142.5v14q0 120 59.5 193t163.5 73q88 0 144 -50.5t59 -135.5h-57q-3 62 -43 100t-104 38q-76 0 -118.5 -57.5t-43.5 -159.5v-16q0 -105 43 -162t120 -57q63 0 103 37t43 97h57q-2 -54 -28.5 -95t-71.5 -64t-102 -23
q-68 0 -118.5 32.5z" />
    <glyph glyph-name="d" unicode="d" horiz-adv-x="551" 
d="M104.5 62q-52.5 69 -53.5 196v11q0 127 52.5 196.5t145.5 69.5q58 0 101 -24.5t67 -71.5v307h60v-746h-55l-2 94q-25 -49 -69 -75t-102 -26q-92 0 -144.5 69zM153 96.5q39 -55.5 110 -55.5q56 0 95.5 27t58.5 79v234q-19 52 -58.5 79t-95.5 27q-71 0 -110 -55.5
t-41 -159.5v-16q2 -104 41 -159.5z" />
    <glyph glyph-name="e" unicode="e" horiz-adv-x="514" 
d="M158.5 25.5q-55.5 32.5 -87.5 91.5t-32 135v20q0 72 28.5 133t81 97t120.5 36q63 0 110.5 -29t74 -82.5t26.5 -124.5v-37h-380v-22q2 -60 27.5 -106t66.5 -71t89 -25q54 0 88.5 17t60.5 51l31 -31q-58 -85 -182 -85q-67 0 -122.5 32.5zM420 306v11q0 74 -40 123.5
t-111 49.5q-69 0 -114 -51.5t-54 -132.5h319z" />
    <glyph glyph-name="f" unicode="f" horiz-adv-x="326" 
d="M113 475h-87v44h87v72q0 78 41 121t113 43q37 0 67 -9l-3 -45q-22 6 -53 6q-49 0 -76.5 -31t-27.5 -86v-71h130v-44h-130v-475h-61v475z" />
    <glyph glyph-name="g" unicode="g" horiz-adv-x="555" 
d="M87 -118l27 33q32 -38 67 -57t79 -19q75 0 117 46.5t42 126.5v81q-24 -47 -67 -71.5t-101 -24.5q-94 0 -147.5 70t-53.5 196v8q0 125 53.5 194.5t147.5 69.5q59 0 103.5 -25t67.5 -71l2 89h55v-512q0 -60 -23 -110.5t-71.5 -81.5t-121.5 -31q-104 0 -176 89zM151.5 99
q40.5 -58 113.5 -58q56 0 95.5 26.5t58.5 76.5v237q-19 51 -58.5 77t-95.5 26q-73 0 -113.5 -58.5t-40.5 -164.5q0 -104 40.5 -162z" />
    <glyph glyph-name="h" unicode="h" horiz-adv-x="551" 
d="M73 746h61v-334q22 56 70 89.5t105 33.5q86 0 128 -47.5t42 -145.5v-342h-60v342q0 74 -31 109.5t-96 35.5q-58 0 -98.5 -32.5t-59.5 -92.5v-362h-61v746z" />
    <glyph glyph-name="i" unicode="i" horiz-adv-x="222" 
d="M142 0h-61v528h61v-528zM80.5 712.5q11.5 11.5 30.5 11.5t31 -11.5t12 -28.5t-12 -27.5t-31 -10.5t-30.5 10.5t-11.5 27.5t11.5 28.5z" />
    <glyph glyph-name="j" unicode="j" horiz-adv-x="230" 
d="M143 528v-572q0 -77 -40.5 -119t-113.5 -42q-29 0 -56 9l2 48q26 -8 46 -8q49 0 75.5 29.5t26.5 82.5v572h60zM82 712.5q12 11.5 31 11.5q18 0 30 -11.5t12 -28.5q0 -16 -12 -27t-30 -11q-19 0 -31 10.5t-12 27.5t12 28.5z" />
    <glyph glyph-name="k" unicode="k" horiz-adv-x="491" 
d="M74 746h60v-469l266 251h74l-230 -221l245 -307h-71l-214 266l-70 -64v-202h-60v746z" />
    <glyph glyph-name="l" unicode="l" horiz-adv-x="222" 
d="M142 0h-61v746h61v-746z" />
    <glyph glyph-name="m" unicode="m" horiz-adv-x="887" 
d="M71 528h58v-120q22 58 72 92.5t110 34.5q69 0 107.5 -32.5t48.5 -99.5q21 60 71 96t112 36q84 0 125 -47t41 -143v-345h-60v343q0 74 -30 109t-93 35q-41 0 -76 -18q-58 -31 -83 -113v-356h-61v343q0 74 -30 109t-93 35q-79 0 -124 -64q-21 -27 -35 -66l1 -357h-61v528z
" />
    <glyph glyph-name="n" unicode="n" horiz-adv-x="551" 
d="M74 528h57l1 -120q23 58 72 92.5t110 34.5q84 0 125 -47t41 -144v-344h-61v343q0 74 -31 109t-96 35q-57 0 -98 -34t-60 -95l1 -358h-61v528z" />
    <glyph glyph-name="o" unicode="o" horiz-adv-x="553" 
d="M153.5 22.5q-53.5 32.5 -83.5 91.5t-31 135v25q-1 75 28 135t83 94.5t126 34.5q70 0 124 -33.5t83.5 -93.5t29.5 -138v-18q0 -78 -29.5 -138t-83.5 -93.5t-124 -33.5q-69 0 -122.5 32.5zM147 97.5q48 -59.5 129 -59.5t129 59t48 156v21q0 98 -48 157t-129 59
q-79 0 -127 -57.5t-50 -152.5v-24q0 -99 48 -158.5z" />
    <glyph glyph-name="p" unicode="p" horiz-adv-x="551" 
d="M74 529h57l2 -92q23 47 67 72.5t102 25.5q93 0 145.5 -69.5t52.5 -196.5v-9q0 -126 -52.5 -196.5t-145.5 -70.5q-57 0 -100.5 25t-67.5 71v-285h-60v725zM193 67.5q40 -26.5 96 -26.5q67 0 105.5 51.5t43.5 147.5q1 8 1 26q0 106 -39 163.5t-111 57.5q-57 0 -96.5 -26.5
t-58.5 -77.5v-237q19 -52 59 -78.5z" />
    <glyph glyph-name="q" unicode="q" horiz-adv-x="551" 
d="M349.5 18q-43.5 -25 -100.5 -25q-92 0 -144.5 69.5t-53.5 197.5v9q0 127 52 196.5t146 69.5q59 0 103 -26t68 -74l4 94h53v-725h-60v285q-24 -46 -67.5 -71zM153 95.5q39 -54.5 110 -54.5q56 0 95.5 26.5t58.5 78.5v237q-19 51 -58.5 77.5t-95.5 26.5q-71 0 -110 -55.5
t-41 -159.5v-20q2 -102 41 -156.5z" />
    <glyph glyph-name="r" unicode="r" horiz-adv-x="345" 
d="M75 528h58l1 -110q21 54 62.5 87t96.5 33q14 0 39 -5l-4 -56q-15 4 -38 4q-54 0 -94.5 -31.5t-59.5 -91.5v-358h-61v528z" />
    <glyph glyph-name="s" unicode="s" horiz-adv-x="501" 
d="M352.5 208.5q-36.5 26.5 -113.5 40.5q-96 19 -137 53.5t-41 94.5q0 41 23.5 73t66 50t97.5 18q90 0 144.5 -42t54.5 -114h-61q0 51 -35 82.5t-103 31.5q-60 0 -95 -29t-35 -71q0 -32 22.5 -53t56 -32.5t88.5 -24.5q85 -20 123.5 -56t38.5 -95q0 -65 -54.5 -103.5
t-142.5 -38.5q-58 0 -105 18.5t-74 52.5t-27 79h57q3 -51 42.5 -79t107.5 -28q67 0 102.5 27.5t35.5 70.5q0 48 -36.5 74.5z" />
    <glyph glyph-name="t" unicode="t" horiz-adv-x="323" 
d="M166 671v-142h112v-44h-112v-345q0 -42 11 -65t37 -30q16 -4 33 -4q22 0 42 6l2 -44q-30 -10 -63 -10q-64 0 -93.5 34t-29.5 106v352h-89v44h89v142h61z" />
    <glyph glyph-name="u" unicode="u" horiz-adv-x="551" 
d="M116 40q-42 47 -42 143v345h61v-346q0 -72 30.5 -106.5t92.5 -34.5t103 26.5t59 84.5v32l-1 344h61v-528h-57l-1 99q-21 -54 -68 -80t-110 -26q-86 0 -128 47z" />
    <glyph glyph-name="v" unicode="v" horiz-adv-x="487" 
d="M244 76l163 452h65l-198 -528h-61l-197 528h64z" />
    <glyph glyph-name="w" unicode="w" horiz-adv-x="750" 
d="M193 151l18 -71l138 448h46l138 -446l12 52l108 394h59l-147 -528h-52l-129 409l-12 40l-13 -43l-127 -406h-53l-145 528h58z" />
    <glyph glyph-name="x" unicode="x" horiz-adv-x="487" 
d="M244 314l148 214h65l-174 -257l183 -271h-65l-157 227l-157 -227h-65l183 271l-174 257h65z" />
    <glyph glyph-name="y" unicode="y" horiz-adv-x="573" 
d="M53 -198l-1 46q13 -4 32 -4q55 0 86 44q11 15 23 47l28 75l-205 518h64l170 -441l161 441h65l-242 -638q-18 -47 -53 -71t-82 -24q-27 0 -46 7z" />
    <glyph glyph-name="z" unicode="z" horiz-adv-x="487" 
d="M116 48h345v-48h-422v37l322 437h-307v48h384v-36z" />
    <glyph glyph-name="braceleft" unicode="{" horiz-adv-x="302" 
d="M86 -16v202q0 42 -13.5 63t-42.5 24v57q29 2 42.5 22.5t13.5 62.5v196q0 54 23 79.5t71 25.5h67v-60h-38q-53 0 -53 -71v-176q0 -47 -12.5 -73t-40.5 -35q28 -9 40.5 -35.5t12.5 -73.5v-181q0 -71 53 -71h38v-60h-67q-94 0 -94 104z" />
    <glyph glyph-name="bar" unicode="|" horiz-adv-x="262" 
d="M100 700h62v-806h-62v806z" />
    <glyph glyph-name="braceright" unicode="}" horiz-adv-x="302" 
d="M55 -120v60h39q26 0 39.5 18t13.5 53v181q0 47 12.5 73.5t39.5 35.5q-28 9 -40 35t-12 73v176q0 35 -13.5 53t-39.5 18h-39v60h67q48 0 71 -25.5t23 -79.5v-196q0 -42 13.5 -62.5t42.5 -22.5v-57q-29 -3 -42.5 -24t-13.5 -63v-202q0 -53 -23.5 -78.5t-70.5 -25.5h-67z
" />
    <glyph glyph-name="asciitilde" unicode="~" horiz-adv-x="675" 
d="M563 252.5q-37 -45.5 -100 -45.5q-31 0 -55 11.5t-64 45.5q-52 42 -77.5 57.5t-54.5 15.5q-44 0 -69.5 -31.5t-25.5 -86.5l-45 1q0 76 36.5 120.5t100.5 44.5q31 0 57 -12t65 -45q51 -42 76.5 -57t53.5 -15q43 0 68.5 31.5t25.5 85.5l45 -1q0 -74 -37 -119.5z" />
    <glyph glyph-name="uni00A0" unicode="&#xa0;" horiz-adv-x="267" 
 />
    <glyph glyph-name="brokenbar" unicode="&#xa6;" horiz-adv-x="207" 
d="M78 -132v372h53v-372h-53zM78 711h53v-370h-53v370z" />
    <glyph glyph-name="copyright" unicode="&#xa9;" horiz-adv-x="806" 
d="M227.5 40q-79.5 49 -126 133t-46.5 183q0 104 47 187.5t126.5 130.5t173.5 47t173.5 -48t126 -131.5t46.5 -185.5q0 -99 -46.5 -183t-126 -133t-173.5 -49q-95 0 -174.5 49zM124 185.5q43 -77.5 116.5 -123t161.5 -45.5t161 45t116 123t43 171q0 94 -42.5 172t-116 122.5
t-161.5 44.5q-86 0 -159.5 -42.5t-117.5 -119.5t-44 -177q0 -93 43 -170.5zM238 378q0 88 44 138.5t116 50.5t111 -40.5t39 -113.5h-31q0 61 -30 93t-89 32q-60 0 -94.5 -43t-34.5 -119v-42q0 -74 34.5 -117.5t94.5 -43.5q59 0 89 32.5t30 92.5h31q0 -73 -39 -113t-111 -40
t-116 51t-44 137v45z" />
    <glyph glyph-name="guillemotleft" unicode="&#xab;" horiz-adv-x="451" 
d="M162 365q-17 -40 -17 -83q0 -42 16 -80.5t45 -68.5l-38 -36q-36 37 -55.5 85t-19.5 100q0 54 21.5 103.5t61.5 87.5l35 -38q-32 -30 -49 -70zM258.5 385.5q21.5 49.5 61.5 87.5l35 -38q-32 -30 -49 -70t-17 -83q0 -42 16 -80.5t45 -68.5l-38 -36q-36 37 -55.5 85
t-19.5 100q0 54 21.5 103.5z" />
    <glyph glyph-name="logicalnot" unicode="&#xac;" horiz-adv-x="541" 
d="M452 190h-39v150h-353v34h392v-184z" />
    <glyph glyph-name="registered" unicode="&#xae;" horiz-adv-x="809" 
d="M227.5 40q-79.5 49 -126 133t-46.5 183q0 104 47 187.5t126.5 130.5t173.5 47t173.5 -48t126 -131.5t46.5 -185.5q0 -99 -46.5 -183t-126 -133t-173.5 -49q-95 0 -174.5 49zM124 185.5q43 -77.5 116.5 -123t161.5 -45.5t161 45t116 123t43 171q0 94 -42.5 172t-116 122.5
t-161.5 44.5q-86 0 -159.5 -42.5t-117.5 -119.5t-44 -177q0 -93 43 -170.5zM282 562h118q70 0 106 -29.5t36 -87.5q0 -69 -73 -96q65 -17 65 -103q0 -58 8 -81v-4h-31q-8 26 -8 85q0 45 -19.5 65.5t-64.5 20.5h-106v-171h-31v401zM408 361q45 0 74 23.5t29 61.5
q0 46 -24.5 66.5t-79.5 20.5h-94v-172h95z" />
    <glyph glyph-name="degree" unicode="&#xb0;" horiz-adv-x="386" 
d="M107.5 513q-35.5 35 -35.5 86q0 32 16.5 60.5t44.5 45t60 16.5t59.5 -16.5t43.5 -45t16 -60.5q0 -50 -35 -85.5t-84 -35.5q-50 0 -85.5 35zM130 535.5q26 -25.5 63 -25.5t62.5 26t25.5 63t-26 64t-62 27q-37 0 -63 -27t-26 -64q0 -38 26 -63.5z" />
    <glyph glyph-name="plusminus" unicode="&#xb1;" horiz-adv-x="529" 
d="M287 412h196v-50h-196v-213h-54v213h-197v50h197v210h54v-210zM53 49h413v-49h-413v49z" />
    <glyph glyph-name="uni00B2" unicode="&#xb2;" horiz-adv-x="360" 
d="M323 285h-275v34l141 139q36 36 52.5 61.5t16.5 46.5q0 33 -21.5 52t-61.5 19q-42 0 -66.5 -22.5t-24.5 -60.5l-45 2q0 53 37.5 86.5t97.5 33.5q61 0 95.5 -29.5t34.5 -80.5q0 -42 -47 -97q-13 -16 -46 -45l-103 -101h215v-38z" />
    <glyph glyph-name="uni00B3" unicode="&#xb3;" horiz-adv-x="360" 
d="M133 498h38q43 0 68 19t25 50q0 32 -23 51t-63 19q-39 0 -64.5 -19.5t-25.5 -49.5h-46q0 48 38 78t97 30q62 0 98 -29t36 -79q0 -29 -19.5 -52t-54.5 -34q40 -10 61 -34t21 -59q0 -50 -38.5 -79.5t-102.5 -29.5q-63 0 -103.5 31.5t-40.5 82.5h47q0 -33 28 -54.5t71 -21.5
q44 0 68 20t24 54q0 72 -106 72h-33v34z" />
    <glyph glyph-name="uni00B5" unicode="&#xb5;" horiz-adv-x="570" 
d="M138 528v-320q0 -82 38.5 -125t105.5 -43q70 0 105 38.5t42 112.5v337h60v-528h-57l-1 91q-19 -49 -55 -74.5t-96 -25.5q-53 0 -89.5 24.5t-52.5 69.5v-288h-61v731h61z" />
    <glyph glyph-name="uni00B9" unicode="&#xb9;" horiz-adv-x="360" 
d="M224 285h-46v331l-113 -35v39l154 50h5v-385z" />
    <glyph glyph-name="guillemotright" unicode="&#xbb;" horiz-adv-x="455" 
d="M340.5 385.5q21.5 -49.5 21.5 -103.5q0 -52 -19.5 -100t-55.5 -85l-38 36q29 30 44.5 68.5t15.5 80.5q0 44 -17 83.5t-48 69.5l35 38q40 -38 61.5 -87.5zM132 473q40 -37 61 -87t21 -104q0 -52 -19.5 -100t-55.5 -85l-38 36q29 30 45 68.5t16 80.5q0 44 -17 83.5
t-48 69.5z" />
    <glyph glyph-name="onequarter" unicode="&#xbc;" horiz-adv-x="747" 
d="M209 254h-46v331l-113 -34v39l153 50h6v-386zM529 638l35 -21l-347 -556l-35 21zM584 446h50v-251h63v-39h-63v-95h-47v95h-196l-2 28zM587 195v197l-18 -29l-129 -168h147z" />
    <glyph glyph-name="onehalf" unicode="&#xbd;" horiz-adv-x="802" 
d="M209 254h-46v331l-113 -34v39l153 50h6v-386zM529 638l35 -21l-347 -556l-35 21zM504.5 421.5q37.5 33.5 98.5 33.5q60 0 94.5 -29.5t34.5 -80.5q0 -44 -47 -97q-18 -21 -46 -45l-103 -100h216v-39h-275v34l141 139q35 37 51.5 62.5t16.5 45.5q0 33 -21 52.5t-61 19.5
q-42 0 -66.5 -23t-24.5 -60l-46 1q0 53 37.5 86.5z" />
    <glyph glyph-name="threequarters" unicode="&#xbe;" horiz-adv-x="772" 
d="M149 485h37q44 0 69 19t25 50q0 32 -23 50.5t-63 18.5q-39 0 -64.5 -19.5t-25.5 -49.5h-46q0 48 38 78t97 30q62 0 98 -29t36 -79q0 -29 -19.5 -52t-54.5 -34q40 -10 61 -34t21 -59q0 -49 -38.5 -79t-102.5 -30q-63 0 -103.5 31.5t-40.5 82.5h47q0 -33 27.5 -54.5
t71.5 -21.5t68 20t24 54q0 72 -106 72h-33v35zM568 638l35 -21l-347 -556l-35 21zM609 450h49v-251h64v-39h-64v-95h-46v95h-196l-2 28zM612 199v197l-18 -29l-129 -168h147z" />
    <glyph glyph-name="multiply" unicode="&#xd7;" horiz-adv-x="518" 
d="M43 59l177 180l-168 172l38 36l166 -170l167 170l37 -36l-167 -172l177 -180l-37 -35l-177 179l-176 -179z" />
    <glyph glyph-name="divide" unicode="&#xf7;" horiz-adv-x="567" 
d="M527 320h-493v48h493v-48zM254 172.5q12 11.5 30 11.5q19 0 31 -11.5t12 -28.5t-12 -28.5t-31 -11.5q-18 0 -30 11.5t-12 28.5t12 28.5zM254 556.5q12 11.5 30 11.5q19 0 31 -11.5t12 -28.5t-12 -28.5t-31 -11.5q-18 0 -30 11.5t-12 28.5t12 28.5z" />
    <glyph glyph-name="uni060C" unicode="&#x60c;" horiz-adv-x="282" 
d="M93 120.5q13 30.5 55 111.5l34 -21q-10 -20 -17.5 -34t-12.5 -24l-20 -39q3 1 9 1q25 0 42.5 -17.5t17.5 -42.5q0 -26 -17.5 -44t-42.5 -18q-26 0 -43.5 18t-17.5 44v20q0 15 13 45.5z" />
    <glyph glyph-name="uni0615" unicode="&#x615;" 
d="M-19 506h46l13 18l-9 204l31 1l8 -163q28 39 48.5 56t49.5 17q35 0 59 -25t24 -62q0 -32 -25 -56t-58 -24h-187v34zM168 506q21 0 36 14t15 32q0 23 -14 38t-37 15q-20 0 -35.5 -15t-45.5 -57l-19 -27h100z" />
    <glyph glyph-name="uni061B" unicode="&#x61b;" horiz-adv-x="282" 
d="M98.5 8q-17.5 18 -17.5 44q0 25 17.5 42t43.5 17q25 0 42.5 -17t17.5 -42q0 -26 -17.5 -44t-42.5 -18q-26 0 -43.5 18zM80 351q0 15 13 45.5t55 111.5l34 -21q-10 -20 -17.5 -34t-12.5 -24l-20 -39q3 1 9 1q25 0 42.5 -17.5t17.5 -42.5q0 -26 -17.5 -44t-42.5 -18
q-26 0 -43.5 18t-17.5 44v20z" />
    <glyph glyph-name="uni061F" unicode="&#x61f;" horiz-adv-x="515" 
d="M231 156v56q0 24 -7.5 41t-19 29t-37.5 34q-32 27 -49.5 46t-29 46t-11.5 65q0 50 24 91.5t65.5 65.5t90.5 24t90.5 -24.5t66 -66.5t24.5 -92v-40h-59v40q0 49 -35.5 83.5t-86.5 34.5t-86 -34t-35 -82q0 -29 10 -50t23.5 -34.5t40.5 -35.5q33 -26 47.5 -41.5t23.5 -38.5
t9 -61v-56h-59zM216.5 74q17.5 17 43.5 17q25 0 42.5 -17t17.5 -42q0 -26 -17.5 -44t-42.5 -18q-26 0 -43.5 18t-17.5 44q0 25 17.5 42z" />
    <glyph glyph-name="uni0640" unicode="&#x640;" horiz-adv-x="300" 
d="M-5 65h310l4 -32l-4 -33h-310v65z" />
    <glyph glyph-name="uni064B" unicode="&#x64b;" 
d="M0 449l227 54l7 -35l-226 -54zM227 610l7 -35l-226 -54l-8 35z" />
    <glyph glyph-name="uni064C" unicode="&#x64c;" 
d="M23 533l3 1q22 6 35 22.5t13 37.5q0 28 -20 47t-49 17l-5 29q4 1 13 1q38 0 64 -26t26 -62q0 -25 -13 -49l65 17l-19 72q-3 14 -3 25q0 34 24 56t65 22q40 0 68.5 -26t28.5 -66q0 -37 -25 -64t-70 -37l-195 -48zM186 576l30 8q34 9 52.5 26.5t18.5 40.5q0 25 -18 41.5
t-45 16.5t-43 -12.5t-16 -31.5q0 -8 3 -17z" />
    <glyph glyph-name="uni064D" unicode="&#x64d;" 
d="M0 -412l227 54l7 -35l-226 -54zM227 -250l7 -36l-226 -54l-8 36z" />
    <glyph glyph-name="uni064E" unicode="&#x64e;" 
d="M0 538l227 54l7 -35l-226 -54z" />
    <glyph glyph-name="uni064F" unicode="&#x64f;" 
d="M0 535l114 27l-19 66q-4 11 -4 25q0 35 27.5 59.5t67.5 24.5q41 0 70.5 -26.5t29.5 -66.5q0 -35 -26 -62.5t-71 -38.5l-181 -43zM147 570l34 8q33 8 51.5 26t18.5 41q0 25 -18 41.5t-45 16.5t-44.5 -15t-17.5 -37q0 -11 2 -16z" />
    <glyph glyph-name="uni0650" unicode="&#x650;" 
d="M0 -311l227 54l7 -35l-226 -54z" />
    <glyph glyph-name="uni0651" unicode="&#x651;" 
d="M14 636l29 -8l-10 -44q-2 -10 -2 -14q0 -15 10.5 -24t29.5 -9t29.5 9.5t10.5 23.5l1 58h27l1 -58q0 -14 10.5 -23.5t29.5 -9.5q20 0 30.5 9t10.5 25q0 8 -1 12l-17 65l29 8l18 -66q3 -12 3 -23q0 -29 -20 -48t-53 -19q-38 0 -54 26q-18 -26 -55 -26q-32 0 -51.5 18.5
t-19.5 48.5q0 10 3 22z" />
    <glyph glyph-name="uni0652" unicode="&#x652;" 
d="M39 539.5q-28 28.5 -28 68.5q0 39 28 67t68 28q38 0 66 -28t28 -67q0 -40 -28 -68.5t-66 -28.5q-40 0 -68 28.5zM62 563.5q18 -18.5 45 -18.5q26 0 44 18.5t18 44.5q0 25 -18 43t-44 18q-27 0 -45 -17.5t-18 -43.5t18 -44.5z" />
    <glyph glyph-name="uni0653" unicode="&#x653;" 
d="M21 656.5q21 21.5 55 21.5q6 0 20 -2l101 -19q10 -2 15 -2q20 0 31.5 11.5t11.5 30.5v7l33 2v-15q0 -35 -21 -56.5t-56 -21.5q-6 0 -20 2l-101 19q-10 2 -15 2q-19 0 -30.5 -11.5t-11.5 -30.5v-7l-33 -2v15q0 35 21 56.5z" />
    <glyph glyph-name="uni0654" unicode="&#x654;" 
d="M161 535l-153 -37l-8 35l88 21q-25 22 -32 53q-3 12 -3 22q0 39 27.5 66t68.5 27q27 0 72 -9l-7 -35q-45 9 -70 9t-41.5 -16.5t-16.5 -40.5q0 -28 21 -46t48 -14l104 25l7 -35l-99 -24z" />
    <glyph glyph-name="uni0655" unicode="&#x655;" 
d="M160 -346l-154 -37l-7 35l89 21q-25 21 -33 54q-3 10 -3 22q0 39 27.5 65.5t68.5 26.5q27 0 71 -9l-6 -34q-42 8 -67 8q-28 0 -44.5 -17t-16.5 -41q0 -28 20.5 -45.5t47.5 -13.5l104 25l8 -35l-99 -24z" />
    <glyph glyph-name="uni0656" unicode="&#x656;" 
d="M1 -237h32v-163h-32v163z" />
    <glyph glyph-name="uni0658" unicode="&#x658;" 
d="M112 468q-57 0 -89 37t-32 100q0 47 20 105l32 -13q-19 -51 -19 -94q0 -46 23 -71.5t65 -25.5q20 0 37 4q6 2 37 10t45 23t14 39q0 10 -1 16q-6 40 -7 47l-13 94l32 7l5 -32l16 -111q2 -16 2 -23q0 -49 -31 -70.5t-91 -35.5q-24 -6 -45 -6z" />
    <glyph glyph-name="uni065A" unicode="&#x65a;" 
d="M47 647l45 -134l46 134h36l-66 -175h-31l-66 175h36z" />
    <glyph glyph-name="uni065B" unicode="&#x65b;" 
d="M77 660h31l66 -175h-36l-45 134l-45 -134h-37z" />
    <glyph glyph-name="uni0660" unicode="&#x660;" horiz-adv-x="333" 
d="M80 238l48 48l31 32l48 -48l31 -32l-79 -79q-39 40 -79 79z" />
    <glyph glyph-name="uni0661" unicode="&#x661;" horiz-adv-x="338" 
d="M85 652l59 6l64 -655l-59 -6z" />
    <glyph glyph-name="uni0662" unicode="&#x662;" horiz-adv-x="469" 
d="M421 661l17 -168q1 -5 1 -14q0 -38 -20.5 -70.5t-55 -52t-74.5 -19.5h-37q-48 0 -87 28l35 -361l-59 -6l-64 656l59 6l17 -176q7 -39 31 -60.5t60 -21.5h45q40 0 67 25t23 60l-17 167z" />
    <glyph glyph-name="uni0663" unicode="&#x663;" horiz-adv-x="700" 
d="M444 351.5q-30 16.5 -52 45.5q-21 -28 -53 -45t-69 -17h-24q-45 0 -81 25l35 -357l-59 -6l-64 655l59 6l17 -170q5 -40 29.5 -63.5t61.5 -23.5h26q39 0 66 25t24 60v1l-14 142l59 6l14 -145q4 -40 28.5 -64.5t62.5 -24.5h10q38 0 65.5 25.5t24.5 60.5l-16 165l59 6
l16 -168q4 -41 -16 -77t-56 -57t-77 -21h-10q-36 0 -66 16.5z" />
    <glyph glyph-name="uni0664" unicode="&#x664;" horiz-adv-x="432" 
d="M122.5 20.5q-34.5 20.5 -54.5 55t-20 74.5q0 111 149 162l55 20l-31 11q-66 24 -96.5 59.5t-30.5 87.5q0 105 126 143l127 38l16 -63l-127 -37q-43 -13 -63 -33t-20 -50t20.5 -49.5t69.5 -36.5l114 -39l1 -62l-141 -48q-58 -20 -83.5 -43.5t-26.5 -58.5q0 -36 26.5 -61
t64.5 -25h185v-65h-186q-40 0 -74.5 20.5z" />
    <glyph glyph-name="uni0665" unicode="&#x665;" horiz-adv-x="560" 
d="M90.5 44q-50.5 51 -50.5 150q0 48 12 106q22 101 51 164t74 83q27 12 55 12q64 0 131.5 -53t111.5 -133t44 -154q0 -16 -1 -24q-11 -86 -73 -144t-205 -58q-99 0 -149.5 51zM99 190q0 -69 34 -100t107 -31q203 0 220 146q1 5 1 16q0 56 -36 121t-89.5 109.5t-100.5 44.5
q-16 0 -34 -8q-29 -14 -50.5 -62t-40.5 -141q-11 -57 -11 -95z" />
    <glyph glyph-name="uni0666" unicode="&#x666;" horiz-adv-x="507" 
d="M303.5 577.5q-41.5 -3.5 -94.5 -3.5q-123 0 -204 26l19 63q73 -24 187 -24q84 0 162 11l34 -30l58 -617l-59 -6l-54 585q-7 -1 -48.5 -4.5z" />
    <glyph glyph-name="uni0667" unicode="&#x667;" horiz-adv-x="574" 
d="M543 636l-229 -639h-55l-228 639l56 22l199 -563l201 563z" />
    <glyph glyph-name="uni0668" unicode="&#x668;" horiz-adv-x="574" 
d="M31 17l229 640h55l228 -640l-56 -22l-200 563l-200 -563z" />
    <glyph glyph-name="uni0669" unicode="&#x669;" horiz-adv-x="506" 
d="M76 576q23 40 63 63.5t88 23.5q68 0 116.5 -48.5t56.5 -122.5l50 -489l-59 -6l-33 318h-131q-48 0 -88 23t-63 62.5t-23 87.5t23 88zM145.5 410.5q33.5 -32.5 81.5 -32.5h125l-11 108q-5 50 -36.5 81.5t-77.5 31.5q-49 0 -82 -32t-33 -79q0 -45 33.5 -77.5z" />
    <glyph glyph-name="uni066A" unicode="&#x66a;" horiz-adv-x="404" 
d="M256 651h70l-177 -648h-69zM34.5 634q17.5 17 43.5 17q25 0 42.5 -17.5t17.5 -42.5t-17.5 -43t-42.5 -18q-26 0 -43.5 17.5t-17.5 43.5t17.5 43zM283.5 105q17.5 17 43.5 17q25 0 42.5 -17.5t17.5 -42.5t-17.5 -43t-42.5 -18q-26 0 -43.5 17.5t-17.5 43.5t17.5 43z" />
    <glyph glyph-name="uni066B" unicode="&#x66b;" horiz-adv-x="359" 
d="M40 -73l216 536l43 -18l-216 -536z" />
    <glyph glyph-name="uni066C" unicode="&#x66c;" horiz-adv-x="248" 
d="M60 -108l84 238l44 -16l-84 -238z" />
    <glyph glyph-name="uni066D" unicode="&#x66d;" horiz-adv-x="497" 
d="M248 364l-93 -128l-47 34l93 128l-151 49l19 56l150 -48v158h59v-158l150 48l19 -56l-151 -49l93 -128l-47 -34z" />
    <glyph glyph-name="uni066E" unicode="&#x66e;" horiz-adv-x="900" 
d="M270.5 2.5q-56.5 2.5 -82.5 7.5t-50 16q-44 19 -66 54t-22 84q0 30 9 64l37 140l57 -17l-37 -142q-7 -25 -7 -47q0 -28 13 -46.5t40 -29.5q18 -8 39.5 -12t78.5 -6.5t171 -2.5q113 0 169 2.5t77 6.5t40 12q27 12 40.5 31t13.5 49q0 22 -7 49l-38 139l57 16l38 -139
q10 -40 10 -68q0 -49 -22.5 -84t-66.5 -53q-24 -11 -51 -16t-85.5 -7.5t-174.5 -2.5v0h-11q-113 0 -169.5 2.5z" />
    <glyph glyph-name="uni066F" unicode="&#x66f;" horiz-adv-x="668" 
d="M285 -246q-110 0 -172.5 71t-62.5 192q0 91 37 198l57 -22q-35 -98 -35 -179q0 -92 45.5 -143.5t129.5 -51.5q34 0 73 9q78 17 120.5 34t62.5 44.5t16 73.5l-4 40q-70 -14 -136 -14q-69 0 -114 46t-45 118q0 48 20.5 91.5t58.5 70t88 26.5q70 0 117.5 -54t56.5 -142
l17 -161q2 -26 2 -37q0 -60 -26 -97.5t-78 -60t-143 -42.5q-43 -10 -85 -10zM344 98q27 -27 72 -27q64 0 131 15l-7 67q-7 66 -38.5 103t-79.5 37q-49 0 -77 -37t-28 -86q0 -45 27 -72z" />
    <glyph glyph-name="uni0670" unicode="&#x670;" 
d="M1 663h32v-163h-32v163z" />
    <glyph glyph-name="uni0688" unicode="&#x688;" horiz-adv-x="495" 
d="M120 25.5q-42 25.5 -48 70.5q-5 23 -5 67h54q0 -32 5 -54q5 -24 29 -34t71 -10h52q121 0 121 72q0 16 -4 29q-16 53 -60.5 130.5t-98.5 152.5l48 39q59 -81 106.5 -164.5t61.5 -142.5q6 -24 6 -46q0 -60 -45.5 -97.5t-141.5 -37.5h-36q-73 0 -115 25.5zM117 588h46l13 18
l-9 204l31 1l8 -163q28 39 48.5 56t49.5 17q35 0 58.5 -25t23.5 -62q0 -32 -24.5 -56t-57.5 -24h-187v34zM304 588q20 0 35.5 14.5t15.5 31.5q0 23 -14.5 38t-36.5 15q-21 0 -36 -15t-45 -57l-20 -27h101z" />
    <glyph glyph-name="uni0691" unicode="&#x691;" horiz-adv-x="348" 
d="M0 -194l35 10q62 16 97 30t58.5 41.5t23.5 73.5q0 9 -2 27l-40 288l59 9l29 -214l3 -25q3 -16 7 -50q3 -21 3 -39q0 -61 -29 -100.5t-76 -62t-118 -41.5l-35 -10zM38 385h46l12 17l-9 205l32 1l8 -164q29 39 49 56.5t49 17.5q35 0 58.5 -25t23.5 -62q0 -32 -24.5 -56.5
t-57.5 -24.5h-187v35zM225 385q20 0 35 14t15 32q0 23 -14 38t-36 15q-21 0 -35 -14.5t-47 -58.5l-19 -26h101z" />
    <glyph glyph-name="uni0695" unicode="&#x695;" horiz-adv-x="321" 
d="M0 -194l35 10q62 16 97 30t58.5 41.5t23.5 73.5q0 9 -2 27l-40 288l59 9l29 -214l3 -25q3 -16 7 -50q3 -21 3 -39q0 -61 -29 -100.5t-76 -62t-118 -41.5l-35 -10zM89 -312l45 -134l45 134h36l-65 -175h-32l-65 175h36z" />
    <glyph glyph-name="uni06A1" unicode="&#x6a1;" horiz-adv-x="904" 
d="M272 2.5q-58 2.5 -84 7.5t-50 16q-44 19 -66 54t-22 84q0 30 9 64l37 140l57 -17l-37 -142q-7 -25 -7 -47q0 -28 13 -46.5t40 -29.5q18 -8 39.5 -12t78.5 -6.5t171 -2.5h202q60 0 90 5.5t41.5 19t11.5 40.5q0 7 -2 29q-55 -11 -134 -11q-69 0 -111 41.5t-42 112.5
q0 49 18.5 91.5t55.5 68.5t89 26q68 0 114.5 -52t54.5 -139l11 -124q2 -16 2 -45q0 -48 -17 -75.5t-60 -40t-123 -12.5h-201h-6q-115 0 -173 2.5zM587.5 235.5q26.5 -27.5 72.5 -27.5q71 0 128 13l-6 71q-7 64 -38 100.5t-78 36.5q-49 0 -77 -36t-28 -85q0 -45 26.5 -72.5z
" />
    <glyph glyph-name="uni06B5" unicode="&#x6b5;" horiz-adv-x="652" 
d="M281 -248q-108 0 -169.5 71.5t-61.5 192.5q0 90 37 197l56 -22q-34 -98 -34 -178q0 -92 45 -144.5t127 -52.5q35 0 74 10l23 6q59 14 92.5 29t54.5 48.5t19 95.5l-25 644l59 3l25 -644q3 -85 -28 -133.5t-79 -70.5t-127 -41q-43 -11 -88 -11zM498 887l45 -134l45 134h37
l-66 -175h-32l-65 175h36z" />
    <glyph glyph-name="uni06BA" unicode="&#x6ba;" horiz-adv-x="655" 
d="M285 -246q-110 0 -172.5 71t-62.5 192q0 91 37 198l57 -22q-35 -98 -35 -179q0 -92 45.5 -143.5t129.5 -51.5q34 0 73 9q73 18 107 29.5t58 38.5t24 75q0 20 -2 31q-5 38 -40 274l58 10l40 -274q3 -24 3 -44q0 -65 -31 -105t-80 -60.5t-124 -38.5q-43 -10 -85 -10z" />
    <glyph glyph-name="uni06C1" unicode="&#x6c1;" horiz-adv-x="431" 
d="M131.5 21.5q-37.5 22.5 -59.5 60.5t-22 83q0 39 19.5 79.5t55.5 74.5l49 47l-37 37l41 46l110 -108q47 -47 67.5 -87t20.5 -89q0 -45 -22 -83t-59.5 -60.5t-81.5 -22.5t-81.5 22.5zM138.5 93q30.5 -30 74.5 -30q45 0 75 29.5t30 72.5q0 31 -14 58.5t-56 69.5l-32 32
l-48 -47q-60 -60 -60 -113q0 -42 30.5 -72z" />
    <glyph glyph-name="uni06C2" unicode="&#x6c2;" horiz-adv-x="431" 
d="M131.5 21.5q-37.5 22.5 -59.5 60.5t-22 83q0 39 19.5 79.5t55.5 74.5l49 47l-37 37l41 46l110 -108q47 -47 67.5 -87t20.5 -89q0 -45 -22 -83t-59.5 -60.5t-81.5 -22.5t-81.5 22.5zM164 566q-25 21 -33 54q-3 11 -3 22q0 39 27.5 65.5t68.5 26.5q27 0 72 -9l-7 -34
q-41 8 -67 8q-27 0 -44 -16.5t-17 -40.5q0 -29 21 -46.5t48 -13.5l104 25l7 -35l-99 -24l-4 -1l-155 -37l-8 35zM138.5 93q30.5 -30 74.5 -30q45 0 75 29.5t30 72.5q0 31 -14 58.5t-56 69.5l-32 32l-48 -47q-60 -60 -60 -113q0 -42 30.5 -72z" />
    <glyph glyph-name="uni06C3" unicode="&#x6c3;" horiz-adv-x="431" 
d="M131.5 21.5q-37.5 22.5 -59.5 60.5t-22 83q0 39 19.5 79.5t55.5 74.5l49 47l-37 37l41 46l110 -108q47 -47 67.5 -87t20.5 -89q0 -45 -22 -83t-59.5 -60.5t-81.5 -22.5t-81.5 22.5zM83 565h80v-80h-80v80zM138.5 93q30.5 -30 74.5 -30q45 0 75 29.5t30 72.5
q0 31 -14 58.5t-56 69.5l-32 32l-48 -47q-60 -60 -60 -113q0 -42 30.5 -72zM251 565h79v-80h-79v80z" />
    <glyph glyph-name="uni06C9" unicode="&#x6c9;" horiz-adv-x="476" 
d="M263.5 -153.5q52.5 15.5 78.5 41t26 73.5q0 7 -2 27l-3 25q-65 -13 -137 -13q-70 0 -114.5 46.5t-44.5 119.5q0 47 20.5 90t58 69.5t87.5 26.5q70 0 117.5 -54t57.5 -142l17 -161q2 -26 2 -36q0 -69 -33.5 -107.5t-99 -61t-191.5 -47.5l-12 64q120 24 172.5 39.5z
M153.5 92.5q26.5 -27.5 72.5 -27.5q61 0 131 13l-7 69q-7 66 -39 103t-79 37q-49 0 -77 -36.5t-28 -84.5q0 -46 26.5 -73.5zM209 604h31l66 -175h-36l-46 134l-45 -134h-36z" />
    <glyph glyph-name="uni06CE" unicode="&#x6ce;" horiz-adv-x="714" 
d="M285 -246q-110 0 -172.5 71t-62.5 193q0 90 37 197l57 -22q-35 -98 -35 -178q0 -93 46 -144.5t130 -51.5q33 0 72 9q91 22 144 51t53 53q0 11 -12 19t-43 18t-73 22q-63 19 -94.5 45t-31.5 76q0 31 11 67t36.5 76t67.5 69t95 29q27 0 52 -7l65 -18l-15 -64l-65 18
q-21 6 -40 6q-61 0 -95 -44t-45 -82q-6 -24 -6 -39q0 -32 20.5 -45.5t71.5 -27.5q69 -21 96.5 -31t43.5 -26t20 -44l1 -12q0 -55 -64.5 -101t-179.5 -72q-43 -10 -85 -10zM186 507l45 -134l45 134h37l-66 -175h-32l-65 175h36z" />
    <glyph glyph-name="uni06D4" unicode="&#x6d4;" horiz-adv-x="251" 
d="M80.5 8q-17.5 18 -17.5 44q0 25 17.5 42t43.5 17q25 0 42.5 -17t17.5 -42q0 -26 -17.5 -44t-42.5 -18q-26 0 -43.5 18z" />
    <glyph glyph-name="uni06D5" unicode="&#x6d5;" horiz-adv-x="431" 
d="M131.5 21.5q-37.5 22.5 -59.5 60.5t-22 83q0 39 19.5 79.5t55.5 74.5l49 47l-37 37l41 46l110 -108q47 -47 67.5 -87t20.5 -89q0 -45 -22 -83t-59.5 -60.5t-81.5 -22.5t-81.5 22.5zM138.5 93q30.5 -30 74.5 -30q45 0 75 29.5t30 72.5q0 31 -14 58.5t-56 69.5l-32 32
l-48 -47q-60 -60 -60 -113q0 -42 30.5 -72z" />
    <glyph glyph-name="uni06F0" unicode="&#x6f0;" horiz-adv-x="470" 
d="M367.5 149q-21.5 -38 -58.5 -60t-80 -22q-44 0 -81 22t-58.5 60t-21.5 82t21.5 82t58.5 60t81 22q43 0 80 -22t58.5 -60t21.5 -82t-21.5 -82zM155 159q31 -30 74 -30t74 30t31 72q0 43 -31 73t-74 30t-74 -30t-31 -73q0 -42 31 -72z" />
    <glyph glyph-name="uni06F1" unicode="&#x6f1;" horiz-adv-x="338" 
d="M85 652l59 6l64 -655l-59 -6z" />
    <glyph glyph-name="uni06F2" unicode="&#x6f2;" horiz-adv-x="469" 
d="M421 661l17 -168q1 -5 1 -14q0 -38 -20.5 -70.5t-55 -52t-74.5 -19.5h-37q-48 0 -87 28l35 -361l-59 -6l-64 656l59 6l17 -176q7 -39 31 -60.5t60 -21.5h45q40 0 67 25t23 60l-17 167z" />
    <glyph glyph-name="uni06F3" unicode="&#x6f3;" horiz-adv-x="700" 
d="M444 351.5q-30 16.5 -52 45.5q-21 -28 -53 -45t-69 -17h-24q-45 0 -81 25l35 -357l-59 -6l-64 655l59 6l17 -170q5 -40 29.5 -63.5t61.5 -23.5h26q39 0 66 25t24 60v1l-14 142l59 6l14 -145q4 -40 28.5 -64.5t62.5 -24.5h10q38 0 65.5 25.5t24.5 60.5l-16 165l59 6
l16 -168q4 -41 -16 -77t-56 -57t-77 -21h-10q-36 0 -66 16.5z" />
    <glyph glyph-name="uni06F4" unicode="&#x6f4;" horiz-adv-x="623" 
d="M165 358l34 -355l-59 -6l-46 477l-1 11v0l-16 168l59 6l17 -176q5 -39 29 -60.5t61 -21.5h38q-36 49 -36 108q0 48 23 88t63 63t87 23q23 0 57.5 -11t61.5 -23t35 -16l-26 -58q-6 2 -53.5 21.5t-74.5 20.5q-31 2 -57.5 -12t-41.5 -39.5t-15 -56.5q0 -46 30.5 -77
t75.5 -31h180v-66h-347q-44 0 -78 23z" />
    <glyph glyph-name="uni06F5" unicode="&#x6f5;" horiz-adv-x="659" 
d="M381 16q-30 16 -51 44q-20 -28 -51 -44t-66 -16h-11q-40 0 -73.5 20t-53 54t-19.5 75q0 84 12 129t57.5 106t162.5 190l-49 55l44 43q169 -187 228.5 -261.5t75.5 -123.5t16 -138q0 -41 -19 -75t-52.5 -54t-73.5 -20h-11q-36 0 -66 16zM140 89.5q25 -24.5 62 -24.5h11
q37 0 62 24.5t25 59.5v61h59v-59q4 -39 27.5 -62.5t60.5 -23.5h11q37 0 61.5 24t24.5 60q0 71 -11 109t-52 93t-151 177q-112 -124 -153 -177.5t-51.5 -91t-10.5 -110.5q0 -35 25 -59.5z" />
    <glyph glyph-name="uni06F6" unicode="&#x6f6;" horiz-adv-x="498" 
d="M456 521l-98 -145h1l-9 -13l-258 -381l-48 36l191 282q-60 -5 -111 30q-37 24 -57.5 62.5t-20.5 81.5q0 53 31 99q13 19 49 46t78 54l30 -56q-89 -52 -109 -81q-20 -31 -20 -63q0 -25 13 -48t37 -39q29 -21 64 -21q28 0 52.5 12.5t39.5 36.5l97 143z" />
    <glyph glyph-name="uni06F7" unicode="&#x6f7;" horiz-adv-x="574" 
d="M543 636l-229 -639h-55l-228 639l56 22l199 -563l201 563z" />
    <glyph glyph-name="uni06F8" unicode="&#x6f8;" horiz-adv-x="574" 
d="M31 17l229 640h55l228 -640l-56 -22l-200 563l-200 -563z" />
    <glyph glyph-name="uni06F9" unicode="&#x6f9;" horiz-adv-x="506" 
d="M76 576q23 40 63 63.5t88 23.5q68 0 116.5 -48.5t56.5 -122.5l50 -489l-59 -6l-33 318h-131q-48 0 -88 23t-63 62.5t-23 87.5t23 88zM145.5 410.5q33.5 -32.5 81.5 -32.5h125l-11 108q-5 50 -36.5 81.5t-77.5 31.5q-49 0 -82 -32t-33 -79q0 -45 33.5 -77.5z" />
    <glyph glyph-name="uni2009" unicode="&#x2009;" horiz-adv-x="150" 
 />
    <glyph glyph-name="uni200A" unicode="&#x200a;" horiz-adv-x="75" 
 />
    <glyph glyph-name="uni200B" unicode="&#x200b;" 
 />
    <glyph glyph-name="uni200C" unicode="&#x200c;" 
 />
    <glyph glyph-name="uni200D" unicode="&#x200d;" 
 />
    <glyph glyph-name="uni200E" unicode="&#x200e;" 
 />
    <glyph glyph-name="uni200F" unicode="&#x200f;" 
 />
    <glyph glyph-name="quoteleft" unicode="&#x2018;" horiz-adv-x="171" 
d="M102 562h-62l45 216h46z" />
    <glyph glyph-name="quoteright" unicode="&#x2019;" horiz-adv-x="171" 
d="M69 779h62l-45 -216h-46z" />
    <glyph glyph-name="quotedblleft" unicode="&#x201c;" horiz-adv-x="342" 
d="M102 562h-62l45 216h46zM256 778h46l-29 -216h-62z" />
    <glyph glyph-name="quotedblright" unicode="&#x201d;" horiz-adv-x="342" 
d="M69 779h62l-45 -216h-46zM240 779h62l-45 -216h-46z" />
    <glyph glyph-name="quotedblbase" unicode="&#x201e;" horiz-adv-x="342" 
d="M69 138h62l-45 -216h-46zM240 138h62l-45 -216h-47z" />
    <glyph glyph-name="bullet" unicode="&#x2022;" horiz-adv-x="417" 
d="M131 24q-32 32 -32 78t32 77.5t78 31.5q45 0 77.5 -32t32.5 -77q0 -46 -32.5 -78t-77.5 -32q-46 0 -78 32z" />
    <glyph glyph-name="ellipsis" unicode="&#x2026;" horiz-adv-x="784" 
d="M115.5 8q-17.5 18 -17.5 44q0 25 17.5 42t43.5 17q25 0 43 -17t18 -42q0 -26 -18 -44t-43 -18q-26 0 -43.5 18zM360.5 94q17.5 17 43.5 17q25 0 43 -17t18 -42q0 -26 -18 -44t-43 -18q-26 0 -43.5 18t-17.5 44q0 25 17.5 42zM607.5 94q17.5 17 43.5 17q25 0 42.5 -17
t17.5 -42q0 -26 -17.5 -44t-42.5 -18q-26 0 -43.5 18t-17.5 44q0 25 17.5 42z" />
    <glyph glyph-name="minute" unicode="&#x2032;" horiz-adv-x="197" 
d="M46 698h70l-8 -206h-55z" />
    <glyph glyph-name="second" unicode="&#x2033;" horiz-adv-x="331" 
d="M184 698h70l-8 -206h-54zM129 698l-8 -206h-55l-7 206h70z" />
    <glyph glyph-name="guilsinglleft" unicode="&#x2039;" horiz-adv-x="321" 
d="M171 365.5q-17 -39.5 -17 -83.5q0 -42 16 -80.5t45 -68.5l-38 -36q-36 37 -55.5 85t-19.5 100q0 54 21 104t61 87l36 -38q-32 -30 -49 -69.5z" />
    <glyph glyph-name="guilsinglright" unicode="&#x203a;" horiz-adv-x="321" 
d="M197.5 385.5q21.5 -49.5 21.5 -103.5q0 -52 -19.5 -100t-55.5 -85l-38 36q29 30 45 68.5t16 80.5q0 43 -17 83t-49 70l36 38q39 -38 60.5 -87.5z" />
    <glyph glyph-name="fraction" unicode="&#x2044;" horiz-adv-x="441" 
d="M61 61l-35 21l347 556l35 -21z" />
    <glyph glyph-name="uni2070" unicode="&#x2070;" horiz-adv-x="360" 
d="M282 322q-35 -42 -101 -42t-102 42t-36 120v71q0 78 36 120.5t101 42.5t101 -42.5t36 -120.5v-71q0 -78 -35 -120zM113 349.5q24 -31.5 68 -31.5q43 0 66 31.5t23 88.5v77q0 59 -23.5 90.5t-66.5 31.5t-66.5 -31.5t-24.5 -89.5v-77q0 -58 24 -89.5z" />
    <glyph glyph-name="uni2074" unicode="&#x2074;" horiz-adv-x="360" 
d="M275 419h63v-39h-63v-95h-47v95h-195l-2 28l195 262h49v-251zM228 419v197l-18 -29l-129 -168h147z" />
    <glyph glyph-name="uni2075" unicode="&#x2075;" horiz-adv-x="360" 
d="M63 481l24 189h226v-39h-188l-16 -119q15 8 37 14t45 6q61 0 96 -33t35 -89q0 -61 -36 -95.5t-99 -34.5q-55 0 -93 30.5t-41 78.5h47q3 -32 26.5 -51.5t60.5 -19.5q90 0 90 92q0 40 -25 63.5t-70 23.5q-27 0 -47 -6.5t-36 -20.5z" />
    <glyph glyph-name="uni2076" unicode="&#x2076;" horiz-adv-x="360" 
d="M143 598.5q-43 -37.5 -48 -105.5q16 21 43 33.5t60 12.5q57 0 91 -34.5t34 -92.5q0 -57 -37.5 -94.5t-95.5 -37.5q-64 0 -103.5 39.5t-39.5 103.5v36q0 102 56 159t163 57v-39q-80 0 -123 -37.5zM119.5 345q26.5 -27 70.5 -27q37 0 62 27t25 67q0 41 -24 64.5t-67 23.5
q-31 0 -57 -15t-36 -40v-26q0 -47 26.5 -74z" />
    <glyph glyph-name="uni2077" unicode="&#x2077;" horiz-adv-x="360" 
d="M319 644l-180 -359h-49l180 346h-240v39h289v-26z" />
    <glyph glyph-name="uni2078" unicode="&#x2078;" horiz-adv-x="360" 
d="M76.5 309q-38.5 29 -38.5 79q0 34 21 58.5t59 35.5q-33 12 -51 35t-18 53q0 48 35.5 77t95.5 29q59 0 95 -28.5t36 -77.5q0 -31 -18 -53.5t-51 -34.5q37 -11 58.5 -36t21.5 -58q0 -50 -38 -79t-103 -29q-66 0 -104.5 29zM110 337.5q26 -19.5 71 -19.5q43 0 69 20t26 52
t-26.5 52t-69.5 20t-69.5 -20t-26.5 -52q0 -33 26 -52.5zM118.5 519.5q23.5 -18.5 62.5 -18.5q38 0 61 18.5t23 48.5t-24 49.5t-61 19.5q-38 0 -61.5 -18.5t-23.5 -49.5t23.5 -49.5z" />
    <glyph glyph-name="uni2079" unicode="&#x2079;" horiz-adv-x="360" 
d="M222.5 353q39.5 34 42.5 105q-15 -23 -42 -36t-59 -13q-58 0 -92.5 36.5t-34.5 92.5q0 59 39 98.5t97 39.5q66 0 102.5 -40.5t36.5 -113.5v-35q0 -103 -51.5 -155t-159.5 -52v39q82 0 121.5 34zM108 472q25 -26 65 -26q32 0 57.5 16.5t34.5 42.5v24q0 53 -24 80.5
t-67 27.5q-39 0 -65 -29t-26 -70q0 -40 25 -66z" />
    <glyph glyph-name="uni2080" unicode="&#x2080;" horiz-adv-x="360" 
d="M282 37q-35 -42 -101 -42t-102 42t-36 120v71q0 78 36 120.5t101 42.5t101 -42.5t36 -120.5v-71q0 -78 -35 -120zM113 64.5q24 -31.5 68 -31.5q43 0 66 31.5t23 88.5v77q0 59 -23.5 90.5t-66.5 31.5t-66.5 -31.5t-24.5 -89.5v-77q0 -58 24 -89.5z" />
    <glyph glyph-name="uni2081" unicode="&#x2081;" horiz-adv-x="360" 
d="M224 0h-46v331l-113 -35v39l154 50h5v-385z" />
    <glyph glyph-name="uni2082" unicode="&#x2082;" horiz-adv-x="360" 
d="M323 0h-275v34l141 139q36 36 52.5 61.5t16.5 46.5q0 33 -21.5 52t-61.5 19q-42 0 -66.5 -22.5t-24.5 -60.5l-45 2q0 53 37.5 86.5t97.5 33.5q61 0 95.5 -29.5t34.5 -80.5q0 -42 -47 -97q-13 -16 -46 -45l-103 -101h215v-38z" />
    <glyph glyph-name="uni2083" unicode="&#x2083;" horiz-adv-x="360" 
d="M133 213h38q43 0 68 19t25 50q0 32 -23 51t-63 19q-39 0 -64.5 -19.5t-25.5 -49.5h-46q0 48 38 78t97 30q62 0 98 -29t36 -79q0 -29 -19.5 -52t-54.5 -34q40 -10 61 -34t21 -59q0 -50 -38.5 -79.5t-102.5 -29.5q-63 0 -103.5 31.5t-40.5 82.5h47q0 -33 28 -54.5t71 -21.5
q44 0 68 20t24 54q0 72 -106 72h-33v34z" />
    <glyph glyph-name="uni2084" unicode="&#x2084;" horiz-adv-x="360" 
d="M275 134h63v-39h-63v-95h-47v95h-195l-2 28l195 262h49v-251zM228 134v197l-18 -29l-129 -168h147z" />
    <glyph glyph-name="uni2085" unicode="&#x2085;" horiz-adv-x="360" 
d="M63 196l24 189h226v-39h-188l-16 -119q15 8 37 14t45 6q61 0 96 -33t35 -89q0 -61 -36 -95.5t-99 -34.5q-55 0 -93 30.5t-41 78.5h47q3 -32 26.5 -51.5t60.5 -19.5q90 0 90 92q0 40 -25 63.5t-70 23.5q-27 0 -47 -6.5t-36 -20.5z" />
    <glyph glyph-name="uni2086" unicode="&#x2086;" horiz-adv-x="360" 
d="M143 313.5q-43 -37.5 -48 -105.5q16 21 43 33.5t60 12.5q57 0 91 -34.5t34 -92.5q0 -57 -37.5 -94.5t-95.5 -37.5q-64 0 -103.5 39.5t-39.5 103.5v36q0 102 56 159t163 57v-39q-80 0 -123 -37.5zM119.5 60q26.5 -27 70.5 -27q37 0 62 27t25 67q0 41 -24 64.5t-67 23.5
q-31 0 -57 -15t-36 -40v-26q0 -47 26.5 -74z" />
    <glyph glyph-name="uni2087" unicode="&#x2087;" horiz-adv-x="360" 
d="M319 359l-180 -359h-49l180 346h-240v39h289v-26z" />
    <glyph glyph-name="uni2088" unicode="&#x2088;" horiz-adv-x="360" 
d="M76.5 24q-38.5 29 -38.5 79q0 34 21 58.5t59 35.5q-33 12 -51 35t-18 53q0 48 35.5 77t95.5 29q59 0 95 -28.5t36 -77.5q0 -31 -18 -53.5t-51 -34.5q37 -11 58.5 -36t21.5 -58q0 -50 -38 -79t-103 -29q-66 0 -104.5 29zM110 52.5q26 -19.5 71 -19.5q43 0 69 20t26 52
t-26.5 52t-69.5 20t-69.5 -20t-26.5 -52q0 -33 26 -52.5zM118.5 234.5q23.5 -18.5 62.5 -18.5q38 0 61 18.5t23 48.5t-24 49.5t-61 19.5q-38 0 -61.5 -18.5t-23.5 -49.5t23.5 -49.5z" />
    <glyph glyph-name="uni2089" unicode="&#x2089;" horiz-adv-x="360" 
d="M222.5 68q39.5 34 42.5 105q-15 -23 -42 -36t-59 -13q-58 0 -92.5 36.5t-34.5 92.5q0 59 39 98.5t97 39.5q66 0 102.5 -40.5t36.5 -113.5v-35q0 -103 -51.5 -155t-159.5 -52v39q82 0 121.5 34zM108 187q25 -26 65 -26q32 0 57.5 16.5t34.5 42.5v24q0 53 -24 80.5
t-67 27.5q-39 0 -65 -29t-26 -70q0 -40 25 -66z" />
    <glyph glyph-name="trademark" unicode="&#x2122;" horiz-adv-x="615" 
d="M295 708h41l80 -221l81 221h40v-257h-31v217l-77 -217h-26l-78 218v-218h-30v257zM59 708h190v-26h-77v-230h-35v230h-78v26z" />
    <glyph glyph-name="partialdiff" unicode="&#x2202;" horiz-adv-x="572" 
d="M149.5 31q-53.5 41 -77 99t-23.5 109v17q0 47 21 104t73 99.5t138 42.5q62 0 115 -29t81 -78q-10 150 -63 228t-145 78q-43 0 -75 -12t-61 -39l-17 39q35 31 73.5 45.5t84.5 14.5q79 0 137 -45.5t88.5 -133.5t30.5 -212v-47q0 -96 -31 -169t-86 -112.5t-127 -39.5
q-83 0 -136.5 41zM124 152q15 -45 54 -79.5t105 -34.5q56 0 98.5 32.5t66 92t23.5 138.5v37q-21 48 -69 82.5t-115 34.5q-52 0 -92.5 -26t-63 -72.5t-22.5 -105.5v-19q0 -35 15 -80z" />
    <glyph glyph-name="product" unicode="&#x220f;" horiz-adv-x="637" 
d="M552 -133h-61v797h-344v-797h-61v844h466v-844z" />
    <glyph glyph-name="summation" unicode="&#x2211;" horiz-adv-x="593" 
d="M377 284l-268 -368h471v-48h-552v34l286 388l-286 386v35h530v-48h-449l268 -366v-13z" />
    <glyph glyph-name="minus" unicode="&#x2212;" horiz-adv-x="565" 
d="M489 335h-412v51h412v-51z" />
    <glyph glyph-name="uni2215" unicode="&#x2215;" horiz-adv-x="600" 
d="M404 757l51 -16l-258 -803l-51 16z" />
    <glyph glyph-name="radical" unicode="&#x221a;" horiz-adv-x="507" 
d="M236 59l194 652h47l-211 -711h-55l-107 298h-74v49h107z" />
    <glyph glyph-name="infinity" unicode="&#x221e;" horiz-adv-x="1079" 
d="M174.5 25.5q-52.5 33.5 -82 94t-29.5 138.5q1 75 27 138.5t78 101.5t125 38q78 0 141 -56t103 -159q40 102 103 158.5t141 56.5q68 0 119.5 -33.5t80.5 -96.5t29 -149q0 -69 -27 -129.5t-79 -98t-124 -37.5q-78 0 -141 57t-102 161q-42 -106 -104 -162t-139 -56
q-67 0 -119.5 33.5zM142 149q21 -49 61 -78t93 -29q71 0 126 65.5t85 158.5q-30 95 -86.5 157.5t-125.5 62.5q-51 0 -90.5 -28t-61.5 -80.5t-22 -121.5q0 -58 21 -107zM653.5 108q57.5 -66 123.5 -66q51 0 90.5 27.5t61.5 77t22 112.5q0 69 -22 120.5t-61.5 79t-89.5 27.5
q-69 0 -125.5 -62.5t-85.5 -157.5q29 -92 86.5 -158z" />
    <glyph glyph-name="integral" unicode="&#x222b;" horiz-adv-x="264" 
d="M103 -167.5q-40 -45.5 -113 -45.5q-31 0 -61 9l7 47q24 -8 46 -8q48 0 74 33.5t27 94.5v633q0 79 40.5 121.5t114.5 42.5q37 0 67 -9l-5 -45q-25 6 -57 6q-47 0 -73.5 -31t-26.5 -86v-631q0 -86 -40 -131.5z" />
    <glyph glyph-name="approxequal" unicode="&#x2248;" horiz-adv-x="568" 
d="M171 482q33 0 58 -9t60 -28q32 -18 55.5 -26.5t52.5 -8.5q32 0 58.5 17t52.5 52l1 -48q-48 -64 -110 -64q-29 0 -52.5 8.5t-57.5 26.5t-58.5 27t-53.5 9q-38 0 -65.5 -16t-53.5 -50l-2 47q48 63 115 63zM167 289q30 0 56 -9.5t61 -27.5t58 -26.5t49 -8.5q33 0 60 17.5
t52 51.5l2 -48q-49 -64 -111 -64q-29 0 -53.5 9t-58.5 27q-36 18 -59.5 26.5t-51.5 8.5q-37 0 -64.5 -15.5t-52.5 -50.5l-2 47q49 63 115 63z" />
    <glyph glyph-name="notequal" unicode="&#x2260;" horiz-adv-x="565" 
d="M488 196h-265l-71 -131l-26 13l65 118h-121v48h145l84 155h-229v48h255l68 126l27 -14l-62 -112h130v-48h-154l-85 -155h239v-48z" />
    <glyph glyph-name="lessequal" unicode="&#x2264;" horiz-adv-x="518" 
d="M461 172l-414 178v49l414 177v-54l-355 -147l355 -148v-55zM48 57h412v-51h-412v51z" />
    <glyph glyph-name="greaterequal" unicode="&#x2265;" horiz-adv-x="515" 
d="M410 375l-355 147v55l413 -177v-50l-413 -177v54zM56 58h412v-51h-412v51z" />
    <glyph glyph-name="uniFBB2" unicode="&#xfbb2;" 
d="M18 448h90v-90h-90v90z" />
    <glyph glyph-name="uniFBB3" unicode="&#xfbb3;" 
d="M18 -70h90v-90h-90v90z" />
    <glyph glyph-name="uniFBB4" unicode="&#xfbb4;" 
d="M262 452h-80v80h80v-80zM15 532h79v-80h-79v80z" />
    <glyph glyph-name="uniFBB5" unicode="&#xfbb5;" 
d="M262 -97h-80v80h80v-80zM15 -17h79v-80h-79v80z" />
    <glyph glyph-name="uniFBB6" unicode="&#xfbb6;" 
d="M179 653v-76h-79v76h79zM13 537h84v-85h-85zM180 537h84l1 -85h-85v85z" />
    <glyph glyph-name="uniFBB9" unicode="&#xfbb9;" 
d="M100 -212h79v-75h-79v75zM97 -87v-84h-84l-1 84h85zM180 -87h85l-1 -84h-84v84z" />
    <glyph glyph-name="uniFD3E" unicode="&#xfd3e;" horiz-adv-x="332" 
d="M98 -3q-48 119 -48 247q0 130 49 249t140 211l43 -47q-84 -83 -128.5 -189.5t-44.5 -223.5q0 -115 43.5 -221t124.5 -188l-43 -47q-88 90 -136 209z" />
    <glyph glyph-name="uniFD3F" unicode="&#xfd3f;" horiz-adv-x="332" 
d="M179.5 23q43.5 106 43.5 221q0 117 -44.5 223.5t-128.5 189.5l43 47q90 -92 139.5 -211.5t49.5 -248.5q0 -128 -48 -247t-136 -209l-43 47q81 82 124.5 188z" />
    <glyph glyph-name="uniFEFF" unicode="&#xfeff;" 
 />
    <glyph glyph-name="uni0627.001" horiz-adv-x="151" 
d="M34 649l59 3l20 -534l-58 -34z" />
    <glyph glyph-name="uni0627.002" horiz-adv-x="287" 
d="M114 546l59 3l21 -548l-59 -3z" />
    <glyph glyph-name="uni0627.fina.001" horiz-adv-x="278" 
d="M176 17.5q-35 17.5 -51 58t-19 113.5l-14 357l59 3l14 -360q2 -54 10.5 -79t30 -35t67.5 -10h10l4 -32l-4 -33h-10q-62 0 -97 17.5z" />
    <glyph glyph-name="uni0627.fina.002" horiz-adv-x="313" 
d="M50 604l58 12l77 -480l-58 -12zM91 65h227l4 -32l-4 -33h-227v65z" />
    <glyph glyph-name="uni066E.001" horiz-adv-x="450" 
d="M-13 33q0 17 3 32h11q113 0 169 2.5t77 6.5t40 12q27 12 40.5 31t13.5 49q0 22 -7 49l-38 139l56 16l38 -139q10 -36 10 -69q0 -48 -22.5 -83t-65.5 -53q-24 -11 -51 -16t-85.5 -7.5t-174.5 -2.5h-11q-3 17 -3 33z" />
    <glyph glyph-name="uni066E.fina.001" horiz-adv-x="450" 
d="M274 2.5q-59 2.5 -85.5 7.5t-50.5 16q-44 19 -66 54t-22 84q0 30 9 64l37 140l57 -17l-37 -142q-7 -25 -7 -47q0 -28 13 -46.5t40 -29.5q18 -8 39.5 -12t78.5 -6.5t171 -2.5l3 -32l-3 -33q-118 0 -177 2.5z" />
    <glyph glyph-name="uni066E.fina.001.003" horiz-adv-x="446" 
d="M87 44q-43 42 -36 114l11 123l59 -5l-11 -123q-8 -87 98 -88h243v-65h-243q-78 2 -121 44z" />
    <glyph glyph-name="uni066E.fina.002" horiz-adv-x="496" 
d="M-5 65h241q105 0 99 86v2l-11 123l58 5l11 -123q5 -51 27 -72t72 -21h11l4 -32l-4 -33h-11q-86 0 -125 54q-21 -26 -54 -40t-77 -14h-241v65z" />
    <glyph glyph-name="uni066E.medi.001" horiz-adv-x="391" 
d="M-5 65h145q53 0 77.5 21.5t20.5 63.5v3l-11 123l59 5l11 -123q5 -51 27 -72t72 -21l4 -32l-4 -33q-87 0 -126 54q-20 -26 -53.5 -40t-76.5 -14h-145v65z" />
    <glyph glyph-name="uni066E.init.001" horiz-adv-x="365" 
d="M-5 65h144q51 0 83.5 21t32.5 70q0 24 -7 49l-39 149l57 16l40 -152q9 -36 9 -65q0 -74 -51.5 -113.5t-124.5 -39.5h-144v65z" />
    <glyph glyph-name="uni066E.init.002" horiz-adv-x="301" 
d="M201 370l40 -149q9 -36 9 -66q0 -76 -50.5 -115.5t-125.5 -39.5h-79v65h79q53 0 85.5 21t32.5 70q0 24 -7 49l-40 149z" />
    <glyph glyph-name="uni0628.medi.alt" horiz-adv-x="309" 
d="M-5 65h63q105 0 99 86v2l-11 123l58 5l11 -123v-1q5 -50 27 -71t72 -21l4 -32l-4 -33q-86 0 -125 54q-21 -26 -54 -40t-77 -14h-63v65zM63 -94h90v-90h-90v90z" />
    <glyph glyph-name="uni0628.init.alt" horiz-adv-x="301" 
d="M-5 65h79q53 0 85.5 21t32.5 70q0 24 -7 49l-40 149l56 16l40 -149q9 -36 9 -66q0 -76 -50.5 -115.5t-125.5 -39.5h-79v65zM68 -95h90v-90h-90v90z" />
    <glyph glyph-name="uni067E.medi.alt" horiz-adv-x="391" 
d="M-5 65h145q53 0 77.5 21.5t20.5 63.5v3l-11 123l59 5l11 -123q5 -51 27 -72t72 -21l4 -32l-4 -33q-87 0 -126 54q-20 -26 -53.5 -40t-76.5 -14h-145v65zM22 -96h84v-84h-84v84zM110 -221h78v-76h-78v76zM274 -96v-84h-84l-1 84h85z" />
    <glyph glyph-name="uni067E.init.alt" horiz-adv-x="382" 
d="M-5 65h160q51 0 84 21t33 69q0 20 -8 50l-39 149l57 16l40 -152q9 -36 9 -65q0 -74 -51.5 -113.5t-124.5 -39.5h-160v65zM130 -97v-84h-84l-1 84h85zM133 -222h79v-76h-79v76zM213 -97h85l-1 -84h-84v84z" />
    <glyph glyph-name="uni062A.medi.alt" horiz-adv-x="407" 
d="M-5 65h161q105 0 99 86v2l-11 123l59 5l11 -123v-2q5 -50 27 -70.5t71 -20.5l4 -32l-4 -33q-86 0 -125 54q-21 -26 -54 -40t-77 -14h-161v65zM45 472h80v-80h-80v80zM212 472h80v-80h-80v80z" />
    <glyph glyph-name="uni062A.init.alt" horiz-adv-x="382" 
d="M-5 65h160q51 0 84 21t33 69q0 20 -8 50l-39 149l57 16l40 -152q9 -36 9 -65q0 -74 -51.5 -113.5t-124.5 -39.5h-160v65zM57 546h80v-81h-80v81zM225 546h80v-81h-80v81z" />
    <glyph glyph-name="uni062B.medi.alt" horiz-adv-x="407" 
d="M-5 65h161q105 0 99 86v2l-11 123l59 5l11 -123v-2q5 -50 27 -70.5t71 -20.5l4 -32l-4 -33q-86 0 -125 54q-21 -26 -54 -40t-77 -14h-161v65zM43 477h84v-84h-84v84zM130 593h79v-75h-79v75zM211 477h84v-84h-85z" />
    <glyph glyph-name="uni062B.init.alt" horiz-adv-x="382" 
d="M-5 65h160q51 0 84 21t33 69q0 20 -8 50l-39 149l57 16l40 -152q9 -36 9 -65q0 -74 -51.5 -113.5t-124.5 -39.5h-160v65zM56 549h83l1 -84h-85zM143 665h79v-75h-79v75zM223 549h84l1 -84h-85v84z" />
    <glyph glyph-name="uni062D.fina.001" horiz-adv-x="695" 
d="M304 -355q-87 0 -154.5 50.5t-90.5 135.5q-9 30 -9 66q0 83 53.5 154t172.5 103l293 79l-238 128q-30 17 -65 17q-34 0 -64 -17.5t-49 -50.5l-18 -32l-51 31l19 34q28 48 70.5 74.5t90.5 26.5t95 -26l283 -157l-10 -76l-341 -94q-99 -27 -140.5 -80t-41.5 -114
q0 -27 6 -48q16 -62 69 -100t121 -38q30 0 58 7l254 70l15 -63l-257 -71q-36 -9 -71 -9z" />
    <glyph glyph-name="uni062D.fina.002" horiz-adv-x="225" 
d="M94 26.5q-42 26.5 -66 71t-24 98.5h55q0 -55 36.5 -93t92.5 -38h37l4 -32l-4 -33h-37q-52 0 -94 26.5z" />
    <glyph glyph-name="uni062D.fina.003" horiz-adv-x="727" 
d="M304 -355q-87 0 -154.5 50.5t-90.5 135.5q-9 30 -9 66q0 83 53.5 154t172.5 103l293 79l-238 128q-30 17 -65 17q-34 0 -64 -17.5t-49 -50.5l-18 -32l-51 31l19 34q28 48 70.5 74.5t90.5 26.5t95 -26l283 -157l-10 -76l-63 -17q9 -45 43.5 -74t82.5 -29h37l4 -32l-4 -33
h-37q-68 0 -117 43t-63 110l-224 -62q-99 -27 -140.5 -80t-41.5 -114q0 -27 6 -48q16 -62 69 -100t121 -38q30 0 58 7l254 70l15 -63l-257 -71q-36 -9 -71 -9z" />
    <glyph glyph-name="uni0631.fina.001" horiz-adv-x="153" 
d="M70 21.5q-27 21.5 -41 70t-28 147.5l55 10l13 -84q7 -42 15 -63t23 -29t42 -8h7l4 -32l-4 -33h-7q-52 0 -79 21.5z" />
    <glyph glyph-name="uni0635.medi.001" horiz-adv-x="23" 
d="M-58.5 15q-34.5 15 -57.5 36l38 49q15 -15 39.5 -25t52.5 -10h14l4 -32l-4 -33h-14q-38 0 -72.5 15z" />
    <glyph glyph-name="uni0635.medi.002" horiz-adv-x="233" 
d="M175.5 14.5q-25.5 14.5 -40.5 39.5q-45 -52 -135 -54h-5v65h5q106 2 114 93l11 123l58 -5l-11 -123v-2q-3 -42 13 -64t48 -22l4 -32l-4 -33q-32 0 -57.5 14.5z" />
    <glyph glyph-name="uni0635.medi.003" horiz-adv-x="527" 
d="M0 48l-5 5l5 7v5h4l74 103q47 68 78 104t67 58t81 22q48 0 87.5 -24t62.5 -66t23 -93q0 -44 -24 -83t-63.5 -62.5t-85.5 -23.5h-304v48zM304 65q30 0 56.5 14.5t42 39t15.5 52.5q0 49 -32 82.5t-80 33.5q-33 0 -60 -17.5t-52.5 -48t-66.5 -90.5l-48 -66h225z" />
    <glyph glyph-name="uni0643.medi.001" horiz-adv-x="235" 
d="M111.5 43.5q-51.5 43.5 -111.5 141.5l45 28q56 -85 95 -116.5t86 -31.5h14l4 -32l-4 -33h-14q-63 0 -114.5 43.5z" />
    <glyph glyph-name="uni0644.fina.001" horiz-adv-x="171" 
d="M48 39.5q-41 39.5 -44 149.5l52 1l2 -14q3 -66 29.5 -88.5t68.5 -22.5h20l4 -32l-4 -33h-20q-67 0 -108 39.5z" />
    <glyph glyph-name="uni0644.medi.001" horiz-adv-x="288" 
d="M200.5 13q-31.5 13 -50.5 48q-42 -61 -132 -61h-23v65h23q58 0 79 27t20 63l-19 494l58 3l18 -469l1 -7q3 -66 29.5 -88.5t68.5 -22.5h20l4 -32l-4 -33h-20q-41 0 -72.5 13z" />
    <glyph glyph-name="uni0644.init.001" horiz-adv-x="225" 
d="M-5 65h23q58 0 79 27t20 63l-19 494l58 3l19 -494q2 -38 -13 -74.5t-51 -60t-93 -23.5h-23v65z" />
    <glyph glyph-name="uni0645.medi.001" horiz-adv-x="154" 
d="M43 47q-42 47 -42 127l39 1q0 -50 32.5 -80t86.5 -30l4 -32l-4 -33q-74 0 -116 47z" />
    <glyph glyph-name="uni06BA.fina.001" horiz-adv-x="190" 
d="M56.5 66q-37.5 66 -56.5 210l58 9l18 -115q10 -56 30.5 -80.5t59.5 -24.5h29l4 -32l-4 -33h-28q-73 0 -110.5 66z" />
    <glyph glyph-name="uni06BA.fina.002" horiz-adv-x="674" 
d="M602 13v-1q3 -24 3 -44q0 -65 -31 -105t-80 -60.5t-124 -38.5q-43 -10 -85 -10q-110 0 -172.5 71t-62.5 192q0 91 37 198l57 -22q-35 -98 -35 -179q0 -92 45.5 -143.5t129.5 -51.5q34 0 73 9q73 18 107 29.5t58 38.5t24 75q0 20 -2 31q-5 38 -40 274l58 10l1 -6v0
l20 -134q6 -45 21.5 -63t50.5 -18h22l4 -32l-4 -33h-18q-35 0 -57 13z" />
    <glyph glyph-name="uni0649.fina.alt" horiz-adv-x="668" 
d="M285 -246q-110 0 -172.5 71t-62.5 192q0 91 37 198l57 -22q-35 -98 -35 -179q0 -92 45.5 -143.5t129.5 -51.5q34 0 73 9q68 17 102 28t56.5 32t22.5 55q0 16 -2 24q-5 25 -45 47.5t-89 39.5l-41 13l18 62l44 -13q85 -26 140.5 -38.5t109.5 -12.5l4 -32l-4 -33
q-47 0 -97 8q15 -20 18 -39q2 -10 2 -30q0 -73 -58.5 -111t-167.5 -64q-43 -10 -85 -10z" />
    <glyph glyph-name="uni064A.fina.alt" horiz-adv-x="668" 
d="M285 -246q-110 0 -172.5 71t-62.5 192q0 91 37 198l57 -22q-35 -98 -35 -179q0 -92 45.5 -143.5t129.5 -51.5q34 0 73 9q68 17 102 28t56.5 32t22.5 55q0 16 -2 24q-5 25 -45 47.5t-89 39.5l-41 13l18 62l44 -13q85 -26 140.5 -38.5t109.5 -12.5l4 -32l-4 -33
q-47 0 -97 8q15 -20 18 -39q2 -10 2 -30q0 -73 -58.5 -111t-167.5 -64q-43 -10 -85 -10zM435 -377h-80v80h80v-80zM188 -297h79v-80h-79v80z" />
    <glyph glyph-name="uni064A.medi.alt" horiz-adv-x="391" 
d="M-5 65h145q53 0 77.5 21.5t20.5 63.5v3l-11 123l59 5l11 -123q5 -51 27 -72t72 -21l4 -32l-4 -33q-87 0 -126 54q-20 -26 -53.5 -40t-76.5 -14h-145v65zM32 -104h80v-80h-80v80zM199 -104h80v-80h-80v80z" />
    <glyph glyph-name="uni064A.init.alt" horiz-adv-x="382" 
d="M-5 65h160q51 0 84 21t33 69q0 20 -8 50l-39 149l57 16l40 -152q9 -36 9 -65q0 -74 -51.5 -113.5t-124.5 -39.5h-160v65zM15 -103h80v-80h-80v80zM183 -103h79v-80h-79v80z" />
    <glyph glyph-name="uni06CE.medi.alt" horiz-adv-x="391" 
d="M-5 65h145q53 0 77.5 21.5t20.5 63.5v3l-11 123l59 5l11 -123q5 -51 27 -72t72 -21l4 -32l-4 -33q-87 0 -126 54q-20 -26 -53.5 -40t-76.5 -14h-145v65zM32 -104h80v-80h-80v80zM123 523l45 -134l45 134h37l-66 -175h-32l-65 175h36zM199 -104h80v-80h-80v80z" />
    <glyph glyph-name="uni06CE.init.alt" horiz-adv-x="382" 
d="M126 623l45 -134l45 134h36l-66 -175h-31l-66 175h37zM-5 65h160q51 0 84 21t33 69q0 20 -8 50l-39 149l57 16l40 -152q9 -36 9 -65q0 -74 -51.5 -113.5t-124.5 -39.5h-160v65zM15 -103h80v-80h-80v80zM183 -103h79v-80h-79v80z" />
    <glyph glyph-name="uni06CC.medi.alt" horiz-adv-x="391" 
d="M-5 65h145q53 0 77.5 21.5t20.5 63.5v3l-11 123l59 5l11 -123q5 -51 27 -72t72 -21l4 -32l-4 -33q-87 0 -126 54q-20 -26 -53.5 -40t-76.5 -14h-145v65zM32 -104h80v-80h-80v80zM199 -104h80v-80h-80v80z" />
    <glyph glyph-name="uni06CC.init.alt" horiz-adv-x="382" 
d="M-5 65h160q51 0 84 21t33 69q0 20 -8 50l-39 149l57 16l40 -152q9 -36 9 -65q0 -74 -51.5 -113.5t-124.5 -39.5h-160v65zM15 -103h80v-80h-80v80zM183 -103h79v-80h-79v80z" />
    <glyph glyph-name="uni06D2.fina.alt" horiz-adv-x="402" 
d="M128 -239q-36 22 -57 59.5t-21 80.5q0 44 21 81.5t57.5 60t80.5 22.5h198v-65h-201q-41 0 -69 -28.5t-28 -69.5t28 -69t68 -28h219v-66h-216q-44 0 -80 22z" />
    <glyph glyph-name="uni06D2.fina.alt4" horiz-adv-x="306" 
d="M206 0q-41 0 -69 -28.5t-28 -69.5t28 -69t68 -28h579v-66h-576q-44 0 -80 22t-57 59.5t-21 80.5q0 44 21 81.5t57.5 60t80.5 22.5h101v-65h-104z" />
    <glyph glyph-name="uni06D3.fina.alt" horiz-adv-x="402" 
d="M128 -239q-36 22 -57 59.5t-21 80.5q0 44 21 81.5t57.5 60t80.5 22.5h198v-65h-201q-41 0 -69 -28.5t-28 -69.5t28 -69t68 -28h219v-66h-216q-44 0 -80 22zM166 192q-24 20 -32 53q-3 11 -3 22q0 36 24.5 63.5t60.5 29.5q26 3 82 -9l-6 -35q-42 8 -67 8
q-27 0 -44.5 -16.5t-17.5 -40.5q0 -28 20.5 -44.5t47.5 -14.5l105 25l8 -36l-259 -61l-8 35z" />
    <glyph glyph-name="uni06D3.fina.alt2" horiz-adv-x="414" 
d="M206 0q-41 0 -69 -28.5t-28 -69.5t28 -69t68 -28h358v-66h-355q-44 0 -80 22t-57 59.5t-21 80.5q0 44 21 81.5t57.5 60t80.5 22.5h211v-65h-214zM166 192q-24 20 -32 53q-3 11 -3 22q0 36 24.5 63.5t60.5 29.5q26 3 82 -9l-6 -35q-42 8 -67 8q-27 0 -44.5 -16.5
t-17.5 -40.5q0 -28 20.5 -44.5t47.5 -14.5l105 25l8 -36l-259 -61l-8 35z" />
    <glyph glyph-name="uni0640.001" horiz-adv-x="160" 
d="M0 65h160l4 -32l-4 -33h-160v65z" />
    <glyph glyph-name="uni0640.002" horiz-adv-x="65" 
d="M0 65h70l4 -32l-4 -33h-70v65z" />
    <glyph glyph-name="uni0640.004" horiz-adv-x="16" 
d="M-5 65h26v-65h-26v65z" />
    <glyph glyph-name="uni06B50627" horiz-adv-x="538" 
d="M91 65h240q58 0 79 27.5t19 62.5l-19 494l59 3l19 -494q2 -38 -13.5 -74.5t-51 -60t-92.5 -23.5h-240v65zM108 616l77 -480l-58 -12l-77 480zM385 877l45 -135l45 135h36l-66 -176h-31l-66 176h37z" />
    <glyph glyph-name="uni06B50627.fina" horiz-adv-x="601" 
d="M513.5 13q-31.5 13 -51.5 48q-42 -61 -131 -61h-240v65h240q58 0 79 27.5t19 62.5l-19 494l59 3l19 -486q5 -59 31.5 -80t66.5 -21h20l4 -32l-4 -33h-20q-41 0 -72.5 13zM108 616l77 -480l-58 -12l-77 480zM385 877l45 -135l45 135h36l-66 -176h-31l-66 176h37z" />
    <glyph glyph-name="uni0664.ss03" horiz-adv-x="653" 
d="M155 358l34 -355l-59 -6l-46 480l-1 8v0l-16 168l59 6l17 -173q5 -40 29.5 -62.5t60.5 -22.5h39q-36 49 -36 108q0 48 23 88t62.5 63t86.5 23q23 0 57.5 -11t61.5 -23t35 -16l-26 -58q-6 2 -53.5 21.5t-74.5 20.5q-31 2 -57.5 -12t-41.5 -39.5t-15 -56.5q0 -46 31 -77
t75 -31h180v-66h-347q-44 0 -78 23z" />
    <glyph glyph-name="uni0665.ss03" horiz-adv-x="653" 
d="M377 16q-30 16 -50 44q-21 -28 -51.5 -44t-66.5 -16h-11q-40 0 -73.5 20t-52.5 54t-19 75q0 84 12 129t57.5 106t162.5 190l-49 55l44 43q169 -187 228.5 -261.5t75.5 -123.5t16 -138q0 -41 -19.5 -75t-53 -54t-73.5 -20h-11q-36 0 -66 16zM136.5 89q24.5 -24 61.5 -24
h11q37 0 62.5 24.5t25.5 59.5v61h59v-59q4 -39 27.5 -62.5t59.5 -23.5h11q37 0 62 24.5t25 59.5q0 71 -11 109t-52.5 93t-151.5 178q-112 -124 -153 -177.5t-51 -91t-10 -111.5q0 -36 24.5 -60z" />
    <glyph glyph-name="uni0666.ss03" horiz-adv-x="653" 
d="M545 521l-98 -145h1l-9 -13l-258 -381l-48 36l191 282q-60 -5 -111 30q-37 24 -57.5 62.5t-20.5 81.5q0 53 31 99q13 19 49 46t78 54l30 -56q-89 -53 -109 -81q-20 -31 -20 -63q0 -26 12.5 -48.5t36.5 -38.5q30 -21 65 -21q28 0 52.5 12.5t39.5 36.5l97 143z" />
    <glyph glyph-name="uni06F0.ss03" horiz-adv-x="653" 
d="M465.5 149q-21.5 -38 -58.5 -60t-81 -22q-43 0 -80 22t-58.5 60t-21.5 82t21.5 82t58.5 60t80 22q44 0 81 -22t58.5 -60t21.5 -82t-21.5 -82zM252.5 159q30.5 -30 73.5 -30q44 0 74.5 29.5t30.5 72.5t-30.5 73t-74.5 30q-43 0 -73.5 -30t-30.5 -73q0 -42 30.5 -72z" />
    <glyph glyph-name="uni06F1.ss03" horiz-adv-x="653" 
d="M271 652l59 6l64 -655l-59 -6z" />
    <glyph glyph-name="uni06F2.ss03" horiz-adv-x="653" 
d="M490 661l17 -168q1 -5 1 -14q0 -38 -20.5 -70.5t-55 -52t-74.5 -19.5h-37q-48 0 -87 28l35 -361l-59 -6l-64 656l59 6l17 -176q7 -39 31 -60.5t60 -21.5h45q41 0 67.5 25t22.5 60l-17 167z" />
    <glyph glyph-name="uni06F3.ss03" horiz-adv-x="653" 
d="M396.5 351.5q-30.5 16.5 -51.5 45.5q-21 -28 -53.5 -45t-68.5 -17h-24q-45 0 -81 25l35 -357l-59 -6l-64 655l59 6l17 -170q5 -40 29 -63.5t61 -23.5h27q38 0 65.5 25t24.5 60v1l-14 142l59 6l14 -145q4 -40 28.5 -64.5t62.5 -24.5h9q39 0 66.5 25.5t24.5 60.5l-16 165
l59 6l16 -168q4 -41 -16 -77t-56 -57t-78 -21h-9q-36 0 -66.5 16.5z" />
    <glyph glyph-name="uni06F4.ss03" horiz-adv-x="653" 
d="M154 358l34 -355l-59 -6l-46 477l-1 11v0l-16 168l59 6l17 -176q5 -39 29 -60.5t61 -21.5h38q-36 49 -36 108q0 48 23 88t63 63t87 23q23 0 57.5 -11t61.5 -23t35 -16l-26 -58q-6 2 -53.5 21.5t-74.5 20.5q-31 2 -57.5 -12t-41.5 -39.5t-15 -56.5q0 -46 30.5 -77
t75.5 -31h180v-66h-347q-44 0 -78 23z" />
    <glyph glyph-name="uni06F5.ss03" horiz-adv-x="653" 
d="M377 16q-30 16 -50 44q-21 -28 -51.5 -44t-66.5 -16h-11q-40 0 -73.5 20t-52.5 54t-19 75q0 84 12 129t57.5 106t162.5 190l-49 55l44 43q169 -187 228.5 -261.5t75.5 -123.5t16 -138q0 -41 -19.5 -75t-53 -54t-73.5 -20h-11q-36 0 -66 16zM136.5 89q24.5 -24 61.5 -24
h11q37 0 62.5 24.5t25.5 59.5v61h59v-59q4 -39 27.5 -62.5t59.5 -23.5h11q37 0 62 24.5t25 59.5q0 71 -11 109t-52.5 93t-151.5 178q-112 -124 -153 -177.5t-51 -91t-10 -111.5q0 -36 24.5 -60z" />
    <glyph glyph-name="uni06F6.ss03" horiz-adv-x="653" 
d="M545 521l-98 -145h1l-9 -13l-258 -381l-48 36l191 282q-60 -5 -111 30q-37 24 -57.5 62.5t-20.5 81.5q0 53 31 99q13 19 49 46t78 54l30 -56q-89 -53 -109 -81q-20 -31 -20 -63q0 -26 12.5 -48.5t36.5 -38.5q30 -21 65 -21q28 0 52.5 12.5t39.5 36.5l97 143z" />
    <glyph glyph-name="uni06F7.ss03" horiz-adv-x="653" 
d="M582 636l-229 -639h-55l-228 639l56 22l199 -563l201 563z" />
    <glyph glyph-name="uni06F8.ss03" horiz-adv-x="653" 
d="M71 17l229 640h55l228 -640l-56 -22l-200 563l-200 -563z" />
    <glyph glyph-name="uni06F9.ss03" horiz-adv-x="653" 
d="M145 576q23 40 63 63.5t88 23.5q68 0 116.5 -48.5t56.5 -122.5l50 -489l-59 -6l-33 318h-131q-48 0 -88 23t-63 62.5t-23 87.5t23 88zM214.5 410.5q33.5 -32.5 81.5 -32.5h125l-11 108q-4 49 -36.5 81t-77.5 32q-49 0 -82 -32t-33 -79q0 -45 33.5 -77.5z" />
    <glyph glyph-name="uni06F4.urdu" horiz-adv-x="631" 
d="M47 487q0 46 26.5 82t72.5 50q24 8 37 11q22 8 43 8q43 0 79 -28t51 -79l34 -112l147 235l48 -33l-175 -270l-50 -9l-54 166q-8 31 -28 48.5t-47 17.5q-10 0 -22 -3q-16 -4 -38 -12q-32 -9 -48.5 -28t-16.5 -45q0 -13 5 -30l139 -436l-52 -27l-142 441q-9 27 -9 53z" />
    <glyph glyph-name="uni06F7.urdu" horiz-adv-x="499" 
d="M254 457q-68 -81 -108.5 -178t-42.5 -192q80 -12 161 -12q88 0 178 15l7 -65q-83 -15 -182 -15q-101 0 -215 19q-5 125 39 244.5t123 215t179 154.5l10 -56q-81 -49 -149 -130z" />
    <glyph glyph-name="zero.ss02" horiz-adv-x="470" 
d="M367.5 149q-21.5 -38 -58.5 -60t-80 -22q-44 0 -81 22t-58.5 60t-21.5 82t21.5 82t58.5 60t81 22q43 0 80 -22t58.5 -60t21.5 -82t-21.5 -82zM155 159q31 -30 74 -30t74 30t31 72q0 43 -31 73t-74 30t-74 -30t-31 -73q0 -42 31 -72z" />
    <glyph glyph-name="one.ss02" horiz-adv-x="362" 
d="M85 652l59 6l64 -655l-59 -6z" />
    <glyph glyph-name="two.ss02" horiz-adv-x="489" 
d="M421 661l17 -168q1 -5 1 -14q0 -38 -20.5 -70.5t-55 -52t-74.5 -19.5h-37q-48 0 -87 28l35 -361l-59 -6l-64 656l59 6l17 -176q7 -39 31 -60.5t60 -21.5h45q40 0 67 25t23 60l-17 167z" />
    <glyph glyph-name="three.ss02" horiz-adv-x="651" 
d="M444 351.5q-30 16.5 -52 45.5q-21 -28 -53 -45t-69 -17h-24q-45 0 -81 25l35 -357l-59 -6l-64 655l59 6l17 -170q5 -40 29.5 -63.5t61.5 -23.5h26q39 0 66 25t24 60v1l-14 142l59 6l14 -145q4 -40 28.5 -64.5t62.5 -24.5h10q38 0 65.5 25.5t24.5 60.5l-16 165l59 6
l16 -168q4 -41 -16 -77t-56 -57t-77 -21h-10q-36 0 -66 16.5z" />
    <glyph glyph-name="four.ss02" horiz-adv-x="623" 
d="M165 358l34 -355l-59 -6l-46 477l-1 11v0l-16 168l59 6l17 -176q5 -39 29 -60.5t61 -21.5h38q-36 49 -36 108q0 48 23 88t63 63t87 23q23 0 57.5 -11t61.5 -23t35 -16l-26 -58q-6 2 -53.5 21.5t-74.5 20.5q-31 2 -57.5 -12t-41.5 -39.5t-15 -56.5q0 -46 30.5 -77
t75.5 -31h180v-66h-347q-44 0 -78 23z" />
    <glyph glyph-name="five.ss02" horiz-adv-x="659" 
d="M381 16q-30 16 -51 44q-20 -28 -51 -44t-66 -16h-11q-40 0 -73.5 20t-53 54t-19.5 75q0 84 12 129t57.5 106t162.5 190l-49 55l44 43q169 -187 228.5 -261.5t75.5 -123.5t16 -138q0 -41 -19 -75t-52.5 -54t-73.5 -20h-11q-36 0 -66 16zM140 89.5q25 -24.5 62 -24.5h11
q37 0 62 24.5t25 59.5v61h59v-59q4 -39 27.5 -62.5t60.5 -23.5h11q37 0 61.5 24t24.5 60q0 71 -11 109t-52 93t-151 177q-112 -124 -153 -177.5t-51.5 -91t-10.5 -110.5q0 -35 25 -59.5z" />
    <glyph glyph-name="six.ss02" horiz-adv-x="498" 
d="M456 521l-98 -145h1l-9 -13l-258 -381l-48 36l191 282q-60 -5 -111 30q-37 24 -57.5 62.5t-20.5 81.5q0 53 31 99q13 19 49 46t78 54l30 -56q-89 -52 -109 -81q-20 -31 -20 -63q0 -25 13 -48t37 -39q29 -21 64 -21q28 0 52.5 12.5t39.5 36.5l97 143z" />
    <glyph glyph-name="seven.ss02" horiz-adv-x="574" 
d="M543 636l-229 -639h-55l-228 639l56 22l199 -563l201 563z" />
    <glyph glyph-name="eight.ss02" horiz-adv-x="574" 
d="M31 17l229 640h55l228 -640l-56 -22l-200 563l-200 -563z" />
    <glyph glyph-name="nine.ss02" horiz-adv-x="506" 
d="M76 576q23 40 63 63.5t88 23.5q68 0 116.5 -48.5t56.5 -122.5l50 -489l-59 -6l-33 318h-131q-48 0 -88 23t-63 62.5t-23 87.5t23 88zM145.5 410.5q33.5 -32.5 81.5 -32.5h125l-11 108q-5 50 -36.5 81.5t-77.5 31.5q-49 0 -82 -32t-33 -79q0 -45 33.5 -77.5z" />
    <glyph glyph-name="zero.ss03" horiz-adv-x="653" 
d="M465.5 149q-21.5 -38 -58.5 -60t-81 -22q-43 0 -80 22t-58.5 60t-21.5 82t21.5 82t58.5 60t80 22q44 0 81 -22t58.5 -60t21.5 -82t-21.5 -82zM252.5 159q30.5 -30 73.5 -30q44 0 74.5 29.5t30.5 72.5t-30.5 73t-74.5 30q-43 0 -73.5 -30t-30.5 -73q0 -42 30.5 -72z" />
    <glyph glyph-name="one.ss03" horiz-adv-x="653" 
d="M271 652l59 6l64 -655l-59 -6z" />
    <glyph glyph-name="two.ss03" horiz-adv-x="653" 
d="M490 661l17 -168q1 -5 1 -14q0 -38 -20.5 -70.5t-55 -52t-74.5 -19.5h-37q-48 0 -87 28l35 -361l-59 -6l-64 656l59 6l17 -176q7 -39 31 -60.5t60 -21.5h45q41 0 67.5 25t22.5 60l-17 167z" />
    <glyph glyph-name="three.ss03" horiz-adv-x="653" 
d="M396.5 351.5q-30.5 16.5 -51.5 45.5q-21 -28 -53.5 -45t-68.5 -17h-24q-45 0 -81 25l35 -357l-59 -6l-64 655l59 6l17 -170q5 -40 29 -63.5t61 -23.5h27q38 0 65.5 25t24.5 60v1l-14 142l59 6l14 -145q4 -40 28.5 -64.5t62.5 -24.5h9q39 0 66.5 25.5t24.5 60.5l-16 165
l59 6l16 -168q4 -41 -16 -77t-56 -57t-78 -21h-9q-36 0 -66.5 16.5z" />
    <glyph glyph-name="four.ss03" horiz-adv-x="653" 
d="M154 358l34 -355l-59 -6l-46 477l-1 11v0l-16 168l59 6l17 -176q5 -39 29 -60.5t61 -21.5h38q-36 49 -36 108q0 48 23 88t63 63t87 23q23 0 57.5 -11t61.5 -23t35 -16l-26 -58q-6 2 -53.5 21.5t-74.5 20.5q-31 2 -57.5 -12t-41.5 -39.5t-15 -56.5q0 -46 30.5 -77
t75.5 -31h180v-66h-347q-44 0 -78 23z" />
    <glyph glyph-name="five.ss03" horiz-adv-x="653" 
d="M377 16q-30 16 -50 44q-21 -28 -51.5 -44t-66.5 -16h-11q-40 0 -73.5 20t-52.5 54t-19 75q0 84 12 129t57.5 106t162.5 190l-49 55l44 43q169 -187 228.5 -261.5t75.5 -123.5t16 -138q0 -41 -19.5 -75t-53 -54t-73.5 -20h-11q-36 0 -66 16zM136.5 89q24.5 -24 61.5 -24
h11q37 0 62.5 24.5t25.5 59.5v61h59v-59q4 -39 27.5 -62.5t59.5 -23.5h11q37 0 62 24.5t25 59.5q0 71 -11 109t-52.5 93t-151.5 178q-112 -124 -153 -177.5t-51 -91t-10 -111.5q0 -36 24.5 -60z" />
    <glyph glyph-name="six.ss03" horiz-adv-x="653" 
d="M545 521l-98 -145h1l-9 -13l-258 -381l-48 36l191 282q-60 -5 -111 30q-37 24 -57.5 62.5t-20.5 81.5q0 53 31 99q13 19 49 46t78 54l30 -56q-89 -53 -109 -81q-20 -31 -20 -63q0 -26 12.5 -48.5t36.5 -38.5q30 -21 65 -21q28 0 52.5 12.5t39.5 36.5l97 143z" />
    <glyph glyph-name="seven.ss03" horiz-adv-x="653" 
d="M582 636l-229 -639h-55l-228 639l56 22l199 -563l201 563z" />
    <glyph glyph-name="eight.ss03" horiz-adv-x="653" 
d="M71 17l229 640h55l228 -640l-56 -22l-200 563l-200 -563z" />
    <glyph glyph-name="nine.ss03" horiz-adv-x="653" 
d="M145 576q23 40 63 63.5t88 23.5q68 0 116.5 -48.5t56.5 -122.5l50 -489l-59 -6l-33 318h-131q-48 0 -88 23t-63 62.5t-23 87.5t23 88zM214.5 410.5q33.5 -32.5 81.5 -32.5h125l-11 108q-4 49 -36.5 81t-77.5 32q-49 0 -82 -32t-33 -79q0 -45 33.5 -77.5z" />
    <glyph glyph-name="zero.dnom" horiz-adv-x="360" 
d="M282 37q-35 -42 -101 -42t-102 42t-36 120v71q0 78 36 120.5t101 42.5t101 -42.5t36 -120.5v-71q0 -78 -35 -120zM113 64.5q24 -31.5 68 -31.5q43 0 66 31.5t23 88.5v77q0 59 -23.5 90.5t-66.5 31.5t-66.5 -31.5t-24.5 -89.5v-77q0 -58 24 -89.5z" />
    <glyph glyph-name="one.dnom" horiz-adv-x="360" 
d="M224 0h-46v331l-113 -35v39l154 50h5v-385z" />
    <glyph glyph-name="two.dnom" horiz-adv-x="360" 
d="M323 0h-275v34l141 139q36 36 52.5 61.5t16.5 46.5q0 33 -21.5 52t-61.5 19q-42 0 -66.5 -22.5t-24.5 -60.5l-45 2q0 53 37.5 86.5t97.5 33.5q61 0 95.5 -29.5t34.5 -80.5q0 -42 -47 -97q-13 -16 -46 -45l-103 -101h215v-38z" />
    <glyph glyph-name="three.dnom" horiz-adv-x="360" 
d="M133 213h38q43 0 68 19t25 50q0 32 -23 51t-63 19q-39 0 -64.5 -19.5t-25.5 -49.5h-46q0 48 38 78t97 30q62 0 98 -29t36 -79q0 -29 -19.5 -52t-54.5 -34q40 -10 61 -34t21 -59q0 -50 -38.5 -79.5t-102.5 -29.5q-63 0 -103.5 31.5t-40.5 82.5h47q0 -33 28 -54.5t71 -21.5
q44 0 68 20t24 54q0 72 -106 72h-33v34z" />
    <glyph glyph-name="four.dnom" horiz-adv-x="360" 
d="M275 134h63v-39h-63v-95h-47v95h-195l-2 28l195 262h49v-251zM228 134v197l-18 -29l-129 -168h147z" />
    <glyph glyph-name="five.dnom" horiz-adv-x="360" 
d="M63 196l24 189h226v-39h-188l-16 -119q15 8 37 14t45 6q61 0 96 -33t35 -89q0 -61 -36 -95.5t-99 -34.5q-55 0 -93 30.5t-41 78.5h47q3 -32 26.5 -51.5t60.5 -19.5q90 0 90 92q0 40 -25 63.5t-70 23.5q-27 0 -47 -6.5t-36 -20.5z" />
    <glyph glyph-name="six.dnom" horiz-adv-x="360" 
d="M143 313.5q-43 -37.5 -48 -105.5q16 21 43 33.5t60 12.5q57 0 91 -34.5t34 -92.5q0 -57 -37.5 -94.5t-95.5 -37.5q-64 0 -103.5 39.5t-39.5 103.5v36q0 102 56 159t163 57v-39q-80 0 -123 -37.5zM119.5 60q26.5 -27 70.5 -27q37 0 62 27t25 67q0 41 -24 64.5t-67 23.5
q-31 0 -57 -15t-36 -40v-26q0 -47 26.5 -74z" />
    <glyph glyph-name="seven.dnom" horiz-adv-x="360" 
d="M319 359l-180 -359h-49l180 346h-240v39h289v-26z" />
    <glyph glyph-name="eight.dnom" horiz-adv-x="360" 
d="M76.5 24q-38.5 29 -38.5 79q0 34 21 58.5t59 35.5q-33 12 -51 35t-18 53q0 48 35.5 77t95.5 29q59 0 95 -28.5t36 -77.5q0 -31 -18 -53.5t-51 -34.5q37 -11 58.5 -36t21.5 -58q0 -50 -38 -79t-103 -29q-66 0 -104.5 29zM110 52.5q26 -19.5 71 -19.5q43 0 69 20t26 52
t-26.5 52t-69.5 20t-69.5 -20t-26.5 -52q0 -33 26 -52.5zM118.5 234.5q23.5 -18.5 62.5 -18.5q38 0 61 18.5t23 48.5t-24 49.5t-61 19.5q-38 0 -61.5 -18.5t-23.5 -49.5t23.5 -49.5z" />
    <glyph glyph-name="nine.dnom" horiz-adv-x="360" 
d="M222.5 68q39.5 34 42.5 105q-15 -23 -42 -36t-59 -13q-58 0 -92.5 36.5t-34.5 92.5q0 59 39 98.5t97 39.5q66 0 102.5 -40.5t36.5 -113.5v-35q0 -103 -51.5 -155t-159.5 -52v39q82 0 121.5 34zM108 187q25 -26 65 -26q32 0 57.5 16.5t34.5 42.5v24q0 53 -24 80.5
t-67 27.5q-39 0 -65 -29t-26 -70q0 -40 25 -66z" />
    <glyph glyph-name="zero.numr" horiz-adv-x="360" 
d="M282 322q-35 -42 -101 -42t-102 42t-36 120v71q0 78 36 120.5t101 42.5t101 -42.5t36 -120.5v-71q0 -78 -35 -120zM113 349.5q24 -31.5 68 -31.5q43 0 66 31.5t23 88.5v77q0 59 -23.5 90.5t-66.5 31.5t-66.5 -31.5t-24.5 -89.5v-77q0 -58 24 -89.5z" />
    <glyph glyph-name="one.numr" horiz-adv-x="360" 
d="M224 285h-46v331l-113 -35v39l154 50h5v-385z" />
    <glyph glyph-name="two.numr" horiz-adv-x="360" 
d="M323 285h-275v34l141 139q36 36 52.5 61.5t16.5 46.5q0 33 -21.5 52t-61.5 19q-42 0 -66.5 -22.5t-24.5 -60.5l-45 2q0 53 37.5 86.5t97.5 33.5q61 0 95.5 -29.5t34.5 -80.5q0 -42 -47 -97q-13 -16 -46 -45l-103 -101h215v-38z" />
    <glyph glyph-name="three.numr" horiz-adv-x="360" 
d="M133 498h38q43 0 68 19t25 50q0 32 -23 51t-63 19q-39 0 -64.5 -19.5t-25.5 -49.5h-46q0 48 38 78t97 30q62 0 98 -29t36 -79q0 -29 -19.5 -52t-54.5 -34q40 -10 61 -34t21 -59q0 -50 -38.5 -79.5t-102.5 -29.5q-63 0 -103.5 31.5t-40.5 82.5h47q0 -33 28 -54.5t71 -21.5
q44 0 68 20t24 54q0 72 -106 72h-33v34z" />
    <glyph glyph-name="four.numr" horiz-adv-x="360" 
d="M275 419h63v-39h-63v-95h-47v95h-195l-2 28l195 262h49v-251zM228 419v197l-18 -29l-129 -168h147z" />
    <glyph glyph-name="five.numr" horiz-adv-x="360" 
d="M63 481l24 189h226v-39h-188l-16 -119q15 8 37 14t45 6q61 0 96 -33t35 -89q0 -61 -36 -95.5t-99 -34.5q-55 0 -93 30.5t-41 78.5h47q3 -32 26.5 -51.5t60.5 -19.5q90 0 90 92q0 40 -25 63.5t-70 23.5q-27 0 -47 -6.5t-36 -20.5z" />
    <glyph glyph-name="six.numr" horiz-adv-x="360" 
d="M143 598.5q-43 -37.5 -48 -105.5q16 21 43 33.5t60 12.5q57 0 91 -34.5t34 -92.5q0 -57 -37.5 -94.5t-95.5 -37.5q-64 0 -103.5 39.5t-39.5 103.5v36q0 102 56 159t163 57v-39q-80 0 -123 -37.5zM119.5 345q26.5 -27 70.5 -27q37 0 62 27t25 67q0 41 -24 64.5t-67 23.5
q-31 0 -57 -15t-36 -40v-26q0 -47 26.5 -74z" />
    <glyph glyph-name="seven.numr" horiz-adv-x="360" 
d="M319 644l-180 -359h-49l180 346h-240v39h289v-26z" />
    <glyph glyph-name="eight.numr" horiz-adv-x="360" 
d="M76.5 309q-38.5 29 -38.5 79q0 34 21 58.5t59 35.5q-33 12 -51 35t-18 53q0 48 35.5 77t95.5 29q59 0 95 -28.5t36 -77.5q0 -31 -18 -53.5t-51 -34.5q37 -11 58.5 -36t21.5 -58q0 -50 -38 -79t-103 -29q-66 0 -104.5 29zM110 337.5q26 -19.5 71 -19.5q43 0 69 20t26 52
t-26.5 52t-69.5 20t-69.5 -20t-26.5 -52q0 -33 26 -52.5zM118.5 519.5q23.5 -18.5 62.5 -18.5q38 0 61 18.5t23 48.5t-24 49.5t-61 19.5q-38 0 -61.5 -18.5t-23.5 -49.5t23.5 -49.5z" />
    <glyph glyph-name="nine.numr" horiz-adv-x="360" 
d="M222.5 353q39.5 34 42.5 105q-15 -23 -42 -36t-59 -13q-58 0 -92.5 36.5t-34.5 92.5q0 59 39 98.5t97 39.5q66 0 102.5 -40.5t36.5 -113.5v-35q0 -103 -51.5 -155t-159.5 -52v39q82 0 121.5 34zM108 472q25 -26 65 -26q32 0 57.5 16.5t34.5 42.5v24q0 53 -24 80.5
t-67 27.5q-39 0 -65 -29t-26 -70q0 -40 25 -66z" />
    <glyph glyph-name="period.001" horiz-adv-x="302" 
d="M112.5 13q-15.5 16 -15.5 39q0 22 15.5 37t38.5 15q22 0 38 -15t16 -37q0 -23 -16 -39t-38 -16q-23 0 -38.5 16z" />
    <glyph glyph-name="dotcenter-ar" 
d="M62 45h90v-90h-90v90z" />
    <glyph glyph-name="threedotsdownbelow-ar.002" 
d="M90 -199h72v-70h-72v70zM90 -89v-77h-76l-1 77h77zM162 -89h77v-77h-77v77z" />
    <glyph glyph-name="wasla-ar" 
d="M36 557q15 12 36 13l36 48q32 45 56 67t57 22q36 0 60 -26t24 -65q0 -33 -25 -58t-59 -25h-140q-17 0 -27 -7t-27 -30l-27 21q21 28 36 40zM221 570q21 0 37 14t16 34q0 23 -15 38.5t-38 15.5q-22 0 -39.5 -16t-44.5 -53l-25 -33h109z" />
    <glyph glyph-name="miniKeheh-ar" 
d="M0 30h75q12 0 12 11q0 6 -5 10l-62 63l6 25l98 33l10 -28l-76 -25l53 -56q12 -12 12 -27t-9.5 -25.5t-24.5 -10.5h-89v30z" />
    <glyph glyph-name="gafsarkashabove-ar" 
d="M-3 547l244 88l15 -42l-243 -88z" />
    <glyph glyph-name="uni0654064F" 
d="M172 535l-153 -37l-8 35l88 21q-25 22 -32 53q-3 12 -3 22q0 39 27.5 66t68.5 27q27 0 72 -9l-7 -35q-44 9 -70 9q-25 0 -41.5 -16.5t-16.5 -40.5q0 -28 21 -46t48 -14l104 25l7 -35l-99 -24zM113 802l-19 66q-3 12 -3 24q0 36 27.5 60.5t68.5 24.5t70 -26t29 -66
q0 -36 -26 -63.5t-71 -37.5l-182 -44l-7 35zM147 810l34 8q33 8 51.5 26t18.5 41q0 25 -18 41.5t-45 16.5q-28 0 -45.5 -15t-17.5 -36q0 -8 3 -16z" />
    <glyph glyph-name="uni0654064C" 
d="M200 534l-152 -36l-8 35l88 21q-25 22 -32 53q-3 12 -3 22q0 39 27.5 66t68.5 27q27 0 72 -9l-7 -35q-44 9 -69 9q-26 0 -42.5 -17t-16.5 -40q0 -28 21 -46t48 -14l104 25l7 -35l-98 -24zM94 908q29 -27 29 -68q0 -24 -12 -45l65 17l-19 72q-3 14 -3 25q0 34 23.5 56
t64.5 22t69.5 -26.5t28.5 -66.5q0 -36 -25 -63t-70 -38l-195 -48l-7 32l3 1q22 6 35.5 23t13.5 37q0 28 -20 47t-49 16l-5 30q44 4 73 -23zM206 820l31 8q34 9 52.5 26.5t18.5 40.5q0 25 -18 41.5t-45 16.5q-28 0 -43.5 -13t-15.5 -34q0 -5 2 -15z" />
    <glyph glyph-name="uni0654064E" 
d="M161 535l-153 -37l-8 35l88 21q-25 22 -32 53q-3 12 -3 22q0 39 27.5 66t68.5 27q27 0 72 -9l-7 -35q-45 9 -70 9t-41.5 -16.5t-16.5 -40.5q0 -28 21 -46t48 -14l104 25l7 -35l-99 -24zM240 836l8 -35l-227 -54l-8 35z" />
    <glyph glyph-name="uni0654064B" 
d="M161 535l-153 -37l-8 35l88 21q-25 22 -32 53q-3 12 -3 22q0 39 27.5 66t68.5 27q27 0 72 -9l-7 -35q-45 9 -70 9t-41.5 -16.5t-16.5 -40.5q0 -28 21 -46t48 -14l104 25l7 -35l-99 -24zM243 832l7 -35l-226 -54l-8 35zM243 940l7 -35l-226 -54l-8 35z" />
    <glyph glyph-name="uni06540652" 
d="M161 535l-153 -37l-8 35l88 21q-25 22 -32 53q-3 12 -3 22q0 39 27.5 66t68.5 27q27 0 72 -9l-7 -35q-45 9 -70 9t-41.5 -16.5t-16.5 -40.5q0 -28 21 -46t48 -14l104 25l7 -35l-99 -24zM65.5 933q27.5 28 67.5 28q39 0 67 -28t28 -67q0 -40 -28 -68.5t-67 -28.5
q-40 0 -67.5 28.5t-27.5 68.5q0 39 27.5 67zM88 821.5q18 -18.5 45 -18.5q26 0 44 18.5t18 44.5t-18 43.5t-44 17.5t-44.5 -18t-18.5 -43q0 -26 18 -44.5z" />
    <glyph glyph-name="uni06550650" 
d="M160 -346l-154 -37l-7 35l89 21q-25 21 -33 54q-3 10 -3 22q0 39 27.5 65.5t68.5 26.5q27 0 71 -9l-6 -34q-42 8 -67 8q-28 0 -44.5 -17t-16.5 -41q0 -28 20.5 -45.5t47.5 -13.5l104 25l8 -35l-99 -24zM248 -397l7 -35l-226 -54l-8 35z" />
    <glyph glyph-name="uni0655064D" 
d="M160 -346l-154 -37l-7 35l89 21q-25 21 -33 54q-3 10 -3 22q0 39 27.5 65.5t68.5 26.5q27 0 71 -9l-6 -34q-42 8 -67 8q-28 0 -44.5 -17t-16.5 -41q0 -28 20.5 -45.5t47.5 -13.5l104 25l8 -35l-99 -24zM248 -478l7 -35l-226 -54l-8 35zM248 -370l7 -35l-226 -54l-8 35z
" />
    <glyph glyph-name="uni0651064B" 
d="M14 636l29 -8l-10 -44q-2 -10 -2 -14q0 -15 10.5 -24t29.5 -9t29.5 9.5t10.5 23.5l1 58h27l1 -58q0 -14 10.5 -23.5t29.5 -9.5q20 0 30.5 9t10.5 25q0 8 -1 12l-17 65l29 8l18 -66q3 -12 3 -23q0 -29 -20 -48t-53 -19q-38 0 -54 26q-18 -26 -55 -26q-32 0 -51.5 18.5
t-19.5 48.5q0 10 3 22zM235 767l8 -36l-227 -54l-8 36zM235 874l8 -35l-227 -54l-8 35z" />
    <glyph glyph-name="uni0651064C" 
d="M37 636l28 -8l-10 -44q-2 -10 -2 -13q0 -15 10.5 -24.5t30.5 -9.5q19 0 29 9.5t10 23.5l1 58h28l1 -58q0 -14 10.5 -23.5t29.5 -9.5q20 0 30.5 9t10.5 24q0 3 -2 13l-17 65l30 8l18 -66q3 -12 3 -22q0 -30 -20 -49t-53 -19q-37 0 -55 26q-18 -26 -54 -26
q-33 0 -52.5 18.5t-19.5 48.5q0 10 3 22zM1 860q39 0 64 -27t25 -64q0 -24 -12 -45l64 17l-18 72q-3 14 -3 25q0 34 23.5 56t64.5 22t69.5 -26.5t28.5 -66.5q0 -36 -25.5 -63.5t-70.5 -37.5l-194 -48l-7 32l7 2q21 7 33 23t12 37q0 28 -20 46t-50 16l-4 29q4 1 13 1z
M173 749l30 8q34 9 53 26.5t19 40.5q0 25 -18 41t-45 16q-29 0 -44 -12t-15 -33q0 -4 2 -16z" />
    <glyph glyph-name="uni0651064D" 
d="M20 852l29 -8l-10 -44q-2 -10 -2 -14q0 -15 10.5 -24.5t29.5 -9.5t29.5 9.5t10.5 23.5l1 58h28l1 -58q0 -13 10 -23t29 -10q20 0 30.5 9t10.5 25q0 8 -1 12l-17 65l29 9l18 -67q3 -12 3 -23q0 -29 -20 -47.5t-53 -18.5q-37 0 -54 25q-18 -25 -55 -25q-32 0 -51.5 18.5
t-19.5 48.5q0 10 3 22zM242 585l8 -35l-227 -54l-7 35zM242 692l8 -35l-227 -54l-7 35z" />
    <glyph glyph-name="uni0651064E" 
d="M14 636l29 -8l-10 -44q-2 -10 -2 -14q0 -15 10.5 -24t29.5 -9t29.5 9.5t10.5 23.5l1 58h27l1 -58q0 -14 10.5 -23.5t29.5 -9.5q20 0 30.5 9t10.5 25q0 8 -1 12l-17 65l29 8l18 -66q3 -12 3 -23q0 -29 -20 -48t-53 -19q-38 0 -54 26q-18 -26 -55 -26q-32 0 -51.5 18.5
t-19.5 48.5q0 10 3 22zM232 770l8 -35l-227 -54l-7 35z" />
    <glyph glyph-name="uni0651064F" 
d="M20 636l29 -8l-10 -44q-2 -10 -2 -14q0 -15 10.5 -24t29.5 -9t29.5 9.5t10.5 23.5l1 58h28l1 -58q0 -14 10 -23.5t29 -9.5q20 0 30.5 9t10.5 25q0 8 -1 12l-17 65l29 8l18 -66q3 -12 3 -23q0 -29 -20 -48t-53 -19q-38 0 -54 26q-18 -26 -55 -26q-32 0 -51.5 18.5
t-19.5 48.5q0 10 3 22zM101 737l-19 66q-4 11 -4 25q0 35 27.5 59.5t66.5 24.5q42 0 71.5 -26.5t29.5 -66.5q0 -35 -26 -62.5t-71 -38.5l-182 -43l-7 35zM134 745l34 8q33 7 51.5 25t18.5 42q0 25 -18.5 41t-45.5 16t-44.5 -15t-17.5 -36q0 -8 3 -16z" />
    <glyph glyph-name="uni06510650" 
d="M22 538l226 54l8 -35l-227 -54zM27 754l29 -7l-11 -44q-1 -4 -1 -12q0 -16 10 -26t30 -10q19 0 29 9.5t10 23.5l1 58h28l1 -58q0 -14 10.5 -23.5t29.5 -9.5q20 0 30.5 9t10.5 24q0 3 -2 13l-16 65l29 8l18 -66q3 -12 3 -23q0 -29 -20 -47.5t-53 -18.5q-37 0 -55 25
q-17 -25 -54 -25q-32 0 -52 19t-20 49q0 11 3 21z" />
    <glyph glyph-name="uni06510670" 
d="M14 636l29 -8l-10 -44q-2 -10 -2 -14q0 -15 10.5 -24t29.5 -9t29.5 9.5t10.5 23.5l1 58h27l1 -58q0 -14 10.5 -23.5t29.5 -9.5q20 0 30.5 9t10.5 25q0 8 -1 12l-17 65l29 8l18 -66q3 -12 3 -23q0 -29 -20 -48t-53 -19q-38 0 -54 26q-18 -26 -55 -26q-32 0 -51.5 18.5
t-19.5 48.5q0 10 3 22zM110 834h32v-163h-32v163z" />
    <glyph glyph-name="uni0653.001" 
d="M21 656.5q21 21.5 55 21.5q6 0 20 -2l101 -19q10 -2 15 -2q20 0 31.5 11.5t11.5 30.5v7l33 2v-15q0 -35 -21 -56.5t-56 -21.5q-6 0 -20 2l-101 19q-10 2 -15 2q-19 0 -30.5 -11.5t-11.5 -30.5v-7l-33 -2v15q0 35 21 56.5z" />
    <glyph glyph-name="sareya-ar" 
d="M47 533q62 5 90 10.5t28 19.5q0 12 -11.5 17.5t-32 9.5t-28.5 6q-44 10 -62.5 21.5t-18.5 33.5q0 16 11 44q15 37 41 56t59 19q19 0 40 -6l36 -11l-9 -35l-37 11q-18 5 -31 5q-48 0 -70 -53q-6 -13 -6 -22q0 -10 11.5 -15.5t42.5 -12.5q40 -9 58 -15t28.5 -17.5
t10.5 -34.5q0 -28 -20 -41.5t-54 -18t-117 -11.5l-2 36z" />
    </font>
</defs>
</svg>
