<?xml version="1.0" standalone="no"?>
<!DOCTYPE svg PUBLIC "-//W3C//DTD SVG 1.1//EN" "http://www.w3.org/Graphics/SVG/1.1/DTD/svg11.dtd" >
<svg xmlns="http://www.w3.org/2000/svg">
<defs>
  <font id="iconly" horiz-adv-x="1024">
    <font-face font-family="iconly"
      units-per-em="1024" ascent="896"
      descent="128" />
    <missing-glyph horiz-adv-x="0" />
    <glyph glyph-name="armchair1"
      unicode="&#xE000;"
      horiz-adv-x="1024" d="M245.333 119.637V0Q245.333 -13.27 235.947 -22.6130000000001Q226.603 -32 213.333 -32Q200.063 -32 190.72 -22.6130000000001Q181.333 -13.269 181.333 0V119.637Q181.333 132.9069999999999 190.72 142.251Q200.064 151.6379999999999 213.333 151.6379999999999Q226.603 151.6379999999999 235.947 142.252Q245.333 132.909 245.333 119.6389999999999zM842.6669999999999 119.637V0Q842.6669999999999 -13.27 833.28 -22.6130000000001Q823.936 -32 810.667 -32Q797.397 -32 788.053 -22.6130000000001Q778.667 -13.269 778.667 0V119.637Q778.667 132.9069999999999 788.053 142.251Q797.397 151.6379999999999 810.667 151.6379999999999Q823.937 151.6379999999999 833.28 142.252Q842.6669999999999 132.909 842.6669999999999 119.6389999999999zM821.333 426.6669999999999V554.6669999999999Q821.333 576.7669999999999 805.717 592.3839999999999Q790.1 608 768 608H256Q233.9 608 218.283 592.384Q202.667 576.768 202.667 554.667V426.6670000000001Q202.667 413.3970000000001 193.28 404.0530000000001Q183.936 394.6670000000001 170.667 394.6670000000001Q157.397 394.6670000000001 148.053 404.0530000000001Q138.667 413.3970000000001 138.667 426.6670000000001V554.667Q138.667 603.264 173.013 637.653Q207.403 672 256 672H768Q816.597 672 850.987 637.653Q885.333 603.263 885.333 554.667V426.6670000000001Q885.333 413.3970000000001 875.947 404.0530000000001Q866.603 394.6670000000001 853.333 394.6670000000001Q840.063 394.6670000000001 830.72 404.0530000000001Q821.3330000000001 413.3970000000001 821.3330000000001 426.6670000000001zM682.667 288Q704.767 288 720.384 303.616Q736 319.232 736 341.333Q736 389.931 770.347 424.32Q804.737 458.6669999999999 853.333 458.6669999999999Q901.931 458.6669999999999 936.32 424.32Q970.667 389.93 970.667 341.333Q970.667 222.0369999999999 886.3149999999999 137.685Q801.963 53.333 682.6669999999999 53.333H341.3330000000001Q222.037 53.333 137.685 137.685Q53.333 222.0369999999999 53.333 341.333Q53.333 389.931 87.68 424.32Q122.07 458.6669999999999 170.667 458.6669999999999Q219.2640000000001 458.6669999999999 253.653 424.32Q288 389.93 288 341.333Q288 319.233 303.616 303.616Q319.2320000000001 288 341.3330000000001 288zM682.667 224H341.3330000000001Q292.7360000000001 224 258.3470000000001 258.347Q224 292.737 224 341.333Q224 363.435 208.384 379.051Q192.768 394.668 170.667 394.668Q148.565 394.668 132.949 379.0519999999999Q117.332 363.4369999999999 117.332 341.3349999999999Q117.332 248.535 182.954 182.9569999999999Q248.532 117.3349999999999 341.332 117.3349999999999H682.6659999999999Q775.4659999999999 117.3349999999999 841.0439999999999 182.9569999999999Q906.6659999999998 248.5349999999999 906.6659999999998 341.3349999999998Q906.6659999999998 363.4369999999998 891.0499999999998 379.0529999999998Q875.4349999999998 394.6699999999998 853.3329999999999 394.6699999999998Q831.2329999999998 394.6699999999998 815.6159999999999 379.0539999999998Q800 363.4360000000001 800 341.334Q800 292.737 765.653 258.348Q731.263 224 682.667 224z" />
    <glyph glyph-name="armchair1-1"
      unicode="&#x61;&#x72;&#x6D;&#x63;&#x68;&#x61;&#x69;&#x72;&#x31;"
      horiz-adv-x="1024" d="M245.333 119.637V0Q245.333 -13.27 235.947 -22.6130000000001Q226.603 -32 213.333 -32Q200.063 -32 190.72 -22.6130000000001Q181.333 -13.269 181.333 0V119.637Q181.333 132.9069999999999 190.72 142.251Q200.064 151.6379999999999 213.333 151.6379999999999Q226.603 151.6379999999999 235.947 142.252Q245.333 132.909 245.333 119.6389999999999zM842.6669999999999 119.637V0Q842.6669999999999 -13.27 833.28 -22.6130000000001Q823.936 -32 810.667 -32Q797.397 -32 788.053 -22.6130000000001Q778.667 -13.269 778.667 0V119.637Q778.667 132.9069999999999 788.053 142.251Q797.397 151.6379999999999 810.667 151.6379999999999Q823.937 151.6379999999999 833.28 142.252Q842.6669999999999 132.909 842.6669999999999 119.6389999999999zM821.333 426.6669999999999V554.6669999999999Q821.333 576.7669999999999 805.717 592.3839999999999Q790.1 608 768 608H256Q233.9 608 218.283 592.384Q202.667 576.768 202.667 554.667V426.6670000000001Q202.667 413.3970000000001 193.28 404.0530000000001Q183.936 394.6670000000001 170.667 394.6670000000001Q157.397 394.6670000000001 148.053 404.0530000000001Q138.667 413.3970000000001 138.667 426.6670000000001V554.667Q138.667 603.264 173.013 637.653Q207.403 672 256 672H768Q816.597 672 850.987 637.653Q885.333 603.263 885.333 554.667V426.6670000000001Q885.333 413.3970000000001 875.947 404.0530000000001Q866.603 394.6670000000001 853.333 394.6670000000001Q840.063 394.6670000000001 830.72 404.0530000000001Q821.3330000000001 413.3970000000001 821.3330000000001 426.6670000000001zM682.667 288Q704.767 288 720.384 303.616Q736 319.232 736 341.333Q736 389.931 770.347 424.32Q804.737 458.6669999999999 853.333 458.6669999999999Q901.931 458.6669999999999 936.32 424.32Q970.667 389.93 970.667 341.333Q970.667 222.0369999999999 886.3149999999999 137.685Q801.963 53.333 682.6669999999999 53.333H341.3330000000001Q222.037 53.333 137.685 137.685Q53.333 222.0369999999999 53.333 341.333Q53.333 389.931 87.68 424.32Q122.07 458.6669999999999 170.667 458.6669999999999Q219.2640000000001 458.6669999999999 253.653 424.32Q288 389.93 288 341.333Q288 319.233 303.616 303.616Q319.2320000000001 288 341.3330000000001 288zM682.667 224H341.3330000000001Q292.7360000000001 224 258.3470000000001 258.347Q224 292.737 224 341.333Q224 363.435 208.384 379.051Q192.768 394.668 170.667 394.668Q148.565 394.668 132.949 379.0519999999999Q117.332 363.4369999999999 117.332 341.3349999999999Q117.332 248.535 182.954 182.9569999999999Q248.532 117.3349999999999 341.332 117.3349999999999H682.6659999999999Q775.4659999999999 117.3349999999999 841.0439999999999 182.9569999999999Q906.6659999999998 248.5349999999999 906.6659999999998 341.3349999999998Q906.6659999999998 363.4369999999998 891.0499999999998 379.0529999999998Q875.4349999999998 394.6699999999998 853.3329999999999 394.6699999999998Q831.2329999999998 394.6699999999998 815.6159999999999 379.0539999999998Q800 363.4360000000001 800 341.334Q800 292.737 765.653 258.348Q731.263 224 682.667 224z" />
    <glyph glyph-name="search"
      unicode="&#xE001;"
      horiz-adv-x="1024" d="M999.936 -49.664L803.2760000000001 146.996C869.02 224.972 908.8 325.477 908.8 435.2C908.8 682.24 707.8399999999999 883.2 460.8 883.2S12.8 682.24 12.8 435.2S213.76 -12.8 460.8 -12.8C570.5219999999999 -12.8 671.0269999999999 26.9820000000001 749.0049999999999 92.7230000000001L945.6649999999998 -103.9369999999999C953.1389999999998 -111.4109999999999 962.9699999999998 -115.1999999999999 972.7999999999998 -115.1999999999999C982.6299999999998 -115.1999999999999 992.4599999999998 -111.4619999999999 999.9359999999998 -103.9359999999999C1014.9379999999998 -88.9859999999999 1014.9379999999998 -64.6659999999999 999.9359999999998 -49.6639999999999zM89.6 435.2C89.6 639.898 256.102 806.4 460.8 806.4C665.498 806.4 832 639.898 832 435.2C832 230.502 665.498 64 460.8 64C256.102 64 89.6 230.502 89.6 435.2z" />
    <glyph glyph-name="search-1"
      unicode="&#x73;&#x65;&#x61;&#x72;&#x63;&#x68;"
      horiz-adv-x="1024" d="M999.936 -49.664L803.2760000000001 146.996C869.02 224.972 908.8 325.477 908.8 435.2C908.8 682.24 707.8399999999999 883.2 460.8 883.2S12.8 682.24 12.8 435.2S213.76 -12.8 460.8 -12.8C570.5219999999999 -12.8 671.0269999999999 26.9820000000001 749.0049999999999 92.7230000000001L945.6649999999998 -103.9369999999999C953.1389999999998 -111.4109999999999 962.9699999999998 -115.1999999999999 972.7999999999998 -115.1999999999999C982.6299999999998 -115.1999999999999 992.4599999999998 -111.4619999999999 999.9359999999998 -103.9359999999999C1014.9379999999998 -88.9859999999999 1014.9379999999998 -64.6659999999999 999.9359999999998 -49.6639999999999zM89.6 435.2C89.6 639.898 256.102 806.4 460.8 806.4C665.498 806.4 832 639.898 832 435.2C832 230.502 665.498 64 460.8 64C256.102 64 89.6 230.502 89.6 435.2z" />
    <glyph glyph-name="store"
      unicode="&#xE002;"
      horiz-adv-x="1024" d="M1000.704 595.405L947.507 752.69C922.47 826.625 891.494 883.15 742.4 883.15H281.6C132.506 883.15 101.53 826.624 76.544 752.69L23.244 595.354C-0.357 525.517 17.205 451.174 64 402.227V76.8C64 -47.0020000000001 132.198 -115.2 256 -115.2H768C891.802 -115.2 960 -47.0020000000001 960 76.8V402.278C1006.797 451.226 1024.307 525.568 1000.704 595.405zM96 570.778L149.3 728.115C166.91 780.237 175.77 806.4 281.6 806.4H742.4000000000001C848.2300000000001 806.4 857.0880000000001 780.237 874.7520000000001 728.115L927.95 570.8299999999999C945.562 518.912 926.925 463.104 883.763 438.17C820.941 401.92 725.863 438.067 704.1030000000001 499.2499999999999C698.6750000000001 514.56 684.133 524.8 667.903 524.8H667.75C651.47 524.75 636.928 514.406 631.603 498.9949999999999C616.448 455.322 565.043 422.4 512 422.4C458.957 422.4 407.552 455.322 392.397 498.995C387.072 514.405 372.531 524.749 356.25 524.8C341.658 523.06 325.325 514.61 319.898 499.25C304.3330000000001 455.475 252.6720000000001 422.4 199.6280000000001 422.4C178.5860000000001 422.4 158.054 427.827 140.2380000000001 438.17C97.0750000000001 463.0529999999999 78.4380000000001 518.8599999999999 96.0000000000001 570.778zM577.536 -38.4H449.536V102.4C449.536 137.677 478.259 166.4 513.536 166.4S577.536 137.677 577.536 102.4V-38.4000000000001zM768 -38.4H654.336V102.4C654.336 180.0699999999999 591.206 243.2000000000001 513.5360000000001 243.2000000000001C435.8660000000001 243.2000000000001 372.7360000000001 180.0700000000001 372.7360000000001 102.4000000000001V-38.3999999999999H256C175.258 -38.3999999999999 140.8 -3.9419999999999 140.8 76.8000000000002V355.635C216.064 333.517 304.947 358.3490000000001 355.89 414.055C393.882 372.3250000000001 451.79 345.6510000000001 512 345.6510000000001C572.21 345.6510000000001 630.1179999999999 372.3270000000001 668.11 414.0550000000001C706.304 372.3270000000001 764.2620000000001 345.6520000000001 824.37 345.6520000000001C844.493 345.6520000000001 864.256 349.0840000000001 883.2 355.0220000000001V76.8C883.2 -3.942 848.7420000000001 -38.4000000000001 768 -38.4000000000001z" />
    <glyph glyph-name="store-1"
      unicode="&#x73;&#x74;&#x6F;&#x72;&#x65;"
      horiz-adv-x="1024" d="M1000.704 595.405L947.507 752.69C922.47 826.625 891.494 883.15 742.4 883.15H281.6C132.506 883.15 101.53 826.624 76.544 752.69L23.244 595.354C-0.357 525.517 17.205 451.174 64 402.227V76.8C64 -47.0020000000001 132.198 -115.2 256 -115.2H768C891.802 -115.2 960 -47.0020000000001 960 76.8V402.278C1006.797 451.226 1024.307 525.568 1000.704 595.405zM96 570.778L149.3 728.115C166.91 780.237 175.77 806.4 281.6 806.4H742.4000000000001C848.2300000000001 806.4 857.0880000000001 780.237 874.7520000000001 728.115L927.95 570.8299999999999C945.562 518.912 926.925 463.104 883.763 438.17C820.941 401.92 725.863 438.067 704.1030000000001 499.2499999999999C698.6750000000001 514.56 684.133 524.8 667.903 524.8H667.75C651.47 524.75 636.928 514.406 631.603 498.9949999999999C616.448 455.322 565.043 422.4 512 422.4C458.957 422.4 407.552 455.322 392.397 498.995C387.072 514.405 372.531 524.749 356.25 524.8C341.658 523.06 325.325 514.61 319.898 499.25C304.3330000000001 455.475 252.6720000000001 422.4 199.6280000000001 422.4C178.5860000000001 422.4 158.054 427.827 140.2380000000001 438.17C97.0750000000001 463.0529999999999 78.4380000000001 518.8599999999999 96.0000000000001 570.778zM577.536 -38.4H449.536V102.4C449.536 137.677 478.259 166.4 513.536 166.4S577.536 137.677 577.536 102.4V-38.4000000000001zM768 -38.4H654.336V102.4C654.336 180.0699999999999 591.206 243.2000000000001 513.5360000000001 243.2000000000001C435.8660000000001 243.2000000000001 372.7360000000001 180.0700000000001 372.7360000000001 102.4000000000001V-38.3999999999999H256C175.258 -38.3999999999999 140.8 -3.9419999999999 140.8 76.8000000000002V355.635C216.064 333.517 304.947 358.3490000000001 355.89 414.055C393.882 372.3250000000001 451.79 345.6510000000001 512 345.6510000000001C572.21 345.6510000000001 630.1179999999999 372.3270000000001 668.11 414.0550000000001C706.304 372.3270000000001 764.2620000000001 345.6520000000001 824.37 345.6520000000001C844.493 345.6520000000001 864.256 349.0840000000001 883.2 355.0220000000001V76.8C883.2 -3.942 848.7420000000001 -38.4000000000001 768 -38.4000000000001z" />
    <glyph glyph-name="group"
      unicode="&#xE003;"
      horiz-adv-x="1024" d="M640.213 725.547Q693.333 672.427 693.333 597.333Q693.333 522.24 640.213 469.12Q587.093 416 512 416Q436.907 416 383.7870000000001 469.12Q330.6670000000001 522.24 330.6670000000001 597.333Q330.6670000000001 672.4269999999999 383.7870000000001 725.547Q436.9070000000001 778.6669999999999 512 778.6669999999999Q587.093 778.6669999999999 640.213 725.5889999999999zM594.987 680.3199999999999Q560.597 714.667 512 714.667Q463.403 714.667 429.0130000000001 680.3199999999999Q394.6670000000001 645.9300000000001 394.6670000000001 597.333Q394.6670000000001 548.736 429.0130000000001 514.347Q512 431.403 594.9870000000001 514.347Q677.931 597.333 594.9870000000001 680.3199999999999zM138.667 106.6669999999999Q138.667 218.3249999999999 260.48 289.2369999999999Q367.7 351.66 512 351.66T763.52 289.237Q885.333 218.3249999999999 885.333 106.6669999999999V64Q885.333 -10.667 810.6669999999999 -10.667H213.333Q182.4 -10.667 160.555 11.221Q138.667 33.068 138.667 64.001zM202.667 106.6669999999999V64Q202.667 53.333 213.333 53.333H810.6669999999999Q821.333 53.333 821.333 64V106.667Q821.333 181.547 731.3489999999999 233.9410000000001Q639.0189999999999 287.6610000000001 511.9989999999999 287.6610000000001T292.6489999999999 233.9410000000001Q202.6659999999999 181.548 202.6659999999999 106.668z" />
    <glyph glyph-name="group-1"
      unicode="&#x67;&#x72;&#x6F;&#x75;&#x70;"
      horiz-adv-x="1024" d="M640.213 725.547Q693.333 672.427 693.333 597.333Q693.333 522.24 640.213 469.12Q587.093 416 512 416Q436.907 416 383.7870000000001 469.12Q330.6670000000001 522.24 330.6670000000001 597.333Q330.6670000000001 672.4269999999999 383.7870000000001 725.547Q436.9070000000001 778.6669999999999 512 778.6669999999999Q587.093 778.6669999999999 640.213 725.5889999999999zM594.987 680.3199999999999Q560.597 714.667 512 714.667Q463.403 714.667 429.0130000000001 680.3199999999999Q394.6670000000001 645.9300000000001 394.6670000000001 597.333Q394.6670000000001 548.736 429.0130000000001 514.347Q512 431.403 594.9870000000001 514.347Q677.931 597.333 594.9870000000001 680.3199999999999zM138.667 106.6669999999999Q138.667 218.3249999999999 260.48 289.2369999999999Q367.7 351.66 512 351.66T763.52 289.237Q885.333 218.3249999999999 885.333 106.6669999999999V64Q885.333 -10.667 810.6669999999999 -10.667H213.333Q182.4 -10.667 160.555 11.221Q138.667 33.068 138.667 64.001zM202.667 106.6669999999999V64Q202.667 53.333 213.333 53.333H810.6669999999999Q821.333 53.333 821.333 64V106.667Q821.333 181.547 731.3489999999999 233.9410000000001Q639.0189999999999 287.6610000000001 511.9989999999999 287.6610000000001T292.6489999999999 233.9410000000001Q202.6659999999999 181.548 202.6659999999999 106.668z" />
    <glyph glyph-name="group7"
      unicode="&#xE004;"
      horiz-adv-x="1024" d="M170.667 416H853.3330000000001Q970.6670000000001 416 970.6670000000001 298.6670000000001V128Q970.6670000000001 97.067 948.7790000000002 75.22Q926.9320000000002 53.3330000000001 895.9990000000001 53.3330000000001H128Q53.333 53.3330000000001 53.333 128.0000000000001V298.6670000000001Q53.333 416 170.667 416zM170.667 352Q148.565 352 132.949 336.384Q117.332 320.7680000000001 117.332 298.6670000000001V128Q117.332 117.333 127.999 117.333H895.999Q906.666 117.333 906.666 128V298.6670000000001Q906.666 352 853.3320000000001 352zM138.667 384V597.3330000000001Q138.667 757.3330000000001 298.6670000000001 757.3330000000001H725.3330000000001Q885.3330000000001 757.3330000000001 885.3330000000001 597.3330000000001V384Q885.3330000000001 370.73 875.9470000000001 361.387Q866.603 352 853.333 352Q840.063 352 830.72 361.387Q821.3330000000001 370.731 821.3330000000001 384V597.3330000000001Q821.3330000000001 693.3330000000001 725.3330000000001 693.3330000000001H298.667Q202.667 693.3330000000001 202.667 597.3330000000001V384Q202.667 370.73 193.28 361.387Q183.936 352 170.667 352Q157.397 352 148.053 361.387Q138.667 370.731 138.667 384zM928 85.333V0Q928 -13.27 918.613 -22.6130000000001Q909.27 -32 896 -32Q882.73 -32 873.387 -22.6130000000001Q864 -13.27 864 0V85.333Q864 98.603 873.387 107.947Q882.731 117.333 896 117.333Q909.27 117.333 918.613 107.947Q928 98.603 928 85.333zM160 85.333V0Q160 -13.27 150.613 -22.6130000000001Q141.27 -32 128 -32Q114.73 -32 105.387 -22.6130000000001Q96 -13.27 96 0V85.333Q96 98.603 105.387 107.947Q114.731 117.333 128 117.333Q141.27 117.333 150.613 107.947Q160 98.603 160 85.333zM362.6670000000001 586.6669999999999H448Q544 586.6669999999999 544 490.667V448Q544 408.235 515.883 380.117Q487.765 352 448 352H362.6670000000001Q322.901 352 294.7840000000001 380.117Q266.6670000000001 408.235 266.6670000000001 448V490.6669999999999Q266.6670000000001 586.6669999999999 362.6670000000001 586.6669999999999zM362.6670000000001 522.6669999999999Q330.6670000000001 522.6669999999999 330.6670000000001 490.667V448Q330.6670000000001 416 362.6670000000001 416H448Q480 416 480 448V490.667Q480 522.667 448 522.667zM576 586.6669999999999H661.333Q757.333 586.6669999999999 757.333 490.667V448Q757.333 408.235 729.216 380.117Q701.1 352 661.333 352H576Q536.235 352 508.117 380.117Q480 408.235 480 448V490.667Q480 586.667 576 586.667zM576 522.6669999999999Q544 522.6669999999999 544 490.667V448Q544 416 576 416H661.333Q693.333 416 693.333 448V490.667Q693.333 522.667 661.333 522.667z" />
    <glyph glyph-name="group7-1"
      unicode="&#x67;&#x72;&#x6F;&#x75;&#x70;&#x37;"
      horiz-adv-x="1024" d="M170.667 416H853.3330000000001Q970.6670000000001 416 970.6670000000001 298.6670000000001V128Q970.6670000000001 97.067 948.7790000000002 75.22Q926.9320000000002 53.3330000000001 895.9990000000001 53.3330000000001H128Q53.333 53.3330000000001 53.333 128.0000000000001V298.6670000000001Q53.333 416 170.667 416zM170.667 352Q148.565 352 132.949 336.384Q117.332 320.7680000000001 117.332 298.6670000000001V128Q117.332 117.333 127.999 117.333H895.999Q906.666 117.333 906.666 128V298.6670000000001Q906.666 352 853.3320000000001 352zM138.667 384V597.3330000000001Q138.667 757.3330000000001 298.6670000000001 757.3330000000001H725.3330000000001Q885.3330000000001 757.3330000000001 885.3330000000001 597.3330000000001V384Q885.3330000000001 370.73 875.9470000000001 361.387Q866.603 352 853.333 352Q840.063 352 830.72 361.387Q821.3330000000001 370.731 821.3330000000001 384V597.3330000000001Q821.3330000000001 693.3330000000001 725.3330000000001 693.3330000000001H298.667Q202.667 693.3330000000001 202.667 597.3330000000001V384Q202.667 370.73 193.28 361.387Q183.936 352 170.667 352Q157.397 352 148.053 361.387Q138.667 370.731 138.667 384zM928 85.333V0Q928 -13.27 918.613 -22.6130000000001Q909.27 -32 896 -32Q882.73 -32 873.387 -22.6130000000001Q864 -13.27 864 0V85.333Q864 98.603 873.387 107.947Q882.731 117.333 896 117.333Q909.27 117.333 918.613 107.947Q928 98.603 928 85.333zM160 85.333V0Q160 -13.27 150.613 -22.6130000000001Q141.27 -32 128 -32Q114.73 -32 105.387 -22.6130000000001Q96 -13.27 96 0V85.333Q96 98.603 105.387 107.947Q114.731 117.333 128 117.333Q141.27 117.333 150.613 107.947Q160 98.603 160 85.333zM362.6670000000001 586.6669999999999H448Q544 586.6669999999999 544 490.667V448Q544 408.235 515.883 380.117Q487.765 352 448 352H362.6670000000001Q322.901 352 294.7840000000001 380.117Q266.6670000000001 408.235 266.6670000000001 448V490.6669999999999Q266.6670000000001 586.6669999999999 362.6670000000001 586.6669999999999zM362.6670000000001 522.6669999999999Q330.6670000000001 522.6669999999999 330.6670000000001 490.667V448Q330.6670000000001 416 362.6670000000001 416H448Q480 416 480 448V490.667Q480 522.667 448 522.667zM576 586.6669999999999H661.333Q757.333 586.6669999999999 757.333 490.667V448Q757.333 408.235 729.216 380.117Q701.1 352 661.333 352H576Q536.235 352 508.117 380.117Q480 408.235 480 448V490.667Q480 586.667 576 586.667zM576 522.6669999999999Q544 522.6669999999999 544 490.667V448Q544 416 576 416H661.333Q693.333 416 693.333 448V490.667Q693.333 522.667 661.333 522.667z" />
    <glyph glyph-name="group6"
      unicode="&#xE005;"
      horiz-adv-x="1024" d="M160 54.187V0Q160 -13.27 150.613 -22.6130000000001Q141.27 -32 128 -32Q114.73 -32 105.387 -22.6130000000001Q96 -13.27 96 0V54.187Q96 67.413 105.387 76.8Q114.731 86.1869999999999 128 86.1869999999999Q141.27 86.1869999999999 150.613 76.8Q160 67.413 160 54.187zM522.667 320V384Q522.667 480 426.6670000000001 480H298.6670000000001Q202.667 480 202.667 384V320Q202.667 306.73 193.28 297.387Q183.936 288 170.667 288Q157.397 288 148.053 297.387Q138.667 306.731 138.667 320V384Q138.667 544 298.6670000000001 544H426.6670000000001Q586.667 544 586.667 384V320Q586.667 306.73 577.28 297.387Q567.936 288 554.667 288Q541.397 288 532.053 297.387Q522.667 306.731 522.667 320zM629.3330000000001 54.23V0Q629.3330000000001 -13.27 619.9470000000001 -22.6130000000001Q610.603 -32 597.333 -32Q584.063 -32 574.72 -22.6130000000001Q565.3330000000001 -13.269 565.3330000000001 0V54.23Q565.3330000000001 67.5 574.72 76.885Q584.0640000000001 86.229 597.3330000000001 86.229Q610.6030000000001 86.229 619.9470000000001 76.884Q629.3330000000001 67.4980000000001 629.3330000000001 54.2280000000001zM170.6670000000001 10.667Q53.333 10.667 53.333 128V256Q53.333 352 149.333 352H170.667Q266.6670000000001 352 266.6670000000001 256V202.667H458.667V256Q458.667 352 554.667 352H576Q672 352 672 256V128Q672 10.667 554.667 10.667H170.667zM554.6670000000001 74.667Q608 74.667 608 128V256Q608 288 576 288H554.667Q522.667 288 522.667 256V170.667Q522.667 157.3970000000001 513.28 148.053Q503.936 138.667 490.667 138.667H234.667Q221.397 138.667 212.053 148.053Q202.667 157.3970000000001 202.667 170.667V256Q202.667 288 170.667 288H149.333Q136.063 288 126.72 278.6130000000001Q117.333 269.269 117.333 256V128Q117.333 105.9 132.949 90.283Q148.564 74.667 170.666 74.667H554.6659999999999zM778.6670000000001 42.667V512Q778.6670000000001 525.27 788.0530000000001 534.613Q797.397 544 810.667 544Q823.937 544 833.28 534.613Q842.6669999999999 525.269 842.6669999999999 512V42.6669999999999Q842.6669999999999 29.3969999999999 833.28 20.0529999999999Q823.9359999999999 10.6669999999999 810.6669999999999 10.6669999999999Q797.3969999999999 10.6669999999999 788.0529999999999 20.0529999999999Q778.6669999999999 29.3969999999999 778.6669999999999 42.6669999999999zM877.6970000000001 842.667Q934.0170000000002 842.667 949.5040000000002 788.523L1010.4320000000002 575.1890000000001Q1020.6720000000003 539.3910000000001 998.2720000000002 509.6950000000001Q975.83 480 938.624 480H682.71Q645.46 480 623.104 509.696Q600.6610000000001 539.392 610.9010000000001 575.1890000000001L671.873 788.522Q687.3180000000001 842.666 743.638 842.666zM877.6970000000001 778.667H743.6370000000002Q735.6170000000002 778.667 733.3970000000002 770.9440000000001L672.4270000000001 557.6110000000001Q670.9770000000001 552.491 674.1770000000001 548.225Q677.3770000000002 544.001 682.7090000000002 544.001H938.6230000000002Q943.9560000000002 544.001 947.1560000000002 548.268Q950.3560000000002 552.492 948.9060000000002 557.6120000000001L887.9360000000001 770.946Q885.7160000000001 778.669 877.6960000000001 778.669z" />
    <glyph glyph-name="group6-1"
      unicode="&#x67;&#x72;&#x6F;&#x75;&#x70;&#x36;"
      horiz-adv-x="1024" d="M160 54.187V0Q160 -13.27 150.613 -22.6130000000001Q141.27 -32 128 -32Q114.73 -32 105.387 -22.6130000000001Q96 -13.27 96 0V54.187Q96 67.413 105.387 76.8Q114.731 86.1869999999999 128 86.1869999999999Q141.27 86.1869999999999 150.613 76.8Q160 67.413 160 54.187zM522.667 320V384Q522.667 480 426.6670000000001 480H298.6670000000001Q202.667 480 202.667 384V320Q202.667 306.73 193.28 297.387Q183.936 288 170.667 288Q157.397 288 148.053 297.387Q138.667 306.731 138.667 320V384Q138.667 544 298.6670000000001 544H426.6670000000001Q586.667 544 586.667 384V320Q586.667 306.73 577.28 297.387Q567.936 288 554.667 288Q541.397 288 532.053 297.387Q522.667 306.731 522.667 320zM629.3330000000001 54.23V0Q629.3330000000001 -13.27 619.9470000000001 -22.6130000000001Q610.603 -32 597.333 -32Q584.063 -32 574.72 -22.6130000000001Q565.3330000000001 -13.269 565.3330000000001 0V54.23Q565.3330000000001 67.5 574.72 76.885Q584.0640000000001 86.229 597.3330000000001 86.229Q610.6030000000001 86.229 619.9470000000001 76.884Q629.3330000000001 67.4980000000001 629.3330000000001 54.2280000000001zM170.6670000000001 10.667Q53.333 10.667 53.333 128V256Q53.333 352 149.333 352H170.667Q266.6670000000001 352 266.6670000000001 256V202.667H458.667V256Q458.667 352 554.667 352H576Q672 352 672 256V128Q672 10.667 554.667 10.667H170.667zM554.6670000000001 74.667Q608 74.667 608 128V256Q608 288 576 288H554.667Q522.667 288 522.667 256V170.667Q522.667 157.3970000000001 513.28 148.053Q503.936 138.667 490.667 138.667H234.667Q221.397 138.667 212.053 148.053Q202.667 157.3970000000001 202.667 170.667V256Q202.667 288 170.667 288H149.333Q136.063 288 126.72 278.6130000000001Q117.333 269.269 117.333 256V128Q117.333 105.9 132.949 90.283Q148.564 74.667 170.666 74.667H554.6659999999999zM778.6670000000001 42.667V512Q778.6670000000001 525.27 788.0530000000001 534.613Q797.397 544 810.667 544Q823.937 544 833.28 534.613Q842.6669999999999 525.269 842.6669999999999 512V42.6669999999999Q842.6669999999999 29.3969999999999 833.28 20.0529999999999Q823.9359999999999 10.6669999999999 810.6669999999999 10.6669999999999Q797.3969999999999 10.6669999999999 788.0529999999999 20.0529999999999Q778.6669999999999 29.3969999999999 778.6669999999999 42.6669999999999zM877.6970000000001 842.667Q934.0170000000002 842.667 949.5040000000002 788.523L1010.4320000000002 575.1890000000001Q1020.6720000000003 539.3910000000001 998.2720000000002 509.6950000000001Q975.83 480 938.624 480H682.71Q645.46 480 623.104 509.696Q600.6610000000001 539.392 610.9010000000001 575.1890000000001L671.873 788.522Q687.3180000000001 842.666 743.638 842.666zM877.6970000000001 778.667H743.6370000000002Q735.6170000000002 778.667 733.3970000000002 770.9440000000001L672.4270000000001 557.6110000000001Q670.9770000000001 552.491 674.1770000000001 548.225Q677.3770000000002 544.001 682.7090000000002 544.001H938.6230000000002Q943.9560000000002 544.001 947.1560000000002 548.268Q950.3560000000002 552.492 948.9060000000002 557.6120000000001L887.9360000000001 770.946Q885.7160000000001 778.669 877.6960000000001 778.669z" />
    <glyph glyph-name="group5"
      unicode="&#xE006;"
      horiz-adv-x="1024" d="M512 394.667H128Q114.73 394.667 105.387 404.053Q96 413.397 96 426.667Q96 439.937 105.387 449.28Q114.731 458.667 128 458.667H512Q525.27 458.667 534.613 449.28Q544 439.936 544 426.667Q544 413.397 534.613 404.053Q525.269 394.667 512 394.667zM213.333 800H810.6669999999999Q859.2639999999999 800 893.6529999999999 765.653Q928 731.263 928 682.667V128Q928 79.403 893.653 45.013Q859.263 10.667 810.667 10.667H213.333Q96 10.667 96 128V682.667Q96 731.264 130.347 765.653Q164.737 800 213.333 800zM213.333 736Q160 736 160 682.667V128Q160 74.667 213.333 74.667H810.6669999999999Q864 74.667 864 128V682.667Q864 736 810.667 736zM842.6669999999999 42.667V0Q842.6669999999999 -13.27 833.28 -22.6130000000001Q823.936 -32 810.667 -32Q797.397 -32 788.053 -22.6130000000001Q778.667 -13.269 778.667 0V42.667Q778.667 55.937 788.053 65.28Q797.397 74.6669999999999 810.667 74.6669999999999Q823.937 74.6669999999999 833.28 65.28Q842.6669999999999 55.9359999999999 842.6669999999999 42.6669999999999zM245.333 42.667V0Q245.333 -13.27 235.947 -22.6130000000001Q226.603 -32 213.333 -32Q200.063 -32 190.72 -22.6130000000001Q181.333 -13.269 181.333 0V42.667Q181.333 55.937 190.72 65.28Q200.064 74.6669999999999 213.333 74.6669999999999Q226.603 74.6669999999999 235.947 65.28Q245.333 55.9359999999999 245.333 42.6669999999999zM544 768V42.667Q544 29.3970000000001 534.613 20.053Q525.269 10.667 512 10.667Q498.73 10.667 489.387 20.053Q480 29.3970000000001 480 42.667V768Q480 781.27 489.387 790.613Q498.73 800 512 800Q525.27 800 534.613 790.613Q544 781.27 544 768zM362.667 266.6670000000001H277.333Q264.063 266.6670000000001 254.72 276.053Q245.333 285.3970000000001 245.333 298.6670000000001Q245.333 311.937 254.72 321.28Q264.064 330.6669999999999 277.333 330.6669999999999H362.667Q375.937 330.6669999999999 385.28 321.28Q394.667 311.9359999999999 394.667 298.6669999999999Q394.667 285.397 385.28 276.0529999999999Q375.936 266.6669999999999 362.667 266.6669999999999z" />
    <glyph glyph-name="group5-1"
      unicode="&#x67;&#x72;&#x6F;&#x75;&#x70;&#x35;"
      horiz-adv-x="1024" d="M512 394.667H128Q114.73 394.667 105.387 404.053Q96 413.397 96 426.667Q96 439.937 105.387 449.28Q114.731 458.667 128 458.667H512Q525.27 458.667 534.613 449.28Q544 439.936 544 426.667Q544 413.397 534.613 404.053Q525.269 394.667 512 394.667zM213.333 800H810.6669999999999Q859.2639999999999 800 893.6529999999999 765.653Q928 731.263 928 682.667V128Q928 79.403 893.653 45.013Q859.263 10.667 810.667 10.667H213.333Q96 10.667 96 128V682.667Q96 731.264 130.347 765.653Q164.737 800 213.333 800zM213.333 736Q160 736 160 682.667V128Q160 74.667 213.333 74.667H810.6669999999999Q864 74.667 864 128V682.667Q864 736 810.667 736zM842.6669999999999 42.667V0Q842.6669999999999 -13.27 833.28 -22.6130000000001Q823.936 -32 810.667 -32Q797.397 -32 788.053 -22.6130000000001Q778.667 -13.269 778.667 0V42.667Q778.667 55.937 788.053 65.28Q797.397 74.6669999999999 810.667 74.6669999999999Q823.937 74.6669999999999 833.28 65.28Q842.6669999999999 55.9359999999999 842.6669999999999 42.6669999999999zM245.333 42.667V0Q245.333 -13.27 235.947 -22.6130000000001Q226.603 -32 213.333 -32Q200.063 -32 190.72 -22.6130000000001Q181.333 -13.269 181.333 0V42.667Q181.333 55.937 190.72 65.28Q200.064 74.6669999999999 213.333 74.6669999999999Q226.603 74.6669999999999 235.947 65.28Q245.333 55.9359999999999 245.333 42.6669999999999zM544 768V42.667Q544 29.3970000000001 534.613 20.053Q525.269 10.667 512 10.667Q498.73 10.667 489.387 20.053Q480 29.3970000000001 480 42.667V768Q480 781.27 489.387 790.613Q498.73 800 512 800Q525.27 800 534.613 790.613Q544 781.27 544 768zM362.667 266.6670000000001H277.333Q264.063 266.6670000000001 254.72 276.053Q245.333 285.3970000000001 245.333 298.6670000000001Q245.333 311.937 254.72 321.28Q264.064 330.6669999999999 277.333 330.6669999999999H362.667Q375.937 330.6669999999999 385.28 321.28Q394.667 311.9359999999999 394.667 298.6669999999999Q394.667 285.397 385.28 276.0529999999999Q375.936 266.6669999999999 362.667 266.6669999999999z" />
    <glyph glyph-name="group4"
      unicode="&#xE007;"
      horiz-adv-x="1024" d="M512 394.667H128Q114.73 394.667 105.387 404.053Q96 413.397 96 426.667Q96 439.937 105.387 449.28Q114.731 458.667 128 458.667H512Q525.27 458.667 534.613 449.28Q544 439.936 544 426.667Q544 413.397 534.613 404.053Q525.269 394.667 512 394.667zM213.333 800H810.6669999999999Q859.2639999999999 800 893.6529999999999 765.653Q928 731.263 928 682.667V128Q928 79.403 893.653 45.013Q859.263 10.667 810.667 10.667H213.333Q96 10.667 96 128V682.667Q96 731.264 130.347 765.653Q164.737 800 213.333 800zM213.333 736Q160 736 160 682.667V128Q160 74.667 213.333 74.667H810.6669999999999Q864 74.667 864 128V682.667Q864 736 810.667 736zM842.6669999999999 42.667V0Q842.6669999999999 -13.27 833.28 -22.6130000000001Q823.936 -32 810.667 -32Q797.397 -32 788.053 -22.6130000000001Q778.667 -13.269 778.667 0V42.667Q778.667 55.937 788.053 65.28Q797.397 74.6669999999999 810.667 74.6669999999999Q823.937 74.6669999999999 833.28 65.28Q842.6669999999999 55.9359999999999 842.6669999999999 42.6669999999999zM245.333 42.667V0Q245.333 -13.27 235.947 -22.6130000000001Q226.603 -32 213.333 -32Q200.063 -32 190.72 -22.6130000000001Q181.333 -13.269 181.333 0V42.667Q181.333 55.937 190.72 65.28Q200.064 74.6669999999999 213.333 74.6669999999999Q226.603 74.6669999999999 235.947 65.28Q245.333 55.9359999999999 245.333 42.6669999999999zM544 768V42.667Q544 29.3970000000001 534.613 20.053Q525.269 10.667 512 10.667Q498.73 10.667 489.387 20.053Q480 29.3970000000001 480 42.667V768Q480 781.27 489.387 790.613Q498.73 800 512 800Q525.27 800 534.613 790.613Q544 781.27 544 768zM362.667 266.6670000000001H277.333Q264.063 266.6670000000001 254.72 276.053Q245.333 285.3970000000001 245.333 298.6670000000001Q245.333 311.937 254.72 321.28Q264.064 330.6669999999999 277.333 330.6669999999999H362.667Q375.937 330.6669999999999 385.28 321.28Q394.667 311.9359999999999 394.667 298.6669999999999Q394.667 285.397 385.28 276.0529999999999Q375.936 266.6669999999999 362.667 266.6669999999999z" />
    <glyph glyph-name="group4-1"
      unicode="&#x67;&#x72;&#x6F;&#x75;&#x70;&#x34;"
      horiz-adv-x="1024" d="M512 394.667H128Q114.73 394.667 105.387 404.053Q96 413.397 96 426.667Q96 439.937 105.387 449.28Q114.731 458.667 128 458.667H512Q525.27 458.667 534.613 449.28Q544 439.936 544 426.667Q544 413.397 534.613 404.053Q525.269 394.667 512 394.667zM213.333 800H810.6669999999999Q859.2639999999999 800 893.6529999999999 765.653Q928 731.263 928 682.667V128Q928 79.403 893.653 45.013Q859.263 10.667 810.667 10.667H213.333Q96 10.667 96 128V682.667Q96 731.264 130.347 765.653Q164.737 800 213.333 800zM213.333 736Q160 736 160 682.667V128Q160 74.667 213.333 74.667H810.6669999999999Q864 74.667 864 128V682.667Q864 736 810.667 736zM842.6669999999999 42.667V0Q842.6669999999999 -13.27 833.28 -22.6130000000001Q823.936 -32 810.667 -32Q797.397 -32 788.053 -22.6130000000001Q778.667 -13.269 778.667 0V42.667Q778.667 55.937 788.053 65.28Q797.397 74.6669999999999 810.667 74.6669999999999Q823.937 74.6669999999999 833.28 65.28Q842.6669999999999 55.9359999999999 842.6669999999999 42.6669999999999zM245.333 42.667V0Q245.333 -13.27 235.947 -22.6130000000001Q226.603 -32 213.333 -32Q200.063 -32 190.72 -22.6130000000001Q181.333 -13.269 181.333 0V42.667Q181.333 55.937 190.72 65.28Q200.064 74.6669999999999 213.333 74.6669999999999Q226.603 74.6669999999999 235.947 65.28Q245.333 55.9359999999999 245.333 42.6669999999999zM544 768V42.667Q544 29.3970000000001 534.613 20.053Q525.269 10.667 512 10.667Q498.73 10.667 489.387 20.053Q480 29.3970000000001 480 42.667V768Q480 781.27 489.387 790.613Q498.73 800 512 800Q525.27 800 534.613 790.613Q544 781.27 544 768zM362.667 266.6670000000001H277.333Q264.063 266.6670000000001 254.72 276.053Q245.333 285.3970000000001 245.333 298.6670000000001Q245.333 311.937 254.72 321.28Q264.064 330.6669999999999 277.333 330.6669999999999H362.667Q375.937 330.6669999999999 385.28 321.28Q394.667 311.9359999999999 394.667 298.6669999999999Q394.667 285.397 385.28 276.0529999999999Q375.936 266.6669999999999 362.667 266.6669999999999z" />
    <glyph glyph-name="group3"
      unicode="&#xE008;"
      horiz-adv-x="1024" d="M149.333 800H874.6669999999999Q970.667 800 970.667 704Q970.667 664.235 942.5489999999998 636.117Q914.43 608 874.666 608H149.333Q109.568 608 81.451 636.117Q53.334 664.235 53.334 704Q53.334 800 149.334 800zM149.333 736Q133.333 736 125.355 727.98Q117.333 720 117.333 704Q117.333 690.73 126.72 681.387Q136.064 672 149.333 672H874.6669999999999Q906.667 672 906.667 704T874.6669999999999 736zM405.333 501.333H618.6669999999999Q714.6669999999999 501.333 714.6669999999999 405.333T618.6669999999999 309.333H405.3330000000001Q309.3330000000001 309.333 309.3330000000001 405.333T405.3330000000001 501.333zM405.333 437.333Q373.333 437.333 373.333 405.333T405.333 373.333H618.6669999999999Q650.6669999999999 373.333 650.6669999999999 405.333T618.6669999999999 437.333zM480 8.833V341.333Q480 354.603 489.387 363.947Q498.731 373.333 512 373.333Q525.27 373.333 534.613 363.947Q544 354.603 544 341.333V8.833Q544 -4.437 534.613 -13.8240000000001Q525.269 -23.1680000000001 512 -23.1680000000001Q498.73 -23.1680000000001 489.387 -13.8240000000001Q480 -4.437 480 8.832zM384 40.833H640Q653.27 40.833 662.613 31.4449999999999Q672 22.0599999999999 672 8.832Q672 -4.438 662.613 -13.824Q653.269 -23.168 640 -23.168H384Q370.73 -23.168 361.387 -13.824Q352 -4.437 352 8.832Q352 22.059 361.387 31.4449999999999Q370.731 40.8319999999999 384 40.8319999999999zM821.333 0V640Q821.333 653.27 830.72 662.613Q840.064 672 853.333 672Q866.603 672 875.947 662.613Q885.333 653.269 885.333 640V0Q885.333 -13.27 875.947 -22.6130000000001Q866.603 -32 853.333 -32Q840.063 -32 830.72 -22.6130000000001Q821.3330000000001 -13.269 821.3330000000001 0zM138.6669999999999 0V640Q138.6669999999999 653.27 148.0529999999999 662.613Q157.397 672 170.667 672Q183.937 672 193.28 662.613Q202.667 653.269 202.667 640V0Q202.667 -13.27 193.28 -22.6130000000001Q183.936 -32 170.667 -32Q157.397 -32 148.053 -22.6130000000001Q138.667 -13.269 138.667 0z" />
    <glyph glyph-name="group3-1"
      unicode="&#x67;&#x72;&#x6F;&#x75;&#x70;&#x33;"
      horiz-adv-x="1024" d="M149.333 800H874.6669999999999Q970.667 800 970.667 704Q970.667 664.235 942.5489999999998 636.117Q914.43 608 874.666 608H149.333Q109.568 608 81.451 636.117Q53.334 664.235 53.334 704Q53.334 800 149.334 800zM149.333 736Q133.333 736 125.355 727.98Q117.333 720 117.333 704Q117.333 690.73 126.72 681.387Q136.064 672 149.333 672H874.6669999999999Q906.667 672 906.667 704T874.6669999999999 736zM405.333 501.333H618.6669999999999Q714.6669999999999 501.333 714.6669999999999 405.333T618.6669999999999 309.333H405.3330000000001Q309.3330000000001 309.333 309.3330000000001 405.333T405.3330000000001 501.333zM405.333 437.333Q373.333 437.333 373.333 405.333T405.333 373.333H618.6669999999999Q650.6669999999999 373.333 650.6669999999999 405.333T618.6669999999999 437.333zM480 8.833V341.333Q480 354.603 489.387 363.947Q498.731 373.333 512 373.333Q525.27 373.333 534.613 363.947Q544 354.603 544 341.333V8.833Q544 -4.437 534.613 -13.8240000000001Q525.269 -23.1680000000001 512 -23.1680000000001Q498.73 -23.1680000000001 489.387 -13.8240000000001Q480 -4.437 480 8.832zM384 40.833H640Q653.27 40.833 662.613 31.4449999999999Q672 22.0599999999999 672 8.832Q672 -4.438 662.613 -13.824Q653.269 -23.168 640 -23.168H384Q370.73 -23.168 361.387 -13.824Q352 -4.437 352 8.832Q352 22.059 361.387 31.4449999999999Q370.731 40.8319999999999 384 40.8319999999999zM821.333 0V640Q821.333 653.27 830.72 662.613Q840.064 672 853.333 672Q866.603 672 875.947 662.613Q885.333 653.269 885.333 640V0Q885.333 -13.27 875.947 -22.6130000000001Q866.603 -32 853.333 -32Q840.063 -32 830.72 -22.6130000000001Q821.3330000000001 -13.269 821.3330000000001 0zM138.6669999999999 0V640Q138.6669999999999 653.27 148.0529999999999 662.613Q157.397 672 170.667 672Q183.937 672 193.28 662.613Q202.667 653.269 202.667 640V0Q202.667 -13.27 193.28 -22.6130000000001Q183.936 -32 170.667 -32Q157.397 -32 148.053 -22.6130000000001Q138.667 -13.269 138.667 0z" />
    <glyph glyph-name="group2"
      unicode="&#xE009;"
      horiz-adv-x="1024" d="M170.667 416H853.3330000000001Q970.6670000000001 416 970.6670000000001 298.6670000000001V128Q970.6670000000001 97.067 948.7790000000002 75.22Q926.9320000000002 53.3330000000001 895.9990000000001 53.3330000000001H128Q53.333 53.3330000000001 53.333 128.0000000000001V298.6670000000001Q53.333 416 170.667 416zM170.667 352Q148.565 352 132.949 336.384Q117.332 320.7680000000001 117.332 298.6670000000001V128Q117.332 117.333 127.999 117.333H895.999Q906.666 117.333 906.666 128V298.6670000000001Q906.666 352 853.3320000000001 352zM138.667 384V597.3330000000001Q138.667 757.3330000000001 298.6670000000001 757.3330000000001H725.3330000000001Q885.3330000000001 757.3330000000001 885.3330000000001 597.3330000000001V384Q885.3330000000001 370.73 875.9470000000001 361.387Q866.603 352 853.333 352Q840.063 352 830.72 361.387Q821.3330000000001 370.731 821.3330000000001 384V597.3330000000001Q821.3330000000001 693.3330000000001 725.3330000000001 693.3330000000001H298.667Q202.667 693.3330000000001 202.667 597.3330000000001V384Q202.667 370.73 193.28 361.387Q183.936 352 170.667 352Q157.397 352 148.053 361.387Q138.667 370.731 138.667 384zM928 85.333V0Q928 -13.27 918.613 -22.6130000000001Q909.27 -32 896 -32Q882.73 -32 873.387 -22.6130000000001Q864 -13.27 864 0V85.333Q864 98.603 873.387 107.947Q882.731 117.333 896 117.333Q909.27 117.333 918.613 107.947Q928 98.603 928 85.333zM160 85.333V0Q160 -13.27 150.613 -22.6130000000001Q141.27 -32 128 -32Q114.73 -32 105.387 -22.6130000000001Q96 -13.27 96 0V85.333Q96 98.603 105.387 107.947Q114.731 117.333 128 117.333Q141.27 117.333 150.613 107.947Q160 98.603 160 85.333zM362.6670000000001 586.6669999999999H448Q544 586.6669999999999 544 490.667V448Q544 408.235 515.883 380.117Q487.765 352 448 352H362.6670000000001Q322.901 352 294.7840000000001 380.117Q266.6670000000001 408.235 266.6670000000001 448V490.6669999999999Q266.6670000000001 586.6669999999999 362.6670000000001 586.6669999999999zM362.6670000000001 522.6669999999999Q330.6670000000001 522.6669999999999 330.6670000000001 490.667V448Q330.6670000000001 416 362.6670000000001 416H448Q480 416 480 448V490.667Q480 522.667 448 522.667zM576 586.6669999999999H661.333Q757.333 586.6669999999999 757.333 490.667V448Q757.333 408.235 729.216 380.117Q701.1 352 661.333 352H576Q536.235 352 508.117 380.117Q480 408.235 480 448V490.667Q480 586.667 576 586.667zM576 522.6669999999999Q544 522.6669999999999 544 490.667V448Q544 416 576 416H661.333Q693.333 416 693.333 448V490.667Q693.333 522.667 661.333 522.667z" />
    <glyph glyph-name="group2-1"
      unicode="&#x67;&#x72;&#x6F;&#x75;&#x70;&#x32;"
      horiz-adv-x="1024" d="M170.667 416H853.3330000000001Q970.6670000000001 416 970.6670000000001 298.6670000000001V128Q970.6670000000001 97.067 948.7790000000002 75.22Q926.9320000000002 53.3330000000001 895.9990000000001 53.3330000000001H128Q53.333 53.3330000000001 53.333 128.0000000000001V298.6670000000001Q53.333 416 170.667 416zM170.667 352Q148.565 352 132.949 336.384Q117.332 320.7680000000001 117.332 298.6670000000001V128Q117.332 117.333 127.999 117.333H895.999Q906.666 117.333 906.666 128V298.6670000000001Q906.666 352 853.3320000000001 352zM138.667 384V597.3330000000001Q138.667 757.3330000000001 298.6670000000001 757.3330000000001H725.3330000000001Q885.3330000000001 757.3330000000001 885.3330000000001 597.3330000000001V384Q885.3330000000001 370.73 875.9470000000001 361.387Q866.603 352 853.333 352Q840.063 352 830.72 361.387Q821.3330000000001 370.731 821.3330000000001 384V597.3330000000001Q821.3330000000001 693.3330000000001 725.3330000000001 693.3330000000001H298.667Q202.667 693.3330000000001 202.667 597.3330000000001V384Q202.667 370.73 193.28 361.387Q183.936 352 170.667 352Q157.397 352 148.053 361.387Q138.667 370.731 138.667 384zM928 85.333V0Q928 -13.27 918.613 -22.6130000000001Q909.27 -32 896 -32Q882.73 -32 873.387 -22.6130000000001Q864 -13.27 864 0V85.333Q864 98.603 873.387 107.947Q882.731 117.333 896 117.333Q909.27 117.333 918.613 107.947Q928 98.603 928 85.333zM160 85.333V0Q160 -13.27 150.613 -22.6130000000001Q141.27 -32 128 -32Q114.73 -32 105.387 -22.6130000000001Q96 -13.27 96 0V85.333Q96 98.603 105.387 107.947Q114.731 117.333 128 117.333Q141.27 117.333 150.613 107.947Q160 98.603 160 85.333zM362.6670000000001 586.6669999999999H448Q544 586.6669999999999 544 490.667V448Q544 408.235 515.883 380.117Q487.765 352 448 352H362.6670000000001Q322.901 352 294.7840000000001 380.117Q266.6670000000001 408.235 266.6670000000001 448V490.6669999999999Q266.6670000000001 586.6669999999999 362.6670000000001 586.6669999999999zM362.6670000000001 522.6669999999999Q330.6670000000001 522.6669999999999 330.6670000000001 490.667V448Q330.6670000000001 416 362.6670000000001 416H448Q480 416 480 448V490.667Q480 522.667 448 522.667zM576 586.6669999999999H661.333Q757.333 586.6669999999999 757.333 490.667V448Q757.333 408.235 729.216 380.117Q701.1 352 661.333 352H576Q536.235 352 508.117 380.117Q480 408.235 480 448V490.667Q480 586.667 576 586.667zM576 522.6669999999999Q544 522.6669999999999 544 490.667V448Q544 416 576 416H661.333Q693.333 416 693.333 448V490.667Q693.333 522.667 661.333 522.667z" />
    <glyph glyph-name="group1"
      unicode="&#xE00A;"
      horiz-adv-x="1024" d="M138.667 426.667V554.6669999999999Q138.667 603.2639999999999 173.013 637.653Q207.403 672 256 672H768Q885.333 672 885.333 554.667V426.6670000000001Q885.333 413.3970000000001 875.947 404.0530000000001Q866.603 394.6670000000001 853.333 394.6670000000001Q840.063 394.6670000000001 830.72 404.0530000000001Q821.3330000000001 413.3970000000001 821.3330000000001 426.6670000000001V554.667Q821.333 608 768 608H256Q233.9 608 218.283 592.384Q202.667 576.768 202.667 554.667V426.6670000000001Q202.667 413.3970000000001 193.28 404.0530000000001Q183.936 394.6670000000001 170.667 394.6670000000001Q157.397 394.6670000000001 148.053 404.0530000000001Q138.667 413.3970000000001 138.667 426.6670000000001zM128 53.333Q97.067 53.333 75.22 75.221Q53.334 97.068 53.334 128V384Q53.334 458.667 128.001 458.667H213.334Q288 458.667 288 384V330.6670000000001H736V384Q736 458.667 810.667 458.667H896Q970.667 458.667 970.667 384V128Q970.667 97.067 948.779 75.22Q926.932 53.3330000000001 895.999 53.3330000000001zM128 117.333H896Q906.667 117.333 906.667 128V384Q906.667 394.667 896 394.667H810.667Q800 394.667 800 384V298.6670000000001Q800 285.3970000000001 790.613 276.053Q781.269 266.6670000000001 768 266.6670000000001H256Q242.73 266.6670000000001 233.387 276.053Q224 285.3970000000001 224 298.6670000000001V384Q224 394.667 213.333 394.667H128Q117.333 394.667 117.333 384V128Q117.333 117.333 128 117.333zM138.667 0V85.333Q138.667 98.603 148.053 107.947Q157.397 117.333 170.667 117.333Q183.937 117.333 193.28 107.947Q202.667 98.603 202.667 85.333V0Q202.667 -13.27 193.28 -22.6130000000001Q183.936 -32 170.667 -32Q157.397 -32 148.053 -22.6130000000001Q138.667 -13.269 138.667 0zM864 0V85.333Q864 98.603 873.387 107.947Q882.731 117.333 896 117.333Q909.27 117.333 918.613 107.947Q928 98.603 928 85.333V0Q928 -13.27 918.613 -22.6130000000001Q909.27 -32 896 -32Q882.73 -32 873.387 -22.6130000000001Q864 -13.27 864 0z" />
    <glyph glyph-name="group1-1"
      unicode="&#x67;&#x72;&#x6F;&#x75;&#x70;&#x31;"
      horiz-adv-x="1024" d="M138.667 426.667V554.6669999999999Q138.667 603.2639999999999 173.013 637.653Q207.403 672 256 672H768Q885.333 672 885.333 554.667V426.6670000000001Q885.333 413.3970000000001 875.947 404.0530000000001Q866.603 394.6670000000001 853.333 394.6670000000001Q840.063 394.6670000000001 830.72 404.0530000000001Q821.3330000000001 413.3970000000001 821.3330000000001 426.6670000000001V554.667Q821.333 608 768 608H256Q233.9 608 218.283 592.384Q202.667 576.768 202.667 554.667V426.6670000000001Q202.667 413.3970000000001 193.28 404.0530000000001Q183.936 394.6670000000001 170.667 394.6670000000001Q157.397 394.6670000000001 148.053 404.0530000000001Q138.667 413.3970000000001 138.667 426.6670000000001zM128 53.333Q97.067 53.333 75.22 75.221Q53.334 97.068 53.334 128V384Q53.334 458.667 128.001 458.667H213.334Q288 458.667 288 384V330.6670000000001H736V384Q736 458.667 810.667 458.667H896Q970.667 458.667 970.667 384V128Q970.667 97.067 948.779 75.22Q926.932 53.3330000000001 895.999 53.3330000000001zM128 117.333H896Q906.667 117.333 906.667 128V384Q906.667 394.667 896 394.667H810.667Q800 394.667 800 384V298.6670000000001Q800 285.3970000000001 790.613 276.053Q781.269 266.6670000000001 768 266.6670000000001H256Q242.73 266.6670000000001 233.387 276.053Q224 285.3970000000001 224 298.6670000000001V384Q224 394.667 213.333 394.667H128Q117.333 394.667 117.333 384V128Q117.333 117.333 128 117.333zM138.667 0V85.333Q138.667 98.603 148.053 107.947Q157.397 117.333 170.667 117.333Q183.937 117.333 193.28 107.947Q202.667 98.603 202.667 85.333V0Q202.667 -13.27 193.28 -22.6130000000001Q183.936 -32 170.667 -32Q157.397 -32 148.053 -22.6130000000001Q138.667 -13.269 138.667 0zM864 0V85.333Q864 98.603 873.387 107.947Q882.731 117.333 896 117.333Q909.27 117.333 918.613 107.947Q928 98.603 928 85.333V0Q928 -13.27 918.613 -22.6130000000001Q909.27 -32 896 -32Q882.73 -32 873.387 -22.6130000000001Q864 -13.27 864 0z" />
    <glyph glyph-name="grosup"
      unicode="&#xE00B;"
      horiz-adv-x="1024" d="M640.213 725.547Q693.333 672.427 693.333 597.333Q693.333 522.24 640.213 469.12Q587.093 416 512 416Q436.907 416 383.7870000000001 469.12Q330.6670000000001 522.24 330.6670000000001 597.333Q330.6670000000001 672.4269999999999 383.7870000000001 725.547Q436.9070000000001 778.6669999999999 512 778.6669999999999Q587.093 778.6669999999999 640.213 725.5889999999999zM594.987 680.3199999999999Q560.597 714.667 512 714.667Q463.403 714.667 429.0130000000001 680.3199999999999Q394.6670000000001 645.9300000000001 394.6670000000001 597.333Q394.6670000000001 548.736 429.0130000000001 514.347Q512 431.403 594.9870000000001 514.347Q677.931 597.333 594.9870000000001 680.3199999999999zM138.667 106.6669999999999Q138.667 218.3249999999999 260.48 289.2369999999999Q367.7 351.66 512 351.66T763.52 289.237Q885.333 218.3249999999999 885.333 106.6669999999999V64Q885.333 -10.667 810.6669999999999 -10.667H213.333Q182.4 -10.667 160.555 11.221Q138.667 33.068 138.667 64.001zM202.667 106.6669999999999V64Q202.667 53.333 213.333 53.333H810.6669999999999Q821.333 53.333 821.333 64V106.667Q821.333 181.547 731.3489999999999 233.9410000000001Q639.0189999999999 287.6610000000001 511.9989999999999 287.6610000000001T292.6489999999999 233.9410000000001Q202.6659999999999 181.548 202.6659999999999 106.668z" />
    <glyph glyph-name="grosup-1"
      unicode="&#x67;&#x72;&#x6F;&#x73;&#x75;&#x70;"
      horiz-adv-x="1024" d="M640.213 725.547Q693.333 672.427 693.333 597.333Q693.333 522.24 640.213 469.12Q587.093 416 512 416Q436.907 416 383.7870000000001 469.12Q330.6670000000001 522.24 330.6670000000001 597.333Q330.6670000000001 672.4269999999999 383.7870000000001 725.547Q436.9070000000001 778.6669999999999 512 778.6669999999999Q587.093 778.6669999999999 640.213 725.5889999999999zM594.987 680.3199999999999Q560.597 714.667 512 714.667Q463.403 714.667 429.0130000000001 680.3199999999999Q394.6670000000001 645.9300000000001 394.6670000000001 597.333Q394.6670000000001 548.736 429.0130000000001 514.347Q512 431.403 594.9870000000001 514.347Q677.931 597.333 594.9870000000001 680.3199999999999zM138.667 106.6669999999999Q138.667 218.3249999999999 260.48 289.2369999999999Q367.7 351.66 512 351.66T763.52 289.237Q885.333 218.3249999999999 885.333 106.6669999999999V64Q885.333 -10.667 810.6669999999999 -10.667H213.333Q182.4 -10.667 160.555 11.221Q138.667 33.068 138.667 64.001zM202.667 106.6669999999999V64Q202.667 53.333 213.333 53.333H810.6669999999999Q821.333 53.333 821.333 64V106.667Q821.333 181.547 731.3489999999999 233.9410000000001Q639.0189999999999 287.6610000000001 511.9989999999999 287.6610000000001T292.6489999999999 233.9410000000001Q202.6659999999999 181.548 202.6659999999999 106.668z" />
    <glyph glyph-name="store-shop-search"
      unicode="&#xE00C;"
      horiz-adv-x="1024" d="M426.6600000000001 -29.86H128C110.94 -29.86 93.86 -17.0600000000001 93.86 4.26C93.86 25.6 106.66 38.4 128 38.4H426.6600000000001C443.74 38.4 460.8 25.6 460.8 4.26C460.8 -17.0600000000001 443.74 -29.86 426.6600000000001 -29.86zM699.74 -25.6C665.6 -25.6 627.2 -17.0600000000001 597.34 4.26C554.6600000000001 34.14 524.8000000000001 81.06 520.5400000000001 136.54C516.2600000000001 187.74 533.34 238.94 571.7400000000001 277.3399999999999C605.8600000000001 311.4599999999999 648.5400000000001 328.54 699.7400000000001 328.54S793.6000000000001 311.4599999999999 827.7400000000001 277.3399999999999C866.1400000000001 238.94 883.2000000000002 187.7399999999999 878.9400000000002 136.54C874.6600000000002 85.3399999999999 844.8000000000002 34.14 802.1400000000002 4.26C772.2600000000002 -17.0600000000001 738.1400000000002 -25.6 699.7400000000002 -25.6zM699.74 264.54C669.86 264.54 640 251.74 618.66 230.4C593.06 204.8 584.54 174.94 584.54 140.8C588.8 106.66 605.86 76.8 635.74 55.4599999999999C674.14 29.8599999999999 725.34 29.8599999999999 763.74 55.4599999999999C793.6 76.8 810.66 106.66 814.94 140.8C819.2 174.94 806.4000000000001 209.06 780.8000000000001 230.4C759.46 256 729.6 264.54 699.74 264.54zM896 -76.7999999999999C887.46 -76.7999999999999 878.94 -72.54 874.66 -68.26L785.06 21.34C772.26 34.14 772.26 55.46 785.06 68.26C797.8599999999999 81.06 819.1999999999999 81.06 832 68.26L921.6 -21.34C934.4 -34.14 934.4 -55.46 921.6 -68.26C913.06 -72.54 904.54 -76.7999999999999 896 -76.7999999999999zM179.2000000000001 -29.8599999999999C162.1400000000001 -29.8599999999999 145.0600000000001 -17.0599999999999 145.0600000000001 4.2600000000001V435.2C145.0600000000001 452.26 157.8600000000001 469.34 179.2000000000001 469.34S213.34 452.26 213.34 435.2V4.26C213.34 -12.8 196.2600000000001 -29.86 179.2000000000001 -29.86zM840.5400000000001 405.3400000000001C797.8600000000001 405.3400000000001 755.2 422.4000000000001 729.6000000000001 452.2600000000001C704.0000000000001 422.4000000000001 665.6000000000001 405.3400000000001 618.6600000000001 405.3400000000001C576.0000000000001 405.3400000000001 533.3400000000001 422.4000000000001 507.7400000000001 452.2600000000001C482.14 422.4000000000001 443.7400000000001 405.3400000000001 396.8000000000001 405.3400000000001C354.1400000000001 405.3400000000001 311.4600000000001 422.4000000000001 285.8600000000001 452.2600000000001C260.2600000000001 422.4000000000001 221.8600000000001 405.3400000000001 174.9400000000001 405.3400000000001C128.0000000000001 405.3400000000001 85.3400000000001 430.9400000000001 64.0000000000001 469.3400000000001C51.2000000000001 503.4600000000001 46.9400000000001 546.1400000000001 68.2600000000001 584.5400000000001L140.8 729.6C162.14 772.26 209.06 802.14 260.26 802.14H768C819.2 802.14 866.14 772.26 887.46 729.6L960 584.54C981.34 546.1400000000001 977.06 503.46 955.74 465.06C930.14 426.6600000000001 887.46 405.3400000000001 840.54 405.3400000000001zM260.26 733.86C234.66 733.86 209.06 721.06 200.54 699.74L123.74 554.66C115.2 537.5999999999999 115.2 516.26 128 499.2C136.54 482.14 157.86 469.34 183.46 469.34C226.14 469.34 260.26 494.94 260.26 529.06C260.26 546.1399999999999 273.06 563.1999999999999 294.4 563.1999999999999S328.54 550.3999999999999 328.54 529.06C328.54 494.9399999999999 362.66 465.0599999999999 405.34 465.0599999999999C448 465.0599999999999 482.14 494.9399999999999 482.14 529.06C482.14 546.1399999999999 494.94 563.1999999999999 516.26 563.1999999999999C537.6 563.1999999999999 550.4 550.3999999999999 550.4 529.06C550.4 494.9399999999999 584.54 465.0599999999999 627.1999999999999 465.0599999999999S703.9999999999999 494.9399999999999 703.9999999999999 529.06C703.9999999999999 546.1399999999999 716.7999999999998 563.1999999999999 738.1399999999999 563.1999999999999C759.4599999999999 563.1999999999999 772.2599999999999 550.3999999999999 772.2599999999999 529.06C772.2599999999999 494.9399999999999 806.3999999999999 465.0599999999999 849.0599999999998 465.0599999999999C874.6599999999999 465.0599999999999 895.9999999999998 477.86 908.7999999999998 494.9399999999999C917.3399999999998 511.9999999999999 921.5999999999998 533.3399999999999 913.0599999999998 550.3999999999999L840.5399999999998 695.4599999999999C827.7399999999999 716.8 806.3999999999999 729.5999999999999 780.7999999999998 729.5999999999999H260.26V733.8599999999999z" />
    <glyph glyph-name="store-shop-search-1"
      unicode="&#x73;&#x74;&#x6F;&#x72;&#x65;&#x5F;&#x73;&#x68;&#x6F;&#x70;&#x5F;&#x73;&#x65;&#x61;&#x72;&#x63;&#x68;"
      horiz-adv-x="1024" d="M426.6600000000001 -29.86H128C110.94 -29.86 93.86 -17.0600000000001 93.86 4.26C93.86 25.6 106.66 38.4 128 38.4H426.6600000000001C443.74 38.4 460.8 25.6 460.8 4.26C460.8 -17.0600000000001 443.74 -29.86 426.6600000000001 -29.86zM699.74 -25.6C665.6 -25.6 627.2 -17.0600000000001 597.34 4.26C554.6600000000001 34.14 524.8000000000001 81.06 520.5400000000001 136.54C516.2600000000001 187.74 533.34 238.94 571.7400000000001 277.3399999999999C605.8600000000001 311.4599999999999 648.5400000000001 328.54 699.7400000000001 328.54S793.6000000000001 311.4599999999999 827.7400000000001 277.3399999999999C866.1400000000001 238.94 883.2000000000002 187.7399999999999 878.9400000000002 136.54C874.6600000000002 85.3399999999999 844.8000000000002 34.14 802.1400000000002 4.26C772.2600000000002 -17.0600000000001 738.1400000000002 -25.6 699.7400000000002 -25.6zM699.74 264.54C669.86 264.54 640 251.74 618.66 230.4C593.06 204.8 584.54 174.94 584.54 140.8C588.8 106.66 605.86 76.8 635.74 55.4599999999999C674.14 29.8599999999999 725.34 29.8599999999999 763.74 55.4599999999999C793.6 76.8 810.66 106.66 814.94 140.8C819.2 174.94 806.4000000000001 209.06 780.8000000000001 230.4C759.46 256 729.6 264.54 699.74 264.54zM896 -76.7999999999999C887.46 -76.7999999999999 878.94 -72.54 874.66 -68.26L785.06 21.34C772.26 34.14 772.26 55.46 785.06 68.26C797.8599999999999 81.06 819.1999999999999 81.06 832 68.26L921.6 -21.34C934.4 -34.14 934.4 -55.46 921.6 -68.26C913.06 -72.54 904.54 -76.7999999999999 896 -76.7999999999999zM179.2000000000001 -29.8599999999999C162.1400000000001 -29.8599999999999 145.0600000000001 -17.0599999999999 145.0600000000001 4.2600000000001V435.2C145.0600000000001 452.26 157.8600000000001 469.34 179.2000000000001 469.34S213.34 452.26 213.34 435.2V4.26C213.34 -12.8 196.2600000000001 -29.86 179.2000000000001 -29.86zM840.5400000000001 405.3400000000001C797.8600000000001 405.3400000000001 755.2 422.4000000000001 729.6000000000001 452.2600000000001C704.0000000000001 422.4000000000001 665.6000000000001 405.3400000000001 618.6600000000001 405.3400000000001C576.0000000000001 405.3400000000001 533.3400000000001 422.4000000000001 507.7400000000001 452.2600000000001C482.14 422.4000000000001 443.7400000000001 405.3400000000001 396.8000000000001 405.3400000000001C354.1400000000001 405.3400000000001 311.4600000000001 422.4000000000001 285.8600000000001 452.2600000000001C260.2600000000001 422.4000000000001 221.8600000000001 405.3400000000001 174.9400000000001 405.3400000000001C128.0000000000001 405.3400000000001 85.3400000000001 430.9400000000001 64.0000000000001 469.3400000000001C51.2000000000001 503.4600000000001 46.9400000000001 546.1400000000001 68.2600000000001 584.5400000000001L140.8 729.6C162.14 772.26 209.06 802.14 260.26 802.14H768C819.2 802.14 866.14 772.26 887.46 729.6L960 584.54C981.34 546.1400000000001 977.06 503.46 955.74 465.06C930.14 426.6600000000001 887.46 405.3400000000001 840.54 405.3400000000001zM260.26 733.86C234.66 733.86 209.06 721.06 200.54 699.74L123.74 554.66C115.2 537.5999999999999 115.2 516.26 128 499.2C136.54 482.14 157.86 469.34 183.46 469.34C226.14 469.34 260.26 494.94 260.26 529.06C260.26 546.1399999999999 273.06 563.1999999999999 294.4 563.1999999999999S328.54 550.3999999999999 328.54 529.06C328.54 494.9399999999999 362.66 465.0599999999999 405.34 465.0599999999999C448 465.0599999999999 482.14 494.9399999999999 482.14 529.06C482.14 546.1399999999999 494.94 563.1999999999999 516.26 563.1999999999999C537.6 563.1999999999999 550.4 550.3999999999999 550.4 529.06C550.4 494.9399999999999 584.54 465.0599999999999 627.1999999999999 465.0599999999999S703.9999999999999 494.9399999999999 703.9999999999999 529.06C703.9999999999999 546.1399999999999 716.7999999999998 563.1999999999999 738.1399999999999 563.1999999999999C759.4599999999999 563.1999999999999 772.2599999999999 550.3999999999999 772.2599999999999 529.06C772.2599999999999 494.9399999999999 806.3999999999999 465.0599999999999 849.0599999999998 465.0599999999999C874.6599999999999 465.0599999999999 895.9999999999998 477.86 908.7999999999998 494.9399999999999C917.3399999999998 511.9999999999999 921.5999999999998 533.3399999999999 913.0599999999998 550.3999999999999L840.5399999999998 695.4599999999999C827.7399999999999 716.8 806.3999999999999 729.5999999999999 780.7999999999998 729.5999999999999H260.26V733.8599999999999z" />
    <glyph glyph-name="star"
      unicode="&#xE00D;"
      horiz-adv-x="1024" d="M563.328 778.88L666.88 569.9839999999999C674.688 554.24 689.728 543.3599999999999 707.136 540.864L946.24 506.304C990.08 499.968 1007.552 446.208 975.872 415.36L803.008 247.616C790.336 235.392 784.576 217.728 787.5840000000001 200.384L827.0720000000001 -29.184C835.0720000000001 -75.712 786.1760000000002 -111.232 744.2560000000001 -89.3439999999999L536.896 19.2C521.3439999999999 27.3920000000001 502.7839999999999 27.3920000000001 487.232 19.2L280.064 -89.216C238.08 -111.232 188.992 -75.648 197.0560000000001 -28.992L236.6080000000001 200.384C239.552 217.7280000000001 233.7920000000001 235.3920000000001 221.184 247.616L48.32 415.36C16.512 446.2080000000001 34.048 499.968 77.888 506.304L316.992 540.864C334.4000000000001 543.36 349.44 554.24 357.2480000000001 569.984L460.864 778.88C481.728 821.248 542.2719999999999 821.248 563.328 778.88z" />
    <glyph glyph-name="star-1"
      unicode="&#x73;&#x74;&#x61;&#x72;"
      horiz-adv-x="1024" d="M563.328 778.88L666.88 569.9839999999999C674.688 554.24 689.728 543.3599999999999 707.136 540.864L946.24 506.304C990.08 499.968 1007.552 446.208 975.872 415.36L803.008 247.616C790.336 235.392 784.576 217.728 787.5840000000001 200.384L827.0720000000001 -29.184C835.0720000000001 -75.712 786.1760000000002 -111.232 744.2560000000001 -89.3439999999999L536.896 19.2C521.3439999999999 27.3920000000001 502.7839999999999 27.3920000000001 487.232 19.2L280.064 -89.216C238.08 -111.232 188.992 -75.648 197.0560000000001 -28.992L236.6080000000001 200.384C239.552 217.7280000000001 233.7920000000001 235.3920000000001 221.184 247.616L48.32 415.36C16.512 446.2080000000001 34.048 499.968 77.888 506.304L316.992 540.864C334.4000000000001 543.36 349.44 554.24 357.2480000000001 569.984L460.864 778.88C481.728 821.248 542.2719999999999 821.248 563.328 778.88z" />
    <glyph glyph-name="search-text-loupe"
      unicode="&#xE00E;"
      horiz-adv-x="1024" d="M469.34 72.54C273.06 72.54 115.2 230.4 115.2 426.66C115.2 622.9399999999999 273.06 780.8 469.34 780.8C665.5999999999999 780.8 823.46 622.9399999999999 823.46 426.66C823.46 230.4 665.6 72.54 469.34 72.54zM469.34 716.8C311.46 716.8 179.2 588.8 179.2 426.66C179.2 264.54 307.2 136.54 469.34 136.54C627.2 136.54 759.46 264.54 759.46 426.66C759.46 588.8 627.2 716.8 469.34 716.8zM874.66 -12.8000000000001C866.14 -12.8000000000001 857.6 -8.5400000000001 853.3399999999999 -4.2600000000001L674.1399999999999 174.9399999999998C661.3399999999999 187.7399999999998 661.3399999999999 209.0599999999998 674.1399999999999 221.8599999999998C686.9399999999998 234.6599999999998 708.2599999999999 234.6599999999998 721.0599999999998 221.8599999999998L896 42.66C908.8 29.86 908.8 8.54 896 -4.26C891.74 -8.54 883.2 -12.8 874.66 -12.8zM614.4 473.6H324.26C307.2 473.6 290.14 486.4 290.14 507.74C290.14 529.06 302.94 541.86 324.26 541.86H614.4C631.4599999999999 541.86 648.54 529.06 648.54 507.74C648.54 486.4 631.4599999999999 473.6 614.4 473.6zM529.06 315.74H324.26C307.2 315.74 290.14 328.54 290.14 349.86C290.14 371.2000000000001 302.94 384 324.26 384H529.06C546.14 384 563.1999999999999 371.2000000000001 563.1999999999999 349.86C563.1999999999999 328.54 546.14 315.74 529.06 315.74z" />
    <glyph glyph-name="search-text-loupe-1"
      unicode="&#x73;&#x65;&#x61;&#x72;&#x63;&#x68;&#x5F;&#x74;&#x65;&#x78;&#x74;&#x5F;&#x6C;&#x6F;&#x75;&#x70;&#x65;"
      horiz-adv-x="1024" d="M469.34 72.54C273.06 72.54 115.2 230.4 115.2 426.66C115.2 622.9399999999999 273.06 780.8 469.34 780.8C665.5999999999999 780.8 823.46 622.9399999999999 823.46 426.66C823.46 230.4 665.6 72.54 469.34 72.54zM469.34 716.8C311.46 716.8 179.2 588.8 179.2 426.66C179.2 264.54 307.2 136.54 469.34 136.54C627.2 136.54 759.46 264.54 759.46 426.66C759.46 588.8 627.2 716.8 469.34 716.8zM874.66 -12.8000000000001C866.14 -12.8000000000001 857.6 -8.5400000000001 853.3399999999999 -4.2600000000001L674.1399999999999 174.9399999999998C661.3399999999999 187.7399999999998 661.3399999999999 209.0599999999998 674.1399999999999 221.8599999999998C686.9399999999998 234.6599999999998 708.2599999999999 234.6599999999998 721.0599999999998 221.8599999999998L896 42.66C908.8 29.86 908.8 8.54 896 -4.26C891.74 -8.54 883.2 -12.8 874.66 -12.8zM614.4 473.6H324.26C307.2 473.6 290.14 486.4 290.14 507.74C290.14 529.06 302.94 541.86 324.26 541.86H614.4C631.4599999999999 541.86 648.54 529.06 648.54 507.74C648.54 486.4 631.4599999999999 473.6 614.4 473.6zM529.06 315.74H324.26C307.2 315.74 290.14 328.54 290.14 349.86C290.14 371.2000000000001 302.94 384 324.26 384H529.06C546.14 384 563.1999999999999 371.2000000000001 563.1999999999999 349.86C563.1999999999999 328.54 546.14 315.74 529.06 315.74z" />
    <glyph glyph-name="phone-call"
      unicode="&#xE00F;"
      horiz-adv-x="1024" d="M686.94 -29.86C674.1400000000001 -29.86 665.6 -29.86 652.8000000000001 -25.6C529.0600000000001 -4.26 405.3400000000001 64 298.6600000000001 170.66C192 277.3400000000001 123.74 401.06 98.14 524.8C89.6 580.26 106.66 635.74 145.06 674.14L170.66 704C217.6 750.94 290.14 750.94 337.06 704L388.26 652.8C426.66 614.4000000000001 422.4 554.6600000000001 384 516.26L349.86 477.86C375.4600000000001 422.4000000000001 409.6 371.2000000000001 456.54 324.26C503.46 277.3400000000001 554.6600000000001 243.2000000000001 610.14 217.6L648.54 256C682.66 290.14 746.66 294.4 785.06 256L836.26 204.8C883.2 157.8599999999999 883.2 85.3399999999999 836.26 38.4L806.4 8.54C772.26 -17.0600000000001 729.6 -29.86 686.9399999999999 -29.86zM256 674.14C243.2 674.14 230.4 669.86 217.6 657.06L187.74 631.46C166.4 605.8599999999999 153.6 571.74 162.14 537.5999999999999C183.46 426.66 247.46 311.4600000000001 345.6 217.5999999999999C443.74 119.4599999999999 554.6600000000001 55.4599999999999 665.6 34.1399999999999C699.74 25.5999999999999 733.86 38.3999999999999 759.46 59.7399999999999L789.34 89.5999999999999C810.6600000000001 110.9399999999999 810.6600000000001 145.06 789.34 166.3999999999999L738.14 213.3399999999999C725.34 226.1399999999999 704 226.1399999999999 691.2 213.3399999999999L652.8000000000001 174.94C635.7400000000001 157.8599999999999 605.8600000000001 149.3399999999999 584.5400000000001 162.14C520.5400000000001 187.74 460.8000000000001 230.4 409.6000000000001 281.6C358.4000000000001 332.8000000000001 315.7400000000001 392.54 290.1400000000001 452.26C281.6000000000001 477.86 285.8600000000002 507.74 302.9400000000001 524.8L337.0600000000001 558.94C354.1400000000001 576 354.1400000000001 597.3399999999999 341.3400000000001 610.14L294.4000000000001 657.06C281.6000000000001 669.86 268.8000000000001 674.14 256.0000000000001 674.14zM678.4 516.26C669.86 516.26 661.34 520.54 657.06 524.8C631.4599999999999 550.4000000000001 597.3399999999999 563.2 558.9399999999999 563.2H554.66C537.6 563.2 524.8 576 520.54 593.06C520.54 610.14 533.3399999999999 627.2 550.4 627.2C605.86 627.2 657.06 605.86 695.46 567.46C708.26 554.66 708.26 533.3399999999999 695.46 520.54C691.2 520.54 682.6600000000001 516.26 678.4000000000001 516.26zM797.86 635.74C789.34 635.74 780.8000000000001 640 776.54 644.26C716.8 704 640 733.86 554.66 733.86C537.6 733.86 520.54 746.6600000000001 520.54 768S533.3399999999999 802.14 554.66 802.14C652.8 802.14 750.9399999999999 763.74 819.2 691.2C832 678.4 832 657.06 819.2 644.26C814.94 640 806.4000000000001 635.74 797.86 635.74zM725.34 392.54C708.26 392.54 691.2 405.3400000000001 691.2 426.6600000000001C691.2 465.06 678.4000000000001 499.2 652.8000000000001 524.8C640.0000000000001 537.6 640.0000000000001 558.94 652.8000000000001 571.74C665.6 584.54 686.94 584.54 699.74 571.74C738.14 533.34 759.46 482.14 759.46 426.66C759.46 409.6 742.4000000000001 392.54 725.34 392.54zM896 392.54C878.94 392.54 861.86 405.3400000000001 861.86 426.6600000000001C861.86 507.74 827.74 588.8 772.26 648.54C759.46 661.34 759.46 682.6600000000001 772.26 695.46C785.06 708.26 806.4 708.26 819.2 695.46C891.74 622.94 930.1400000000002 529.0600000000001 930.1400000000002 430.9400000000001C930.1400000000002 409.6000000000001 917.3400000000001 392.5400000000001 896.0000000000001 392.5400000000001z" />
    <glyph glyph-name="phone-call-1"
      unicode="&#x70;&#x68;&#x6F;&#x6E;&#x65;&#x5F;&#x63;&#x61;&#x6C;&#x6C;"
      horiz-adv-x="1024" d="M686.94 -29.86C674.1400000000001 -29.86 665.6 -29.86 652.8000000000001 -25.6C529.0600000000001 -4.26 405.3400000000001 64 298.6600000000001 170.66C192 277.3400000000001 123.74 401.06 98.14 524.8C89.6 580.26 106.66 635.74 145.06 674.14L170.66 704C217.6 750.94 290.14 750.94 337.06 704L388.26 652.8C426.66 614.4000000000001 422.4 554.6600000000001 384 516.26L349.86 477.86C375.4600000000001 422.4000000000001 409.6 371.2000000000001 456.54 324.26C503.46 277.3400000000001 554.6600000000001 243.2000000000001 610.14 217.6L648.54 256C682.66 290.14 746.66 294.4 785.06 256L836.26 204.8C883.2 157.8599999999999 883.2 85.3399999999999 836.26 38.4L806.4 8.54C772.26 -17.0600000000001 729.6 -29.86 686.9399999999999 -29.86zM256 674.14C243.2 674.14 230.4 669.86 217.6 657.06L187.74 631.46C166.4 605.8599999999999 153.6 571.74 162.14 537.5999999999999C183.46 426.66 247.46 311.4600000000001 345.6 217.5999999999999C443.74 119.4599999999999 554.6600000000001 55.4599999999999 665.6 34.1399999999999C699.74 25.5999999999999 733.86 38.3999999999999 759.46 59.7399999999999L789.34 89.5999999999999C810.6600000000001 110.9399999999999 810.6600000000001 145.06 789.34 166.3999999999999L738.14 213.3399999999999C725.34 226.1399999999999 704 226.1399999999999 691.2 213.3399999999999L652.8000000000001 174.94C635.7400000000001 157.8599999999999 605.8600000000001 149.3399999999999 584.5400000000001 162.14C520.5400000000001 187.74 460.8000000000001 230.4 409.6000000000001 281.6C358.4000000000001 332.8000000000001 315.7400000000001 392.54 290.1400000000001 452.26C281.6000000000001 477.86 285.8600000000002 507.74 302.9400000000001 524.8L337.0600000000001 558.94C354.1400000000001 576 354.1400000000001 597.3399999999999 341.3400000000001 610.14L294.4000000000001 657.06C281.6000000000001 669.86 268.8000000000001 674.14 256.0000000000001 674.14zM678.4 516.26C669.86 516.26 661.34 520.54 657.06 524.8C631.4599999999999 550.4000000000001 597.3399999999999 563.2 558.9399999999999 563.2H554.66C537.6 563.2 524.8 576 520.54 593.06C520.54 610.14 533.3399999999999 627.2 550.4 627.2C605.86 627.2 657.06 605.86 695.46 567.46C708.26 554.66 708.26 533.3399999999999 695.46 520.54C691.2 520.54 682.6600000000001 516.26 678.4000000000001 516.26zM797.86 635.74C789.34 635.74 780.8000000000001 640 776.54 644.26C716.8 704 640 733.86 554.66 733.86C537.6 733.86 520.54 746.6600000000001 520.54 768S533.3399999999999 802.14 554.66 802.14C652.8 802.14 750.9399999999999 763.74 819.2 691.2C832 678.4 832 657.06 819.2 644.26C814.94 640 806.4000000000001 635.74 797.86 635.74zM725.34 392.54C708.26 392.54 691.2 405.3400000000001 691.2 426.6600000000001C691.2 465.06 678.4000000000001 499.2 652.8000000000001 524.8C640.0000000000001 537.6 640.0000000000001 558.94 652.8000000000001 571.74C665.6 584.54 686.94 584.54 699.74 571.74C738.14 533.34 759.46 482.14 759.46 426.66C759.46 409.6 742.4000000000001 392.54 725.34 392.54zM896 392.54C878.94 392.54 861.86 405.3400000000001 861.86 426.6600000000001C861.86 507.74 827.74 588.8 772.26 648.54C759.46 661.34 759.46 682.6600000000001 772.26 695.46C785.06 708.26 806.4 708.26 819.2 695.46C891.74 622.94 930.1400000000002 529.0600000000001 930.1400000000002 430.9400000000001C930.1400000000002 409.6000000000001 917.3400000000001 392.5400000000001 896.0000000000001 392.5400000000001z" />
    <glyph glyph-name="location-pin"
      unicode="&#xE010;"
      horiz-adv-x="866.4615" d="M433.23 832.04C211.495 832.04 31.193 651.658 31.193 429.9220000000001C31.193 194.7960000000001 247.0200000000001 52.224 389.8290000000001 -42.063L414.0890000000001 -58.211C419.9190000000001 -62.071 426.5340000000001 -64.041 433.2290000000001 -64.041C439.9250000000001 -64.041 446.5420000000001 -62.071 452.371 -58.211L476.631 -42.064C619.441 52.2230000000001 835.268 194.7960000000001 835.268 429.9220000000001C835.268 651.657 654.964 832.038 433.228 832.038zM438.666 15.4399999999999L433.231 11.8149999999999L427.797 15.439C289.477 106.809 100.117 231.896 100.117 429.921C100.117 613.691 249.542 763.0360000000001 433.232 763.0360000000001S766.348 613.69 766.348 429.921C766.348 231.896 576.9879999999999 106.731 438.668 15.438zM433.231 579.27C350.918 579.27 283.885 512.315 283.885 429.923C283.885 347.6090000000001 350.918 280.655 433.232 280.655C515.547 280.655 582.579 347.6089999999999 582.579 429.923C582.579 512.315 515.5469999999999 579.269 433.233 579.269zM433.231 349.5C388.885 349.5 352.808 385.575 352.808 429.923C352.808 474.269 388.885 510.346 433.232 510.346C477.58 510.346 513.656 474.269 513.656 429.923C513.656 385.575 477.5799999999999 349.499 433.233 349.499z" />
    <glyph glyph-name="location-pin-1"
      unicode="&#x6C;&#x6F;&#x63;&#x61;&#x74;&#x69;&#x6F;&#x6E;&#x5F;&#x70;&#x69;&#x6E;"
      horiz-adv-x="866.4615" d="M433.23 832.04C211.495 832.04 31.193 651.658 31.193 429.9220000000001C31.193 194.7960000000001 247.0200000000001 52.224 389.8290000000001 -42.063L414.0890000000001 -58.211C419.9190000000001 -62.071 426.5340000000001 -64.041 433.2290000000001 -64.041C439.9250000000001 -64.041 446.5420000000001 -62.071 452.371 -58.211L476.631 -42.064C619.441 52.2230000000001 835.268 194.7960000000001 835.268 429.9220000000001C835.268 651.657 654.964 832.038 433.228 832.038zM438.666 15.4399999999999L433.231 11.8149999999999L427.797 15.439C289.477 106.809 100.117 231.896 100.117 429.921C100.117 613.691 249.542 763.0360000000001 433.232 763.0360000000001S766.348 613.69 766.348 429.921C766.348 231.896 576.9879999999999 106.731 438.668 15.438zM433.231 579.27C350.918 579.27 283.885 512.315 283.885 429.923C283.885 347.6090000000001 350.918 280.655 433.232 280.655C515.547 280.655 582.579 347.6089999999999 582.579 429.923C582.579 512.315 515.5469999999999 579.269 433.233 579.269zM433.231 349.5C388.885 349.5 352.808 385.575 352.808 429.923C352.808 474.269 388.885 510.346 433.232 510.346C477.58 510.346 513.656 474.269 513.656 429.923C513.656 385.575 477.5799999999999 349.499 433.233 349.499z" />
    <glyph glyph-name="arrow-left"
      unicode="&#xE011;"
      horiz-adv-x="1024" d="M64 336H960Q979.904 336 993.92 321.92Q1008 307.904 1008 288Q1008 268.096 993.92 254.0800000000001Q979.904 240 960 240H64Q44.096 240 30.08 254.0800000000001Q16 268.096 16 288Q16 307.904 30.08 321.92Q44.096 336 64 336zM350.08 -65.9200000000001L30.08 254.08Q16 268.096 16 288Q16 307.904 30.08 321.92Q44.096 336 64 336Q83.904 336 97.92 321.92L417.92 1.92Q432 -12.096 432 -32Q432 -51.904 417.92 -65.92Q403.904 -80 384 -80Q364.096 -80 350.08 -65.92zM417.92 574.0799999999999L97.92 254.08Q83.904 240 64 240Q44.096 240 30.08 254.0800000000001Q16 268.096 16 288Q16 307.904 30.08 321.92L350.08 641.92Q364.096 656 384 656Q403.904 656 417.92 641.92Q432 627.904 432 608Q432 588.096 417.92 574.0799999999999z" />
    <glyph glyph-name="arrow-left-1"
      unicode="&#x61;&#x72;&#x72;&#x6F;&#x77;&#x5F;&#x6C;&#x65;&#x66;&#x74;"
      horiz-adv-x="1024" d="M64 336H960Q979.904 336 993.92 321.92Q1008 307.904 1008 288Q1008 268.096 993.92 254.0800000000001Q979.904 240 960 240H64Q44.096 240 30.08 254.0800000000001Q16 268.096 16 288Q16 307.904 30.08 321.92Q44.096 336 64 336zM350.08 -65.9200000000001L30.08 254.08Q16 268.096 16 288Q16 307.904 30.08 321.92Q44.096 336 64 336Q83.904 336 97.92 321.92L417.92 1.92Q432 -12.096 432 -32Q432 -51.904 417.92 -65.92Q403.904 -80 384 -80Q364.096 -80 350.08 -65.92zM417.92 574.0799999999999L97.92 254.08Q83.904 240 64 240Q44.096 240 30.08 254.0800000000001Q16 268.096 16 288Q16 307.904 30.08 321.92L350.08 641.92Q364.096 656 384 656Q403.904 656 417.92 641.92Q432 627.904 432 608Q432 588.096 417.92 574.0799999999999z" />
    <glyph glyph-name="armchair-modern-2"
      unicode="&#xE012;"
      horiz-adv-x="1024" d="M512 51.2C443.74 51.2 379.74 55.46 311.4600000000001 64C230.4000000000001 72.54 162.1400000000001 123.74 123.7400000000001 192C85.34 260.26 85.34 345.6 119.46 418.14L221.8600000000001 622.94C281.6 733.86 388.26 797.86 512 797.86C635.74 797.86 742.4 729.6 797.86 622.94L900.26 418.14C934.4 345.6 934.4 260.26 896 192C857.6 123.74 789.34 72.54 708.26 64C644.26 59.74 580.26 51.2 512 51.2zM512 733.86C413.86 733.86 324.26 682.6600000000001 281.6 593.06L179.2 388.26C153.6 337.06 153.6 273.06 183.46 221.86C213.34 170.66 264.54 136.54 320 128C448 110.9400000000001 576 110.9400000000001 704 128C763.74 136.54 814.94 170.66 840.54 221.86C866.14 273.0600000000001 870.4 337.0600000000001 844.8 388.26L742.4 593.06C699.74 682.66 610.14 733.86 512 733.86zM512 200.54C452.26 200.54 396.8 204.8 337.06 213.3399999999999C320 217.5999999999999 307.2 230.3999999999999 307.2 247.4599999999999C307.2 264.54 324.26 277.3399999999999 341.34 277.3399999999999C452.26 264.54 563.2 264.54 674.14 277.3399999999999C691.1999999999999 281.5999999999999 708.26 268.8 708.26 247.4599999999999C712.54 230.4 699.74 213.3399999999999 678.4 213.3399999999999C627.1999999999999 204.8 571.74 200.54 512 200.54zM768 -34.1400000000001C755.2 -34.1400000000001 746.66 -25.6000000000001 738.14 -17.0600000000001L691.2 85.3399999999999C682.6600000000001 102.3999999999999 691.2 119.4599999999999 704 127.9999999999999S738.14 127.9999999999999 746.66 115.1999999999999L797.86 17.0599999999999C806.4 0 797.86 -17.0600000000001 785.0600000000001 -25.6C776.5400000000001 -29.86 772.2600000000001 -34.14 768.0000000000001 -34.14zM256 -34.1400000000001C251.74 -34.1400000000001 247.46 -34.1400000000001 243.2 -29.8600000000001C226.14 -21.3400000000001 221.86 -4.2600000000001 230.4 12.7999999999998L281.6 110.9399999999998C290.14 127.9999999999998 307.2 132.2599999999999 324.26 123.7399999999998C341.34 115.1999999999998 345.6 98.1399999999998 337.06 81.0599999999998L285.86 -17.0600000000002C277.3400000000001 -25.6000000000001 268.8 -34.1400000000002 256 -34.1400000000002z" />
    <glyph glyph-name="armchair-modern-2-1"
      unicode="&#x61;&#x72;&#x6D;&#x63;&#x68;&#x61;&#x69;&#x72;&#x5F;&#x6D;&#x6F;&#x64;&#x65;&#x72;&#x6E;&#x5F;&#x32;"
      horiz-adv-x="1024" d="M512 51.2C443.74 51.2 379.74 55.46 311.4600000000001 64C230.4000000000001 72.54 162.1400000000001 123.74 123.7400000000001 192C85.34 260.26 85.34 345.6 119.46 418.14L221.8600000000001 622.94C281.6 733.86 388.26 797.86 512 797.86C635.74 797.86 742.4 729.6 797.86 622.94L900.26 418.14C934.4 345.6 934.4 260.26 896 192C857.6 123.74 789.34 72.54 708.26 64C644.26 59.74 580.26 51.2 512 51.2zM512 733.86C413.86 733.86 324.26 682.6600000000001 281.6 593.06L179.2 388.26C153.6 337.06 153.6 273.06 183.46 221.86C213.34 170.66 264.54 136.54 320 128C448 110.9400000000001 576 110.9400000000001 704 128C763.74 136.54 814.94 170.66 840.54 221.86C866.14 273.0600000000001 870.4 337.0600000000001 844.8 388.26L742.4 593.06C699.74 682.66 610.14 733.86 512 733.86zM512 200.54C452.26 200.54 396.8 204.8 337.06 213.3399999999999C320 217.5999999999999 307.2 230.3999999999999 307.2 247.4599999999999C307.2 264.54 324.26 277.3399999999999 341.34 277.3399999999999C452.26 264.54 563.2 264.54 674.14 277.3399999999999C691.1999999999999 281.5999999999999 708.26 268.8 708.26 247.4599999999999C712.54 230.4 699.74 213.3399999999999 678.4 213.3399999999999C627.1999999999999 204.8 571.74 200.54 512 200.54zM768 -34.1400000000001C755.2 -34.1400000000001 746.66 -25.6000000000001 738.14 -17.0600000000001L691.2 85.3399999999999C682.6600000000001 102.3999999999999 691.2 119.4599999999999 704 127.9999999999999S738.14 127.9999999999999 746.66 115.1999999999999L797.86 17.0599999999999C806.4 0 797.86 -17.0600000000001 785.0600000000001 -25.6C776.5400000000001 -29.86 772.2600000000001 -34.14 768.0000000000001 -34.14zM256 -34.1400000000001C251.74 -34.1400000000001 247.46 -34.1400000000001 243.2 -29.8600000000001C226.14 -21.3400000000001 221.86 -4.2600000000001 230.4 12.7999999999998L281.6 110.9399999999998C290.14 127.9999999999998 307.2 132.2599999999999 324.26 123.7399999999998C341.34 115.1999999999998 345.6 98.1399999999998 337.06 81.0599999999998L285.86 -17.0600000000002C277.3400000000001 -25.6000000000001 268.8 -34.1400000000002 256 -34.1400000000002z" />
    <glyph glyph-name="angle-down"
      unicode="&#xE013;"
      horiz-adv-x="1024" d="M156.672 438.272L512 83.0460000000001L867.328 438.2720000000001Q878.0799999999999 449.1260000000001 892.211 454.962Q906.343 460.8000000000001 921.601 460.8000000000001Q936.859 460.8000000000001 950.991 454.9630000000001Q965.121 449.1260000000001 975.873 438.2730000000001Q986.727 427.5200000000001 992.563 413.3890000000001Q998.4 399.257 998.4 384Q998.4 368.742 992.563 354.61Q986.726 340.48 975.873 329.7280000000001L566.2729999999999 -79.872Q555.5199999999999 -90.726 541.3889999999999 -96.562Q527.257 -102.4 512 -102.4Q496.742 -102.4 482.61 -96.563Q468.48 -90.726 457.728 -79.8729999999999L48.128 329.7270000000001Q37.274 340.4800000000002 31.438 354.6110000000001Q25.6 368.7430000000001 25.6 384Q25.6 399.258 31.437 413.39Q37.274 427.52 48.127 438.272Q58.88 449.126 73.011 454.962Q87.143 460.8 102.401 460.8Q117.659 460.8 131.791 454.963Q145.921 449.1260000000001 156.673 438.273z" />
    <glyph glyph-name="angle-down-1"
      unicode="&#x61;&#x6E;&#x67;&#x6C;&#x65;&#x5F;&#x64;&#x6F;&#x77;&#x6E;"
      horiz-adv-x="1024" d="M156.672 438.272L512 83.0460000000001L867.328 438.2720000000001Q878.0799999999999 449.1260000000001 892.211 454.962Q906.343 460.8000000000001 921.601 460.8000000000001Q936.859 460.8000000000001 950.991 454.9630000000001Q965.121 449.1260000000001 975.873 438.2730000000001Q986.727 427.5200000000001 992.563 413.3890000000001Q998.4 399.257 998.4 384Q998.4 368.742 992.563 354.61Q986.726 340.48 975.873 329.7280000000001L566.2729999999999 -79.872Q555.5199999999999 -90.726 541.3889999999999 -96.562Q527.257 -102.4 512 -102.4Q496.742 -102.4 482.61 -96.563Q468.48 -90.726 457.728 -79.8729999999999L48.128 329.7270000000001Q37.274 340.4800000000002 31.438 354.6110000000001Q25.6 368.7430000000001 25.6 384Q25.6 399.258 31.437 413.39Q37.274 427.52 48.127 438.272Q58.88 449.126 73.011 454.962Q87.143 460.8 102.401 460.8Q117.659 460.8 131.791 454.963Q145.921 449.1260000000001 156.673 438.273z" />
    <glyph glyph-name="youtube-logo"
      unicode="&#xE014;"
      horiz-adv-x="1024" d="M894.08 526.677C935.125 521.301 974.336 481.407 979.328 439.807C996.992 287.275 996.992 139.3489999999999 979.328 -13.0989999999999C974.3360000000002 -54.7389999999999 935.1250000000002 -94.6759999999999 894.08 -99.9669999999999C643.883 -131.0709999999999 390.8270000000001 -131.0709999999999 140.672 -99.9669999999999C99.627 -94.6769999999999 60.372 -54.7399999999999 55.424 -13.0969999999999C37.717 139.3930000000002 37.717 287.2760000000001 55.424 439.8090000000002C60.374 481.4090000000002 99.627 521.3450000000001 140.672 526.6790000000001C390.827 557.7390000000001 643.84 557.7390000000001 894.08 526.6790000000001zM438.144 371.712V54.912L675.754 213.332z" />
    <glyph glyph-name="youtube-logo-1"
      unicode="&#x79;&#x6F;&#x75;&#x74;&#x75;&#x62;&#x65;&#x5F;&#x6C;&#x6F;&#x67;&#x6F;"
      horiz-adv-x="1024" d="M894.08 526.677C935.125 521.301 974.336 481.407 979.328 439.807C996.992 287.275 996.992 139.3489999999999 979.328 -13.0989999999999C974.3360000000002 -54.7389999999999 935.1250000000002 -94.6759999999999 894.08 -99.9669999999999C643.883 -131.0709999999999 390.8270000000001 -131.0709999999999 140.672 -99.9669999999999C99.627 -94.6769999999999 60.372 -54.7399999999999 55.424 -13.0969999999999C37.717 139.3930000000002 37.717 287.2760000000001 55.424 439.8090000000002C60.374 481.4090000000002 99.627 521.3450000000001 140.672 526.6790000000001C390.827 557.7390000000001 643.84 557.7390000000001 894.08 526.6790000000001zM438.144 371.712V54.912L675.754 213.332z" />
    <glyph glyph-name="note-text"
      unicode="&#xE015;"
      horiz-adv-x="955.7333" d="M733.867 -115.2H221.867C98.065 -115.2 29.867 -47.0020000000001 29.867 76.8V691.2C29.867 815.002 98.065 883.2 221.867 883.2H733.867C857.6669999999999 883.2 925.867 815.002 925.867 691.2V76.8C925.867 -47.0020000000001 857.6669999999999 -115.2 733.867 -115.2zM221.867 806.4C141.141 806.4 106.667 771.925 106.667 691.2V76.8C106.667 -3.96 141.141 -38.4000000000001 221.867 -38.4000000000001H733.867C814.627 -38.4000000000001 849.067 -3.96 849.067 76.8V691.2C849.067 771.925 814.627 806.4 733.867 806.4H221.867zM721.067 384C721.067 405.197 703.864 422.4 682.667 422.4H273.067C251.87 422.4 234.667 405.197 234.667 384S251.87 345.6 273.067 345.6H682.667C703.864 345.6 721.067 362.803 721.067 384zM567.467 179.2000000000001C567.467 200.3970000000001 550.264 217.6 529.067 217.6H273.067C251.87 217.6 234.667 200.3970000000001 234.667 179.2000000000001S251.87 140.8000000000001 273.067 140.8000000000001H529.067C550.264 140.8000000000001 567.467 158.0030000000001 567.467 179.2000000000001zM721.067 588.8000000000001C721.067 609.9970000000001 703.864 627.2 682.667 627.2H273.067C251.87 627.2 234.667 609.9970000000001 234.667 588.8000000000001S251.87 550.4000000000001 273.067 550.4000000000001H682.667C703.864 550.4000000000001 721.067 567.6030000000001 721.067 588.8000000000001z" />
    <glyph glyph-name="note-text-1"
      unicode="&#x6E;&#x6F;&#x74;&#x65;&#x5F;&#x74;&#x65;&#x78;&#x74;"
      horiz-adv-x="955.7333" d="M733.867 -115.2H221.867C98.065 -115.2 29.867 -47.0020000000001 29.867 76.8V691.2C29.867 815.002 98.065 883.2 221.867 883.2H733.867C857.6669999999999 883.2 925.867 815.002 925.867 691.2V76.8C925.867 -47.0020000000001 857.6669999999999 -115.2 733.867 -115.2zM221.867 806.4C141.141 806.4 106.667 771.925 106.667 691.2V76.8C106.667 -3.96 141.141 -38.4000000000001 221.867 -38.4000000000001H733.867C814.627 -38.4000000000001 849.067 -3.96 849.067 76.8V691.2C849.067 771.925 814.627 806.4 733.867 806.4H221.867zM721.067 384C721.067 405.197 703.864 422.4 682.667 422.4H273.067C251.87 422.4 234.667 405.197 234.667 384S251.87 345.6 273.067 345.6H682.667C703.864 345.6 721.067 362.803 721.067 384zM567.467 179.2000000000001C567.467 200.3970000000001 550.264 217.6 529.067 217.6H273.067C251.87 217.6 234.667 200.3970000000001 234.667 179.2000000000001S251.87 140.8000000000001 273.067 140.8000000000001H529.067C550.264 140.8000000000001 567.467 158.0030000000001 567.467 179.2000000000001zM721.067 588.8000000000001C721.067 609.9970000000001 703.864 627.2 682.667 627.2H273.067C251.87 627.2 234.667 609.9970000000001 234.667 588.8000000000001S251.87 550.4000000000001 273.067 550.4000000000001H682.667C703.864 550.4000000000001 721.067 567.6030000000001 721.067 588.8000000000001z" />
    <glyph glyph-name="twitter"
      unicode="&#xE016;"
      horiz-adv-x="1024" d="M920.013 486.554C920.678 477.594 920.678 468.684 920.678 459.776C920.678 187.136 713.165 -127.027 333.9260000000001 -127.027C217.0880000000001 -127.027 108.544 -93.1840000000001 17.203 -34.407C33.793 -36.301 49.766 -36.967 67.021 -36.967C163.4310000000001 -36.967 252.161 -4.403 323.0730000000001 51.149C232.398 53.042 156.417 112.434 130.203 194.149C142.951 192.255 155.751 190.975 169.166 190.975C187.649 190.975 206.236 193.535 223.489 197.989C128.923 217.139 58.113 300.1330000000001 58.113 400.3830000000001V402.9430000000001C85.607 387.6330000000001 117.505 378.0600000000001 151.297 376.7800000000001C95.745 413.7470000000001 59.342 476.9800000000001 59.342 548.5060000000001C59.342 586.8030000000001 69.532 621.9260000000002 87.4 652.5440000000001C188.93 527.4620000000001 341.557 445.6960000000001 512.668 436.7360000000001C509.493 452.0960000000001 507.548 468.0190000000001 507.548 483.9940000000001C507.548 597.6580000000001 599.503 690.2270000000001 713.781 690.2270000000001C773.1709999999999 690.2270000000001 826.779 665.344 864.461 625.1010000000001C911.054 634.0610000000001 955.701 651.3160000000001 995.329 674.9190000000001C980.019 627.047 947.406 586.8040000000001 904.654 561.2550000000001C946.177 565.7610000000001 986.42 577.2300000000001 1023.387 593.2050000000002C995.329 552.3470000000001 960.257 515.9430000000001 920.0139999999998 486.5550000000001z" />
    <glyph glyph-name="twitter-1"
      unicode="&#x74;&#x77;&#x69;&#x74;&#x74;&#x65;&#x72;"
      horiz-adv-x="1024" d="M920.013 486.554C920.678 477.594 920.678 468.684 920.678 459.776C920.678 187.136 713.165 -127.027 333.9260000000001 -127.027C217.0880000000001 -127.027 108.544 -93.1840000000001 17.203 -34.407C33.793 -36.301 49.766 -36.967 67.021 -36.967C163.4310000000001 -36.967 252.161 -4.403 323.0730000000001 51.149C232.398 53.042 156.417 112.434 130.203 194.149C142.951 192.255 155.751 190.975 169.166 190.975C187.649 190.975 206.236 193.535 223.489 197.989C128.923 217.139 58.113 300.1330000000001 58.113 400.3830000000001V402.9430000000001C85.607 387.6330000000001 117.505 378.0600000000001 151.297 376.7800000000001C95.745 413.7470000000001 59.342 476.9800000000001 59.342 548.5060000000001C59.342 586.8030000000001 69.532 621.9260000000002 87.4 652.5440000000001C188.93 527.4620000000001 341.557 445.6960000000001 512.668 436.7360000000001C509.493 452.0960000000001 507.548 468.0190000000001 507.548 483.9940000000001C507.548 597.6580000000001 599.503 690.2270000000001 713.781 690.2270000000001C773.1709999999999 690.2270000000001 826.779 665.344 864.461 625.1010000000001C911.054 634.0610000000001 955.701 651.3160000000001 995.329 674.9190000000001C980.019 627.047 947.406 586.8040000000001 904.654 561.2550000000001C946.177 565.7610000000001 986.42 577.2300000000001 1023.387 593.2050000000002C995.329 552.3470000000001 960.257 515.9430000000001 920.0139999999998 486.5550000000001z" />
    <glyph glyph-name="instagram"
      unicode="&#xE017;"
      horiz-adv-x="1024" d="M745.688 842.105C879.078 842.105 988.214 733.0219999999999 988.214 599.579V114.5250000000001C988.214 -18.8649999999999 879.077 -128.001 745.6879999999999 -128.001H260.635C127.245 -128 18.11 -18.8630000000001 18.11 114.526V599.5799999999999C18.11 733.0219999999999 127.246 842.105 260.635 842.105zM503.16 154.947C614.7230000000001 154.947 705.2660000000001 245.49 705.2660000000001 357.053C705.2660000000001 468.669 614.7230000000001 559.158 503.1610000000001 559.158C391.5460000000001 559.158 301.057 468.668 301.057 357.053C301.057 245.49 391.5470000000001 154.947 503.162 154.947zM705.267 619.79C705.267 586.32 732.3770000000001 559.158 765.899 559.158C799.422 559.158 826.531 586.321 826.531 619.788C826.531 653.258 799.4209999999999 680.421 765.899 680.421S705.267 653.259 705.267 619.7909999999999z" />
    <glyph glyph-name="instagram-1"
      unicode="&#x69;&#x6E;&#x73;&#x74;&#x61;&#x67;&#x72;&#x61;&#x6D;"
      horiz-adv-x="1024" d="M745.688 842.105C879.078 842.105 988.214 733.0219999999999 988.214 599.579V114.5250000000001C988.214 -18.8649999999999 879.077 -128.001 745.6879999999999 -128.001H260.635C127.245 -128 18.11 -18.8630000000001 18.11 114.526V599.5799999999999C18.11 733.0219999999999 127.246 842.105 260.635 842.105zM503.16 154.947C614.7230000000001 154.947 705.2660000000001 245.49 705.2660000000001 357.053C705.2660000000001 468.669 614.7230000000001 559.158 503.1610000000001 559.158C391.5460000000001 559.158 301.057 468.668 301.057 357.053C301.057 245.49 391.5470000000001 154.947 503.162 154.947zM705.267 619.79C705.267 586.32 732.3770000000001 559.158 765.899 559.158C799.422 559.158 826.531 586.321 826.531 619.788C826.531 653.258 799.4209999999999 680.421 765.899 680.421S705.267 653.259 705.267 619.7909999999999z" />
    <glyph glyph-name="facebook"
      unicode="&#xE018;"
      horiz-adv-x="568.8889" d="M345.03 -127.943V338.317H502.33L525.71 520.875H345.03V637.155C345.03 689.835 359.708 725.902 435.314 725.902H531.1139999999999V888.662C484.525 893.667 437.647 896.056 390.77 895.885C251.733 895.885 156.274 811.0070000000001 156.274 655.188V521.2139999999999H0V338.66H156.615V-127.943H345.03z" />
    <glyph glyph-name="facebook-1"
      unicode="&#x66;&#x61;&#x63;&#x65;&#x62;&#x6F;&#x6F;&#x6B;"
      horiz-adv-x="568.8889" d="M345.03 -127.943V338.317H502.33L525.71 520.875H345.03V637.155C345.03 689.835 359.708 725.902 435.314 725.902H531.1139999999999V888.662C484.525 893.667 437.647 896.056 390.77 895.885C251.733 895.885 156.274 811.0070000000001 156.274 655.188V521.2139999999999H0V338.66H156.615V-127.943H345.03z" />
    <glyph glyph-name="badge-check"
      unicode="&#xE019;"
      horiz-adv-x="1024" d="M512 -101.205C464.213 -101.205 416.427 -83.029 380.075 -46.677L358.145 -24.7470000000001C351.147 -17.749 341.589 -13.739 331.775 -13.739H300.8C197.973 -13.739 114.26 69.889 114.26 172.8009999999999V203.6909999999999C114.26 213.5049999999999 110.25 223.1479999999999 103.34 230.0609999999999L81.408 252.0759999999999C8.618 324.7799999999999 8.618 443.1359999999999 81.408 515.9259999999999L103.338 537.856C110.251 544.8539999999999 114.261 554.4119999999999 114.261 564.31V595.2C114.261 698.112 197.974 781.74 300.8010000000001 781.74H331.7770000000001C341.5900000000001 781.74 351.2330000000001 785.75 358.1450000000001 792.747L380.0750000000001 814.677C452.78 887.381 571.222 887.381 643.9250000000001 814.677L665.9420000000001 792.747C672.8550000000001 785.749 682.4980000000002 781.739 692.3120000000001 781.739H723.2020000000001C826.0290000000001 781.739 909.742 698.111 909.742 595.1990000000001V564.309C909.742 554.4090000000001 913.752 544.8520000000001 920.749 537.855L942.679 515.925C1015.469 443.2200000000001 1015.469 324.778 942.679 252.0750000000001L920.749 230.058C913.751 223.145 909.741 213.502 909.741 203.688V172.798C909.741 69.886 826.028 -13.742 723.201 -13.742H692.311C682.4970000000001 -13.742 672.854 -17.752 665.941 -24.6619999999999L643.926 -46.679C607.573 -83.03 559.787 -101.205 512 -101.205zM300.8 707.157C239.104 707.157 188.928 656.897 188.928 595.2V564.3100000000001C188.928 534.3570000000001 177.238 506.2830000000001 156.075 485.1200000000001L134.145 463.1900000000001C112.981 442.0270000000001 101.375 413.9520000000001 101.375 384.0000000000001C101.375 354.048 112.981 326.0600000000001 134.145 304.8960000000001L156.075 282.8800000000001C177.237 261.7170000000001 188.928 233.6430000000002 188.928 203.6900000000001V172.8000000000001C188.928 111.104 239.104 60.9280000000001 300.8 60.9280000000001H331.69C361.216 60.9280000000001 390.06 48.9810000000001 410.88 28.0750000000002L432.81 6.1450000000002C475.136 -36.0949999999998 548.864 -36.0949999999998 591.104 6.1450000000002L613.12 28.0750000000002C633.94 48.9810000000001 662.784 60.9280000000001 692.31 60.9280000000001H723.1999999999999C784.896 60.9280000000001 835.0719999999999 111.1040000000002 835.0719999999999 172.8000000000001V203.6900000000001C835.0719999999999 233.6430000000001 846.762 261.7170000000001 867.9249999999998 282.8800000000001L889.8549999999998 304.8960000000001C911.0189999999998 326.0590000000001 922.6249999999998 354.0480000000001 922.6249999999998 384.0000000000001C922.6249999999998 413.9520000000001 911.0189999999998 442.0270000000001 889.8549999999998 463.1900000000001L867.9249999999998 485.1200000000001C846.7629999999998 506.2830000000001 835.0719999999999 534.3570000000001 835.0719999999999 564.3100000000001V595.2C835.0719999999999 656.98 784.8959999999998 707.1569999999999 723.1999999999999 707.1569999999999H692.31C662.784 707.1569999999999 633.9399999999999 719.019 613.1199999999999 739.925L591.1039999999999 761.855C548.8639999999999 804.095 475.1359999999999 804.095 432.8109999999999 761.855L410.8809999999999 739.925C390.0609999999999 719.019 361.1309999999999 707.1569999999999 331.6909999999999 707.1569999999999H300.8zM488.62 258.0470000000001L687.7 457.217C702.293 471.807 702.293 495.445 687.7 510.037C673.11 524.544 649.4720000000001 524.544 634.88 510.037L462.165 337.237L389.035 410.453C374.443 425.045 350.805 425.045 336.213 410.453C321.621 395.861 321.621 372.223 336.213 357.6329999999999L435.713 258.0479999999999C442.965 250.7949999999999 452.523 247.1249999999999 462.08 247.1249999999999C471.637 247.1249999999999 481.365 250.7949999999999 488.62 258.0479999999999z" />
    <glyph glyph-name="badge-check-1"
      unicode="&#x62;&#x61;&#x64;&#x67;&#x65;&#x5F;&#x63;&#x68;&#x65;&#x63;&#x6B;"
      horiz-adv-x="1024" d="M512 -101.205C464.213 -101.205 416.427 -83.029 380.075 -46.677L358.145 -24.7470000000001C351.147 -17.749 341.589 -13.739 331.775 -13.739H300.8C197.973 -13.739 114.26 69.889 114.26 172.8009999999999V203.6909999999999C114.26 213.5049999999999 110.25 223.1479999999999 103.34 230.0609999999999L81.408 252.0759999999999C8.618 324.7799999999999 8.618 443.1359999999999 81.408 515.9259999999999L103.338 537.856C110.251 544.8539999999999 114.261 554.4119999999999 114.261 564.31V595.2C114.261 698.112 197.974 781.74 300.8010000000001 781.74H331.7770000000001C341.5900000000001 781.74 351.2330000000001 785.75 358.1450000000001 792.747L380.0750000000001 814.677C452.78 887.381 571.222 887.381 643.9250000000001 814.677L665.9420000000001 792.747C672.8550000000001 785.749 682.4980000000002 781.739 692.3120000000001 781.739H723.2020000000001C826.0290000000001 781.739 909.742 698.111 909.742 595.1990000000001V564.309C909.742 554.4090000000001 913.752 544.8520000000001 920.749 537.855L942.679 515.925C1015.469 443.2200000000001 1015.469 324.778 942.679 252.0750000000001L920.749 230.058C913.751 223.145 909.741 213.502 909.741 203.688V172.798C909.741 69.886 826.028 -13.742 723.201 -13.742H692.311C682.4970000000001 -13.742 672.854 -17.752 665.941 -24.6619999999999L643.926 -46.679C607.573 -83.03 559.787 -101.205 512 -101.205zM300.8 707.157C239.104 707.157 188.928 656.897 188.928 595.2V564.3100000000001C188.928 534.3570000000001 177.238 506.2830000000001 156.075 485.1200000000001L134.145 463.1900000000001C112.981 442.0270000000001 101.375 413.9520000000001 101.375 384.0000000000001C101.375 354.048 112.981 326.0600000000001 134.145 304.8960000000001L156.075 282.8800000000001C177.237 261.7170000000001 188.928 233.6430000000002 188.928 203.6900000000001V172.8000000000001C188.928 111.104 239.104 60.9280000000001 300.8 60.9280000000001H331.69C361.216 60.9280000000001 390.06 48.9810000000001 410.88 28.0750000000002L432.81 6.1450000000002C475.136 -36.0949999999998 548.864 -36.0949999999998 591.104 6.1450000000002L613.12 28.0750000000002C633.94 48.9810000000001 662.784 60.9280000000001 692.31 60.9280000000001H723.1999999999999C784.896 60.9280000000001 835.0719999999999 111.1040000000002 835.0719999999999 172.8000000000001V203.6900000000001C835.0719999999999 233.6430000000001 846.762 261.7170000000001 867.9249999999998 282.8800000000001L889.8549999999998 304.8960000000001C911.0189999999998 326.0590000000001 922.6249999999998 354.0480000000001 922.6249999999998 384.0000000000001C922.6249999999998 413.9520000000001 911.0189999999998 442.0270000000001 889.8549999999998 463.1900000000001L867.9249999999998 485.1200000000001C846.7629999999998 506.2830000000001 835.0719999999999 534.3570000000001 835.0719999999999 564.3100000000001V595.2C835.0719999999999 656.98 784.8959999999998 707.1569999999999 723.1999999999999 707.1569999999999H692.31C662.784 707.1569999999999 633.9399999999999 719.019 613.1199999999999 739.925L591.1039999999999 761.855C548.8639999999999 804.095 475.1359999999999 804.095 432.8109999999999 761.855L410.8809999999999 739.925C390.0609999999999 719.019 361.1309999999999 707.1569999999999 331.6909999999999 707.1569999999999H300.8zM488.62 258.0470000000001L687.7 457.217C702.293 471.807 702.293 495.445 687.7 510.037C673.11 524.544 649.4720000000001 524.544 634.88 510.037L462.165 337.237L389.035 410.453C374.443 425.045 350.805 425.045 336.213 410.453C321.621 395.861 321.621 372.223 336.213 357.6329999999999L435.713 258.0479999999999C442.965 250.7949999999999 452.523 247.1249999999999 462.08 247.1249999999999C471.637 247.1249999999999 481.365 250.7949999999999 488.62 258.0479999999999z" />
    </font>
</defs>
</svg>
